M48
; DRILL file {KiCad (6.0.0)} date Fri Sep  9 09:06:09 2022
; FORMAT={-:-/ absolute / inch / decimal}
; #@! TF.CreationDate,2022-09-09T09:06:09-04:00
; #@! TF.GenerationSoftware,Kicad,Pcbnew,(6.0.0)
; #@! TF.FileFunction,Plated,1,2,PTH
FMAT,2
INCH
; #@! TA.AperFunction,Plated,PTH,ViaDrill
T1C0.0079
; #@! TA.AperFunction,Plated,PTH,ComponentDrill
T2C0.0220
; #@! TA.AperFunction,Plated,PTH,ComponentDrill
T3C0.0394
%
G90
G05
T1
X4.2126Y-3.3858
X4.2126Y-3.7598
X4.7047Y-3.3661
X4.8031Y-3.7795
X4.9213Y-3.2677
X4.9213Y-3.9764
X4.9606Y-2.874
X4.9606Y-4.5276
X5.1201Y-3.0413
X5.1378Y-3.0197
X5.1575Y-3.0413
X5.1752Y-3.0197
X5.1949Y-3.0413
X5.2126Y-3.0197
X5.2303Y-3.0413
X5.2482Y-3.0197
X5.2659Y-3.0394
X5.2837Y-3.0197
X5.3014Y-3.0394
X5.3191Y-3.0197
X5.3388Y-3.0394
X5.3543Y-4.4488
X5.3565Y-3.0197
X5.3742Y-3.0394
X5.3937Y-2.874
X5.3937Y-3.189
X5.3937Y-3.5433
X5.3937Y-3.6614
X5.3937Y-3.7402
X5.3937Y-4.3701
X5.3937Y-5.0394
X5.3939Y-3.0157
X5.4114Y-3.0394
X5.4291Y-3.0157
X5.4449Y-4.437
X5.4488Y-3.0413
X5.4626Y-3.0157
X5.4823Y-3.0394
X5.502Y-3.0157
X5.5217Y-3.0413
X5.5354Y-3.0157
X5.5551Y-3.0394
X5.5748Y-3.0157
X5.5925Y-3.0394
X5.6102Y-3.0157
X5.628Y-3.0394
X5.6476Y-3.0157
X5.6673Y-3.0394
X5.687Y-3.0157
X5.8661Y-3.8976
X5.8661Y-4.5276
X5.9055Y-3.3858
T2
X5.3187Y-3.8695
X5.3187Y-3.9195
X5.3187Y-3.9695
X5.3187Y-4.0195
X5.3187Y-4.0695
X5.3187Y-4.1195
X5.3187Y-4.1695
X5.3187Y-4.2195
X5.3187Y-4.2695
X5.3187Y-4.3195
X5.3187Y-4.5388
X5.3187Y-4.5888
X5.3187Y-4.6388
X5.3187Y-4.6888
X5.3187Y-4.7388
X5.3187Y-4.7888
X5.3187Y-4.8388
X5.3187Y-4.8888
X5.3187Y-4.9388
X5.3187Y-4.9888
X5.3687Y-3.8695
X5.3687Y-3.9195
X5.3687Y-3.9695
X5.3687Y-4.0195
X5.3687Y-4.0695
X5.3687Y-4.1195
X5.3687Y-4.1695
X5.3687Y-4.2195
X5.3687Y-4.2695
X5.3687Y-4.3195
X5.3687Y-4.5388
X5.3687Y-4.5888
X5.3687Y-4.6388
X5.3687Y-4.6888
X5.3687Y-4.7388
X5.3687Y-4.7888
X5.3687Y-4.8388
X5.3687Y-4.8888
X5.3687Y-4.9388
X5.3687Y-4.9888
X5.4187Y-3.8695
X5.4187Y-3.9195
X5.4187Y-3.9695
X5.4187Y-4.0195
X5.4187Y-4.0695
X5.4187Y-4.1195
X5.4187Y-4.1695
X5.4187Y-4.2195
X5.4187Y-4.2695
X5.4187Y-4.3195
X5.4187Y-4.5388
X5.4187Y-4.5888
X5.4187Y-4.6388
X5.4187Y-4.6888
X5.4187Y-4.7388
X5.4187Y-4.7888
X5.4187Y-4.8388
X5.4187Y-4.8888
X5.4187Y-4.9388
X5.4187Y-4.9888
X5.4687Y-3.8695
X5.4687Y-3.9195
X5.4687Y-3.9695
X5.4687Y-4.0195
X5.4687Y-4.0695
X5.4687Y-4.1195
X5.4687Y-4.1695
X5.4687Y-4.2195
X5.4687Y-4.2695
X5.4687Y-4.3195
X5.4687Y-4.5388
X5.4687Y-4.5888
X5.4687Y-4.6388
X5.4687Y-4.6888
X5.4687Y-4.7388
X5.4687Y-4.7888
X5.4687Y-4.8388
X5.4687Y-4.8888
X5.4687Y-4.9388
X5.4687Y-4.9888
T3
X5.7874Y-2.9528
X5.8874Y-2.9528
T0
M30
