%TF.GenerationSoftware,KiCad,Pcbnew,(6.0.0)*%
%TF.CreationDate,2022-09-09T09:06:15-04:00*%
%TF.ProjectId,eib-neuronexus-a64,6569622d-6e65-4757-926f-6e657875732d,A*%
%TF.SameCoordinates,Original*%
%TF.FileFunction,Soldermask,Top*%
%TF.FilePolarity,Negative*%
%FSLAX46Y46*%
G04 Gerber Fmt 4.6, Leading zero omitted, Abs format (unit mm)*
G04 Created by KiCad (PCBNEW (6.0.0)) date 2022-09-09 09:06:15*
%MOMM*%
%LPD*%
G01*
G04 APERTURE LIST*
G04 Aperture macros list*
%AMRoundRect*
0 Rectangle with rounded corners*
0 $1 Rounding radius*
0 $2 $3 $4 $5 $6 $7 $8 $9 X,Y pos of 4 corners*
0 Add a 4 corners polygon primitive as box body*
4,1,4,$2,$3,$4,$5,$6,$7,$8,$9,$2,$3,0*
0 Add four circle primitives for the rounded corners*
1,1,$1+$1,$2,$3*
1,1,$1+$1,$4,$5*
1,1,$1+$1,$6,$7*
1,1,$1+$1,$8,$9*
0 Add four rect primitives between the rounded corners*
20,1,$1+$1,$2,$3,$4,$5,0*
20,1,$1+$1,$4,$5,$6,$7,0*
20,1,$1+$1,$6,$7,$8,$9,0*
20,1,$1+$1,$8,$9,$2,$3,0*%
G04 Aperture macros list end*
%ADD10C,0.180000*%
%ADD11C,0.275000*%
%ADD12R,1.700000X1.700000*%
%ADD13O,1.700000X1.700000*%
%ADD14R,0.910000X0.910000*%
%ADD15C,0.910000*%
%ADD16RoundRect,0.010000X0.090000X0.340000X-0.090000X0.340000X-0.090000X-0.340000X0.090000X-0.340000X0*%
G04 APERTURE END LIST*
D10*
%TO.C,*%
X109385000Y-91918750D02*
X109265000Y-91918750D01*
X114435000Y-92828750D02*
X114395000Y-92808750D01*
X107645000Y-92798750D02*
X107765000Y-92798750D01*
X112385000Y-92618750D02*
X112385000Y-92098750D01*
X114315000Y-92168750D02*
X114355000Y-92228750D01*
X107465000Y-92098750D02*
X107465000Y-92618750D01*
X108275000Y-91918750D02*
X108275000Y-92798750D01*
X111285000Y-92798750D02*
X111465000Y-92798750D01*
D11*
X109865000Y-88758750D02*
X111665000Y-91258750D01*
D10*
X114305000Y-92118750D02*
X114315000Y-92168750D01*
X108275000Y-92808750D02*
X108275000Y-93328750D01*
D11*
X111065000Y-88058750D02*
X111965000Y-90258750D01*
D10*
X114605000Y-91878750D02*
X114485000Y-91878750D01*
X111905000Y-92808750D02*
X111905000Y-93328750D01*
D11*
X111965000Y-90258750D02*
X109865000Y-88758750D01*
D10*
X113665000Y-93198750D02*
X113595000Y-93298750D01*
X109145000Y-92358750D02*
X109565000Y-92358750D01*
X111165000Y-92358750D02*
X111585000Y-92358750D01*
X108575000Y-91918750D02*
X108275000Y-91918750D01*
X109565000Y-92118750D02*
X109565000Y-92358750D01*
X114395000Y-92808750D02*
X114345000Y-92778750D01*
D11*
X108565000Y-89958750D02*
X111965000Y-90258750D01*
D10*
X112205000Y-91918750D02*
X111905000Y-91918750D01*
X114645000Y-92448750D02*
X114485000Y-92328750D01*
X114345000Y-92778750D02*
X114325000Y-92748750D01*
X114355000Y-92228750D02*
X114515000Y-92348750D01*
X111905000Y-92798750D02*
X112205000Y-92798750D01*
X109905000Y-91918750D02*
X109905000Y-92798750D01*
D11*
X111665000Y-91258750D02*
X108565000Y-89958750D01*
D10*
X112745000Y-92788750D02*
X112745000Y-91368750D01*
X111905000Y-91918750D02*
X111905000Y-92798750D01*
X113505000Y-93318750D02*
X113455000Y-93318750D01*
X108755000Y-92618750D02*
X108755000Y-92098750D01*
X110385000Y-92798750D02*
X110385000Y-92098750D01*
X113595000Y-93298750D02*
X113505000Y-93318750D01*
X109265000Y-92798750D02*
X109445000Y-92798750D01*
X110205000Y-91918750D02*
X109905000Y-91918750D01*
X114735000Y-92538750D02*
X114645000Y-92448750D01*
X114445000Y-92828750D02*
X114565000Y-92828750D01*
X113045000Y-91918750D02*
X112815000Y-91918750D01*
D11*
X108565000Y-89958750D02*
X109865000Y-88758750D01*
D10*
X113235000Y-92798750D02*
X113225000Y-92098750D01*
D11*
X111665000Y-91258750D02*
X111965000Y-90258750D01*
D10*
X108275000Y-92798750D02*
X108575000Y-92798750D01*
X107765000Y-91918750D02*
X107645000Y-91918750D01*
X114325000Y-92748750D02*
X114325000Y-92728750D01*
X114745000Y-92588750D02*
X114735000Y-92538750D01*
X114095000Y-91828750D02*
X113675000Y-93178750D01*
X109085000Y-92098750D02*
X109085000Y-92618750D01*
X113455000Y-91828750D02*
X113785000Y-92788750D01*
X111105000Y-92098750D02*
X111105000Y-92618750D01*
X107945000Y-92618750D02*
X107945000Y-92098750D01*
X111405000Y-91918750D02*
X111285000Y-91918750D01*
X114745000Y-92638750D02*
X114745000Y-92588750D01*
X114705000Y-91928750D02*
X114725000Y-91958750D01*
X114725000Y-91958750D02*
X114725000Y-91978750D01*
X111585000Y-92118750D02*
X111585000Y-92358750D01*
X114615000Y-91878750D02*
X114655000Y-91898750D01*
X114655000Y-91898750D02*
X114705000Y-91928750D01*
X114305000Y-92068750D02*
X114305000Y-92118750D01*
D11*
X111665000Y-91258750D02*
X111065000Y-88058750D01*
D10*
X108755000Y-92098750D02*
G75*
G03*
X108575000Y-91918750I-180001J-1D01*
G01*
X109085000Y-92618750D02*
G75*
G03*
X109265000Y-92798750I180001J1D01*
G01*
X107645000Y-91918750D02*
G75*
G03*
X107465000Y-92098750I1J-180001D01*
G01*
X109565000Y-92098750D02*
G75*
G03*
X109385000Y-91918750I-180001J-1D01*
G01*
X111465000Y-92798750D02*
G75*
G03*
X111535000Y-92728750I-2J70002D01*
G01*
X110385000Y-92098750D02*
G75*
G03*
X110205000Y-91918750I-180001J-1D01*
G01*
X107945000Y-92098750D02*
G75*
G03*
X107765000Y-91918750I-180001J-1D01*
G01*
X111585000Y-92098750D02*
G75*
G03*
X111405000Y-91918750I-180001J-1D01*
G01*
X111105000Y-92618750D02*
G75*
G03*
X111285000Y-92798750I180001J1D01*
G01*
X114565000Y-92828750D02*
G75*
G03*
X114745000Y-92648750I-1J180001D01*
G01*
X112385000Y-92098750D02*
G75*
G03*
X112205000Y-91918750I-180001J-1D01*
G01*
X108575000Y-92798750D02*
G75*
G03*
X108755000Y-92618750I-1J180001D01*
G01*
X107765000Y-92798750D02*
G75*
G03*
X107945000Y-92618750I-1J180001D01*
G01*
X111285000Y-91918750D02*
G75*
G03*
X111105000Y-92098750I1J-180001D01*
G01*
X114485000Y-91878750D02*
G75*
G03*
X114305000Y-92058750I1J-180001D01*
G01*
X107465000Y-92618750D02*
G75*
G03*
X107645000Y-92798750I180001J1D01*
G01*
X113225000Y-92098750D02*
G75*
G03*
X113045000Y-91918750I-180001J-1D01*
G01*
X109445000Y-92798750D02*
G75*
G03*
X109515000Y-92728750I-2J70002D01*
G01*
X112205000Y-92798750D02*
G75*
G03*
X112385000Y-92618750I-1J180001D01*
G01*
X109265000Y-91918750D02*
G75*
G03*
X109085000Y-92098750I1J-180001D01*
G01*
%TO.C,J3*%
G36*
X135100000Y-79810000D02*
G01*
X134900000Y-79810000D01*
X134900000Y-79110000D01*
X135100000Y-79110000D01*
X135100000Y-79810000D01*
G37*
G36*
X132900000Y-82190000D02*
G01*
X133100000Y-82190000D01*
X133100000Y-82890000D01*
X132900000Y-82890000D01*
X132900000Y-82190000D01*
G37*
G36*
X135700000Y-82190000D02*
G01*
X135900000Y-82190000D01*
X135900000Y-82890000D01*
X135700000Y-82890000D01*
X135700000Y-82190000D01*
G37*
G36*
X131100000Y-79810000D02*
G01*
X130900000Y-79810000D01*
X130900000Y-79110000D01*
X131100000Y-79110000D01*
X131100000Y-79810000D01*
G37*
G36*
X139900000Y-79810000D02*
G01*
X139700000Y-79810000D01*
X139700000Y-79110000D01*
X139900000Y-79110000D01*
X139900000Y-79810000D01*
G37*
G36*
X143900000Y-79810000D02*
G01*
X143700000Y-79810000D01*
X143700000Y-79110000D01*
X143900000Y-79110000D01*
X143900000Y-79810000D01*
G37*
G36*
X134700000Y-79810000D02*
G01*
X134500000Y-79810000D01*
X134500000Y-79110000D01*
X134700000Y-79110000D01*
X134700000Y-79810000D01*
G37*
G36*
X137500000Y-79810000D02*
G01*
X137300000Y-79810000D01*
X137300000Y-79110000D01*
X137500000Y-79110000D01*
X137500000Y-79810000D01*
G37*
G36*
X138500000Y-82190000D02*
G01*
X138700000Y-82190000D01*
X138700000Y-82890000D01*
X138500000Y-82890000D01*
X138500000Y-82190000D01*
G37*
G36*
X140100000Y-82190000D02*
G01*
X140300000Y-82190000D01*
X140300000Y-82890000D01*
X140100000Y-82890000D01*
X140100000Y-82190000D01*
G37*
G36*
X130100000Y-82190000D02*
G01*
X130300000Y-82190000D01*
X130300000Y-82890000D01*
X130100000Y-82890000D01*
X130100000Y-82190000D01*
G37*
G36*
X143300000Y-82190000D02*
G01*
X143500000Y-82190000D01*
X143500000Y-82890000D01*
X143300000Y-82890000D01*
X143300000Y-82190000D01*
G37*
G36*
X133500000Y-79810000D02*
G01*
X133300000Y-79810000D01*
X133300000Y-79110000D01*
X133500000Y-79110000D01*
X133500000Y-79810000D01*
G37*
G36*
X133100000Y-79810000D02*
G01*
X132900000Y-79810000D01*
X132900000Y-79110000D01*
X133100000Y-79110000D01*
X133100000Y-79810000D01*
G37*
G36*
X141500000Y-79810000D02*
G01*
X141300000Y-79810000D01*
X141300000Y-79110000D01*
X141500000Y-79110000D01*
X141500000Y-79810000D01*
G37*
G36*
X141700000Y-82190000D02*
G01*
X141900000Y-82190000D01*
X141900000Y-82890000D01*
X141700000Y-82890000D01*
X141700000Y-82190000D01*
G37*
G36*
X130700000Y-79810000D02*
G01*
X130500000Y-79810000D01*
X130500000Y-79110000D01*
X130700000Y-79110000D01*
X130700000Y-79810000D01*
G37*
G36*
X130500000Y-82190000D02*
G01*
X130700000Y-82190000D01*
X130700000Y-82890000D01*
X130500000Y-82890000D01*
X130500000Y-82190000D01*
G37*
G36*
X135300000Y-82190000D02*
G01*
X135500000Y-82190000D01*
X135500000Y-82890000D01*
X135300000Y-82890000D01*
X135300000Y-82190000D01*
G37*
G36*
X139500000Y-79810000D02*
G01*
X139300000Y-79810000D01*
X139300000Y-79110000D01*
X139500000Y-79110000D01*
X139500000Y-79810000D01*
G37*
G36*
X141900000Y-79810000D02*
G01*
X141700000Y-79810000D01*
X141700000Y-79110000D01*
X141900000Y-79110000D01*
X141900000Y-79810000D01*
G37*
G36*
X142700000Y-79810000D02*
G01*
X142500000Y-79810000D01*
X142500000Y-79110000D01*
X142700000Y-79110000D01*
X142700000Y-79810000D01*
G37*
G36*
X140300000Y-79810000D02*
G01*
X140100000Y-79810000D01*
X140100000Y-79110000D01*
X140300000Y-79110000D01*
X140300000Y-79810000D01*
G37*
G36*
X142300000Y-79810000D02*
G01*
X142100000Y-79810000D01*
X142100000Y-79110000D01*
X142300000Y-79110000D01*
X142300000Y-79810000D01*
G37*
G36*
X142900000Y-82190000D02*
G01*
X143100000Y-82190000D01*
X143100000Y-82890000D01*
X142900000Y-82890000D01*
X142900000Y-82190000D01*
G37*
G36*
X133300000Y-82190000D02*
G01*
X133500000Y-82190000D01*
X133500000Y-82890000D01*
X133300000Y-82890000D01*
X133300000Y-82190000D01*
G37*
G36*
X132100000Y-82190000D02*
G01*
X132300000Y-82190000D01*
X132300000Y-82890000D01*
X132100000Y-82890000D01*
X132100000Y-82190000D01*
G37*
G36*
X133900000Y-79810000D02*
G01*
X133700000Y-79810000D01*
X133700000Y-79110000D01*
X133900000Y-79110000D01*
X133900000Y-79810000D01*
G37*
G36*
X143500000Y-79810000D02*
G01*
X143300000Y-79810000D01*
X143300000Y-79110000D01*
X143500000Y-79110000D01*
X143500000Y-79810000D01*
G37*
G36*
X137300000Y-82190000D02*
G01*
X137500000Y-82190000D01*
X137500000Y-82890000D01*
X137300000Y-82890000D01*
X137300000Y-82190000D01*
G37*
G36*
X139700000Y-82190000D02*
G01*
X139900000Y-82190000D01*
X139900000Y-82890000D01*
X139700000Y-82890000D01*
X139700000Y-82190000D01*
G37*
G36*
X134500000Y-82190000D02*
G01*
X134700000Y-82190000D01*
X134700000Y-82890000D01*
X134500000Y-82890000D01*
X134500000Y-82190000D01*
G37*
G36*
X131700000Y-82190000D02*
G01*
X131900000Y-82190000D01*
X131900000Y-82890000D01*
X131700000Y-82890000D01*
X131700000Y-82190000D01*
G37*
G36*
X138700000Y-79810000D02*
G01*
X138500000Y-79810000D01*
X138500000Y-79110000D01*
X138700000Y-79110000D01*
X138700000Y-79810000D01*
G37*
G36*
X136300000Y-79810000D02*
G01*
X136100000Y-79810000D01*
X136100000Y-79110000D01*
X136300000Y-79110000D01*
X136300000Y-79810000D01*
G37*
G36*
X134300000Y-79810000D02*
G01*
X134100000Y-79810000D01*
X134100000Y-79110000D01*
X134300000Y-79110000D01*
X134300000Y-79810000D01*
G37*
G36*
X142500000Y-82190000D02*
G01*
X142700000Y-82190000D01*
X142700000Y-82890000D01*
X142500000Y-82890000D01*
X142500000Y-82190000D01*
G37*
G36*
X131900000Y-79810000D02*
G01*
X131700000Y-79810000D01*
X131700000Y-79110000D01*
X131900000Y-79110000D01*
X131900000Y-79810000D01*
G37*
G36*
X141300000Y-82190000D02*
G01*
X141500000Y-82190000D01*
X141500000Y-82890000D01*
X141300000Y-82890000D01*
X141300000Y-82190000D01*
G37*
G36*
X130300000Y-79810000D02*
G01*
X130100000Y-79810000D01*
X130100000Y-79110000D01*
X130300000Y-79110000D01*
X130300000Y-79810000D01*
G37*
G36*
X136900000Y-82190000D02*
G01*
X137100000Y-82190000D01*
X137100000Y-82890000D01*
X136900000Y-82890000D01*
X136900000Y-82190000D01*
G37*
G36*
X138300000Y-79810000D02*
G01*
X138100000Y-79810000D01*
X138100000Y-79110000D01*
X138300000Y-79110000D01*
X138300000Y-79810000D01*
G37*
G36*
X140700000Y-79810000D02*
G01*
X140500000Y-79810000D01*
X140500000Y-79110000D01*
X140700000Y-79110000D01*
X140700000Y-79810000D01*
G37*
G36*
X140500000Y-82190000D02*
G01*
X140700000Y-82190000D01*
X140700000Y-82890000D01*
X140500000Y-82890000D01*
X140500000Y-82190000D01*
G37*
G36*
X133700000Y-82190000D02*
G01*
X133900000Y-82190000D01*
X133900000Y-82890000D01*
X133700000Y-82890000D01*
X133700000Y-82190000D01*
G37*
G36*
X134900000Y-82190000D02*
G01*
X135100000Y-82190000D01*
X135100000Y-82890000D01*
X134900000Y-82890000D01*
X134900000Y-82190000D01*
G37*
G36*
X137900000Y-79810000D02*
G01*
X137700000Y-79810000D01*
X137700000Y-79110000D01*
X137900000Y-79110000D01*
X137900000Y-79810000D01*
G37*
G36*
X132300000Y-79810000D02*
G01*
X132100000Y-79810000D01*
X132100000Y-79110000D01*
X132300000Y-79110000D01*
X132300000Y-79810000D01*
G37*
G36*
X135900000Y-79810000D02*
G01*
X135700000Y-79810000D01*
X135700000Y-79110000D01*
X135900000Y-79110000D01*
X135900000Y-79810000D01*
G37*
G36*
X134100000Y-82190000D02*
G01*
X134300000Y-82190000D01*
X134300000Y-82890000D01*
X134100000Y-82890000D01*
X134100000Y-82190000D01*
G37*
G36*
X132500000Y-82190000D02*
G01*
X132700000Y-82190000D01*
X132700000Y-82890000D01*
X132500000Y-82890000D01*
X132500000Y-82190000D01*
G37*
G36*
X136500000Y-82190000D02*
G01*
X136700000Y-82190000D01*
X136700000Y-82890000D01*
X136500000Y-82890000D01*
X136500000Y-82190000D01*
G37*
G36*
X136700000Y-79810000D02*
G01*
X136500000Y-79810000D01*
X136500000Y-79110000D01*
X136700000Y-79110000D01*
X136700000Y-79810000D01*
G37*
G36*
X130900000Y-82190000D02*
G01*
X131100000Y-82190000D01*
X131100000Y-82890000D01*
X130900000Y-82890000D01*
X130900000Y-82190000D01*
G37*
G36*
X140900000Y-82190000D02*
G01*
X141100000Y-82190000D01*
X141100000Y-82890000D01*
X140900000Y-82890000D01*
X140900000Y-82190000D01*
G37*
G36*
X131300000Y-82190000D02*
G01*
X131500000Y-82190000D01*
X131500000Y-82890000D01*
X131300000Y-82890000D01*
X131300000Y-82190000D01*
G37*
G36*
X135500000Y-79810000D02*
G01*
X135300000Y-79810000D01*
X135300000Y-79110000D01*
X135500000Y-79110000D01*
X135500000Y-79810000D01*
G37*
G36*
X137700000Y-82190000D02*
G01*
X137900000Y-82190000D01*
X137900000Y-82890000D01*
X137700000Y-82890000D01*
X137700000Y-82190000D01*
G37*
G36*
X139300000Y-82190000D02*
G01*
X139500000Y-82190000D01*
X139500000Y-82890000D01*
X139300000Y-82890000D01*
X139300000Y-82190000D01*
G37*
G36*
X142100000Y-82190000D02*
G01*
X142300000Y-82190000D01*
X142300000Y-82890000D01*
X142100000Y-82890000D01*
X142100000Y-82190000D01*
G37*
G36*
X137100000Y-79810000D02*
G01*
X136900000Y-79810000D01*
X136900000Y-79110000D01*
X137100000Y-79110000D01*
X137100000Y-79810000D01*
G37*
G36*
X138100000Y-82190000D02*
G01*
X138300000Y-82190000D01*
X138300000Y-82890000D01*
X138100000Y-82890000D01*
X138100000Y-82190000D01*
G37*
G36*
X136100000Y-82190000D02*
G01*
X136300000Y-82190000D01*
X136300000Y-82890000D01*
X136100000Y-82890000D01*
X136100000Y-82190000D01*
G37*
G36*
X132700000Y-79810000D02*
G01*
X132500000Y-79810000D01*
X132500000Y-79110000D01*
X132700000Y-79110000D01*
X132700000Y-79810000D01*
G37*
G36*
X143100000Y-79810000D02*
G01*
X142900000Y-79810000D01*
X142900000Y-79110000D01*
X143100000Y-79110000D01*
X143100000Y-79810000D01*
G37*
G36*
X138900000Y-82190000D02*
G01*
X139100000Y-82190000D01*
X139100000Y-82890000D01*
X138900000Y-82890000D01*
X138900000Y-82190000D01*
G37*
G36*
X139100000Y-79810000D02*
G01*
X138900000Y-79810000D01*
X138900000Y-79110000D01*
X139100000Y-79110000D01*
X139100000Y-79810000D01*
G37*
G36*
X141100000Y-79810000D02*
G01*
X140900000Y-79810000D01*
X140900000Y-79110000D01*
X141100000Y-79110000D01*
X141100000Y-79810000D01*
G37*
G36*
X131500000Y-79810000D02*
G01*
X131300000Y-79810000D01*
X131300000Y-79110000D01*
X131500000Y-79110000D01*
X131500000Y-79810000D01*
G37*
%TD*%
D12*
%TO.C,J4*%
X147000000Y-75000000D03*
D13*
X149540000Y-75000000D03*
%TD*%
D14*
%TO.C,J2*%
X135095000Y-98285000D03*
D15*
X135095000Y-99555000D03*
X135095000Y-100825000D03*
X135095000Y-102095000D03*
X135095000Y-103365000D03*
X135095000Y-104635000D03*
X135095000Y-105905000D03*
X135095000Y-107175000D03*
X135095000Y-108445000D03*
X135095000Y-109715000D03*
X136365000Y-98285000D03*
X136365000Y-99555000D03*
X136365000Y-100825000D03*
X136365000Y-102095000D03*
X136365000Y-103365000D03*
X136365000Y-104635000D03*
X136365000Y-105905000D03*
X136365000Y-107175000D03*
X136365000Y-108445000D03*
X136365000Y-109715000D03*
X137635000Y-98285000D03*
X137635000Y-99555000D03*
X137635000Y-100825000D03*
X137635000Y-102095000D03*
X137635000Y-103365000D03*
X137635000Y-104635000D03*
X137635000Y-105905000D03*
X137635000Y-107175000D03*
X137635000Y-108445000D03*
X137635000Y-109715000D03*
X138905000Y-98285000D03*
X138905000Y-99555000D03*
X138905000Y-100825000D03*
X138905000Y-102095000D03*
X138905000Y-103365000D03*
X138905000Y-104635000D03*
X138905000Y-105905000D03*
X138905000Y-107175000D03*
X138905000Y-108445000D03*
X138905000Y-109715000D03*
%TD*%
D14*
%TO.C,J1*%
X135095000Y-115285000D03*
D15*
X135095000Y-116555000D03*
X135095000Y-117825000D03*
X135095000Y-119095000D03*
X135095000Y-120365000D03*
X135095000Y-121635000D03*
X135095000Y-122905000D03*
X135095000Y-124175000D03*
X135095000Y-125445000D03*
X135095000Y-126715000D03*
X136365000Y-115285000D03*
X136365000Y-116555000D03*
X136365000Y-117825000D03*
X136365000Y-119095000D03*
X136365000Y-120365000D03*
X136365000Y-121635000D03*
X136365000Y-122905000D03*
X136365000Y-124175000D03*
X136365000Y-125445000D03*
X136365000Y-126715000D03*
X137635000Y-115285000D03*
X137635000Y-116555000D03*
X137635000Y-117825000D03*
X137635000Y-119095000D03*
X137635000Y-120365000D03*
X137635000Y-121635000D03*
X137635000Y-122905000D03*
X137635000Y-124175000D03*
X137635000Y-125445000D03*
X137635000Y-126715000D03*
X138905000Y-115285000D03*
X138905000Y-116555000D03*
X138905000Y-117825000D03*
X138905000Y-119095000D03*
X138905000Y-120365000D03*
X138905000Y-121635000D03*
X138905000Y-122905000D03*
X138905000Y-124175000D03*
X138905000Y-125445000D03*
X138905000Y-126715000D03*
%TD*%
D16*
%TO.C,J3*%
X143800000Y-82540000D03*
X143800000Y-79460000D03*
X143400000Y-82540000D03*
X143400000Y-79460000D03*
X143000000Y-82540000D03*
X143000000Y-79460000D03*
X142600000Y-82540000D03*
X142600000Y-79460000D03*
X142200000Y-82540000D03*
X142200000Y-79460000D03*
X141800000Y-82540000D03*
X141800000Y-79460000D03*
X141400000Y-82540000D03*
X141400000Y-79460000D03*
X141000000Y-82540000D03*
X141000000Y-79460000D03*
X140600000Y-82540000D03*
X140600000Y-79460000D03*
X140200000Y-82540000D03*
X140200000Y-79460000D03*
X139800000Y-82540000D03*
X139800000Y-79460000D03*
X139400000Y-82540000D03*
X139400000Y-79460000D03*
X139000000Y-82540000D03*
X139000000Y-79460000D03*
X138600000Y-82540000D03*
X138600000Y-79460000D03*
X138200000Y-82540000D03*
X138200000Y-79460000D03*
X137800000Y-82540000D03*
X137800000Y-79460000D03*
X137400000Y-82540000D03*
X137400000Y-79460000D03*
X137000000Y-82540000D03*
X137000000Y-79460000D03*
X136600000Y-82540000D03*
X136600000Y-79460000D03*
X136200000Y-82540000D03*
X136200000Y-79460000D03*
X135800000Y-82540000D03*
X135800000Y-79460000D03*
X135400000Y-82540000D03*
X135400000Y-79460000D03*
X135000000Y-82540000D03*
X135000000Y-79460000D03*
X134600000Y-82540000D03*
X134600000Y-79460000D03*
X134200000Y-82540000D03*
X134200000Y-79460000D03*
X133800000Y-82540000D03*
X133800000Y-79460000D03*
X133400000Y-82540000D03*
X133400000Y-79460000D03*
X133000000Y-82540000D03*
X133000000Y-79460000D03*
X132600000Y-82540000D03*
X132600000Y-79460000D03*
X132200000Y-82540000D03*
X132200000Y-79460000D03*
X131800000Y-82540000D03*
X131800000Y-79460000D03*
X131400000Y-82540000D03*
X131400000Y-79460000D03*
X131000000Y-82540000D03*
X131000000Y-79460000D03*
X130600000Y-82540000D03*
X130600000Y-79460000D03*
X130200000Y-82540000D03*
X130200000Y-79460000D03*
%TD*%
M02*
