M48
; DRILL file {KiCad (7.0.0)} date Tue Jan 30 15:23:43 2024
; FORMAT={-:-/ absolute / metric / decimal}
; #@! TF.CreationDate,2024-01-30T15:23:43-05:00
; #@! TF.GenerationSoftware,Kicad,Pcbnew,(7.0.0)
; #@! TF.FileFunction,Plated,1,2,PTH
FMAT,2
METRIC
; #@! TA.AperFunction,Plated,PTH,ViaDrill
T1C0.200
; #@! TA.AperFunction,Plated,PTH,ComponentDrill
T2C0.560
; #@! TA.AperFunction,Plated,PTH,ComponentDrill
T3C1.000
%
G90
G05
T1
X107.0Y-86.0
X107.0Y-95.5
X115.3Y-94.5
X115.7Y-85.6
X124.8Y-83.9
X125.0Y-101.0
X126.0Y-73.0
X126.0Y-115.0
X130.05Y-77.25
X130.5Y-76.7
X131.0Y-77.25
X131.45Y-76.7
X131.95Y-77.25
X132.4Y-76.7
X132.85Y-77.25
X133.305Y-76.7
X133.755Y-77.2
X134.205Y-76.7
X134.655Y-77.2
X135.105Y-76.7
X135.605Y-77.2
X136.0Y-113.0
X136.055Y-76.7
X136.505Y-77.2
X137.0Y-73.0
X137.0Y-81.0
X137.0Y-90.0
X137.0Y-93.0
X137.0Y-95.0
X137.0Y-111.0
X137.0Y-128.0
X137.005Y-76.6
X137.45Y-77.2
X137.9Y-76.6
X138.3Y-112.7
X138.4Y-77.25
X138.75Y-76.6
X139.25Y-77.2
X139.75Y-76.6
X140.25Y-77.25
X140.6Y-76.6
X141.1Y-77.2
X141.6Y-76.6
X142.05Y-77.2
X142.5Y-76.6
X142.95Y-77.2
X143.45Y-76.6
X143.95Y-77.2
X144.45Y-76.6
X145.1Y-81.0
X149.0Y-99.0
X149.0Y-115.0
X150.0Y-86.0
T2
X135.095Y-98.285
X135.095Y-99.555
X135.095Y-100.825
X135.095Y-102.095
X135.095Y-103.365
X135.095Y-104.635
X135.095Y-105.905
X135.095Y-107.175
X135.095Y-108.445
X135.095Y-109.715
X135.095Y-115.285
X135.095Y-116.555
X135.095Y-117.825
X135.095Y-119.095
X135.095Y-120.365
X135.095Y-121.635
X135.095Y-122.905
X135.095Y-124.175
X135.095Y-125.445
X135.095Y-126.715
X136.365Y-98.285
X136.365Y-99.555
X136.365Y-100.825
X136.365Y-102.095
X136.365Y-103.365
X136.365Y-104.635
X136.365Y-105.905
X136.365Y-107.175
X136.365Y-108.445
X136.365Y-109.715
X136.365Y-115.285
X136.365Y-116.555
X136.365Y-117.825
X136.365Y-119.095
X136.365Y-120.365
X136.365Y-121.635
X136.365Y-122.905
X136.365Y-124.175
X136.365Y-125.445
X136.365Y-126.715
X137.635Y-98.285
X137.635Y-99.555
X137.635Y-100.825
X137.635Y-102.095
X137.635Y-103.365
X137.635Y-104.635
X137.635Y-105.905
X137.635Y-107.175
X137.635Y-108.445
X137.635Y-109.715
X137.635Y-115.285
X137.635Y-116.555
X137.635Y-117.825
X137.635Y-119.095
X137.635Y-120.365
X137.635Y-121.635
X137.635Y-122.905
X137.635Y-124.175
X137.635Y-125.445
X137.635Y-126.715
X138.905Y-98.285
X138.905Y-99.555
X138.905Y-100.825
X138.905Y-102.095
X138.905Y-103.365
X138.905Y-104.635
X138.905Y-105.905
X138.905Y-107.175
X138.905Y-108.445
X138.905Y-109.715
X138.905Y-115.285
X138.905Y-116.555
X138.905Y-117.825
X138.905Y-119.095
X138.905Y-120.365
X138.905Y-121.635
X138.905Y-122.905
X138.905Y-124.175
X138.905Y-125.445
X138.905Y-126.715
T3
X147.0Y-75.0
X149.54Y-75.0
T0
M30
