%TF.GenerationSoftware,KiCad,Pcbnew,(7.0.0)*%
%TF.CreationDate,2024-01-30T15:23:45-05:00*%
%TF.ProjectId,eib-neuronexus-a64,6569622d-6e65-4757-926f-6e657875732d,B*%
%TF.SameCoordinates,Original*%
%TF.FileFunction,Copper,L2,Bot*%
%TF.FilePolarity,Positive*%
%FSLAX46Y46*%
G04 Gerber Fmt 4.6, Leading zero omitted, Abs format (unit mm)*
G04 Created by KiCad (PCBNEW (7.0.0)) date 2024-01-30 15:23:45*
%MOMM*%
%LPD*%
G01*
G04 APERTURE LIST*
%TA.AperFunction,ComponentPad*%
%ADD10R,1.700000X1.700000*%
%TD*%
%TA.AperFunction,ComponentPad*%
%ADD11O,1.700000X1.700000*%
%TD*%
%TA.AperFunction,ComponentPad*%
%ADD12R,0.910000X0.910000*%
%TD*%
%TA.AperFunction,ComponentPad*%
%ADD13C,0.910000*%
%TD*%
%TA.AperFunction,ViaPad*%
%ADD14C,0.400000*%
%TD*%
%TA.AperFunction,Conductor*%
%ADD15C,0.120000*%
%TD*%
G04 APERTURE END LIST*
D10*
%TO.P,J4,1,Pin_1*%
%TO.N,GND*%
X146999999Y-74999999D03*
D11*
%TO.P,J4,2,Pin_2*%
%TO.N,/Ref*%
X149539999Y-74999999D03*
%TD*%
D12*
%TO.P,J2,A1,A1*%
%TO.N,/Elec32*%
X135094999Y-98284999D03*
D13*
%TO.P,J2,A2,A2*%
%TO.N,/Elec33*%
X135095000Y-99555000D03*
%TO.P,J2,A3,A3*%
%TO.N,/Elec34*%
X135095000Y-100825000D03*
%TO.P,J2,A4,A4*%
%TO.N,/Elec35*%
X135095000Y-102095000D03*
%TO.P,J2,A5,A5*%
%TO.N,/Elec36*%
X135095000Y-103365000D03*
%TO.P,J2,A6,A6*%
%TO.N,/Elec38*%
X135095000Y-104635000D03*
%TO.P,J2,A7,A7*%
%TO.N,/Elec40*%
X135095000Y-105905000D03*
%TO.P,J2,A8,A8*%
%TO.N,/Elec42*%
X135095000Y-107175000D03*
%TO.P,J2,A9,A9*%
%TO.N,/Elec44*%
X135095000Y-108445000D03*
%TO.P,J2,A10,A10*%
%TO.N,/Elec46*%
X135095000Y-109715000D03*
%TO.P,J2,B1,B1*%
%TO.N,GND*%
X136365000Y-98285000D03*
%TO.P,J2,B2,B2*%
%TO.N,/Ref*%
X136365000Y-99555000D03*
%TO.P,J2,B3,B3*%
%TO.N,unconnected-(J2-PadB3)*%
X136365000Y-100825000D03*
%TO.P,J2,B4,B4*%
%TO.N,unconnected-(J2-PadB4)*%
X136365000Y-102095000D03*
%TO.P,J2,B5,B5*%
%TO.N,/Elec37*%
X136365000Y-103365000D03*
%TO.P,J2,B6,B6*%
%TO.N,/Elec39*%
X136365000Y-104635000D03*
%TO.P,J2,B7,B7*%
%TO.N,/Elec41*%
X136365000Y-105905000D03*
%TO.P,J2,B8,B8*%
%TO.N,/Elec43*%
X136365000Y-107175000D03*
%TO.P,J2,B9,B9*%
%TO.N,/Elec45*%
X136365000Y-108445000D03*
%TO.P,J2,B10,B10*%
%TO.N,/Elec47*%
X136365000Y-109715000D03*
%TO.P,J2,C1,C1*%
%TO.N,GND*%
X137635000Y-98285000D03*
%TO.P,J2,C2,C2*%
%TO.N,/Ref*%
X137635000Y-99555000D03*
%TO.P,J2,C3,C3*%
%TO.N,unconnected-(J2-PadC3)*%
X137635000Y-100825000D03*
%TO.P,J2,C4,C4*%
%TO.N,unconnected-(J2-PadC4)*%
X137635000Y-102095000D03*
%TO.P,J2,C5,C5*%
%TO.N,/Elec26*%
X137635000Y-103365000D03*
%TO.P,J2,C6,C6*%
%TO.N,/Elec24*%
X137635000Y-104635000D03*
%TO.P,J2,C7,C7*%
%TO.N,/Elec22*%
X137635000Y-105905000D03*
%TO.P,J2,C8,C8*%
%TO.N,/Elec20*%
X137635000Y-107175000D03*
%TO.P,J2,C9,C9*%
%TO.N,/Elec18*%
X137635000Y-108445000D03*
%TO.P,J2,C10,C10*%
%TO.N,/Elec16*%
X137635000Y-109715000D03*
%TO.P,J2,D1,D1*%
%TO.N,/Elec31*%
X138905000Y-98285000D03*
%TO.P,J2,D2,D2*%
%TO.N,/Elec30*%
X138905000Y-99555000D03*
%TO.P,J2,D3,D3*%
%TO.N,/Elec29*%
X138905000Y-100825000D03*
%TO.P,J2,D4,D4*%
%TO.N,/Elec28*%
X138905000Y-102095000D03*
%TO.P,J2,D5,D5*%
%TO.N,/Elec27*%
X138905000Y-103365000D03*
%TO.P,J2,D6,D6*%
%TO.N,/Elec25*%
X138905000Y-104635000D03*
%TO.P,J2,D7,D7*%
%TO.N,/Elec23*%
X138905000Y-105905000D03*
%TO.P,J2,D8,D8*%
%TO.N,/Elec21*%
X138905000Y-107175000D03*
%TO.P,J2,D9,D9*%
%TO.N,/Elec19*%
X138905000Y-108445000D03*
%TO.P,J2,D10,D10*%
%TO.N,/Elec17*%
X138905000Y-109715000D03*
%TD*%
D12*
%TO.P,J1,A1,A1*%
%TO.N,/Elec48*%
X135094999Y-115284999D03*
D13*
%TO.P,J1,A2,A2*%
%TO.N,/Elec49*%
X135095000Y-116555000D03*
%TO.P,J1,A3,A3*%
%TO.N,/Elec50*%
X135095000Y-117825000D03*
%TO.P,J1,A4,A4*%
%TO.N,/Elec51*%
X135095000Y-119095000D03*
%TO.P,J1,A5,A5*%
%TO.N,/Elec52*%
X135095000Y-120365000D03*
%TO.P,J1,A6,A6*%
%TO.N,/Elec54*%
X135095000Y-121635000D03*
%TO.P,J1,A7,A7*%
%TO.N,/Elec56*%
X135095000Y-122905000D03*
%TO.P,J1,A8,A8*%
%TO.N,/Elec58*%
X135095000Y-124175000D03*
%TO.P,J1,A9,A9*%
%TO.N,/Elec60*%
X135095000Y-125445000D03*
%TO.P,J1,A10,A10*%
%TO.N,/Elec62*%
X135095000Y-126715000D03*
%TO.P,J1,B1,B1*%
%TO.N,GND*%
X136365000Y-115285000D03*
%TO.P,J1,B2,B2*%
%TO.N,/Ref*%
X136365000Y-116555000D03*
%TO.P,J1,B3,B3*%
%TO.N,unconnected-(J1-PadB3)*%
X136365000Y-117825000D03*
%TO.P,J1,B4,B4*%
%TO.N,unconnected-(J1-PadB4)*%
X136365000Y-119095000D03*
%TO.P,J1,B5,B5*%
%TO.N,/Elec53*%
X136365000Y-120365000D03*
%TO.P,J1,B6,B6*%
%TO.N,/Elec55*%
X136365000Y-121635000D03*
%TO.P,J1,B7,B7*%
%TO.N,/Elec57*%
X136365000Y-122905000D03*
%TO.P,J1,B8,B8*%
%TO.N,/Elec59*%
X136365000Y-124175000D03*
%TO.P,J1,B9,B9*%
%TO.N,/Elec61*%
X136365000Y-125445000D03*
%TO.P,J1,B10,B10*%
%TO.N,/Elec63*%
X136365000Y-126715000D03*
%TO.P,J1,C1,C1*%
%TO.N,GND*%
X137635000Y-115285000D03*
%TO.P,J1,C2,C2*%
%TO.N,/Ref*%
X137635000Y-116555000D03*
%TO.P,J1,C3,C3*%
%TO.N,unconnected-(J1-PadC3)*%
X137635000Y-117825000D03*
%TO.P,J1,C4,C4*%
%TO.N,unconnected-(J1-PadC4)*%
X137635000Y-119095000D03*
%TO.P,J1,C5,C5*%
%TO.N,/Elec10*%
X137635000Y-120365000D03*
%TO.P,J1,C6,C6*%
%TO.N,/Elec8*%
X137635000Y-121635000D03*
%TO.P,J1,C7,C7*%
%TO.N,/Elec6*%
X137635000Y-122905000D03*
%TO.P,J1,C8,C8*%
%TO.N,/Elec4*%
X137635000Y-124175000D03*
%TO.P,J1,C9,C9*%
%TO.N,/Elec2*%
X137635000Y-125445000D03*
%TO.P,J1,C10,C10*%
%TO.N,/Elec0*%
X137635000Y-126715000D03*
%TO.P,J1,D1,D1*%
%TO.N,/Elec15*%
X138905000Y-115285000D03*
%TO.P,J1,D2,D2*%
%TO.N,/Elec14*%
X138905000Y-116555000D03*
%TO.P,J1,D3,D3*%
%TO.N,/Elec13*%
X138905000Y-117825000D03*
%TO.P,J1,D4,D4*%
%TO.N,/Elec12*%
X138905000Y-119095000D03*
%TO.P,J1,D5,D5*%
%TO.N,/Elec11*%
X138905000Y-120365000D03*
%TO.P,J1,D6,D6*%
%TO.N,/Elec9*%
X138905000Y-121635000D03*
%TO.P,J1,D7,D7*%
%TO.N,/Elec7*%
X138905000Y-122905000D03*
%TO.P,J1,D8,D8*%
%TO.N,/Elec5*%
X138905000Y-124175000D03*
%TO.P,J1,D9,D9*%
%TO.N,/Elec3*%
X138905000Y-125445000D03*
%TO.P,J1,D10,D10*%
%TO.N,/Elec1*%
X138905000Y-126715000D03*
%TD*%
D14*
%TO.N,GND*%
X145100000Y-81000000D03*
%TO.N,/Ref*%
X138300000Y-112700000D03*
%TO.N,/Elec0*%
X144450000Y-76600000D03*
%TO.N,/Elec1*%
X143950000Y-77200000D03*
%TO.N,/Elec2*%
X143450000Y-76600000D03*
%TO.N,/Elec3*%
X142950000Y-77200000D03*
%TO.N,/Elec4*%
X142500000Y-76600000D03*
%TO.N,/Elec5*%
X142050000Y-77200000D03*
%TO.N,/Elec6*%
X141600000Y-76600000D03*
%TO.N,/Elec7*%
X141100000Y-77200000D03*
%TO.N,/Elec8*%
X140600000Y-76600000D03*
%TO.N,/Elec9*%
X140250000Y-77250000D03*
%TO.N,/Elec10*%
X139750000Y-76600000D03*
%TO.N,/Elec11*%
X139250000Y-77200000D03*
%TO.N,/Elec12*%
X138750000Y-76600000D03*
%TO.N,/Elec13*%
X138400000Y-77250000D03*
%TO.N,/Elec14*%
X137900000Y-76600000D03*
%TO.N,/Elec15*%
X137450000Y-77200000D03*
%TO.N,/Elec48*%
X137005000Y-76600000D03*
%TO.N,/Elec49*%
X136505000Y-77200000D03*
%TO.N,/Elec50*%
X136055000Y-76700000D03*
%TO.N,/Elec51*%
X135605000Y-77200000D03*
%TO.N,/Elec52*%
X135105000Y-76700000D03*
%TO.N,/Elec53*%
X134655000Y-77200000D03*
%TO.N,/Elec54*%
X134205000Y-76700000D03*
%TO.N,/Elec55*%
X133755000Y-77200000D03*
%TO.N,/Elec56*%
X133305000Y-76700000D03*
%TO.N,/Elec57*%
X132850000Y-77250000D03*
%TO.N,/Elec58*%
X132400000Y-76700000D03*
%TO.N,/Elec59*%
X131950000Y-77250000D03*
%TO.N,/Elec60*%
X131450000Y-76700000D03*
%TO.N,/Elec61*%
X131000000Y-77250000D03*
%TO.N,/Elec62*%
X130500000Y-76700000D03*
%TO.N,/Elec63*%
X130050000Y-77250000D03*
%TO.N,GND*%
X137000000Y-128000000D03*
X137000000Y-81000000D03*
X126000000Y-73000000D03*
X137000000Y-90000000D03*
X137000000Y-93000000D03*
X149000000Y-115000000D03*
X137000000Y-95000000D03*
X115300000Y-94500000D03*
X136000000Y-113000000D03*
X137000000Y-111000000D03*
X150000000Y-86000000D03*
X126000000Y-115000000D03*
X107000000Y-95500000D03*
X115700000Y-85600000D03*
X125000000Y-101000000D03*
X107000000Y-86000000D03*
X149000000Y-99000000D03*
X137000000Y-73000000D03*
X124800000Y-83900000D03*
%TD*%
D15*
%TO.N,/Ref*%
X139905000Y-111095000D02*
X139905000Y-99355000D01*
X138300479Y-112700479D02*
X138300000Y-112700000D01*
X138295479Y-98894521D02*
X137635000Y-99555000D01*
X138300479Y-115894521D02*
X138300479Y-112700479D01*
X137640000Y-116555000D02*
X138300479Y-115894521D01*
X139444521Y-98894521D02*
X138295479Y-98894521D01*
X139905000Y-99355000D02*
X139444521Y-98894521D01*
X138300000Y-112700000D02*
X139905000Y-111095000D01*
%TO.N,/Elec0*%
X140600000Y-127600000D02*
X146400000Y-121800000D01*
X146400000Y-121800000D02*
X146400000Y-84750000D01*
X144450000Y-82800000D02*
X144450000Y-76600000D01*
X138520000Y-127600000D02*
X140600000Y-127600000D01*
X137635000Y-126715000D02*
X138520000Y-127600000D01*
X144450000Y-82800000D02*
X146400000Y-84750000D01*
%TO.N,/Elec1*%
X138905000Y-126715000D02*
X140285000Y-126715000D01*
X143950000Y-83150000D02*
X146000000Y-85200000D01*
X143950000Y-83150000D02*
X143950000Y-77200000D01*
X140285000Y-126715000D02*
X146000000Y-121000000D01*
X146000000Y-121000000D02*
X146000000Y-85200000D01*
%TO.N,/Elec2*%
X143450000Y-83500000D02*
X145600000Y-85650000D01*
X138244521Y-126054521D02*
X140145479Y-126054521D01*
X140145479Y-126054521D02*
X145600000Y-120600000D01*
X137635000Y-125445000D02*
X138244521Y-126054521D01*
X145600000Y-120600000D02*
X145600000Y-85650000D01*
X143450000Y-83500000D02*
X143450000Y-76600000D01*
%TO.N,/Elec3*%
X138905000Y-125445000D02*
X139955000Y-125445000D01*
X142950000Y-83850000D02*
X142950000Y-77200000D01*
X139955000Y-125445000D02*
X145200000Y-120200000D01*
X142950000Y-83850000D02*
X145200000Y-86100000D01*
X145200000Y-120200000D02*
X145200000Y-86100000D01*
%TO.N,/Elec4*%
X142500000Y-84150000D02*
X142500000Y-76600000D01*
X140000000Y-124800000D02*
X144800000Y-120000000D01*
X142500000Y-84150000D02*
X144800000Y-86450000D01*
X144800000Y-120000000D02*
X144800000Y-86450000D01*
X138260000Y-124800000D02*
X140000000Y-124800000D01*
X137635000Y-124175000D02*
X138260000Y-124800000D01*
%TO.N,/Elec5*%
X140025000Y-124175000D02*
X144400000Y-119800000D01*
X144400000Y-119800000D02*
X144400000Y-86900000D01*
X142050000Y-84550000D02*
X142050000Y-77200000D01*
X142050000Y-84550000D02*
X144400000Y-86900000D01*
X138905000Y-124175000D02*
X140025000Y-124175000D01*
%TO.N,/Elec6*%
X141600000Y-84950000D02*
X144000000Y-87350000D01*
X138295479Y-123565479D02*
X140034521Y-123565479D01*
X140034521Y-123565479D02*
X144000000Y-119600000D01*
X144000000Y-119600000D02*
X144000000Y-87350000D01*
X137635000Y-122905000D02*
X138295479Y-123565479D01*
X141600000Y-84950000D02*
X141600000Y-76600000D01*
%TO.N,/Elec7*%
X138905000Y-122905000D02*
X140095000Y-122905000D01*
X143600000Y-119400000D02*
X143600000Y-87700000D01*
X141100000Y-85200000D02*
X141100000Y-77200000D01*
X140095000Y-122905000D02*
X143600000Y-119400000D01*
X141100000Y-85200000D02*
X143600000Y-87700000D01*
%TO.N,/Elec8*%
X138300479Y-122295479D02*
X139809521Y-122295479D01*
X143205000Y-118900000D02*
X143205000Y-88055000D01*
X140659501Y-76659501D02*
X140600000Y-76600000D01*
X140659501Y-85509501D02*
X140659501Y-76659501D01*
X139809521Y-122295479D02*
X143205000Y-118900000D01*
X143205000Y-88055000D02*
X140659501Y-85509501D01*
X137640000Y-121635000D02*
X138300479Y-122295479D01*
%TO.N,/Elec9*%
X142805000Y-88405000D02*
X140161407Y-85761407D01*
X140161407Y-85761407D02*
X140161407Y-77911407D01*
X140250000Y-77822814D02*
X140161407Y-77911407D01*
X142805000Y-118600000D02*
X142805000Y-88405000D01*
X138910000Y-121635000D02*
X139770000Y-121635000D01*
X140250000Y-77250000D02*
X140250000Y-77822814D01*
X139770000Y-121635000D02*
X142805000Y-118600000D01*
%TO.N,/Elec10*%
X137640000Y-120365000D02*
X138275000Y-121000000D01*
X139750000Y-86100000D02*
X139750000Y-76600000D01*
X142405000Y-118200000D02*
X142405000Y-88755000D01*
X139605000Y-121000000D02*
X142405000Y-118200000D01*
X138275000Y-121000000D02*
X139605000Y-121000000D01*
X139750000Y-86100000D02*
X142405000Y-88755000D01*
%TO.N,/Elec11*%
X142005000Y-117600000D02*
X142005000Y-89055000D01*
X139250000Y-86300000D02*
X142005000Y-89055000D01*
X139240000Y-120365000D02*
X142005000Y-117600000D01*
X138910000Y-120365000D02*
X139240000Y-120365000D01*
X139250000Y-86300000D02*
X139250000Y-77200000D01*
%TO.N,/Elec12*%
X138809501Y-76659501D02*
X138750000Y-76600000D01*
X141605000Y-116400000D02*
X141605000Y-89555000D01*
X138809501Y-86759501D02*
X138809501Y-76659501D01*
X141605000Y-89555000D02*
X138809501Y-86759501D01*
X138910000Y-119095000D02*
X141605000Y-116400000D01*
%TO.N,/Elec13*%
X141205000Y-89855000D02*
X138309538Y-86959538D01*
X138309538Y-86959538D02*
X138309538Y-77809538D01*
X138910000Y-117825000D02*
X138980000Y-117825000D01*
X138400000Y-77250000D02*
X138400000Y-77719076D01*
X138400000Y-77719076D02*
X138309538Y-77809538D01*
X141205000Y-115600000D02*
X141205000Y-89855000D01*
X138980000Y-117825000D02*
X141205000Y-115600000D01*
%TO.N,/Elec14*%
X137900000Y-87350000D02*
X140805000Y-90255000D01*
X137900000Y-76600000D02*
X137900000Y-87350000D01*
X139250000Y-116555000D02*
X140805000Y-115000000D01*
X138910000Y-116555000D02*
X139250000Y-116555000D01*
X140805000Y-115000000D02*
X140805000Y-90255000D01*
%TO.N,/Elec15*%
X138915000Y-115285000D02*
X140405000Y-113795000D01*
X138910000Y-115285000D02*
X138915000Y-115285000D01*
X137450000Y-87700000D02*
X137450000Y-77200000D01*
X140405000Y-113795000D02*
X140405000Y-90655000D01*
X140405000Y-90655000D02*
X137450000Y-87700000D01*
%TO.N,/Elec48*%
X137005000Y-79895000D02*
X137005000Y-76600000D01*
X136590499Y-81290499D02*
X136590499Y-80309501D01*
X135100000Y-115285000D02*
X134105000Y-114290000D01*
X134105000Y-114290000D02*
X134105000Y-90598707D01*
X134105000Y-90598707D02*
X136700000Y-88003706D01*
X136700000Y-81400000D02*
X136590499Y-81290499D01*
X136700000Y-88003706D02*
X136700000Y-81400000D01*
X136590499Y-80309501D02*
X137005000Y-79895000D01*
%TO.N,/Elec49*%
X136505000Y-77200000D02*
X136505000Y-79695000D01*
X133605000Y-90495000D02*
X133605000Y-115060000D01*
X133605000Y-115060000D02*
X135100000Y-116555000D01*
X136505000Y-79695000D02*
X136300000Y-79900000D01*
X136300000Y-87800000D02*
X133605000Y-90495000D01*
X136300000Y-79900000D02*
X136300000Y-87800000D01*
%TO.N,/Elec50*%
X136000000Y-79300000D02*
X136055000Y-79245000D01*
X136055000Y-79245000D02*
X136055000Y-76700000D01*
X136000000Y-87400000D02*
X136000000Y-79300000D01*
X133205000Y-90195000D02*
X136000000Y-87400000D01*
X135100000Y-117825000D02*
X133205000Y-115930000D01*
X133205000Y-115930000D02*
X133205000Y-90195000D01*
%TO.N,/Elec51*%
X135605000Y-77200000D02*
X135605000Y-87200000D01*
X132805000Y-116800000D02*
X135100000Y-119095000D01*
X132805000Y-90000000D02*
X132805000Y-116800000D01*
X135605000Y-87200000D02*
X132805000Y-90000000D01*
%TO.N,/Elec52*%
X132405000Y-117670000D02*
X132405000Y-89800000D01*
X135105000Y-87100000D02*
X135105000Y-76700000D01*
X135100000Y-120365000D02*
X132405000Y-117670000D01*
X132405000Y-89800000D02*
X135105000Y-87100000D01*
%TO.N,/Elec53*%
X134655000Y-78345000D02*
X134650000Y-78350000D01*
X136370000Y-120365000D02*
X135760479Y-120974521D01*
X134779521Y-120974521D02*
X132005000Y-118200000D01*
X134650000Y-86755000D02*
X134650000Y-78350000D01*
X132005000Y-118200000D02*
X132005000Y-89400000D01*
X132005000Y-89400000D02*
X134650000Y-86755000D01*
X135760479Y-120974521D02*
X134779521Y-120974521D01*
X134655000Y-77200000D02*
X134655000Y-78345000D01*
%TO.N,/Elec54*%
X135100000Y-121635000D02*
X134640000Y-121635000D01*
X134640000Y-121635000D02*
X131605000Y-118600000D01*
X134205000Y-86600000D02*
X134205000Y-76700000D01*
X131605000Y-89200000D02*
X134205000Y-86600000D01*
X131605000Y-118600000D02*
X131605000Y-89200000D01*
%TO.N,/Elec55*%
X131205000Y-89000000D02*
X133755000Y-86450000D01*
X134449521Y-122244521D02*
X131205000Y-119000000D01*
X135760479Y-122244521D02*
X134449521Y-122244521D01*
X136370000Y-121635000D02*
X135760479Y-122244521D01*
X131205000Y-119000000D02*
X131205000Y-89000000D01*
X133755000Y-77200000D02*
X133755000Y-86450000D01*
%TO.N,/Elec56*%
X130805000Y-88800000D02*
X130805000Y-119400000D01*
X133305000Y-86300000D02*
X130805000Y-88800000D01*
X134310000Y-122905000D02*
X135100000Y-122905000D01*
X130805000Y-119400000D02*
X134310000Y-122905000D01*
X133305000Y-76700000D02*
X133305000Y-86300000D01*
%TO.N,/Elec57*%
X130405000Y-119800000D02*
X134170479Y-123565479D01*
X132850000Y-77250000D02*
X132850000Y-86155000D01*
X130405000Y-88600000D02*
X130405000Y-119800000D01*
X132850000Y-86155000D02*
X130405000Y-88600000D01*
X134170479Y-123565479D02*
X135709521Y-123565479D01*
X135709521Y-123565479D02*
X136370000Y-122905000D01*
%TO.N,/Elec58*%
X133980000Y-124175000D02*
X130005000Y-120200000D01*
X130005000Y-120200000D02*
X130005000Y-88400000D01*
X132400000Y-86005000D02*
X132400000Y-76700000D01*
X135100000Y-124175000D02*
X133980000Y-124175000D01*
X130005000Y-88400000D02*
X132400000Y-86005000D01*
%TO.N,/Elec59*%
X135709521Y-124835479D02*
X136370000Y-124175000D01*
X133990479Y-124835479D02*
X135709521Y-124835479D01*
X129605000Y-88200000D02*
X129605000Y-120450000D01*
X129605000Y-120450000D02*
X133990479Y-124835479D01*
X131950000Y-85855000D02*
X129605000Y-88200000D01*
X131950000Y-77250000D02*
X131950000Y-85855000D01*
%TO.N,/Elec60*%
X131450000Y-85755000D02*
X131450000Y-76700000D01*
X133850000Y-125445000D02*
X129205000Y-120800000D01*
X135100000Y-125445000D02*
X133850000Y-125445000D01*
X129205000Y-120800000D02*
X129205000Y-88000000D01*
X129205000Y-88000000D02*
X131450000Y-85755000D01*
%TO.N,/Elec61*%
X131000000Y-77250000D02*
X131000000Y-85405000D01*
X128805000Y-87600000D02*
X128805000Y-121200000D01*
X133659521Y-126054521D02*
X135760479Y-126054521D01*
X128805000Y-121200000D02*
X133659521Y-126054521D01*
X131000000Y-85405000D02*
X128805000Y-87600000D01*
X135760479Y-126054521D02*
X136370000Y-125445000D01*
%TO.N,/Elec62*%
X128405000Y-87400000D02*
X130500000Y-85305000D01*
X135100000Y-126715000D02*
X133520000Y-126715000D01*
X133520000Y-126715000D02*
X128405000Y-121600000D01*
X130500000Y-85305000D02*
X130500000Y-76700000D01*
X128405000Y-121600000D02*
X128405000Y-87400000D01*
%TO.N,/Elec63*%
X130050000Y-85155000D02*
X130050000Y-77250000D01*
X135685000Y-127400000D02*
X133405000Y-127400000D01*
X128005000Y-122000000D02*
X128005000Y-87200000D01*
X128005000Y-87200000D02*
X130050000Y-85155000D01*
X133405000Y-127400000D02*
X128005000Y-122000000D01*
X136370000Y-126715000D02*
X135685000Y-127400000D01*
%TO.N,GND*%
X137000000Y-82000000D02*
X137000000Y-81000000D01*
X137000000Y-90000000D02*
X137000000Y-82000000D01*
%TD*%
%TA.AperFunction,Conductor*%
%TO.N,GND*%
G36*
X139597736Y-110031170D02*
G01*
X139632023Y-110067155D01*
X139644500Y-110115267D01*
X139644500Y-110946089D01*
X139636964Y-110983975D01*
X139615504Y-111016093D01*
X138364866Y-112266731D01*
X138332748Y-112288191D01*
X138300551Y-112294595D01*
X138300000Y-112294508D01*
X138292303Y-112295727D01*
X138182390Y-112313135D01*
X138182387Y-112313135D01*
X138174696Y-112314354D01*
X138167758Y-112317888D01*
X138167755Y-112317890D01*
X138068597Y-112368414D01*
X138068595Y-112368415D01*
X138061658Y-112371950D01*
X138056154Y-112377453D01*
X138056151Y-112377456D01*
X137977456Y-112456151D01*
X137977453Y-112456154D01*
X137971950Y-112461658D01*
X137968415Y-112468595D01*
X137968414Y-112468597D01*
X137917890Y-112567755D01*
X137917888Y-112567758D01*
X137914354Y-112574696D01*
X137894508Y-112700000D01*
X137914354Y-112825304D01*
X137971950Y-112938342D01*
X137977456Y-112943848D01*
X138010983Y-112977375D01*
X138032443Y-113009493D01*
X138039979Y-113047379D01*
X138039979Y-114594051D01*
X138027210Y-114642685D01*
X137992196Y-114678773D01*
X137943970Y-114693006D01*
X137894972Y-114681712D01*
X137874272Y-114670848D01*
X137863155Y-114666632D01*
X137720346Y-114631433D01*
X137708543Y-114630000D01*
X137561457Y-114630000D01*
X137549653Y-114631433D01*
X137406848Y-114666631D01*
X137395719Y-114670851D01*
X137302790Y-114719624D01*
X137294824Y-114727751D01*
X137300009Y-114737877D01*
X137777127Y-115214995D01*
X137802750Y-115259376D01*
X137802750Y-115310622D01*
X137777127Y-115355002D01*
X137300010Y-115832119D01*
X137294824Y-115842247D01*
X137299356Y-115846872D01*
X137326472Y-115900942D01*
X137317070Y-115960695D01*
X137274659Y-116003825D01*
X137265205Y-116008786D01*
X137265197Y-116008791D01*
X137259899Y-116011572D01*
X137255419Y-116015540D01*
X137255413Y-116015545D01*
X137145235Y-116113155D01*
X137145231Y-116113158D01*
X137140748Y-116117131D01*
X137137345Y-116122060D01*
X137137345Y-116122061D01*
X137081475Y-116203003D01*
X137046007Y-116234424D01*
X137000000Y-116245764D01*
X136953993Y-116234424D01*
X136918525Y-116203003D01*
X136888084Y-116158902D01*
X136859252Y-116117131D01*
X136772562Y-116040330D01*
X136744586Y-116015545D01*
X136744584Y-116015543D01*
X136740101Y-116011572D01*
X136734798Y-116008788D01*
X136734794Y-116008786D01*
X136725339Y-116003824D01*
X136682927Y-115960693D01*
X136673526Y-115900939D01*
X136700645Y-115846868D01*
X136705174Y-115842246D01*
X136699989Y-115832121D01*
X136374214Y-115506346D01*
X136364999Y-115501026D01*
X136355785Y-115506346D01*
X136030012Y-115832118D01*
X136024824Y-115842248D01*
X136029356Y-115846872D01*
X136056472Y-115900942D01*
X136047070Y-115960695D01*
X136004659Y-116003825D01*
X135995205Y-116008786D01*
X135995197Y-116008791D01*
X135989899Y-116011572D01*
X135985419Y-116015540D01*
X135985413Y-116015545D01*
X135875235Y-116113155D01*
X135875231Y-116113158D01*
X135870748Y-116117131D01*
X135867345Y-116122060D01*
X135867345Y-116122061D01*
X135811475Y-116203003D01*
X135776007Y-116234424D01*
X135730000Y-116245764D01*
X135683993Y-116234424D01*
X135648525Y-116203003D01*
X135618084Y-116158902D01*
X135589252Y-116117131D01*
X135572171Y-116101998D01*
X135542976Y-116056275D01*
X135542262Y-116002029D01*
X135570243Y-115955551D01*
X135609944Y-115935193D01*
X135609658Y-115934501D01*
X135618183Y-115930969D01*
X135618514Y-115930799D01*
X135628231Y-115928867D01*
X135694552Y-115884552D01*
X135738867Y-115818231D01*
X135750500Y-115759748D01*
X135750500Y-115715428D01*
X135764521Y-115664638D01*
X135802613Y-115628235D01*
X135817797Y-115620069D01*
X136143651Y-115294216D01*
X136148973Y-115284999D01*
X136581026Y-115284999D01*
X136586346Y-115294214D01*
X136912202Y-115620070D01*
X136922040Y-115625361D01*
X136938162Y-115612467D01*
X136977923Y-115593272D01*
X137022075Y-115593272D01*
X137061836Y-115612467D01*
X137077956Y-115625360D01*
X137087798Y-115620068D01*
X137413651Y-115294216D01*
X137418973Y-115284999D01*
X137413653Y-115275785D01*
X137087795Y-114949927D01*
X137077957Y-114944637D01*
X137061835Y-114957532D01*
X137022074Y-114976726D01*
X136977924Y-114976726D01*
X136938163Y-114957532D01*
X136922041Y-114944637D01*
X136912202Y-114949928D01*
X136586346Y-115275785D01*
X136581026Y-115284999D01*
X136148973Y-115284999D01*
X136143653Y-115275785D01*
X135817797Y-114949929D01*
X135802614Y-114941765D01*
X135764521Y-114905361D01*
X135750500Y-114854571D01*
X135750500Y-114815110D01*
X135750500Y-114810252D01*
X135738867Y-114751769D01*
X135722818Y-114727751D01*
X136024824Y-114727751D01*
X136030009Y-114737877D01*
X136355785Y-115063653D01*
X136364999Y-115068973D01*
X136374216Y-115063651D01*
X136699987Y-114737879D01*
X136705173Y-114727751D01*
X136697208Y-114719624D01*
X136604280Y-114670851D01*
X136593151Y-114666631D01*
X136450346Y-114631433D01*
X136438543Y-114630000D01*
X136291457Y-114630000D01*
X136279653Y-114631433D01*
X136136848Y-114666631D01*
X136125719Y-114670851D01*
X136032790Y-114719624D01*
X136024824Y-114727751D01*
X135722818Y-114727751D01*
X135694552Y-114685448D01*
X135686441Y-114680028D01*
X135636340Y-114646551D01*
X135636338Y-114646550D01*
X135628231Y-114641133D01*
X135618667Y-114639230D01*
X135618666Y-114639230D01*
X135574511Y-114630447D01*
X135574506Y-114630446D01*
X135569748Y-114629500D01*
X135564890Y-114629500D01*
X134853910Y-114629500D01*
X134816024Y-114621964D01*
X134783907Y-114600504D01*
X134394497Y-114211095D01*
X134373036Y-114178977D01*
X134365500Y-114141091D01*
X134365500Y-110129755D01*
X134377977Y-110081643D01*
X134412264Y-110045658D01*
X134459717Y-110030871D01*
X134508376Y-110041009D01*
X134545973Y-110073514D01*
X134600748Y-110152869D01*
X134719899Y-110258428D01*
X134860849Y-110332404D01*
X135015408Y-110370500D01*
X135168604Y-110370500D01*
X135174592Y-110370500D01*
X135329151Y-110332404D01*
X135470101Y-110258428D01*
X135589252Y-110152869D01*
X135648525Y-110066996D01*
X135683992Y-110035575D01*
X135730000Y-110024235D01*
X135776008Y-110035575D01*
X135811475Y-110066997D01*
X135854793Y-110129755D01*
X135870748Y-110152869D01*
X135989899Y-110258428D01*
X136130849Y-110332404D01*
X136285408Y-110370500D01*
X136438604Y-110370500D01*
X136444592Y-110370500D01*
X136599151Y-110332404D01*
X136740101Y-110258428D01*
X136859252Y-110152869D01*
X136918525Y-110066996D01*
X136953992Y-110035575D01*
X137000000Y-110024235D01*
X137046008Y-110035575D01*
X137081475Y-110066997D01*
X137124793Y-110129755D01*
X137140748Y-110152869D01*
X137259899Y-110258428D01*
X137400849Y-110332404D01*
X137555408Y-110370500D01*
X137708604Y-110370500D01*
X137714592Y-110370500D01*
X137869151Y-110332404D01*
X138010101Y-110258428D01*
X138129252Y-110152869D01*
X138188525Y-110066996D01*
X138223992Y-110035575D01*
X138270000Y-110024235D01*
X138316008Y-110035575D01*
X138351475Y-110066997D01*
X138394793Y-110129755D01*
X138410748Y-110152869D01*
X138529899Y-110258428D01*
X138670849Y-110332404D01*
X138825408Y-110370500D01*
X138978604Y-110370500D01*
X138984592Y-110370500D01*
X139139151Y-110332404D01*
X139280101Y-110258428D01*
X139399252Y-110152869D01*
X139464025Y-110059028D01*
X139501624Y-110026521D01*
X139550283Y-110016383D01*
X139597736Y-110031170D01*
G37*
%TD.AperFunction*%
%TA.AperFunction,Conductor*%
G36*
X137128385Y-80226444D02*
G01*
X137172815Y-80262906D01*
X137189500Y-80317908D01*
X137189500Y-87664594D01*
X137187598Y-87683906D01*
X137184397Y-87700000D01*
X137186299Y-87709562D01*
X137189500Y-87725654D01*
X137202712Y-87792079D01*
X137202713Y-87792082D01*
X137204615Y-87801642D01*
X137262190Y-87887810D01*
X137270299Y-87893228D01*
X137270301Y-87893230D01*
X137275831Y-87896925D01*
X137290835Y-87909237D01*
X140115504Y-90733906D01*
X140136964Y-90766024D01*
X140144500Y-90803910D01*
X140144500Y-98987089D01*
X140127815Y-99042090D01*
X140083386Y-99078553D01*
X140026186Y-99084187D01*
X139975496Y-99057093D01*
X139653758Y-98735355D01*
X139641447Y-98720353D01*
X139637748Y-98714817D01*
X139637746Y-98714815D01*
X139632331Y-98706711D01*
X139624227Y-98701296D01*
X139624225Y-98701294D01*
X139549269Y-98651211D01*
X139519036Y-98619256D01*
X139505632Y-98577358D01*
X139511703Y-98533789D01*
X139546126Y-98443023D01*
X139565314Y-98285000D01*
X139546126Y-98126977D01*
X139489679Y-97978137D01*
X139475456Y-97957532D01*
X139402657Y-97852064D01*
X139399252Y-97847131D01*
X139352247Y-97805488D01*
X139284586Y-97745545D01*
X139284584Y-97745543D01*
X139280101Y-97741572D01*
X139273061Y-97737877D01*
X139144454Y-97670379D01*
X139144452Y-97670378D01*
X139139151Y-97667596D01*
X139061871Y-97648547D01*
X138990406Y-97630933D01*
X138990405Y-97630932D01*
X138984592Y-97629500D01*
X138825408Y-97629500D01*
X138819595Y-97630932D01*
X138819593Y-97630933D01*
X138676662Y-97666163D01*
X138676660Y-97666163D01*
X138670849Y-97667596D01*
X138665550Y-97670377D01*
X138665545Y-97670379D01*
X138535204Y-97738787D01*
X138535199Y-97738790D01*
X138529899Y-97741572D01*
X138525419Y-97745540D01*
X138525413Y-97745545D01*
X138415235Y-97843155D01*
X138415231Y-97843158D01*
X138410748Y-97847131D01*
X138407345Y-97852060D01*
X138407345Y-97852061D01*
X138349938Y-97935229D01*
X138308791Y-97969404D01*
X138255872Y-97977186D01*
X138206628Y-97956304D01*
X138192041Y-97944637D01*
X138182202Y-97949928D01*
X137635000Y-98497132D01*
X137300012Y-98832118D01*
X137294824Y-98842248D01*
X137299356Y-98846872D01*
X137326472Y-98900942D01*
X137317070Y-98960695D01*
X137274659Y-99003825D01*
X137265205Y-99008786D01*
X137265197Y-99008791D01*
X137259899Y-99011572D01*
X137255419Y-99015540D01*
X137255413Y-99015545D01*
X137145235Y-99113155D01*
X137145231Y-99113158D01*
X137140748Y-99117131D01*
X137137345Y-99122060D01*
X137137345Y-99122061D01*
X137081475Y-99203003D01*
X137046007Y-99234424D01*
X137000000Y-99245764D01*
X136953993Y-99234424D01*
X136918525Y-99203003D01*
X136914025Y-99196484D01*
X136859252Y-99117131D01*
X136815707Y-99078553D01*
X136744586Y-99015545D01*
X136744584Y-99015543D01*
X136740101Y-99011572D01*
X136734798Y-99008788D01*
X136734794Y-99008786D01*
X136725339Y-99003824D01*
X136682927Y-98960693D01*
X136673526Y-98900939D01*
X136700645Y-98846868D01*
X136705174Y-98842246D01*
X136699989Y-98832121D01*
X136374214Y-98506346D01*
X136364999Y-98501026D01*
X136355785Y-98506346D01*
X136030012Y-98832118D01*
X136024824Y-98842248D01*
X136029356Y-98846872D01*
X136056472Y-98900942D01*
X136047070Y-98960695D01*
X136004659Y-99003825D01*
X135995205Y-99008786D01*
X135995197Y-99008791D01*
X135989899Y-99011572D01*
X135985419Y-99015540D01*
X135985413Y-99015545D01*
X135875235Y-99113155D01*
X135875231Y-99113158D01*
X135870748Y-99117131D01*
X135867345Y-99122060D01*
X135867345Y-99122061D01*
X135811475Y-99203003D01*
X135776007Y-99234424D01*
X135730000Y-99245764D01*
X135683993Y-99234424D01*
X135648525Y-99203003D01*
X135644025Y-99196484D01*
X135589252Y-99117131D01*
X135572171Y-99101998D01*
X135542976Y-99056275D01*
X135542262Y-99002029D01*
X135570243Y-98955551D01*
X135609944Y-98935193D01*
X135609658Y-98934501D01*
X135618183Y-98930969D01*
X135618514Y-98930799D01*
X135628231Y-98928867D01*
X135694552Y-98884552D01*
X135738867Y-98818231D01*
X135750500Y-98759748D01*
X135750500Y-98715428D01*
X135764521Y-98664638D01*
X135802613Y-98628235D01*
X135817797Y-98620069D01*
X136143651Y-98294216D01*
X136148973Y-98284999D01*
X136581026Y-98284999D01*
X136586346Y-98294214D01*
X136912202Y-98620070D01*
X136922040Y-98625361D01*
X136938162Y-98612467D01*
X136977923Y-98593272D01*
X137022075Y-98593272D01*
X137061836Y-98612467D01*
X137077956Y-98625360D01*
X137087798Y-98620068D01*
X137413651Y-98294216D01*
X137418973Y-98284999D01*
X137413653Y-98275785D01*
X137087795Y-97949927D01*
X137077957Y-97944637D01*
X137061835Y-97957532D01*
X137022074Y-97976726D01*
X136977924Y-97976726D01*
X136938163Y-97957532D01*
X136922041Y-97944637D01*
X136912202Y-97949928D01*
X136586346Y-98275785D01*
X136581026Y-98284999D01*
X136148973Y-98284999D01*
X136143653Y-98275785D01*
X135817797Y-97949929D01*
X135802614Y-97941765D01*
X135764521Y-97905361D01*
X135750500Y-97854571D01*
X135750500Y-97815110D01*
X135750500Y-97810252D01*
X135738867Y-97751769D01*
X135722818Y-97727751D01*
X136024824Y-97727751D01*
X136030009Y-97737877D01*
X136355785Y-98063653D01*
X136364999Y-98068973D01*
X136374216Y-98063651D01*
X136699987Y-97737879D01*
X136705173Y-97727751D01*
X137294824Y-97727751D01*
X137300009Y-97737877D01*
X137625785Y-98063653D01*
X137634999Y-98068973D01*
X137644216Y-98063651D01*
X137969987Y-97737879D01*
X137975173Y-97727751D01*
X137967208Y-97719624D01*
X137874280Y-97670851D01*
X137863151Y-97666631D01*
X137720346Y-97631433D01*
X137708543Y-97630000D01*
X137561457Y-97630000D01*
X137549653Y-97631433D01*
X137406848Y-97666631D01*
X137395719Y-97670851D01*
X137302790Y-97719624D01*
X137294824Y-97727751D01*
X136705173Y-97727751D01*
X136697208Y-97719624D01*
X136604280Y-97670851D01*
X136593151Y-97666631D01*
X136450346Y-97631433D01*
X136438543Y-97630000D01*
X136291457Y-97630000D01*
X136279653Y-97631433D01*
X136136848Y-97666631D01*
X136125719Y-97670851D01*
X136032790Y-97719624D01*
X136024824Y-97727751D01*
X135722818Y-97727751D01*
X135694552Y-97685448D01*
X135677973Y-97674370D01*
X135636340Y-97646551D01*
X135636338Y-97646550D01*
X135628231Y-97641133D01*
X135618667Y-97639230D01*
X135618666Y-97639230D01*
X135574511Y-97630447D01*
X135574506Y-97630446D01*
X135569748Y-97629500D01*
X134620252Y-97629500D01*
X134615494Y-97630446D01*
X134615488Y-97630447D01*
X134571333Y-97639230D01*
X134571330Y-97639231D01*
X134561769Y-97641133D01*
X134553663Y-97646549D01*
X134553659Y-97646551D01*
X134519502Y-97669375D01*
X134469358Y-97685941D01*
X134417832Y-97674370D01*
X134379585Y-97637956D01*
X134365500Y-97587060D01*
X134365500Y-90747617D01*
X134373036Y-90709731D01*
X134394496Y-90677613D01*
X134709207Y-90362902D01*
X136859171Y-88212936D01*
X136874169Y-88200629D01*
X136887810Y-88191516D01*
X136945385Y-88105348D01*
X136955400Y-88055000D01*
X136965604Y-88003706D01*
X136962402Y-87987609D01*
X136960500Y-87968294D01*
X136960500Y-81435412D01*
X136962402Y-81416097D01*
X136963702Y-81409562D01*
X136963702Y-81409561D01*
X136965604Y-81400000D01*
X136945385Y-81298358D01*
X136902342Y-81233939D01*
X136887810Y-81212190D01*
X136879876Y-81206889D01*
X136858535Y-81174948D01*
X136850999Y-81137062D01*
X136850999Y-80458410D01*
X136858535Y-80420525D01*
X136879995Y-80388407D01*
X136902683Y-80365717D01*
X137020497Y-80247904D01*
X137071186Y-80220810D01*
X137128385Y-80226444D01*
G37*
%TD.AperFunction*%
%TA.AperFunction,Conductor*%
G36*
X150003234Y-71200712D02*
G01*
X150228412Y-71215470D01*
X150241237Y-71217159D01*
X150459386Y-71260551D01*
X150471886Y-71263900D01*
X150682500Y-71335395D01*
X150694463Y-71340351D01*
X150893926Y-71438715D01*
X150905142Y-71445190D01*
X151090072Y-71568757D01*
X151100345Y-71576640D01*
X151267560Y-71723282D01*
X151276717Y-71732439D01*
X151423359Y-71899654D01*
X151431242Y-71909927D01*
X151554809Y-72094857D01*
X151561284Y-72106073D01*
X151659648Y-72305536D01*
X151664604Y-72317499D01*
X151736097Y-72528108D01*
X151739449Y-72540617D01*
X151782839Y-72758755D01*
X151784529Y-72771594D01*
X151799288Y-72996766D01*
X151799500Y-73003241D01*
X151799500Y-117875942D01*
X151791964Y-117913828D01*
X151770504Y-117945946D01*
X139945947Y-129770504D01*
X139913829Y-129791964D01*
X139875943Y-129799500D01*
X134124058Y-129799500D01*
X134086172Y-129791964D01*
X134054054Y-129770504D01*
X126283549Y-122000000D01*
X127739397Y-122000000D01*
X127741299Y-122009562D01*
X127744500Y-122025654D01*
X127757712Y-122092079D01*
X127757713Y-122092082D01*
X127759615Y-122101642D01*
X127817190Y-122187810D01*
X127825299Y-122193228D01*
X127825301Y-122193230D01*
X127830831Y-122196925D01*
X127845835Y-122209237D01*
X133195762Y-127559164D01*
X133208072Y-127574165D01*
X133211769Y-127579698D01*
X133211771Y-127579700D01*
X133217190Y-127587810D01*
X133303358Y-127645385D01*
X133405000Y-127665603D01*
X133421093Y-127662401D01*
X133440406Y-127660500D01*
X135649594Y-127660500D01*
X135668906Y-127662401D01*
X135685000Y-127665603D01*
X135786642Y-127645385D01*
X135786641Y-127645385D01*
X135872810Y-127587810D01*
X135881927Y-127574165D01*
X135894232Y-127559168D01*
X136083465Y-127369935D01*
X136126883Y-127344577D01*
X136177156Y-127343818D01*
X136285408Y-127370500D01*
X136438604Y-127370500D01*
X136444592Y-127370500D01*
X136599151Y-127332404D01*
X136740101Y-127258428D01*
X136859252Y-127152869D01*
X136918525Y-127066996D01*
X136953992Y-127035575D01*
X137000000Y-127024235D01*
X137046008Y-127035575D01*
X137081474Y-127066996D01*
X137140748Y-127152869D01*
X137259899Y-127258428D01*
X137400849Y-127332404D01*
X137555408Y-127370500D01*
X137708604Y-127370500D01*
X137714592Y-127370500D01*
X137826851Y-127342830D01*
X137877127Y-127343589D01*
X137920547Y-127368949D01*
X138310762Y-127759164D01*
X138323072Y-127774165D01*
X138326769Y-127779698D01*
X138326771Y-127779700D01*
X138332190Y-127787810D01*
X138418358Y-127845385D01*
X138520000Y-127865603D01*
X138536093Y-127862401D01*
X138555406Y-127860500D01*
X140564594Y-127860500D01*
X140583906Y-127862401D01*
X140600000Y-127865603D01*
X140701642Y-127845385D01*
X140701641Y-127845385D01*
X140787810Y-127787810D01*
X140796927Y-127774165D01*
X140809232Y-127759168D01*
X146559171Y-122009230D01*
X146574169Y-121996923D01*
X146587810Y-121987810D01*
X146645385Y-121901642D01*
X146652554Y-121865603D01*
X146665604Y-121800000D01*
X146662402Y-121783903D01*
X146660500Y-121764588D01*
X146660500Y-84785406D01*
X146662402Y-84766091D01*
X146663701Y-84759561D01*
X146665603Y-84750000D01*
X146645385Y-84648358D01*
X146602341Y-84583938D01*
X146587810Y-84562190D01*
X146579700Y-84556771D01*
X146574168Y-84553074D01*
X146559167Y-84540764D01*
X144739496Y-82721094D01*
X144718036Y-82688976D01*
X144710500Y-82651090D01*
X144710500Y-82000000D01*
X146794357Y-82000000D01*
X146814885Y-82221536D01*
X146816134Y-82225926D01*
X146816135Y-82225931D01*
X146874517Y-82431123D01*
X146874519Y-82431129D01*
X146875771Y-82435528D01*
X146974942Y-82634689D01*
X146977694Y-82638333D01*
X146977697Y-82638338D01*
X147018295Y-82692098D01*
X147109019Y-82812236D01*
X147273438Y-82962124D01*
X147462599Y-83079247D01*
X147466866Y-83080900D01*
X147665790Y-83157964D01*
X147665792Y-83157964D01*
X147670060Y-83159618D01*
X147888757Y-83200500D01*
X148106660Y-83200500D01*
X148111243Y-83200500D01*
X148329940Y-83159618D01*
X148537401Y-83079247D01*
X148726562Y-82962124D01*
X148890981Y-82812236D01*
X149025058Y-82634689D01*
X149124229Y-82435528D01*
X149185115Y-82221536D01*
X149205643Y-82000000D01*
X149185115Y-81778464D01*
X149124229Y-81564472D01*
X149025058Y-81365311D01*
X148890981Y-81187764D01*
X148726562Y-81037876D01*
X148537401Y-80920753D01*
X148533138Y-80919101D01*
X148533133Y-80919099D01*
X148334209Y-80842035D01*
X148334201Y-80842032D01*
X148329940Y-80840382D01*
X148325436Y-80839540D01*
X148115749Y-80800342D01*
X148115745Y-80800341D01*
X148111243Y-80799500D01*
X147888757Y-80799500D01*
X147884255Y-80800341D01*
X147884250Y-80800342D01*
X147674563Y-80839540D01*
X147674560Y-80839540D01*
X147670060Y-80840382D01*
X147665801Y-80842031D01*
X147665790Y-80842035D01*
X147466866Y-80919099D01*
X147466857Y-80919103D01*
X147462599Y-80920753D01*
X147458713Y-80923158D01*
X147458709Y-80923161D01*
X147277326Y-81035468D01*
X147277321Y-81035471D01*
X147273438Y-81037876D01*
X147270063Y-81040952D01*
X147270056Y-81040958D01*
X147164636Y-81137062D01*
X147109019Y-81187764D01*
X147106268Y-81191406D01*
X147106266Y-81191409D01*
X146977697Y-81361661D01*
X146977690Y-81361670D01*
X146974942Y-81365311D01*
X146972904Y-81369403D01*
X146972902Y-81369407D01*
X146877813Y-81560370D01*
X146877811Y-81560375D01*
X146875771Y-81564472D01*
X146874520Y-81568866D01*
X146874517Y-81568876D01*
X146816135Y-81774068D01*
X146816133Y-81774075D01*
X146814885Y-81778464D01*
X146794357Y-82000000D01*
X144710500Y-82000000D01*
X144710500Y-76946900D01*
X144718036Y-76909014D01*
X144739496Y-76876896D01*
X144753257Y-76863135D01*
X144778050Y-76838342D01*
X144835646Y-76725304D01*
X144855492Y-76600000D01*
X144835646Y-76474696D01*
X144778050Y-76361658D01*
X144688342Y-76271950D01*
X144575304Y-76214354D01*
X144567610Y-76213135D01*
X144567609Y-76213135D01*
X144457697Y-76195727D01*
X144450000Y-76194508D01*
X144442303Y-76195727D01*
X144332390Y-76213135D01*
X144332387Y-76213135D01*
X144324696Y-76214354D01*
X144317758Y-76217888D01*
X144317755Y-76217890D01*
X144218597Y-76268414D01*
X144218595Y-76268415D01*
X144211658Y-76271950D01*
X144206154Y-76277453D01*
X144206151Y-76277456D01*
X144127456Y-76356151D01*
X144127453Y-76356154D01*
X144121950Y-76361658D01*
X144118415Y-76368595D01*
X144118414Y-76368597D01*
X144067890Y-76467755D01*
X144067888Y-76467758D01*
X144064354Y-76474696D01*
X144063135Y-76482387D01*
X144063135Y-76482390D01*
X144047781Y-76579334D01*
X144024261Y-76629317D01*
X143977620Y-76658916D01*
X143922380Y-76658916D01*
X143875739Y-76629317D01*
X143852219Y-76579334D01*
X143844069Y-76527876D01*
X143835646Y-76474696D01*
X143778050Y-76361658D01*
X143688342Y-76271950D01*
X143575304Y-76214354D01*
X143567610Y-76213135D01*
X143567609Y-76213135D01*
X143457697Y-76195727D01*
X143450000Y-76194508D01*
X143442303Y-76195727D01*
X143332390Y-76213135D01*
X143332387Y-76213135D01*
X143324696Y-76214354D01*
X143317758Y-76217888D01*
X143317755Y-76217890D01*
X143218597Y-76268414D01*
X143218595Y-76268415D01*
X143211658Y-76271950D01*
X143206154Y-76277453D01*
X143206151Y-76277456D01*
X143127456Y-76356151D01*
X143127453Y-76356154D01*
X143121950Y-76361658D01*
X143118415Y-76368595D01*
X143118414Y-76368597D01*
X143064354Y-76474696D01*
X143062787Y-76473897D01*
X143042771Y-76505439D01*
X142999621Y-76529162D01*
X142950379Y-76529162D01*
X142907229Y-76505439D01*
X142887212Y-76473897D01*
X142885646Y-76474696D01*
X142828050Y-76361658D01*
X142738342Y-76271950D01*
X142625304Y-76214354D01*
X142617610Y-76213135D01*
X142617609Y-76213135D01*
X142507697Y-76195727D01*
X142500000Y-76194508D01*
X142492303Y-76195727D01*
X142382390Y-76213135D01*
X142382387Y-76213135D01*
X142374696Y-76214354D01*
X142367758Y-76217888D01*
X142367755Y-76217890D01*
X142268597Y-76268414D01*
X142268595Y-76268415D01*
X142261658Y-76271950D01*
X142256154Y-76277453D01*
X142256151Y-76277456D01*
X142177456Y-76356151D01*
X142177453Y-76356154D01*
X142171950Y-76361658D01*
X142168415Y-76368595D01*
X142168414Y-76368597D01*
X142138210Y-76427876D01*
X142101727Y-76467342D01*
X142050000Y-76481931D01*
X141998273Y-76467342D01*
X141961790Y-76427876D01*
X141936790Y-76378812D01*
X141928050Y-76361658D01*
X141838342Y-76271950D01*
X141725304Y-76214354D01*
X141717610Y-76213135D01*
X141717609Y-76213135D01*
X141607697Y-76195727D01*
X141600000Y-76194508D01*
X141592303Y-76195727D01*
X141482390Y-76213135D01*
X141482387Y-76213135D01*
X141474696Y-76214354D01*
X141467758Y-76217888D01*
X141467755Y-76217890D01*
X141368597Y-76268414D01*
X141368595Y-76268415D01*
X141361658Y-76271950D01*
X141356154Y-76277453D01*
X141356151Y-76277456D01*
X141277456Y-76356151D01*
X141277453Y-76356154D01*
X141271950Y-76361658D01*
X141268415Y-76368595D01*
X141268414Y-76368597D01*
X141217890Y-76467755D01*
X141217888Y-76467758D01*
X141214354Y-76474696D01*
X141213135Y-76482387D01*
X141213135Y-76482390D01*
X141197781Y-76579334D01*
X141174261Y-76629317D01*
X141127620Y-76658916D01*
X141072380Y-76658916D01*
X141025739Y-76629317D01*
X141002219Y-76579334D01*
X140994069Y-76527876D01*
X140985646Y-76474696D01*
X140928050Y-76361658D01*
X140838342Y-76271950D01*
X140725304Y-76214354D01*
X140717610Y-76213135D01*
X140717609Y-76213135D01*
X140607697Y-76195727D01*
X140600000Y-76194508D01*
X140592303Y-76195727D01*
X140482390Y-76213135D01*
X140482387Y-76213135D01*
X140474696Y-76214354D01*
X140467758Y-76217888D01*
X140467755Y-76217890D01*
X140368597Y-76268414D01*
X140368595Y-76268415D01*
X140361658Y-76271950D01*
X140356154Y-76277453D01*
X140356151Y-76277456D01*
X140277456Y-76356151D01*
X140277453Y-76356154D01*
X140271950Y-76361658D01*
X140268416Y-76368592D01*
X140268412Y-76368599D01*
X140263209Y-76378812D01*
X140226727Y-76418278D01*
X140175000Y-76432866D01*
X140123273Y-76418278D01*
X140086791Y-76378812D01*
X140081587Y-76368599D01*
X140081585Y-76368597D01*
X140078050Y-76361658D01*
X139988342Y-76271950D01*
X139875304Y-76214354D01*
X139867610Y-76213135D01*
X139867609Y-76213135D01*
X139757697Y-76195727D01*
X139750000Y-76194508D01*
X139742303Y-76195727D01*
X139632390Y-76213135D01*
X139632387Y-76213135D01*
X139624696Y-76214354D01*
X139617758Y-76217888D01*
X139617755Y-76217890D01*
X139518597Y-76268414D01*
X139518595Y-76268415D01*
X139511658Y-76271950D01*
X139506154Y-76277453D01*
X139506151Y-76277456D01*
X139427456Y-76356151D01*
X139427453Y-76356154D01*
X139421950Y-76361658D01*
X139418415Y-76368595D01*
X139418414Y-76368597D01*
X139367890Y-76467755D01*
X139367888Y-76467758D01*
X139364354Y-76474696D01*
X139363135Y-76482387D01*
X139363135Y-76482390D01*
X139347781Y-76579334D01*
X139324261Y-76629317D01*
X139277620Y-76658916D01*
X139222380Y-76658916D01*
X139175739Y-76629317D01*
X139152219Y-76579334D01*
X139144069Y-76527876D01*
X139135646Y-76474696D01*
X139078050Y-76361658D01*
X138988342Y-76271950D01*
X138875304Y-76214354D01*
X138867610Y-76213135D01*
X138867609Y-76213135D01*
X138757697Y-76195727D01*
X138750000Y-76194508D01*
X138742303Y-76195727D01*
X138632390Y-76213135D01*
X138632387Y-76213135D01*
X138624696Y-76214354D01*
X138617758Y-76217888D01*
X138617755Y-76217890D01*
X138518597Y-76268414D01*
X138518595Y-76268415D01*
X138511658Y-76271950D01*
X138506154Y-76277453D01*
X138506151Y-76277456D01*
X138427456Y-76356151D01*
X138427453Y-76356154D01*
X138421950Y-76361658D01*
X138418416Y-76368592D01*
X138418412Y-76368599D01*
X138413209Y-76378812D01*
X138376727Y-76418278D01*
X138325000Y-76432866D01*
X138273273Y-76418278D01*
X138236791Y-76378812D01*
X138231587Y-76368599D01*
X138231585Y-76368597D01*
X138228050Y-76361658D01*
X138138342Y-76271950D01*
X138025304Y-76214354D01*
X138017610Y-76213135D01*
X138017609Y-76213135D01*
X137907697Y-76195727D01*
X137900000Y-76194508D01*
X137892303Y-76195727D01*
X137782390Y-76213135D01*
X137782387Y-76213135D01*
X137774696Y-76214354D01*
X137767758Y-76217888D01*
X137767755Y-76217890D01*
X137668597Y-76268414D01*
X137668595Y-76268415D01*
X137661658Y-76271950D01*
X137656154Y-76277453D01*
X137656151Y-76277456D01*
X137577456Y-76356151D01*
X137577453Y-76356154D01*
X137571950Y-76361658D01*
X137568416Y-76368592D01*
X137568412Y-76368599D01*
X137540709Y-76422970D01*
X137504227Y-76462436D01*
X137452500Y-76477024D01*
X137400773Y-76462436D01*
X137364291Y-76422970D01*
X137336587Y-76368599D01*
X137336585Y-76368597D01*
X137333050Y-76361658D01*
X137243342Y-76271950D01*
X137130304Y-76214354D01*
X137122610Y-76213135D01*
X137122609Y-76213135D01*
X137012697Y-76195727D01*
X137005000Y-76194508D01*
X136997303Y-76195727D01*
X136887390Y-76213135D01*
X136887387Y-76213135D01*
X136879696Y-76214354D01*
X136872758Y-76217888D01*
X136872755Y-76217890D01*
X136773597Y-76268414D01*
X136773595Y-76268415D01*
X136766658Y-76271950D01*
X136761154Y-76277453D01*
X136761151Y-76277456D01*
X136682456Y-76356151D01*
X136682453Y-76356154D01*
X136676950Y-76361658D01*
X136673415Y-76368595D01*
X136673414Y-76368597D01*
X136622890Y-76467755D01*
X136622888Y-76467758D01*
X136619354Y-76474696D01*
X136618136Y-76482385D01*
X136618135Y-76482389D01*
X136612557Y-76517608D01*
X136584779Y-76572124D01*
X136530262Y-76599900D01*
X136469830Y-76590328D01*
X136426567Y-76547065D01*
X136383050Y-76461658D01*
X136293342Y-76371950D01*
X136180304Y-76314354D01*
X136172610Y-76313135D01*
X136172609Y-76313135D01*
X136062697Y-76295727D01*
X136055000Y-76294508D01*
X136047303Y-76295727D01*
X135937390Y-76313135D01*
X135937387Y-76313135D01*
X135929696Y-76314354D01*
X135922758Y-76317888D01*
X135922755Y-76317890D01*
X135823597Y-76368414D01*
X135823595Y-76368415D01*
X135816658Y-76371950D01*
X135811154Y-76377453D01*
X135811151Y-76377456D01*
X135732456Y-76456151D01*
X135732453Y-76456154D01*
X135726950Y-76461658D01*
X135723415Y-76468595D01*
X135723414Y-76468597D01*
X135669354Y-76574696D01*
X135667787Y-76573897D01*
X135647771Y-76605439D01*
X135604621Y-76629162D01*
X135555379Y-76629162D01*
X135512229Y-76605439D01*
X135492212Y-76573897D01*
X135490646Y-76574696D01*
X135433050Y-76461658D01*
X135343342Y-76371950D01*
X135230304Y-76314354D01*
X135222610Y-76313135D01*
X135222609Y-76313135D01*
X135112697Y-76295727D01*
X135105000Y-76294508D01*
X135097303Y-76295727D01*
X134987390Y-76313135D01*
X134987387Y-76313135D01*
X134979696Y-76314354D01*
X134972758Y-76317888D01*
X134972755Y-76317890D01*
X134873597Y-76368414D01*
X134873595Y-76368415D01*
X134866658Y-76371950D01*
X134861154Y-76377453D01*
X134861151Y-76377456D01*
X134782456Y-76456151D01*
X134782453Y-76456154D01*
X134776950Y-76461658D01*
X134773415Y-76468595D01*
X134773414Y-76468597D01*
X134743210Y-76527876D01*
X134706727Y-76567342D01*
X134655000Y-76581931D01*
X134603273Y-76567342D01*
X134566790Y-76527876D01*
X134561558Y-76517608D01*
X134533050Y-76461658D01*
X134443342Y-76371950D01*
X134330304Y-76314354D01*
X134322610Y-76313135D01*
X134322609Y-76313135D01*
X134212697Y-76295727D01*
X134205000Y-76294508D01*
X134197303Y-76295727D01*
X134087390Y-76313135D01*
X134087387Y-76313135D01*
X134079696Y-76314354D01*
X134072758Y-76317888D01*
X134072755Y-76317890D01*
X133973597Y-76368414D01*
X133973595Y-76368415D01*
X133966658Y-76371950D01*
X133961154Y-76377453D01*
X133961151Y-76377456D01*
X133882456Y-76456151D01*
X133882453Y-76456154D01*
X133876950Y-76461658D01*
X133873415Y-76468595D01*
X133873414Y-76468597D01*
X133843210Y-76527876D01*
X133806727Y-76567342D01*
X133755000Y-76581931D01*
X133703273Y-76567342D01*
X133666790Y-76527876D01*
X133661558Y-76517608D01*
X133633050Y-76461658D01*
X133543342Y-76371950D01*
X133430304Y-76314354D01*
X133422610Y-76313135D01*
X133422609Y-76313135D01*
X133312697Y-76295727D01*
X133305000Y-76294508D01*
X133297303Y-76295727D01*
X133187390Y-76313135D01*
X133187387Y-76313135D01*
X133179696Y-76314354D01*
X133172758Y-76317888D01*
X133172755Y-76317890D01*
X133073597Y-76368414D01*
X133073595Y-76368415D01*
X133066658Y-76371950D01*
X133061154Y-76377453D01*
X133061151Y-76377456D01*
X132982456Y-76456151D01*
X132982453Y-76456154D01*
X132976950Y-76461658D01*
X132973416Y-76468592D01*
X132973412Y-76468599D01*
X132940709Y-76532783D01*
X132904227Y-76572249D01*
X132852500Y-76586837D01*
X132800773Y-76572249D01*
X132764291Y-76532783D01*
X132731587Y-76468599D01*
X132731585Y-76468597D01*
X132728050Y-76461658D01*
X132638342Y-76371950D01*
X132525304Y-76314354D01*
X132517610Y-76313135D01*
X132517609Y-76313135D01*
X132407697Y-76295727D01*
X132400000Y-76294508D01*
X132392303Y-76295727D01*
X132282390Y-76313135D01*
X132282387Y-76313135D01*
X132274696Y-76314354D01*
X132267758Y-76317888D01*
X132267755Y-76317890D01*
X132168597Y-76368414D01*
X132168595Y-76368415D01*
X132161658Y-76371950D01*
X132156154Y-76377453D01*
X132156151Y-76377456D01*
X132077456Y-76456151D01*
X132077453Y-76456154D01*
X132071950Y-76461658D01*
X132068415Y-76468595D01*
X132068414Y-76468597D01*
X132014354Y-76574696D01*
X132012787Y-76573897D01*
X131992771Y-76605439D01*
X131949621Y-76629162D01*
X131900379Y-76629162D01*
X131857229Y-76605439D01*
X131837212Y-76573897D01*
X131835646Y-76574696D01*
X131778050Y-76461658D01*
X131688342Y-76371950D01*
X131575304Y-76314354D01*
X131567610Y-76313135D01*
X131567609Y-76313135D01*
X131457697Y-76295727D01*
X131450000Y-76294508D01*
X131442303Y-76295727D01*
X131332390Y-76313135D01*
X131332387Y-76313135D01*
X131324696Y-76314354D01*
X131317758Y-76317888D01*
X131317755Y-76317890D01*
X131218597Y-76368414D01*
X131218595Y-76368415D01*
X131211658Y-76371950D01*
X131206154Y-76377453D01*
X131206151Y-76377456D01*
X131127456Y-76456151D01*
X131127453Y-76456154D01*
X131121950Y-76461658D01*
X131118415Y-76468595D01*
X131118414Y-76468597D01*
X131064354Y-76574696D01*
X131062787Y-76573897D01*
X131042771Y-76605439D01*
X130999621Y-76629162D01*
X130950379Y-76629162D01*
X130907229Y-76605439D01*
X130887212Y-76573897D01*
X130885646Y-76574696D01*
X130828050Y-76461658D01*
X130738342Y-76371950D01*
X130625304Y-76314354D01*
X130617610Y-76313135D01*
X130617609Y-76313135D01*
X130507697Y-76295727D01*
X130500000Y-76294508D01*
X130492303Y-76295727D01*
X130382390Y-76313135D01*
X130382387Y-76313135D01*
X130374696Y-76314354D01*
X130367758Y-76317888D01*
X130367755Y-76317890D01*
X130268597Y-76368414D01*
X130268595Y-76368415D01*
X130261658Y-76371950D01*
X130256154Y-76377453D01*
X130256151Y-76377456D01*
X130177456Y-76456151D01*
X130177453Y-76456154D01*
X130171950Y-76461658D01*
X130168415Y-76468595D01*
X130168414Y-76468597D01*
X130117890Y-76567755D01*
X130117888Y-76567758D01*
X130114354Y-76574696D01*
X130113135Y-76582387D01*
X130113135Y-76582390D01*
X130105703Y-76629317D01*
X130094508Y-76700000D01*
X130095727Y-76707697D01*
X130095727Y-76707698D01*
X130100259Y-76736314D01*
X130094902Y-76787279D01*
X130064781Y-76828737D01*
X130017966Y-76849581D01*
X129932390Y-76863135D01*
X129932387Y-76863135D01*
X129924696Y-76864354D01*
X129917758Y-76867888D01*
X129917755Y-76867890D01*
X129818597Y-76918414D01*
X129818595Y-76918415D01*
X129811658Y-76921950D01*
X129806154Y-76927453D01*
X129806151Y-76927456D01*
X129727456Y-77006151D01*
X129727453Y-77006154D01*
X129721950Y-77011658D01*
X129718415Y-77018595D01*
X129718414Y-77018597D01*
X129667890Y-77117755D01*
X129667888Y-77117758D01*
X129664354Y-77124696D01*
X129644508Y-77250000D01*
X129664354Y-77375304D01*
X129721950Y-77488342D01*
X129727456Y-77493848D01*
X129760504Y-77526896D01*
X129781964Y-77559014D01*
X129789500Y-77596900D01*
X129789500Y-85006089D01*
X129781964Y-85043975D01*
X129760504Y-85076093D01*
X127845832Y-86990764D01*
X127830835Y-87003072D01*
X127825300Y-87006770D01*
X127825297Y-87006772D01*
X127817190Y-87012190D01*
X127811773Y-87020296D01*
X127811771Y-87020299D01*
X127766662Y-87087810D01*
X127766663Y-87087810D01*
X127759615Y-87098358D01*
X127757713Y-87107919D01*
X127757712Y-87107922D01*
X127743594Y-87178902D01*
X127739397Y-87200000D01*
X127741299Y-87209561D01*
X127742598Y-87216091D01*
X127744500Y-87235406D01*
X127744500Y-121964594D01*
X127742598Y-121983906D01*
X127739397Y-122000000D01*
X126283549Y-122000000D01*
X122229496Y-117945947D01*
X122208036Y-117913829D01*
X122200500Y-117875943D01*
X122200500Y-98869881D01*
X122200500Y-98866894D01*
X122168412Y-98602624D01*
X122104703Y-98344148D01*
X122010303Y-98095236D01*
X121886589Y-97859517D01*
X121881442Y-97852061D01*
X121766437Y-97685448D01*
X121735363Y-97640430D01*
X121558832Y-97441168D01*
X121441791Y-97337479D01*
X121361805Y-97266617D01*
X121361804Y-97266616D01*
X121359570Y-97264637D01*
X121266652Y-97200500D01*
X121142948Y-97115112D01*
X121142942Y-97115108D01*
X121140483Y-97113411D01*
X120904764Y-96989697D01*
X120655852Y-96895297D01*
X120652951Y-96894582D01*
X120652948Y-96894581D01*
X120526613Y-96863442D01*
X120397376Y-96831588D01*
X120394412Y-96831228D01*
X120394406Y-96831227D01*
X120136073Y-96799860D01*
X120136068Y-96799859D01*
X120133106Y-96799500D01*
X120130119Y-96799500D01*
X104779000Y-96799500D01*
X104729500Y-96786237D01*
X104693263Y-96750000D01*
X104680000Y-96700500D01*
X104680000Y-84299500D01*
X104693263Y-84250000D01*
X104729500Y-84213763D01*
X104779000Y-84200500D01*
X120130119Y-84200500D01*
X120133106Y-84200500D01*
X120397376Y-84168412D01*
X120655852Y-84104703D01*
X120904764Y-84010303D01*
X121140483Y-83886589D01*
X121359570Y-83735363D01*
X121558832Y-83558832D01*
X121735363Y-83359570D01*
X121886589Y-83140483D01*
X122010303Y-82904764D01*
X122104703Y-82655852D01*
X122168412Y-82397376D01*
X122200500Y-82133106D01*
X122200500Y-82000000D01*
X124794357Y-82000000D01*
X124814885Y-82221536D01*
X124816134Y-82225926D01*
X124816135Y-82225931D01*
X124874517Y-82431123D01*
X124874519Y-82431129D01*
X124875771Y-82435528D01*
X124974942Y-82634689D01*
X124977694Y-82638333D01*
X124977697Y-82638338D01*
X125018295Y-82692098D01*
X125109019Y-82812236D01*
X125273438Y-82962124D01*
X125462599Y-83079247D01*
X125466866Y-83080900D01*
X125665790Y-83157964D01*
X125665792Y-83157964D01*
X125670060Y-83159618D01*
X125888757Y-83200500D01*
X126106660Y-83200500D01*
X126111243Y-83200500D01*
X126329940Y-83159618D01*
X126537401Y-83079247D01*
X126726562Y-82962124D01*
X126890981Y-82812236D01*
X127025058Y-82634689D01*
X127124229Y-82435528D01*
X127185115Y-82221536D01*
X127205643Y-82000000D01*
X127185115Y-81778464D01*
X127124229Y-81564472D01*
X127025058Y-81365311D01*
X126890981Y-81187764D01*
X126726562Y-81037876D01*
X126537401Y-80920753D01*
X126533138Y-80919101D01*
X126533133Y-80919099D01*
X126334209Y-80842035D01*
X126334201Y-80842032D01*
X126329940Y-80840382D01*
X126325436Y-80839540D01*
X126115749Y-80800342D01*
X126115745Y-80800341D01*
X126111243Y-80799500D01*
X125888757Y-80799500D01*
X125884255Y-80800341D01*
X125884250Y-80800342D01*
X125674563Y-80839540D01*
X125674560Y-80839540D01*
X125670060Y-80840382D01*
X125665801Y-80842031D01*
X125665790Y-80842035D01*
X125466866Y-80919099D01*
X125466857Y-80919103D01*
X125462599Y-80920753D01*
X125458713Y-80923158D01*
X125458709Y-80923161D01*
X125277326Y-81035468D01*
X125277321Y-81035471D01*
X125273438Y-81037876D01*
X125270063Y-81040952D01*
X125270056Y-81040958D01*
X125164636Y-81137062D01*
X125109019Y-81187764D01*
X125106268Y-81191406D01*
X125106266Y-81191409D01*
X124977697Y-81361661D01*
X124977690Y-81361670D01*
X124974942Y-81365311D01*
X124972904Y-81369403D01*
X124972902Y-81369407D01*
X124877813Y-81560370D01*
X124877811Y-81560375D01*
X124875771Y-81564472D01*
X124874520Y-81568866D01*
X124874517Y-81568876D01*
X124816135Y-81774068D01*
X124816133Y-81774075D01*
X124814885Y-81778464D01*
X124794357Y-82000000D01*
X122200500Y-82000000D01*
X122200500Y-81960118D01*
X122200500Y-75864840D01*
X145950000Y-75864840D01*
X145950947Y-75874461D01*
X145959701Y-75918473D01*
X145967020Y-75936142D01*
X146000389Y-75986082D01*
X146013917Y-75999610D01*
X146063857Y-76032979D01*
X146081526Y-76040298D01*
X146125538Y-76049052D01*
X146135160Y-76050000D01*
X146836967Y-76050000D01*
X146847245Y-76047245D01*
X146850000Y-76036967D01*
X147150000Y-76036967D01*
X147152754Y-76047245D01*
X147163033Y-76050000D01*
X147864840Y-76050000D01*
X147874461Y-76049052D01*
X147918473Y-76040298D01*
X147936142Y-76032979D01*
X147986082Y-75999610D01*
X147999610Y-75986082D01*
X148032979Y-75936142D01*
X148040298Y-75918473D01*
X148049052Y-75874461D01*
X148050000Y-75864840D01*
X148050000Y-75163033D01*
X148047245Y-75152754D01*
X148036967Y-75150000D01*
X147163033Y-75150000D01*
X147152754Y-75152754D01*
X147150000Y-75163033D01*
X147150000Y-76036967D01*
X146850000Y-76036967D01*
X146850000Y-75163033D01*
X146847245Y-75152754D01*
X146836967Y-75150000D01*
X145963033Y-75150000D01*
X145952754Y-75152754D01*
X145950000Y-75163033D01*
X145950000Y-75864840D01*
X122200500Y-75864840D01*
X122200500Y-75000000D01*
X148484417Y-75000000D01*
X148504700Y-75205934D01*
X148564768Y-75403954D01*
X148567062Y-75408246D01*
X148567063Y-75408248D01*
X148660023Y-75582163D01*
X148660025Y-75582166D01*
X148662315Y-75586450D01*
X148793590Y-75746410D01*
X148953550Y-75877685D01*
X149136046Y-75975232D01*
X149334066Y-76035300D01*
X149540000Y-76055583D01*
X149745934Y-76035300D01*
X149943954Y-75975232D01*
X150126450Y-75877685D01*
X150286410Y-75746410D01*
X150417685Y-75586450D01*
X150515232Y-75403954D01*
X150575300Y-75205934D01*
X150595583Y-75000000D01*
X150575300Y-74794066D01*
X150515232Y-74596046D01*
X150417685Y-74413550D01*
X150286410Y-74253590D01*
X150126450Y-74122315D01*
X150122166Y-74120025D01*
X150122163Y-74120023D01*
X149948248Y-74027063D01*
X149948246Y-74027062D01*
X149943954Y-74024768D01*
X149908183Y-74013917D01*
X149750590Y-73966112D01*
X149750586Y-73966111D01*
X149745934Y-73964700D01*
X149540000Y-73944417D01*
X149535157Y-73944894D01*
X149338908Y-73964223D01*
X149338907Y-73964223D01*
X149334066Y-73964700D01*
X149329415Y-73966110D01*
X149329409Y-73966112D01*
X149140706Y-74023354D01*
X149140702Y-74023355D01*
X149136046Y-74024768D01*
X149131757Y-74027060D01*
X149131751Y-74027063D01*
X148957836Y-74120023D01*
X148957828Y-74120028D01*
X148953550Y-74122315D01*
X148949796Y-74125394D01*
X148949791Y-74125399D01*
X148797354Y-74250500D01*
X148797348Y-74250505D01*
X148793590Y-74253590D01*
X148790505Y-74257348D01*
X148790500Y-74257354D01*
X148665399Y-74409791D01*
X148665394Y-74409796D01*
X148662315Y-74413550D01*
X148660028Y-74417828D01*
X148660023Y-74417836D01*
X148567063Y-74591751D01*
X148567060Y-74591757D01*
X148564768Y-74596046D01*
X148563355Y-74600702D01*
X148563354Y-74600706D01*
X148506112Y-74789409D01*
X148506110Y-74789415D01*
X148504700Y-74794066D01*
X148504223Y-74798907D01*
X148504223Y-74798908D01*
X148499462Y-74847245D01*
X148484417Y-75000000D01*
X122200500Y-75000000D01*
X122200500Y-74836967D01*
X145950000Y-74836967D01*
X145952754Y-74847245D01*
X145963033Y-74850000D01*
X146836967Y-74850000D01*
X146847245Y-74847245D01*
X146850000Y-74836967D01*
X147150000Y-74836967D01*
X147152754Y-74847245D01*
X147163033Y-74850000D01*
X148036967Y-74850000D01*
X148047245Y-74847245D01*
X148050000Y-74836967D01*
X148050000Y-74135160D01*
X148049052Y-74125538D01*
X148040298Y-74081526D01*
X148032979Y-74063857D01*
X147999610Y-74013917D01*
X147986082Y-74000389D01*
X147936142Y-73967020D01*
X147918473Y-73959701D01*
X147874461Y-73950947D01*
X147864840Y-73950000D01*
X147163033Y-73950000D01*
X147152754Y-73952754D01*
X147150000Y-73963033D01*
X147150000Y-74836967D01*
X146850000Y-74836967D01*
X146850000Y-73963033D01*
X146847245Y-73952754D01*
X146836967Y-73950000D01*
X146135160Y-73950000D01*
X146125538Y-73950947D01*
X146081526Y-73959701D01*
X146063857Y-73967020D01*
X146013917Y-74000389D01*
X146000389Y-74013917D01*
X145967020Y-74063857D01*
X145959701Y-74081526D01*
X145950947Y-74125538D01*
X145950000Y-74135160D01*
X145950000Y-74836967D01*
X122200500Y-74836967D01*
X122200500Y-73003241D01*
X122200712Y-72996766D01*
X122209224Y-72866894D01*
X122215471Y-72771585D01*
X122217158Y-72758764D01*
X122260552Y-72540609D01*
X122263899Y-72528117D01*
X122335397Y-72317493D01*
X122340348Y-72305543D01*
X122438717Y-72106067D01*
X122445186Y-72094862D01*
X122568760Y-71909922D01*
X122576635Y-71899659D01*
X122723291Y-71732429D01*
X122732429Y-71723291D01*
X122899659Y-71576635D01*
X122909922Y-71568760D01*
X123094862Y-71445186D01*
X123106067Y-71438717D01*
X123305543Y-71340348D01*
X123317493Y-71335397D01*
X123528117Y-71263899D01*
X123540609Y-71260552D01*
X123758764Y-71217158D01*
X123771585Y-71215471D01*
X123996765Y-71200712D01*
X124003241Y-71200500D01*
X124039882Y-71200500D01*
X149960118Y-71200500D01*
X149996759Y-71200500D01*
X150003234Y-71200712D01*
G37*
%TD.AperFunction*%
%TD*%
M02*
