%TF.GenerationSoftware,KiCad,Pcbnew,(7.0.0)*%
%TF.CreationDate,2024-01-30T15:23:45-05:00*%
%TF.ProjectId,eib-neuronexus-a64,6569622d-6e65-4757-926f-6e657875732d,B*%
%TF.SameCoordinates,Original*%
%TF.FileFunction,Soldermask,Top*%
%TF.FilePolarity,Negative*%
%FSLAX46Y46*%
G04 Gerber Fmt 4.6, Leading zero omitted, Abs format (unit mm)*
G04 Created by KiCad (PCBNEW (7.0.0)) date 2024-01-30 15:23:45*
%MOMM*%
%LPD*%
G01*
G04 APERTURE LIST*
G04 Aperture macros list*
%AMRoundRect*
0 Rectangle with rounded corners*
0 $1 Rounding radius*
0 $2 $3 $4 $5 $6 $7 $8 $9 X,Y pos of 4 corners*
0 Add a 4 corners polygon primitive as box body*
4,1,4,$2,$3,$4,$5,$6,$7,$8,$9,$2,$3,0*
0 Add four circle primitives for the rounded corners*
1,1,$1+$1,$2,$3*
1,1,$1+$1,$4,$5*
1,1,$1+$1,$6,$7*
1,1,$1+$1,$8,$9*
0 Add four rect primitives between the rounded corners*
20,1,$1+$1,$2,$3,$4,$5,0*
20,1,$1+$1,$4,$5,$6,$7,0*
20,1,$1+$1,$6,$7,$8,$9,0*
20,1,$1+$1,$8,$9,$2,$3,0*%
G04 Aperture macros list end*
%ADD10R,1.700000X1.700000*%
%ADD11O,1.700000X1.700000*%
%ADD12R,0.910000X0.910000*%
%ADD13C,0.910000*%
%ADD14RoundRect,0.010000X0.090000X0.340000X-0.090000X0.340000X-0.090000X-0.340000X0.090000X-0.340000X0*%
G04 APERTURE END LIST*
%TO.C,J3*%
G36*
X131500000Y-79810000D02*
G01*
X131300000Y-79810000D01*
X131300000Y-79110000D01*
X131500000Y-79110000D01*
X131500000Y-79810000D01*
G37*
G36*
X141100000Y-79810000D02*
G01*
X140900000Y-79810000D01*
X140900000Y-79110000D01*
X141100000Y-79110000D01*
X141100000Y-79810000D01*
G37*
G36*
X139100000Y-79810000D02*
G01*
X138900000Y-79810000D01*
X138900000Y-79110000D01*
X139100000Y-79110000D01*
X139100000Y-79810000D01*
G37*
G36*
X138900000Y-82190000D02*
G01*
X139100000Y-82190000D01*
X139100000Y-82890000D01*
X138900000Y-82890000D01*
X138900000Y-82190000D01*
G37*
G36*
X143100000Y-79810000D02*
G01*
X142900000Y-79810000D01*
X142900000Y-79110000D01*
X143100000Y-79110000D01*
X143100000Y-79810000D01*
G37*
G36*
X132700000Y-79810000D02*
G01*
X132500000Y-79810000D01*
X132500000Y-79110000D01*
X132700000Y-79110000D01*
X132700000Y-79810000D01*
G37*
G36*
X136100000Y-82190000D02*
G01*
X136300000Y-82190000D01*
X136300000Y-82890000D01*
X136100000Y-82890000D01*
X136100000Y-82190000D01*
G37*
G36*
X138100000Y-82190000D02*
G01*
X138300000Y-82190000D01*
X138300000Y-82890000D01*
X138100000Y-82890000D01*
X138100000Y-82190000D01*
G37*
G36*
X137100000Y-79810000D02*
G01*
X136900000Y-79810000D01*
X136900000Y-79110000D01*
X137100000Y-79110000D01*
X137100000Y-79810000D01*
G37*
G36*
X142100000Y-82190000D02*
G01*
X142300000Y-82190000D01*
X142300000Y-82890000D01*
X142100000Y-82890000D01*
X142100000Y-82190000D01*
G37*
G36*
X139300000Y-82190000D02*
G01*
X139500000Y-82190000D01*
X139500000Y-82890000D01*
X139300000Y-82890000D01*
X139300000Y-82190000D01*
G37*
G36*
X137700000Y-82190000D02*
G01*
X137900000Y-82190000D01*
X137900000Y-82890000D01*
X137700000Y-82890000D01*
X137700000Y-82190000D01*
G37*
G36*
X135500000Y-79810000D02*
G01*
X135300000Y-79810000D01*
X135300000Y-79110000D01*
X135500000Y-79110000D01*
X135500000Y-79810000D01*
G37*
G36*
X131300000Y-82190000D02*
G01*
X131500000Y-82190000D01*
X131500000Y-82890000D01*
X131300000Y-82890000D01*
X131300000Y-82190000D01*
G37*
G36*
X140900000Y-82190000D02*
G01*
X141100000Y-82190000D01*
X141100000Y-82890000D01*
X140900000Y-82890000D01*
X140900000Y-82190000D01*
G37*
G36*
X130900000Y-82190000D02*
G01*
X131100000Y-82190000D01*
X131100000Y-82890000D01*
X130900000Y-82890000D01*
X130900000Y-82190000D01*
G37*
G36*
X136700000Y-79810000D02*
G01*
X136500000Y-79810000D01*
X136500000Y-79110000D01*
X136700000Y-79110000D01*
X136700000Y-79810000D01*
G37*
G36*
X136500000Y-82190000D02*
G01*
X136700000Y-82190000D01*
X136700000Y-82890000D01*
X136500000Y-82890000D01*
X136500000Y-82190000D01*
G37*
G36*
X132500000Y-82190000D02*
G01*
X132700000Y-82190000D01*
X132700000Y-82890000D01*
X132500000Y-82890000D01*
X132500000Y-82190000D01*
G37*
G36*
X134100000Y-82190000D02*
G01*
X134300000Y-82190000D01*
X134300000Y-82890000D01*
X134100000Y-82890000D01*
X134100000Y-82190000D01*
G37*
G36*
X135900000Y-79810000D02*
G01*
X135700000Y-79810000D01*
X135700000Y-79110000D01*
X135900000Y-79110000D01*
X135900000Y-79810000D01*
G37*
G36*
X132300000Y-79810000D02*
G01*
X132100000Y-79810000D01*
X132100000Y-79110000D01*
X132300000Y-79110000D01*
X132300000Y-79810000D01*
G37*
G36*
X137900000Y-79810000D02*
G01*
X137700000Y-79810000D01*
X137700000Y-79110000D01*
X137900000Y-79110000D01*
X137900000Y-79810000D01*
G37*
G36*
X134900000Y-82190000D02*
G01*
X135100000Y-82190000D01*
X135100000Y-82890000D01*
X134900000Y-82890000D01*
X134900000Y-82190000D01*
G37*
G36*
X133700000Y-82190000D02*
G01*
X133900000Y-82190000D01*
X133900000Y-82890000D01*
X133700000Y-82890000D01*
X133700000Y-82190000D01*
G37*
G36*
X140500000Y-82190000D02*
G01*
X140700000Y-82190000D01*
X140700000Y-82890000D01*
X140500000Y-82890000D01*
X140500000Y-82190000D01*
G37*
G36*
X140700000Y-79810000D02*
G01*
X140500000Y-79810000D01*
X140500000Y-79110000D01*
X140700000Y-79110000D01*
X140700000Y-79810000D01*
G37*
G36*
X138300000Y-79810000D02*
G01*
X138100000Y-79810000D01*
X138100000Y-79110000D01*
X138300000Y-79110000D01*
X138300000Y-79810000D01*
G37*
G36*
X136900000Y-82190000D02*
G01*
X137100000Y-82190000D01*
X137100000Y-82890000D01*
X136900000Y-82890000D01*
X136900000Y-82190000D01*
G37*
G36*
X130300000Y-79810000D02*
G01*
X130100000Y-79810000D01*
X130100000Y-79110000D01*
X130300000Y-79110000D01*
X130300000Y-79810000D01*
G37*
G36*
X141300000Y-82190000D02*
G01*
X141500000Y-82190000D01*
X141500000Y-82890000D01*
X141300000Y-82890000D01*
X141300000Y-82190000D01*
G37*
G36*
X131900000Y-79810000D02*
G01*
X131700000Y-79810000D01*
X131700000Y-79110000D01*
X131900000Y-79110000D01*
X131900000Y-79810000D01*
G37*
G36*
X142500000Y-82190000D02*
G01*
X142700000Y-82190000D01*
X142700000Y-82890000D01*
X142500000Y-82890000D01*
X142500000Y-82190000D01*
G37*
G36*
X134300000Y-79810000D02*
G01*
X134100000Y-79810000D01*
X134100000Y-79110000D01*
X134300000Y-79110000D01*
X134300000Y-79810000D01*
G37*
G36*
X136300000Y-79810000D02*
G01*
X136100000Y-79810000D01*
X136100000Y-79110000D01*
X136300000Y-79110000D01*
X136300000Y-79810000D01*
G37*
G36*
X138700000Y-79810000D02*
G01*
X138500000Y-79810000D01*
X138500000Y-79110000D01*
X138700000Y-79110000D01*
X138700000Y-79810000D01*
G37*
G36*
X131700000Y-82190000D02*
G01*
X131900000Y-82190000D01*
X131900000Y-82890000D01*
X131700000Y-82890000D01*
X131700000Y-82190000D01*
G37*
G36*
X134500000Y-82190000D02*
G01*
X134700000Y-82190000D01*
X134700000Y-82890000D01*
X134500000Y-82890000D01*
X134500000Y-82190000D01*
G37*
G36*
X139700000Y-82190000D02*
G01*
X139900000Y-82190000D01*
X139900000Y-82890000D01*
X139700000Y-82890000D01*
X139700000Y-82190000D01*
G37*
G36*
X137300000Y-82190000D02*
G01*
X137500000Y-82190000D01*
X137500000Y-82890000D01*
X137300000Y-82890000D01*
X137300000Y-82190000D01*
G37*
G36*
X143500000Y-79810000D02*
G01*
X143300000Y-79810000D01*
X143300000Y-79110000D01*
X143500000Y-79110000D01*
X143500000Y-79810000D01*
G37*
G36*
X133900000Y-79810000D02*
G01*
X133700000Y-79810000D01*
X133700000Y-79110000D01*
X133900000Y-79110000D01*
X133900000Y-79810000D01*
G37*
G36*
X132100000Y-82190000D02*
G01*
X132300000Y-82190000D01*
X132300000Y-82890000D01*
X132100000Y-82890000D01*
X132100000Y-82190000D01*
G37*
G36*
X133300000Y-82190000D02*
G01*
X133500000Y-82190000D01*
X133500000Y-82890000D01*
X133300000Y-82890000D01*
X133300000Y-82190000D01*
G37*
G36*
X142900000Y-82190000D02*
G01*
X143100000Y-82190000D01*
X143100000Y-82890000D01*
X142900000Y-82890000D01*
X142900000Y-82190000D01*
G37*
G36*
X142300000Y-79810000D02*
G01*
X142100000Y-79810000D01*
X142100000Y-79110000D01*
X142300000Y-79110000D01*
X142300000Y-79810000D01*
G37*
G36*
X140300000Y-79810000D02*
G01*
X140100000Y-79810000D01*
X140100000Y-79110000D01*
X140300000Y-79110000D01*
X140300000Y-79810000D01*
G37*
G36*
X142700000Y-79810000D02*
G01*
X142500000Y-79810000D01*
X142500000Y-79110000D01*
X142700000Y-79110000D01*
X142700000Y-79810000D01*
G37*
G36*
X141900000Y-79810000D02*
G01*
X141700000Y-79810000D01*
X141700000Y-79110000D01*
X141900000Y-79110000D01*
X141900000Y-79810000D01*
G37*
G36*
X139500000Y-79810000D02*
G01*
X139300000Y-79810000D01*
X139300000Y-79110000D01*
X139500000Y-79110000D01*
X139500000Y-79810000D01*
G37*
G36*
X135300000Y-82190000D02*
G01*
X135500000Y-82190000D01*
X135500000Y-82890000D01*
X135300000Y-82890000D01*
X135300000Y-82190000D01*
G37*
G36*
X130500000Y-82190000D02*
G01*
X130700000Y-82190000D01*
X130700000Y-82890000D01*
X130500000Y-82890000D01*
X130500000Y-82190000D01*
G37*
G36*
X130700000Y-79810000D02*
G01*
X130500000Y-79810000D01*
X130500000Y-79110000D01*
X130700000Y-79110000D01*
X130700000Y-79810000D01*
G37*
G36*
X141700000Y-82190000D02*
G01*
X141900000Y-82190000D01*
X141900000Y-82890000D01*
X141700000Y-82890000D01*
X141700000Y-82190000D01*
G37*
G36*
X141500000Y-79810000D02*
G01*
X141300000Y-79810000D01*
X141300000Y-79110000D01*
X141500000Y-79110000D01*
X141500000Y-79810000D01*
G37*
G36*
X133100000Y-79810000D02*
G01*
X132900000Y-79810000D01*
X132900000Y-79110000D01*
X133100000Y-79110000D01*
X133100000Y-79810000D01*
G37*
G36*
X133500000Y-79810000D02*
G01*
X133300000Y-79810000D01*
X133300000Y-79110000D01*
X133500000Y-79110000D01*
X133500000Y-79810000D01*
G37*
G36*
X143300000Y-82190000D02*
G01*
X143500000Y-82190000D01*
X143500000Y-82890000D01*
X143300000Y-82890000D01*
X143300000Y-82190000D01*
G37*
G36*
X130100000Y-82190000D02*
G01*
X130300000Y-82190000D01*
X130300000Y-82890000D01*
X130100000Y-82890000D01*
X130100000Y-82190000D01*
G37*
G36*
X140100000Y-82190000D02*
G01*
X140300000Y-82190000D01*
X140300000Y-82890000D01*
X140100000Y-82890000D01*
X140100000Y-82190000D01*
G37*
G36*
X138500000Y-82190000D02*
G01*
X138700000Y-82190000D01*
X138700000Y-82890000D01*
X138500000Y-82890000D01*
X138500000Y-82190000D01*
G37*
G36*
X137500000Y-79810000D02*
G01*
X137300000Y-79810000D01*
X137300000Y-79110000D01*
X137500000Y-79110000D01*
X137500000Y-79810000D01*
G37*
G36*
X134700000Y-79810000D02*
G01*
X134500000Y-79810000D01*
X134500000Y-79110000D01*
X134700000Y-79110000D01*
X134700000Y-79810000D01*
G37*
G36*
X143900000Y-79810000D02*
G01*
X143700000Y-79810000D01*
X143700000Y-79110000D01*
X143900000Y-79110000D01*
X143900000Y-79810000D01*
G37*
G36*
X139900000Y-79810000D02*
G01*
X139700000Y-79810000D01*
X139700000Y-79110000D01*
X139900000Y-79110000D01*
X139900000Y-79810000D01*
G37*
G36*
X131100000Y-79810000D02*
G01*
X130900000Y-79810000D01*
X130900000Y-79110000D01*
X131100000Y-79110000D01*
X131100000Y-79810000D01*
G37*
G36*
X135700000Y-82190000D02*
G01*
X135900000Y-82190000D01*
X135900000Y-82890000D01*
X135700000Y-82890000D01*
X135700000Y-82190000D01*
G37*
G36*
X132900000Y-82190000D02*
G01*
X133100000Y-82190000D01*
X133100000Y-82890000D01*
X132900000Y-82890000D01*
X132900000Y-82190000D01*
G37*
G36*
X135100000Y-79810000D02*
G01*
X134900000Y-79810000D01*
X134900000Y-79110000D01*
X135100000Y-79110000D01*
X135100000Y-79810000D01*
G37*
%TD*%
D10*
%TO.C,J4*%
X146999999Y-74999999D03*
D11*
X149539999Y-74999999D03*
%TD*%
D12*
%TO.C,J2*%
X135094999Y-98284999D03*
D13*
X135095000Y-99555000D03*
X135095000Y-100825000D03*
X135095000Y-102095000D03*
X135095000Y-103365000D03*
X135095000Y-104635000D03*
X135095000Y-105905000D03*
X135095000Y-107175000D03*
X135095000Y-108445000D03*
X135095000Y-109715000D03*
X136365000Y-98285000D03*
X136365000Y-99555000D03*
X136365000Y-100825000D03*
X136365000Y-102095000D03*
X136365000Y-103365000D03*
X136365000Y-104635000D03*
X136365000Y-105905000D03*
X136365000Y-107175000D03*
X136365000Y-108445000D03*
X136365000Y-109715000D03*
X137635000Y-98285000D03*
X137635000Y-99555000D03*
X137635000Y-100825000D03*
X137635000Y-102095000D03*
X137635000Y-103365000D03*
X137635000Y-104635000D03*
X137635000Y-105905000D03*
X137635000Y-107175000D03*
X137635000Y-108445000D03*
X137635000Y-109715000D03*
X138905000Y-98285000D03*
X138905000Y-99555000D03*
X138905000Y-100825000D03*
X138905000Y-102095000D03*
X138905000Y-103365000D03*
X138905000Y-104635000D03*
X138905000Y-105905000D03*
X138905000Y-107175000D03*
X138905000Y-108445000D03*
X138905000Y-109715000D03*
%TD*%
D12*
%TO.C,J1*%
X135094999Y-115284999D03*
D13*
X135095000Y-116555000D03*
X135095000Y-117825000D03*
X135095000Y-119095000D03*
X135095000Y-120365000D03*
X135095000Y-121635000D03*
X135095000Y-122905000D03*
X135095000Y-124175000D03*
X135095000Y-125445000D03*
X135095000Y-126715000D03*
X136365000Y-115285000D03*
X136365000Y-116555000D03*
X136365000Y-117825000D03*
X136365000Y-119095000D03*
X136365000Y-120365000D03*
X136365000Y-121635000D03*
X136365000Y-122905000D03*
X136365000Y-124175000D03*
X136365000Y-125445000D03*
X136365000Y-126715000D03*
X137635000Y-115285000D03*
X137635000Y-116555000D03*
X137635000Y-117825000D03*
X137635000Y-119095000D03*
X137635000Y-120365000D03*
X137635000Y-121635000D03*
X137635000Y-122905000D03*
X137635000Y-124175000D03*
X137635000Y-125445000D03*
X137635000Y-126715000D03*
X138905000Y-115285000D03*
X138905000Y-116555000D03*
X138905000Y-117825000D03*
X138905000Y-119095000D03*
X138905000Y-120365000D03*
X138905000Y-121635000D03*
X138905000Y-122905000D03*
X138905000Y-124175000D03*
X138905000Y-125445000D03*
X138905000Y-126715000D03*
%TD*%
D14*
%TO.C,J3*%
X130200000Y-79460000D03*
X130200000Y-82540000D03*
X130600000Y-79460000D03*
X130600000Y-82540000D03*
X131000000Y-79460000D03*
X131000000Y-82540000D03*
X131400000Y-79460000D03*
X131400000Y-82540000D03*
X131800000Y-79460000D03*
X131800000Y-82540000D03*
X132200000Y-79460000D03*
X132200000Y-82540000D03*
X132600000Y-79460000D03*
X132600000Y-82540000D03*
X133000000Y-79460000D03*
X133000000Y-82540000D03*
X133400000Y-79460000D03*
X133400000Y-82540000D03*
X133800000Y-79460000D03*
X133800000Y-82540000D03*
X134200000Y-79460000D03*
X134200000Y-82540000D03*
X134600000Y-79460000D03*
X134600000Y-82540000D03*
X135000000Y-79460000D03*
X135000000Y-82540000D03*
X135400000Y-79460000D03*
X135400000Y-82540000D03*
X135800000Y-79460000D03*
X135800000Y-82540000D03*
X136200000Y-79460000D03*
X136200000Y-82540000D03*
X136600000Y-79460000D03*
X136600000Y-82540000D03*
X137000000Y-79460000D03*
X137000000Y-82540000D03*
X137400000Y-79460000D03*
X137400000Y-82540000D03*
X137800000Y-79460000D03*
X137800000Y-82540000D03*
X138200000Y-79460000D03*
X138200000Y-82540000D03*
X138600000Y-79460000D03*
X138600000Y-82540000D03*
X139000000Y-79460000D03*
X139000000Y-82540000D03*
X139400000Y-79460000D03*
X139400000Y-82540000D03*
X139800000Y-79460000D03*
X139800000Y-82540000D03*
X140200000Y-79460000D03*
X140200000Y-82540000D03*
X140600000Y-79460000D03*
X140600000Y-82540000D03*
X141000000Y-79460000D03*
X141000000Y-82540000D03*
X141400000Y-79460000D03*
X141400000Y-82540000D03*
X141800000Y-79460000D03*
X141800000Y-82540000D03*
X142200000Y-79460000D03*
X142200000Y-82540000D03*
X142600000Y-79460000D03*
X142600000Y-82540000D03*
X143000000Y-79460000D03*
X143000000Y-82540000D03*
X143400000Y-79460000D03*
X143400000Y-82540000D03*
X143800000Y-79460000D03*
X143800000Y-82540000D03*
%TD*%
M02*
