%TF.GenerationSoftware,KiCad,Pcbnew,(7.0.0)*%
%TF.CreationDate,2024-01-30T15:23:45-05:00*%
%TF.ProjectId,eib-neuronexus-a64,6569622d-6e65-4757-926f-6e657875732d,B*%
%TF.SameCoordinates,Original*%
%TF.FileFunction,Copper,L1,Top*%
%TF.FilePolarity,Positive*%
%FSLAX46Y46*%
G04 Gerber Fmt 4.6, Leading zero omitted, Abs format (unit mm)*
G04 Created by KiCad (PCBNEW (7.0.0)) date 2024-01-30 15:23:45*
%MOMM*%
%LPD*%
G01*
G04 APERTURE LIST*
G04 Aperture macros list*
%AMRoundRect*
0 Rectangle with rounded corners*
0 $1 Rounding radius*
0 $2 $3 $4 $5 $6 $7 $8 $9 X,Y pos of 4 corners*
0 Add a 4 corners polygon primitive as box body*
4,1,4,$2,$3,$4,$5,$6,$7,$8,$9,$2,$3,0*
0 Add four circle primitives for the rounded corners*
1,1,$1+$1,$2,$3*
1,1,$1+$1,$4,$5*
1,1,$1+$1,$6,$7*
1,1,$1+$1,$8,$9*
0 Add four rect primitives between the rounded corners*
20,1,$1+$1,$2,$3,$4,$5,0*
20,1,$1+$1,$4,$5,$6,$7,0*
20,1,$1+$1,$6,$7,$8,$9,0*
20,1,$1+$1,$8,$9,$2,$3,0*%
G04 Aperture macros list end*
%TA.AperFunction,ComponentPad*%
%ADD10R,1.700000X1.700000*%
%TD*%
%TA.AperFunction,ComponentPad*%
%ADD11O,1.700000X1.700000*%
%TD*%
%TA.AperFunction,ComponentPad*%
%ADD12R,0.910000X0.910000*%
%TD*%
%TA.AperFunction,ComponentPad*%
%ADD13C,0.910000*%
%TD*%
%TA.AperFunction,SMDPad,CuDef*%
%ADD14RoundRect,0.010000X0.090000X0.340000X-0.090000X0.340000X-0.090000X-0.340000X0.090000X-0.340000X0*%
%TD*%
%TA.AperFunction,ViaPad*%
%ADD15C,0.400000*%
%TD*%
%TA.AperFunction,Conductor*%
%ADD16C,0.120000*%
%TD*%
G04 APERTURE END LIST*
D10*
%TO.P,J4,1,Pin_1*%
%TO.N,GND*%
X146999999Y-74999999D03*
D11*
%TO.P,J4,2,Pin_2*%
%TO.N,/Ref*%
X149539999Y-74999999D03*
%TD*%
D12*
%TO.P,J2,A1,A1*%
%TO.N,/Elec32*%
X135094999Y-98284999D03*
D13*
%TO.P,J2,A2,A2*%
%TO.N,/Elec33*%
X135095000Y-99555000D03*
%TO.P,J2,A3,A3*%
%TO.N,/Elec34*%
X135095000Y-100825000D03*
%TO.P,J2,A4,A4*%
%TO.N,/Elec35*%
X135095000Y-102095000D03*
%TO.P,J2,A5,A5*%
%TO.N,/Elec36*%
X135095000Y-103365000D03*
%TO.P,J2,A6,A6*%
%TO.N,/Elec38*%
X135095000Y-104635000D03*
%TO.P,J2,A7,A7*%
%TO.N,/Elec40*%
X135095000Y-105905000D03*
%TO.P,J2,A8,A8*%
%TO.N,/Elec42*%
X135095000Y-107175000D03*
%TO.P,J2,A9,A9*%
%TO.N,/Elec44*%
X135095000Y-108445000D03*
%TO.P,J2,A10,A10*%
%TO.N,/Elec46*%
X135095000Y-109715000D03*
%TO.P,J2,B1,B1*%
%TO.N,GND*%
X136365000Y-98285000D03*
%TO.P,J2,B2,B2*%
%TO.N,/Ref*%
X136365000Y-99555000D03*
%TO.P,J2,B3,B3*%
%TO.N,unconnected-(J2-PadB3)*%
X136365000Y-100825000D03*
%TO.P,J2,B4,B4*%
%TO.N,unconnected-(J2-PadB4)*%
X136365000Y-102095000D03*
%TO.P,J2,B5,B5*%
%TO.N,/Elec37*%
X136365000Y-103365000D03*
%TO.P,J2,B6,B6*%
%TO.N,/Elec39*%
X136365000Y-104635000D03*
%TO.P,J2,B7,B7*%
%TO.N,/Elec41*%
X136365000Y-105905000D03*
%TO.P,J2,B8,B8*%
%TO.N,/Elec43*%
X136365000Y-107175000D03*
%TO.P,J2,B9,B9*%
%TO.N,/Elec45*%
X136365000Y-108445000D03*
%TO.P,J2,B10,B10*%
%TO.N,/Elec47*%
X136365000Y-109715000D03*
%TO.P,J2,C1,C1*%
%TO.N,GND*%
X137635000Y-98285000D03*
%TO.P,J2,C2,C2*%
%TO.N,/Ref*%
X137635000Y-99555000D03*
%TO.P,J2,C3,C3*%
%TO.N,unconnected-(J2-PadC3)*%
X137635000Y-100825000D03*
%TO.P,J2,C4,C4*%
%TO.N,unconnected-(J2-PadC4)*%
X137635000Y-102095000D03*
%TO.P,J2,C5,C5*%
%TO.N,/Elec26*%
X137635000Y-103365000D03*
%TO.P,J2,C6,C6*%
%TO.N,/Elec24*%
X137635000Y-104635000D03*
%TO.P,J2,C7,C7*%
%TO.N,/Elec22*%
X137635000Y-105905000D03*
%TO.P,J2,C8,C8*%
%TO.N,/Elec20*%
X137635000Y-107175000D03*
%TO.P,J2,C9,C9*%
%TO.N,/Elec18*%
X137635000Y-108445000D03*
%TO.P,J2,C10,C10*%
%TO.N,/Elec16*%
X137635000Y-109715000D03*
%TO.P,J2,D1,D1*%
%TO.N,/Elec31*%
X138905000Y-98285000D03*
%TO.P,J2,D2,D2*%
%TO.N,/Elec30*%
X138905000Y-99555000D03*
%TO.P,J2,D3,D3*%
%TO.N,/Elec29*%
X138905000Y-100825000D03*
%TO.P,J2,D4,D4*%
%TO.N,/Elec28*%
X138905000Y-102095000D03*
%TO.P,J2,D5,D5*%
%TO.N,/Elec27*%
X138905000Y-103365000D03*
%TO.P,J2,D6,D6*%
%TO.N,/Elec25*%
X138905000Y-104635000D03*
%TO.P,J2,D7,D7*%
%TO.N,/Elec23*%
X138905000Y-105905000D03*
%TO.P,J2,D8,D8*%
%TO.N,/Elec21*%
X138905000Y-107175000D03*
%TO.P,J2,D9,D9*%
%TO.N,/Elec19*%
X138905000Y-108445000D03*
%TO.P,J2,D10,D10*%
%TO.N,/Elec17*%
X138905000Y-109715000D03*
%TD*%
D12*
%TO.P,J1,A1,A1*%
%TO.N,/Elec48*%
X135094999Y-115284999D03*
D13*
%TO.P,J1,A2,A2*%
%TO.N,/Elec49*%
X135095000Y-116555000D03*
%TO.P,J1,A3,A3*%
%TO.N,/Elec50*%
X135095000Y-117825000D03*
%TO.P,J1,A4,A4*%
%TO.N,/Elec51*%
X135095000Y-119095000D03*
%TO.P,J1,A5,A5*%
%TO.N,/Elec52*%
X135095000Y-120365000D03*
%TO.P,J1,A6,A6*%
%TO.N,/Elec54*%
X135095000Y-121635000D03*
%TO.P,J1,A7,A7*%
%TO.N,/Elec56*%
X135095000Y-122905000D03*
%TO.P,J1,A8,A8*%
%TO.N,/Elec58*%
X135095000Y-124175000D03*
%TO.P,J1,A9,A9*%
%TO.N,/Elec60*%
X135095000Y-125445000D03*
%TO.P,J1,A10,A10*%
%TO.N,/Elec62*%
X135095000Y-126715000D03*
%TO.P,J1,B1,B1*%
%TO.N,GND*%
X136365000Y-115285000D03*
%TO.P,J1,B2,B2*%
%TO.N,/Ref*%
X136365000Y-116555000D03*
%TO.P,J1,B3,B3*%
%TO.N,unconnected-(J1-PadB3)*%
X136365000Y-117825000D03*
%TO.P,J1,B4,B4*%
%TO.N,unconnected-(J1-PadB4)*%
X136365000Y-119095000D03*
%TO.P,J1,B5,B5*%
%TO.N,/Elec53*%
X136365000Y-120365000D03*
%TO.P,J1,B6,B6*%
%TO.N,/Elec55*%
X136365000Y-121635000D03*
%TO.P,J1,B7,B7*%
%TO.N,/Elec57*%
X136365000Y-122905000D03*
%TO.P,J1,B8,B8*%
%TO.N,/Elec59*%
X136365000Y-124175000D03*
%TO.P,J1,B9,B9*%
%TO.N,/Elec61*%
X136365000Y-125445000D03*
%TO.P,J1,B10,B10*%
%TO.N,/Elec63*%
X136365000Y-126715000D03*
%TO.P,J1,C1,C1*%
%TO.N,GND*%
X137635000Y-115285000D03*
%TO.P,J1,C2,C2*%
%TO.N,/Ref*%
X137635000Y-116555000D03*
%TO.P,J1,C3,C3*%
%TO.N,unconnected-(J1-PadC3)*%
X137635000Y-117825000D03*
%TO.P,J1,C4,C4*%
%TO.N,unconnected-(J1-PadC4)*%
X137635000Y-119095000D03*
%TO.P,J1,C5,C5*%
%TO.N,/Elec10*%
X137635000Y-120365000D03*
%TO.P,J1,C6,C6*%
%TO.N,/Elec8*%
X137635000Y-121635000D03*
%TO.P,J1,C7,C7*%
%TO.N,/Elec6*%
X137635000Y-122905000D03*
%TO.P,J1,C8,C8*%
%TO.N,/Elec4*%
X137635000Y-124175000D03*
%TO.P,J1,C9,C9*%
%TO.N,/Elec2*%
X137635000Y-125445000D03*
%TO.P,J1,C10,C10*%
%TO.N,/Elec0*%
X137635000Y-126715000D03*
%TO.P,J1,D1,D1*%
%TO.N,/Elec15*%
X138905000Y-115285000D03*
%TO.P,J1,D2,D2*%
%TO.N,/Elec14*%
X138905000Y-116555000D03*
%TO.P,J1,D3,D3*%
%TO.N,/Elec13*%
X138905000Y-117825000D03*
%TO.P,J1,D4,D4*%
%TO.N,/Elec12*%
X138905000Y-119095000D03*
%TO.P,J1,D5,D5*%
%TO.N,/Elec11*%
X138905000Y-120365000D03*
%TO.P,J1,D6,D6*%
%TO.N,/Elec9*%
X138905000Y-121635000D03*
%TO.P,J1,D7,D7*%
%TO.N,/Elec7*%
X138905000Y-122905000D03*
%TO.P,J1,D8,D8*%
%TO.N,/Elec5*%
X138905000Y-124175000D03*
%TO.P,J1,D9,D9*%
%TO.N,/Elec3*%
X138905000Y-125445000D03*
%TO.P,J1,D10,D10*%
%TO.N,/Elec1*%
X138905000Y-126715000D03*
%TD*%
D14*
%TO.P,J3,70,Pin_70*%
%TO.N,unconnected-(J3-Pin_70-Pad70)*%
X130200000Y-79460000D03*
%TO.P,J3,69,Pin_69*%
%TO.N,unconnected-(J3-Pin_69-Pad69)*%
X130200000Y-82540000D03*
%TO.P,J3,68,Pin_68*%
%TO.N,/Elec63*%
X130600000Y-79460000D03*
%TO.P,J3,67,Pin_67*%
%TO.N,unconnected-(J3-Pin_67-Pad67)*%
X130600000Y-82540000D03*
%TO.P,J3,66,Pin_66*%
%TO.N,/Elec62*%
X131000000Y-79460000D03*
%TO.P,J3,65,Pin_65*%
%TO.N,/Elec47*%
X131000000Y-82540000D03*
%TO.P,J3,64,Pin_64*%
%TO.N,/Elec61*%
X131400000Y-79460000D03*
%TO.P,J3,63,Pin_63*%
%TO.N,/Elec46*%
X131400000Y-82540000D03*
%TO.P,J3,62,Pin_62*%
%TO.N,/Elec60*%
X131800000Y-79460000D03*
%TO.P,J3,61,Pin_61*%
%TO.N,/Elec45*%
X131800000Y-82540000D03*
%TO.P,J3,60,Pin_60*%
%TO.N,/Elec59*%
X132200000Y-79460000D03*
%TO.P,J3,59,Pin_59*%
%TO.N,/Elec44*%
X132200000Y-82540000D03*
%TO.P,J3,58,Pin_58*%
%TO.N,/Elec58*%
X132600000Y-79460000D03*
%TO.P,J3,57,Pin_57*%
%TO.N,/Elec43*%
X132600000Y-82540000D03*
%TO.P,J3,56,Pin_56*%
%TO.N,/Elec57*%
X133000000Y-79460000D03*
%TO.P,J3,55,Pin_55*%
%TO.N,/Elec42*%
X133000000Y-82540000D03*
%TO.P,J3,54,Pin_54*%
%TO.N,/Elec56*%
X133400000Y-79460000D03*
%TO.P,J3,53,Pin_53*%
%TO.N,/Elec41*%
X133400000Y-82540000D03*
%TO.P,J3,52,Pin_52*%
%TO.N,/Elec55*%
X133800000Y-79460000D03*
%TO.P,J3,51,Pin_51*%
%TO.N,/Elec40*%
X133800000Y-82540000D03*
%TO.P,J3,50,Pin_50*%
%TO.N,/Elec54*%
X134200000Y-79460000D03*
%TO.P,J3,49,Pin_49*%
%TO.N,/Elec39*%
X134200000Y-82540000D03*
%TO.P,J3,48,Pin_48*%
%TO.N,/Elec53*%
X134600000Y-79460000D03*
%TO.P,J3,47,Pin_47*%
%TO.N,/Elec38*%
X134600000Y-82540000D03*
%TO.P,J3,46,Pin_46*%
%TO.N,/Elec52*%
X135000000Y-79460000D03*
%TO.P,J3,45,Pin_45*%
%TO.N,/Elec37*%
X135000000Y-82540000D03*
%TO.P,J3,44,Pin_44*%
%TO.N,/Elec51*%
X135400000Y-79460000D03*
%TO.P,J3,43,Pin_43*%
%TO.N,/Elec36*%
X135400000Y-82540000D03*
%TO.P,J3,42,Pin_42*%
%TO.N,/Elec50*%
X135800000Y-79460000D03*
%TO.P,J3,41,Pin_41*%
%TO.N,/Elec35*%
X135800000Y-82540000D03*
%TO.P,J3,40,Pin_40*%
%TO.N,/Elec49*%
X136200000Y-79460000D03*
%TO.P,J3,39,Pin_39*%
%TO.N,/Elec34*%
X136200000Y-82540000D03*
%TO.P,J3,38,Pin_38*%
%TO.N,/Elec48*%
X136600000Y-79460000D03*
%TO.P,J3,37,Pin_37*%
%TO.N,/Elec33*%
X136600000Y-82540000D03*
%TO.P,J3,36,Pin_36*%
%TO.N,/Elec15*%
X137000000Y-79460000D03*
%TO.P,J3,35,Pin_35*%
%TO.N,/Elec32*%
X137000000Y-82540000D03*
%TO.P,J3,34,Pin_34*%
%TO.N,/Elec14*%
X137400000Y-79460000D03*
%TO.P,J3,33,Pin_33*%
%TO.N,/Elec31*%
X137400000Y-82540000D03*
%TO.P,J3,32,Pin_32*%
%TO.N,/Elec13*%
X137800000Y-79460000D03*
%TO.P,J3,31,Pin_31*%
%TO.N,/Elec30*%
X137800000Y-82540000D03*
%TO.P,J3,30,Pin_30*%
%TO.N,/Elec12*%
X138200000Y-79460000D03*
%TO.P,J3,29,Pin_29*%
%TO.N,/Elec29*%
X138200000Y-82540000D03*
%TO.P,J3,28,Pin_28*%
%TO.N,/Elec11*%
X138600000Y-79460000D03*
%TO.P,J3,27,Pin_27*%
%TO.N,/Elec28*%
X138600000Y-82540000D03*
%TO.P,J3,26,Pin_26*%
%TO.N,/Elec10*%
X139000000Y-79460000D03*
%TO.P,J3,25,Pin_25*%
%TO.N,/Elec27*%
X139000000Y-82540000D03*
%TO.P,J3,24,Pin_24*%
%TO.N,/Elec9*%
X139400000Y-79460000D03*
%TO.P,J3,23,Pin_23*%
%TO.N,/Elec26*%
X139400000Y-82540000D03*
%TO.P,J3,22,Pin_22*%
%TO.N,/Elec8*%
X139800000Y-79460000D03*
%TO.P,J3,21,Pin_21*%
%TO.N,/Elec25*%
X139800000Y-82540000D03*
%TO.P,J3,20,Pin_20*%
%TO.N,/Elec7*%
X140200000Y-79460000D03*
%TO.P,J3,19,Pin_19*%
%TO.N,/Elec24*%
X140200000Y-82540000D03*
%TO.P,J3,18,Pin_18*%
%TO.N,/Elec6*%
X140600000Y-79460000D03*
%TO.P,J3,17,Pin_17*%
%TO.N,/Elec23*%
X140600000Y-82540000D03*
%TO.P,J3,16,Pin_16*%
%TO.N,/Elec5*%
X141000000Y-79460000D03*
%TO.P,J3,15,Pin_15*%
%TO.N,/Elec22*%
X141000000Y-82540000D03*
%TO.P,J3,14,Pin_14*%
%TO.N,/Elec4*%
X141400000Y-79460000D03*
%TO.P,J3,13,Pin_13*%
%TO.N,/Elec21*%
X141400000Y-82540000D03*
%TO.P,J3,12,Pin_12*%
%TO.N,/Elec3*%
X141800000Y-79460000D03*
%TO.P,J3,11,Pin_11*%
%TO.N,/Elec20*%
X141800000Y-82540000D03*
%TO.P,J3,10,Pin_10*%
%TO.N,/Elec2*%
X142200000Y-79460000D03*
%TO.P,J3,9,Pin_9*%
%TO.N,/Elec19*%
X142200000Y-82540000D03*
%TO.P,J3,8,Pin_8*%
%TO.N,/Elec1*%
X142600000Y-79460000D03*
%TO.P,J3,7,Pin_7*%
%TO.N,/Elec18*%
X142600000Y-82540000D03*
%TO.P,J3,6,Pin_6*%
%TO.N,/Elec0*%
X143000000Y-79460000D03*
%TO.P,J3,5,Pin_5*%
%TO.N,/Elec17*%
X143000000Y-82540000D03*
%TO.P,J3,4,Pin_4*%
%TO.N,/Ref*%
X143400000Y-79460000D03*
%TO.P,J3,3,Pin_3*%
%TO.N,/Elec16*%
X143400000Y-82540000D03*
%TO.P,J3,2,Pin_2*%
%TO.N,GND*%
X143800000Y-79460000D03*
%TO.P,J3,1,Pin_1*%
%TO.N,unconnected-(J3-Pin_1-Pad1)*%
X143800000Y-82540000D03*
%TD*%
D15*
%TO.N,GND*%
X145100000Y-81000000D03*
%TO.N,/Ref*%
X138300000Y-112700000D03*
%TO.N,/Elec0*%
X144450000Y-76600000D03*
%TO.N,/Elec1*%
X143950000Y-77200000D03*
%TO.N,/Elec2*%
X143450000Y-76600000D03*
%TO.N,/Elec3*%
X142950000Y-77200000D03*
%TO.N,/Elec4*%
X142500000Y-76600000D03*
%TO.N,/Elec5*%
X142050000Y-77200000D03*
%TO.N,/Elec6*%
X141600000Y-76600000D03*
%TO.N,/Elec7*%
X141100000Y-77200000D03*
%TO.N,/Elec8*%
X140600000Y-76600000D03*
%TO.N,/Elec9*%
X140250000Y-77250000D03*
%TO.N,/Elec10*%
X139750000Y-76600000D03*
%TO.N,/Elec11*%
X139250000Y-77200000D03*
%TO.N,/Elec12*%
X138750000Y-76600000D03*
%TO.N,/Elec13*%
X138400000Y-77250000D03*
%TO.N,/Elec14*%
X137900000Y-76600000D03*
%TO.N,/Elec15*%
X137450000Y-77200000D03*
%TO.N,/Elec48*%
X137005000Y-76600000D03*
%TO.N,/Elec49*%
X136505000Y-77200000D03*
%TO.N,/Elec50*%
X136055000Y-76700000D03*
%TO.N,/Elec51*%
X135605000Y-77200000D03*
%TO.N,/Elec52*%
X135105000Y-76700000D03*
%TO.N,/Elec53*%
X134655000Y-77200000D03*
%TO.N,/Elec54*%
X134205000Y-76700000D03*
%TO.N,/Elec55*%
X133755000Y-77200000D03*
%TO.N,/Elec56*%
X133305000Y-76700000D03*
%TO.N,/Elec57*%
X132850000Y-77250000D03*
%TO.N,/Elec58*%
X132400000Y-76700000D03*
%TO.N,/Elec59*%
X131950000Y-77250000D03*
%TO.N,/Elec60*%
X131450000Y-76700000D03*
%TO.N,/Elec61*%
X131000000Y-77250000D03*
%TO.N,/Elec62*%
X130500000Y-76700000D03*
%TO.N,/Elec63*%
X130050000Y-77250000D03*
%TO.N,GND*%
X137000000Y-128000000D03*
X137000000Y-81000000D03*
X126000000Y-73000000D03*
X137000000Y-90000000D03*
X137000000Y-93000000D03*
X149000000Y-115000000D03*
X137000000Y-95000000D03*
X115300000Y-94500000D03*
X136000000Y-113000000D03*
X137000000Y-111000000D03*
X150000000Y-86000000D03*
X126000000Y-115000000D03*
X107000000Y-95500000D03*
X115700000Y-85600000D03*
X125000000Y-101000000D03*
X107000000Y-86000000D03*
X149000000Y-99000000D03*
X137000000Y-73000000D03*
X124800000Y-83900000D03*
%TD*%
D16*
%TO.N,/Ref*%
X145290000Y-79460000D02*
X145290000Y-78990000D01*
X144800000Y-78500000D02*
X143900000Y-78500000D01*
X145290000Y-78990000D02*
X144800000Y-78500000D01*
X143900000Y-78500000D02*
X143400000Y-79000000D01*
X143400000Y-79000000D02*
X143400000Y-79460000D01*
X147290000Y-79460000D02*
X149540000Y-77210000D01*
X145290000Y-79460000D02*
X147290000Y-79460000D01*
X149540000Y-77210000D02*
X149540000Y-75000000D01*
X146100000Y-85000000D02*
X146100000Y-106550000D01*
X145600000Y-84500000D02*
X146100000Y-85000000D01*
X139950000Y-112700000D02*
X138300000Y-112700000D01*
X145600000Y-79770000D02*
X145600000Y-84500000D01*
X146100000Y-106550000D02*
X139950000Y-112700000D01*
X145290000Y-79460000D02*
X145600000Y-79770000D01*
%TO.N,/Elec0*%
X143000000Y-79460000D02*
X143000000Y-79000000D01*
X143000000Y-79000000D02*
X143400000Y-78600000D01*
X143400000Y-78400000D02*
X143400000Y-78600000D01*
%TO.N,/Elec1*%
X142600000Y-79460000D02*
X142600000Y-78900000D01*
X143000000Y-78150000D02*
X143000000Y-78500000D01*
X142600000Y-78900000D02*
X143000000Y-78500000D01*
%TO.N,/Elec2*%
X142200000Y-78900000D02*
X142600000Y-78500000D01*
X142200000Y-79460000D02*
X142200000Y-78900000D01*
X142600000Y-78200000D02*
X142600000Y-78500000D01*
%TO.N,/Elec3*%
X142200000Y-78500000D02*
X142200000Y-78150000D01*
X141800000Y-78900000D02*
X142200000Y-78500000D01*
X141800000Y-79460000D02*
X141800000Y-78900000D01*
X142950000Y-77200000D02*
X142950000Y-77400000D01*
X142950000Y-77400000D02*
X142200000Y-78150000D01*
%TO.N,/Elec4*%
X141400000Y-78900000D02*
X141800000Y-78500000D01*
X141400000Y-79460000D02*
X141400000Y-78900000D01*
X141800000Y-78150000D02*
X141800000Y-78500000D01*
%TO.N,/Elec5*%
X141000000Y-78900000D02*
X141400000Y-78500000D01*
X141000000Y-79460000D02*
X141000000Y-78900000D01*
X141400000Y-78150000D02*
X141400000Y-78500000D01*
%TO.N,/Elec6*%
X140600000Y-78900000D02*
X141000000Y-78500000D01*
X140600000Y-79460000D02*
X140600000Y-78900000D01*
X141000000Y-78100000D02*
X141000000Y-78500000D01*
%TO.N,/Elec7*%
X140200000Y-78900000D02*
X140600000Y-78500000D01*
X140200000Y-79460000D02*
X140200000Y-78900000D01*
X140600000Y-78050000D02*
X140600000Y-78500000D01*
%TO.N,/Elec8*%
X139800000Y-78900000D02*
X140200000Y-78500000D01*
X140200000Y-78500000D02*
X140200000Y-77879123D01*
X139800000Y-79460000D02*
X139800000Y-78900000D01*
%TO.N,/Elec9*%
X139400000Y-78900000D02*
X139800000Y-78500000D01*
X139400000Y-79460000D02*
X139400000Y-78900000D01*
X139800000Y-78500000D02*
X139800000Y-77900000D01*
%TO.N,/Elec10*%
X139000000Y-79460000D02*
X139000000Y-78800000D01*
X139400000Y-77900000D02*
X139400000Y-78400000D01*
X139000000Y-78800000D02*
X139400000Y-78400000D01*
%TO.N,/Elec11*%
X139250000Y-77650000D02*
X139250000Y-77200000D01*
X139000000Y-78400000D02*
X139000000Y-77900000D01*
X139000000Y-77900000D02*
X139250000Y-77650000D01*
X138600000Y-78800000D02*
X139000000Y-78400000D01*
X138600000Y-79460000D02*
X138600000Y-78800000D01*
%TO.N,/Elec12*%
X138809501Y-77419622D02*
X138809501Y-76659501D01*
X138750000Y-77479123D02*
X138809501Y-77419622D01*
X138809501Y-76659501D02*
X138750000Y-76600000D01*
X138750000Y-78175000D02*
X138750000Y-77479123D01*
X138200000Y-78725000D02*
X138750000Y-78175000D01*
X138200000Y-79460000D02*
X138200000Y-78725000D01*
%TO.N,/Elec13*%
X138400000Y-78100000D02*
X138400000Y-77250000D01*
X137800000Y-78700000D02*
X138400000Y-78100000D01*
X137800000Y-79460000D02*
X137800000Y-78700000D01*
%TO.N,/Elec14*%
X137400000Y-79460000D02*
X137400000Y-78700000D01*
X137400000Y-78700000D02*
X137800000Y-78300000D01*
X137800000Y-77800000D02*
X137800000Y-78300000D01*
%TO.N,/Elec15*%
X137000000Y-78600000D02*
X137400000Y-78200000D01*
X137400000Y-77250000D02*
X137400000Y-78200000D01*
X137000000Y-79460000D02*
X137000000Y-78600000D01*
%TO.N,/Elec48*%
X136600000Y-78505000D02*
X137005000Y-78100000D01*
X136600000Y-79460000D02*
X136600000Y-78505000D01*
X137005000Y-76600000D02*
X137005000Y-78100000D01*
%TO.N,/Elec49*%
X136200000Y-79460000D02*
X136200000Y-78405000D01*
X136505000Y-77200000D02*
X136505000Y-78100000D01*
X136200000Y-78405000D02*
X136505000Y-78100000D01*
%TO.N,/Elec50*%
X135800000Y-78300000D02*
X135800000Y-79460000D01*
X136055000Y-78045000D02*
X135800000Y-78300000D01*
X136055000Y-77800000D02*
X136055000Y-78045000D01*
X136055000Y-76700000D02*
X136055000Y-77800000D01*
%TO.N,/Elec51*%
X135400000Y-78205000D02*
X135400000Y-79460000D01*
X135605000Y-77200000D02*
X135605000Y-78000000D01*
X135605000Y-78000000D02*
X135400000Y-78205000D01*
%TO.N,/Elec52*%
X135000000Y-78110000D02*
X135000000Y-79460000D01*
X135105000Y-78005000D02*
X135000000Y-78110000D01*
%TO.N,/Elec53*%
X134600000Y-78060000D02*
X134655000Y-78005000D01*
X134600000Y-79460000D02*
X134600000Y-78060000D01*
%TO.N,/Elec54*%
X134200000Y-79460000D02*
X134200000Y-77960000D01*
X134200000Y-77960000D02*
X134205000Y-77955000D01*
%TO.N,/Elec55*%
X133800000Y-77950000D02*
X133755000Y-77905000D01*
X133800000Y-79460000D02*
X133800000Y-77950000D01*
%TO.N,/Elec56*%
X133400000Y-78100000D02*
X133305000Y-78005000D01*
X133400000Y-79460000D02*
X133400000Y-78100000D01*
X133305000Y-76700000D02*
X133305000Y-78005000D01*
%TO.N,/Elec57*%
X133000000Y-78050000D02*
X132850000Y-77900000D01*
X133000000Y-79460000D02*
X133000000Y-78050000D01*
%TO.N,/Elec58*%
X132600000Y-78100000D02*
X132600000Y-79460000D01*
X132400000Y-77900000D02*
X132600000Y-78100000D01*
%TO.N,/Elec59*%
X132200000Y-78150000D02*
X132200000Y-79460000D01*
X131950000Y-77900000D02*
X132200000Y-78150000D01*
X131950000Y-77250000D02*
X131950000Y-77900000D01*
%TO.N,/Elec60*%
X131450000Y-77850000D02*
X131800000Y-78200000D01*
X131800000Y-78200000D02*
X131800000Y-79460000D01*
X131450000Y-76700000D02*
X131450000Y-77850000D01*
%TO.N,/Elec61*%
X131400000Y-78250000D02*
X131400000Y-79460000D01*
X131000000Y-77850000D02*
X131400000Y-78250000D01*
X131000000Y-77250000D02*
X131000000Y-77850000D01*
%TO.N,/Elec62*%
X131000000Y-78300000D02*
X131000000Y-79460000D01*
X130500000Y-77800000D02*
X131000000Y-78300000D01*
X130500000Y-76700000D02*
X130500000Y-77800000D01*
%TO.N,/Elec63*%
X130050000Y-77800000D02*
X130600000Y-78350000D01*
X130600000Y-78350000D02*
X130600000Y-79460000D01*
X130050000Y-77250000D02*
X130050000Y-77800000D01*
%TO.N,/Ref*%
X136365000Y-116555000D02*
X137635000Y-116555000D01*
X137635000Y-99555000D02*
X136365000Y-99555000D01*
%TO.N,/Elec16*%
X145200000Y-85500000D02*
X145200000Y-106000000D01*
X145200000Y-106000000D02*
X140875479Y-110324521D01*
X143400000Y-83700000D02*
X145200000Y-85500000D01*
X140875479Y-110324521D02*
X138244521Y-110324521D01*
X143400000Y-82540000D02*
X143400000Y-83700000D01*
X138244521Y-110324521D02*
X137635000Y-109715000D01*
%TO.N,/Elec0*%
X144450000Y-77350000D02*
X143400000Y-78400000D01*
X144450000Y-76600000D02*
X144450000Y-77350000D01*
%TO.N,/Elec17*%
X143000000Y-84000000D02*
X144800000Y-85800000D01*
X144800000Y-105600000D02*
X140685000Y-109715000D01*
X144800000Y-85800000D02*
X144800000Y-105600000D01*
X140685000Y-109715000D02*
X138905000Y-109715000D01*
X143000000Y-82540000D02*
X143000000Y-84000000D01*
%TO.N,/Elec1*%
X143950000Y-77200000D02*
X143000000Y-78150000D01*
%TO.N,/Elec18*%
X140545479Y-109054521D02*
X144400000Y-105200000D01*
X142600000Y-84300000D02*
X144400000Y-86100000D01*
X138244521Y-109054521D02*
X140545479Y-109054521D01*
X137635000Y-108445000D02*
X138244521Y-109054521D01*
X142600000Y-82540000D02*
X142600000Y-84300000D01*
X144400000Y-86100000D02*
X144400000Y-105200000D01*
%TO.N,/Elec2*%
X143450000Y-76600000D02*
X143450000Y-77350000D01*
X143450000Y-77350000D02*
X142600000Y-78200000D01*
%TO.N,/Elec19*%
X144000000Y-86300000D02*
X142200000Y-84500000D01*
X140455000Y-108445000D02*
X144000000Y-104900000D01*
X142200000Y-84500000D02*
X142200000Y-82540000D01*
X138905000Y-108445000D02*
X140455000Y-108445000D01*
X144000000Y-104900000D02*
X144000000Y-86300000D01*
%TO.N,/Elec20*%
X143600000Y-86500000D02*
X141800000Y-84700000D01*
X137635000Y-107175000D02*
X138295479Y-107835479D01*
X143600000Y-104500000D02*
X143600000Y-86500000D01*
X141800000Y-84700000D02*
X141800000Y-82540000D01*
X138295479Y-107835479D02*
X140264521Y-107835479D01*
X140264521Y-107835479D02*
X143600000Y-104500000D01*
%TO.N,/Elec4*%
X142500000Y-77450000D02*
X141800000Y-78150000D01*
X142500000Y-76600000D02*
X142500000Y-77450000D01*
%TO.N,/Elec21*%
X143200000Y-86800000D02*
X141400000Y-85000000D01*
X141400000Y-85000000D02*
X141400000Y-82540000D01*
X143200000Y-104250000D02*
X143200000Y-86800000D01*
X140275000Y-107175000D02*
X143200000Y-104250000D01*
X138905000Y-107175000D02*
X140275000Y-107175000D01*
%TO.N,/Elec5*%
X142050000Y-77200000D02*
X142050000Y-77500000D01*
X142050000Y-77500000D02*
X141400000Y-78150000D01*
%TO.N,/Elec22*%
X142800000Y-103900000D02*
X142800000Y-87000000D01*
X141000000Y-85200000D02*
X141000000Y-82540000D01*
X137635000Y-105905000D02*
X138295479Y-106565479D01*
X142800000Y-87000000D02*
X141000000Y-85200000D01*
X138295479Y-106565479D02*
X140134521Y-106565479D01*
X140134521Y-106565479D02*
X142800000Y-103900000D01*
%TO.N,/Elec6*%
X141600000Y-76600000D02*
X141600000Y-77500000D01*
X141600000Y-77500000D02*
X141000000Y-78100000D01*
%TO.N,/Elec23*%
X142400000Y-103600000D02*
X142400000Y-87200000D01*
X138905000Y-105905000D02*
X140095000Y-105905000D01*
X142400000Y-87200000D02*
X140600000Y-85400000D01*
X140095000Y-105905000D02*
X142400000Y-103600000D01*
X140600000Y-85400000D02*
X140600000Y-82540000D01*
%TO.N,/Elec7*%
X141100000Y-77550000D02*
X140600000Y-78050000D01*
X141100000Y-77200000D02*
X141100000Y-77550000D01*
%TO.N,/Elec24*%
X137635000Y-104635000D02*
X138295479Y-105295479D01*
X140200000Y-85600000D02*
X140200000Y-82540000D01*
X142000000Y-87400000D02*
X140200000Y-85600000D01*
X139995479Y-105295479D02*
X142000000Y-103290958D01*
X138295479Y-105295479D02*
X139995479Y-105295479D01*
X142000000Y-103290958D02*
X142000000Y-87400000D01*
%TO.N,/Elec8*%
X140659501Y-76659501D02*
X140600000Y-76600000D01*
X140200000Y-77879123D02*
X140659501Y-77419622D01*
X140659501Y-77419622D02*
X140659501Y-76659501D01*
%TO.N,/Elec25*%
X141600000Y-102700000D02*
X141600000Y-87700000D01*
X141600000Y-87700000D02*
X139800000Y-85900000D01*
X138905000Y-104635000D02*
X139665000Y-104635000D01*
X139800000Y-85900000D02*
X139800000Y-82540000D01*
X139665000Y-104635000D02*
X141600000Y-102700000D01*
%TO.N,/Elec9*%
X139800000Y-77900000D02*
X140250000Y-77450000D01*
X140250000Y-77450000D02*
X140250000Y-77250000D01*
%TO.N,/Elec26*%
X141200000Y-87900000D02*
X139400000Y-86100000D01*
X137635000Y-103365000D02*
X138244521Y-103974521D01*
X139400000Y-86100000D02*
X139400000Y-82540000D01*
X141200000Y-102249042D02*
X141200000Y-87900000D01*
X139474521Y-103974521D02*
X141200000Y-102249042D01*
X138244521Y-103974521D02*
X139474521Y-103974521D01*
%TO.N,/Elec10*%
X139750000Y-77550000D02*
X139400000Y-77900000D01*
X139750000Y-76600000D02*
X139750000Y-77550000D01*
%TO.N,/Elec27*%
X140800000Y-101470000D02*
X140800000Y-88200000D01*
X140800000Y-88200000D02*
X139000000Y-86400000D01*
X138905000Y-103365000D02*
X140800000Y-101470000D01*
X139000000Y-86400000D02*
X139000000Y-82540000D01*
%TO.N,/Elec28*%
X138600000Y-86800000D02*
X138600000Y-82540000D01*
X140400000Y-88600000D02*
X138600000Y-86800000D01*
X138905000Y-102095000D02*
X140400000Y-100600000D01*
X140400000Y-100600000D02*
X140400000Y-88600000D01*
%TO.N,/Elec29*%
X138905000Y-100825000D02*
X140000000Y-99730000D01*
X140000000Y-88900000D02*
X138200000Y-87100000D01*
X138200000Y-87100000D02*
X138200000Y-82540000D01*
X140000000Y-99730000D02*
X140000000Y-88900000D01*
%TO.N,/Elec30*%
X138905000Y-99555000D02*
X139514521Y-98945479D01*
X137800000Y-87400000D02*
X137800000Y-82540000D01*
X139514521Y-98945479D02*
X139514521Y-89114521D01*
X139514521Y-89114521D02*
X137800000Y-87400000D01*
%TO.N,/Elec14*%
X137900000Y-76600000D02*
X137900000Y-77700000D01*
X137900000Y-77700000D02*
X137800000Y-77800000D01*
%TO.N,/Elec31*%
X138905000Y-89305000D02*
X137400000Y-87800000D01*
X137400000Y-87800000D02*
X137400000Y-82540000D01*
X138905000Y-98285000D02*
X138905000Y-89305000D01*
%TO.N,/Elec15*%
X137450000Y-77200000D02*
X137400000Y-77250000D01*
%TO.N,/Elec32*%
X137000000Y-87790000D02*
X137000000Y-82540000D01*
X135095000Y-98285000D02*
X135095000Y-89695000D01*
X135095000Y-89695000D02*
X137000000Y-87790000D01*
%TO.N,/Elec15*%
X137005000Y-79455000D02*
X137000000Y-79460000D01*
%TO.N,/Elec33*%
X136600000Y-87400000D02*
X136600000Y-82540000D01*
X134300000Y-98760000D02*
X134300000Y-89700000D01*
X135095000Y-99555000D02*
X134300000Y-98760000D01*
X134300000Y-89700000D02*
X136600000Y-87400000D01*
%TO.N,/Elec34*%
X136200000Y-87100000D02*
X136200000Y-82540000D01*
X133900000Y-99630000D02*
X133900000Y-89400000D01*
X133900000Y-89400000D02*
X136200000Y-87100000D01*
X135095000Y-100825000D02*
X133900000Y-99630000D01*
%TO.N,/Elec35*%
X133400000Y-100400000D02*
X133400000Y-89300000D01*
X135095000Y-102095000D02*
X133400000Y-100400000D01*
X133400000Y-89300000D02*
X135800000Y-86900000D01*
X135800000Y-86900000D02*
X135800000Y-82540000D01*
%TO.N,/Elec36*%
X132900000Y-101170000D02*
X132900000Y-89200000D01*
X135400000Y-86700000D02*
X135400000Y-82540000D01*
X135095000Y-103365000D02*
X132900000Y-101170000D01*
X132900000Y-89200000D02*
X135400000Y-86700000D01*
%TO.N,/Elec52*%
X135105000Y-76700000D02*
X135105000Y-78005000D01*
%TO.N,/Elec37*%
X132400000Y-89000000D02*
X135000000Y-86400000D01*
X136365000Y-103365000D02*
X135755479Y-103974521D01*
X135755479Y-103974521D02*
X134674521Y-103974521D01*
X135000000Y-86400000D02*
X135000000Y-82540000D01*
X132400000Y-101700000D02*
X132400000Y-89000000D01*
X134674521Y-103974521D02*
X132400000Y-101700000D01*
%TO.N,/Elec53*%
X134655000Y-77200000D02*
X134655000Y-78005000D01*
%TO.N,/Elec38*%
X135095000Y-104635000D02*
X134435000Y-104635000D01*
X134600000Y-86200000D02*
X134600000Y-82540000D01*
X134435000Y-104635000D02*
X132000000Y-102200000D01*
X132000000Y-102200000D02*
X132000000Y-88800000D01*
X132000000Y-88800000D02*
X134600000Y-86200000D01*
%TO.N,/Elec54*%
X134205000Y-76700000D02*
X134205000Y-77955000D01*
%TO.N,/Elec39*%
X134244521Y-105244521D02*
X135755479Y-105244521D01*
X131500000Y-88700000D02*
X134200000Y-86000000D01*
X134200000Y-86000000D02*
X134200000Y-82540000D01*
X134244521Y-105244521D02*
X131500000Y-102500000D01*
X136365000Y-104635000D02*
X135755479Y-105244521D01*
X131500000Y-102500000D02*
X131500000Y-88700000D01*
%TO.N,/Elec55*%
X133755000Y-77200000D02*
X133755000Y-77905000D01*
%TO.N,/Elec40*%
X134155000Y-105905000D02*
X131000000Y-102750000D01*
X133800000Y-85800000D02*
X133800000Y-82540000D01*
X135095000Y-105905000D02*
X134155000Y-105905000D01*
X131000000Y-88600000D02*
X133800000Y-85800000D01*
X131000000Y-102750000D02*
X131000000Y-88600000D01*
%TO.N,/Elec41*%
X133400000Y-85600000D02*
X133400000Y-82540000D01*
X136365000Y-105905000D02*
X135755479Y-106514521D01*
X130500000Y-103029042D02*
X130500000Y-88500000D01*
X130500000Y-88500000D02*
X133400000Y-85600000D01*
X133985479Y-106514521D02*
X130500000Y-103029042D01*
X135755479Y-106514521D02*
X133985479Y-106514521D01*
%TO.N,/Elec57*%
X132850000Y-77250000D02*
X132850000Y-77900000D01*
%TO.N,/Elec42*%
X130000000Y-88400000D02*
X133000000Y-85400000D01*
X135095000Y-107175000D02*
X133875000Y-107175000D01*
X133000000Y-85400000D02*
X133000000Y-82540000D01*
X133875000Y-107175000D02*
X130000000Y-103300000D01*
X130000000Y-103300000D02*
X130000000Y-88400000D01*
%TO.N,/Elec58*%
X132400000Y-76700000D02*
X132400000Y-77900000D01*
%TO.N,/Elec43*%
X135704521Y-107835479D02*
X133735479Y-107835479D01*
X133735479Y-107835479D02*
X129500000Y-103600000D01*
X136365000Y-107175000D02*
X135704521Y-107835479D01*
X132600000Y-85200000D02*
X132600000Y-82540000D01*
X129500000Y-103600000D02*
X129500000Y-88300000D01*
X129500000Y-88300000D02*
X132600000Y-85200000D01*
%TO.N,/Elec44*%
X129000000Y-88100000D02*
X129000000Y-103900000D01*
X132200000Y-84900000D02*
X129000000Y-88100000D01*
X129000000Y-103900000D02*
X133545000Y-108445000D01*
X133545000Y-108445000D02*
X135095000Y-108445000D01*
X132200000Y-82540000D02*
X132200000Y-84900000D01*
%TO.N,/Elec45*%
X128500000Y-104200000D02*
X133354521Y-109054521D01*
X131800000Y-84700000D02*
X131800000Y-82540000D01*
X128500000Y-88000000D02*
X131800000Y-84700000D01*
X136365000Y-108445000D02*
X135755479Y-109054521D01*
X133354521Y-109054521D02*
X135755479Y-109054521D01*
X128500000Y-104200000D02*
X128500000Y-88000000D01*
%TO.N,/Elec46*%
X128000000Y-104500000D02*
X128000000Y-87900000D01*
X131400000Y-84500000D02*
X131400000Y-82540000D01*
X133215000Y-109715000D02*
X128000000Y-104500000D01*
X133215000Y-109715000D02*
X135095000Y-109715000D01*
X128000000Y-87900000D02*
X131400000Y-84500000D01*
%TO.N,/Elec47*%
X131000000Y-84300000D02*
X131000000Y-82540000D01*
X127500000Y-104800000D02*
X127500000Y-87800000D01*
X135755479Y-110324521D02*
X133024521Y-110324521D01*
X133024521Y-110324521D02*
X127500000Y-104800000D01*
X127500000Y-87800000D02*
X131000000Y-84300000D01*
X136365000Y-109715000D02*
X135755479Y-110324521D01*
%TD*%
%TA.AperFunction,Conductor*%
%TO.N,GND*%
G36*
X137265004Y-88033406D02*
G01*
X138615504Y-89383906D01*
X138636964Y-89416024D01*
X138644500Y-89453910D01*
X138644500Y-97621578D01*
X138630222Y-97672795D01*
X138591507Y-97709238D01*
X138535204Y-97738787D01*
X138535199Y-97738790D01*
X138529899Y-97741572D01*
X138525419Y-97745540D01*
X138525413Y-97745545D01*
X138415235Y-97843155D01*
X138415231Y-97843158D01*
X138410748Y-97847131D01*
X138407345Y-97852060D01*
X138407345Y-97852061D01*
X138349938Y-97935229D01*
X138308791Y-97969404D01*
X138255872Y-97977186D01*
X138206628Y-97956304D01*
X138192041Y-97944637D01*
X138182202Y-97949928D01*
X137856346Y-98275785D01*
X137851026Y-98284999D01*
X137856346Y-98294214D01*
X138182202Y-98620070D01*
X138192040Y-98625361D01*
X138206625Y-98613696D01*
X138255869Y-98592812D01*
X138308789Y-98600594D01*
X138349936Y-98634768D01*
X138410748Y-98722869D01*
X138529899Y-98828428D01*
X138535203Y-98831212D01*
X138535205Y-98831213D01*
X138537356Y-98832342D01*
X138538771Y-98833674D01*
X138540131Y-98834613D01*
X138539988Y-98834819D01*
X138576068Y-98868785D01*
X138590345Y-98920000D01*
X138576068Y-98971215D01*
X138539988Y-99005180D01*
X138540131Y-99005387D01*
X138538771Y-99006325D01*
X138537356Y-99007658D01*
X138535205Y-99008786D01*
X138535197Y-99008791D01*
X138529899Y-99011572D01*
X138525419Y-99015540D01*
X138525413Y-99015545D01*
X138415235Y-99113155D01*
X138415231Y-99113158D01*
X138410748Y-99117131D01*
X138407345Y-99122060D01*
X138407345Y-99122061D01*
X138351475Y-99203003D01*
X138316007Y-99234424D01*
X138270000Y-99245764D01*
X138223993Y-99234424D01*
X138188525Y-99203003D01*
X138129252Y-99117131D01*
X138010101Y-99011572D01*
X138004798Y-99008788D01*
X138004794Y-99008786D01*
X137995339Y-99003824D01*
X137952927Y-98960693D01*
X137943526Y-98900939D01*
X137970645Y-98846868D01*
X137975174Y-98842246D01*
X137969989Y-98832121D01*
X137644214Y-98506346D01*
X137634999Y-98501026D01*
X137625785Y-98506346D01*
X137300012Y-98832118D01*
X137294824Y-98842248D01*
X137299356Y-98846872D01*
X137326472Y-98900942D01*
X137317070Y-98960695D01*
X137274659Y-99003825D01*
X137265205Y-99008786D01*
X137265197Y-99008791D01*
X137259899Y-99011572D01*
X137255419Y-99015540D01*
X137255413Y-99015545D01*
X137145235Y-99113155D01*
X137145231Y-99113158D01*
X137140748Y-99117131D01*
X137137345Y-99122060D01*
X137137345Y-99122061D01*
X137081475Y-99203003D01*
X137046007Y-99234424D01*
X137000000Y-99245764D01*
X136953993Y-99234424D01*
X136918525Y-99203003D01*
X136859252Y-99117131D01*
X136740101Y-99011572D01*
X136734798Y-99008788D01*
X136734794Y-99008786D01*
X136725339Y-99003824D01*
X136682927Y-98960693D01*
X136673526Y-98900939D01*
X136700645Y-98846868D01*
X136705174Y-98842246D01*
X136699989Y-98832121D01*
X136374214Y-98506346D01*
X136364999Y-98501026D01*
X136355785Y-98506346D01*
X136030012Y-98832118D01*
X136024824Y-98842248D01*
X136029356Y-98846872D01*
X136056472Y-98900942D01*
X136047070Y-98960695D01*
X136004659Y-99003825D01*
X135995205Y-99008786D01*
X135995197Y-99008791D01*
X135989899Y-99011572D01*
X135985419Y-99015540D01*
X135985413Y-99015545D01*
X135875235Y-99113155D01*
X135875231Y-99113158D01*
X135870748Y-99117131D01*
X135867345Y-99122060D01*
X135867345Y-99122061D01*
X135811475Y-99203003D01*
X135776007Y-99234424D01*
X135730000Y-99245764D01*
X135683993Y-99234424D01*
X135648525Y-99203003D01*
X135589252Y-99117131D01*
X135572171Y-99101998D01*
X135542976Y-99056275D01*
X135542262Y-99002029D01*
X135570243Y-98955551D01*
X135609944Y-98935193D01*
X135609658Y-98934501D01*
X135618183Y-98930969D01*
X135618514Y-98930799D01*
X135628231Y-98928867D01*
X135694552Y-98884552D01*
X135738867Y-98818231D01*
X135750500Y-98759748D01*
X135750500Y-98715428D01*
X135764521Y-98664638D01*
X135802613Y-98628235D01*
X135817797Y-98620069D01*
X136143651Y-98294216D01*
X136148973Y-98284999D01*
X136581026Y-98284999D01*
X136586346Y-98294214D01*
X136912202Y-98620070D01*
X136922040Y-98625361D01*
X136938162Y-98612467D01*
X136977923Y-98593272D01*
X137022075Y-98593272D01*
X137061836Y-98612467D01*
X137077956Y-98625360D01*
X137087798Y-98620068D01*
X137413651Y-98294216D01*
X137418973Y-98284999D01*
X137413653Y-98275785D01*
X137087795Y-97949927D01*
X137077957Y-97944637D01*
X137061835Y-97957532D01*
X137022074Y-97976726D01*
X136977924Y-97976726D01*
X136938163Y-97957532D01*
X136922041Y-97944637D01*
X136912202Y-97949928D01*
X136586346Y-98275785D01*
X136581026Y-98284999D01*
X136148973Y-98284999D01*
X136143653Y-98275785D01*
X135817797Y-97949929D01*
X135802614Y-97941765D01*
X135764521Y-97905361D01*
X135750500Y-97854571D01*
X135750500Y-97815110D01*
X135750500Y-97810252D01*
X135738867Y-97751769D01*
X135722818Y-97727751D01*
X136024824Y-97727751D01*
X136030009Y-97737877D01*
X136355785Y-98063653D01*
X136364999Y-98068973D01*
X136374216Y-98063651D01*
X136699987Y-97737879D01*
X136705173Y-97727751D01*
X137294824Y-97727751D01*
X137300009Y-97737877D01*
X137625785Y-98063653D01*
X137634999Y-98068973D01*
X137644216Y-98063651D01*
X137969987Y-97737879D01*
X137975173Y-97727751D01*
X137967208Y-97719624D01*
X137874280Y-97670851D01*
X137863151Y-97666631D01*
X137720346Y-97631433D01*
X137708543Y-97630000D01*
X137561457Y-97630000D01*
X137549653Y-97631433D01*
X137406848Y-97666631D01*
X137395719Y-97670851D01*
X137302790Y-97719624D01*
X137294824Y-97727751D01*
X136705173Y-97727751D01*
X136697208Y-97719624D01*
X136604280Y-97670851D01*
X136593151Y-97666631D01*
X136450346Y-97631433D01*
X136438543Y-97630000D01*
X136291457Y-97630000D01*
X136279653Y-97631433D01*
X136136848Y-97666631D01*
X136125719Y-97670851D01*
X136032790Y-97719624D01*
X136024824Y-97727751D01*
X135722818Y-97727751D01*
X135694552Y-97685448D01*
X135675616Y-97672795D01*
X135636340Y-97646551D01*
X135636338Y-97646550D01*
X135628231Y-97641133D01*
X135618667Y-97639230D01*
X135618666Y-97639230D01*
X135574511Y-97630447D01*
X135574506Y-97630446D01*
X135569748Y-97629500D01*
X135564890Y-97629500D01*
X135454500Y-97629500D01*
X135405000Y-97616237D01*
X135368763Y-97580000D01*
X135355500Y-97530500D01*
X135355500Y-89843910D01*
X135363036Y-89806024D01*
X135384496Y-89773906D01*
X137124996Y-88033406D01*
X137169377Y-88007783D01*
X137220623Y-88007783D01*
X137265004Y-88033406D01*
G37*
%TD.AperFunction*%
%TA.AperFunction,Conductor*%
G36*
X150003234Y-71200712D02*
G01*
X150228412Y-71215470D01*
X150241237Y-71217159D01*
X150459386Y-71260551D01*
X150471886Y-71263900D01*
X150682500Y-71335395D01*
X150694463Y-71340351D01*
X150893926Y-71438715D01*
X150905142Y-71445190D01*
X151090072Y-71568757D01*
X151100345Y-71576640D01*
X151267560Y-71723282D01*
X151276717Y-71732439D01*
X151423359Y-71899654D01*
X151431242Y-71909927D01*
X151554809Y-72094857D01*
X151561284Y-72106073D01*
X151659648Y-72305536D01*
X151664604Y-72317499D01*
X151736097Y-72528108D01*
X151739449Y-72540617D01*
X151782839Y-72758755D01*
X151784529Y-72771594D01*
X151799288Y-72996766D01*
X151799500Y-73003241D01*
X151799500Y-117875942D01*
X151791964Y-117913828D01*
X151770504Y-117945946D01*
X139945947Y-129770504D01*
X139913829Y-129791964D01*
X139875943Y-129799500D01*
X134124058Y-129799500D01*
X134086172Y-129791964D01*
X134054054Y-129770504D01*
X130998550Y-126715000D01*
X134434686Y-126715000D01*
X134435408Y-126720946D01*
X134453151Y-126867076D01*
X134453152Y-126867083D01*
X134453874Y-126873023D01*
X134455996Y-126878620D01*
X134455997Y-126878621D01*
X134508198Y-127016267D01*
X134508200Y-127016272D01*
X134510321Y-127021863D01*
X134513720Y-127026787D01*
X134513722Y-127026791D01*
X134597342Y-127147935D01*
X134600748Y-127152869D01*
X134719899Y-127258428D01*
X134860849Y-127332404D01*
X135015408Y-127370500D01*
X135168604Y-127370500D01*
X135174592Y-127370500D01*
X135329151Y-127332404D01*
X135470101Y-127258428D01*
X135589252Y-127152869D01*
X135648525Y-127066996D01*
X135683992Y-127035575D01*
X135730000Y-127024235D01*
X135776008Y-127035575D01*
X135811474Y-127066996D01*
X135870748Y-127152869D01*
X135989899Y-127258428D01*
X136130849Y-127332404D01*
X136285408Y-127370500D01*
X136438604Y-127370500D01*
X136444592Y-127370500D01*
X136599151Y-127332404D01*
X136740101Y-127258428D01*
X136859252Y-127152869D01*
X136918525Y-127066996D01*
X136953992Y-127035575D01*
X137000000Y-127024235D01*
X137046008Y-127035575D01*
X137081474Y-127066996D01*
X137140748Y-127152869D01*
X137259899Y-127258428D01*
X137400849Y-127332404D01*
X137555408Y-127370500D01*
X137708604Y-127370500D01*
X137714592Y-127370500D01*
X137869151Y-127332404D01*
X138010101Y-127258428D01*
X138129252Y-127152869D01*
X138188525Y-127066996D01*
X138223992Y-127035575D01*
X138270000Y-127024235D01*
X138316008Y-127035575D01*
X138351474Y-127066996D01*
X138410748Y-127152869D01*
X138529899Y-127258428D01*
X138670849Y-127332404D01*
X138825408Y-127370500D01*
X138978604Y-127370500D01*
X138984592Y-127370500D01*
X139139151Y-127332404D01*
X139280101Y-127258428D01*
X139399252Y-127152869D01*
X139489679Y-127021863D01*
X139546126Y-126873023D01*
X139565314Y-126715000D01*
X139546126Y-126556977D01*
X139489679Y-126408137D01*
X139399252Y-126277131D01*
X139280101Y-126171572D01*
X139272646Y-126167659D01*
X139271230Y-126166327D01*
X139269869Y-126165387D01*
X139270012Y-126165179D01*
X139233932Y-126131217D01*
X139219654Y-126080000D01*
X139233932Y-126028783D01*
X139270012Y-125994820D01*
X139269869Y-125994613D01*
X139271230Y-125993672D01*
X139272646Y-125992340D01*
X139280101Y-125988428D01*
X139399252Y-125882869D01*
X139489679Y-125751863D01*
X139546126Y-125603023D01*
X139565314Y-125445000D01*
X139546126Y-125286977D01*
X139489679Y-125138137D01*
X139399252Y-125007131D01*
X139280101Y-124901572D01*
X139274793Y-124898786D01*
X139274792Y-124898785D01*
X139272639Y-124897655D01*
X139271222Y-124896321D01*
X139269869Y-124895387D01*
X139270011Y-124895180D01*
X139233927Y-124861207D01*
X139219654Y-124809989D01*
X139233937Y-124758773D01*
X139270012Y-124724821D01*
X139269869Y-124724613D01*
X139271239Y-124723666D01*
X139272652Y-124722337D01*
X139280101Y-124718428D01*
X139399252Y-124612869D01*
X139489679Y-124481863D01*
X139546126Y-124333023D01*
X139565314Y-124175000D01*
X139546126Y-124016977D01*
X139489679Y-123868137D01*
X139399252Y-123737131D01*
X139280101Y-123631572D01*
X139272646Y-123627659D01*
X139271230Y-123626327D01*
X139269869Y-123625387D01*
X139270012Y-123625179D01*
X139233932Y-123591217D01*
X139219654Y-123540000D01*
X139233932Y-123488783D01*
X139270012Y-123454820D01*
X139269869Y-123454613D01*
X139271230Y-123453672D01*
X139272646Y-123452340D01*
X139280101Y-123448428D01*
X139399252Y-123342869D01*
X139489679Y-123211863D01*
X139546126Y-123063023D01*
X139565314Y-122905000D01*
X139546126Y-122746977D01*
X139489679Y-122598137D01*
X139399252Y-122467131D01*
X139280101Y-122361572D01*
X139274793Y-122358786D01*
X139274792Y-122358785D01*
X139272639Y-122357655D01*
X139271222Y-122356321D01*
X139269869Y-122355387D01*
X139270011Y-122355180D01*
X139233927Y-122321207D01*
X139219654Y-122269989D01*
X139233937Y-122218773D01*
X139270012Y-122184821D01*
X139269869Y-122184613D01*
X139271239Y-122183666D01*
X139272652Y-122182337D01*
X139280101Y-122178428D01*
X139399252Y-122072869D01*
X139489679Y-121941863D01*
X139546126Y-121793023D01*
X139565314Y-121635000D01*
X139546126Y-121476977D01*
X139489679Y-121328137D01*
X139399252Y-121197131D01*
X139280101Y-121091572D01*
X139272646Y-121087659D01*
X139271230Y-121086327D01*
X139269869Y-121085387D01*
X139270012Y-121085179D01*
X139233932Y-121051217D01*
X139219654Y-121000000D01*
X139233932Y-120948783D01*
X139270012Y-120914820D01*
X139269869Y-120914613D01*
X139271230Y-120913672D01*
X139272646Y-120912340D01*
X139280101Y-120908428D01*
X139399252Y-120802869D01*
X139489679Y-120671863D01*
X139546126Y-120523023D01*
X139565314Y-120365000D01*
X139546126Y-120206977D01*
X139489679Y-120058137D01*
X139399252Y-119927131D01*
X139280101Y-119821572D01*
X139272646Y-119817659D01*
X139271230Y-119816327D01*
X139269869Y-119815387D01*
X139270012Y-119815179D01*
X139233932Y-119781217D01*
X139219654Y-119730000D01*
X139233932Y-119678783D01*
X139270012Y-119644820D01*
X139269869Y-119644613D01*
X139271230Y-119643672D01*
X139272646Y-119642340D01*
X139280101Y-119638428D01*
X139399252Y-119532869D01*
X139489679Y-119401863D01*
X139546126Y-119253023D01*
X139565314Y-119095000D01*
X139546126Y-118936977D01*
X139489679Y-118788137D01*
X139399252Y-118657131D01*
X139280101Y-118551572D01*
X139272646Y-118547659D01*
X139271230Y-118546327D01*
X139269869Y-118545387D01*
X139270012Y-118545179D01*
X139233932Y-118511217D01*
X139219654Y-118460000D01*
X139233932Y-118408783D01*
X139270012Y-118374820D01*
X139269869Y-118374613D01*
X139271230Y-118373672D01*
X139272646Y-118372340D01*
X139280101Y-118368428D01*
X139399252Y-118262869D01*
X139489679Y-118131863D01*
X139546126Y-117983023D01*
X139565314Y-117825000D01*
X139546126Y-117666977D01*
X139489679Y-117518137D01*
X139399252Y-117387131D01*
X139280101Y-117281572D01*
X139272646Y-117277659D01*
X139271230Y-117276327D01*
X139269869Y-117275387D01*
X139270012Y-117275179D01*
X139233932Y-117241217D01*
X139219654Y-117190000D01*
X139233932Y-117138783D01*
X139270012Y-117104820D01*
X139269869Y-117104613D01*
X139271230Y-117103672D01*
X139272646Y-117102340D01*
X139280101Y-117098428D01*
X139399252Y-116992869D01*
X139489679Y-116861863D01*
X139546126Y-116713023D01*
X139565314Y-116555000D01*
X139546126Y-116396977D01*
X139489679Y-116248137D01*
X139399252Y-116117131D01*
X139280101Y-116011572D01*
X139272646Y-116007659D01*
X139271230Y-116006327D01*
X139269869Y-116005387D01*
X139270012Y-116005179D01*
X139233932Y-115971217D01*
X139219654Y-115920000D01*
X139233932Y-115868783D01*
X139270012Y-115834820D01*
X139269869Y-115834613D01*
X139271230Y-115833672D01*
X139272646Y-115832340D01*
X139280101Y-115828428D01*
X139399252Y-115722869D01*
X139489679Y-115591863D01*
X139546126Y-115443023D01*
X139565314Y-115285000D01*
X139546126Y-115126977D01*
X139489679Y-114978137D01*
X139475456Y-114957532D01*
X139402657Y-114852064D01*
X139399252Y-114847131D01*
X139352247Y-114805488D01*
X139284586Y-114745545D01*
X139284584Y-114745543D01*
X139280101Y-114741572D01*
X139273061Y-114737877D01*
X139144454Y-114670379D01*
X139144452Y-114670378D01*
X139139151Y-114667596D01*
X139061871Y-114648548D01*
X138990406Y-114630933D01*
X138990405Y-114630932D01*
X138984592Y-114629500D01*
X138825408Y-114629500D01*
X138819595Y-114630932D01*
X138819593Y-114630933D01*
X138676662Y-114666163D01*
X138676660Y-114666163D01*
X138670849Y-114667596D01*
X138665550Y-114670377D01*
X138665545Y-114670379D01*
X138535204Y-114738787D01*
X138535199Y-114738790D01*
X138529899Y-114741572D01*
X138525419Y-114745540D01*
X138525413Y-114745545D01*
X138415235Y-114843155D01*
X138415231Y-114843158D01*
X138410748Y-114847131D01*
X138407345Y-114852060D01*
X138407345Y-114852061D01*
X138349938Y-114935229D01*
X138308791Y-114969404D01*
X138255872Y-114977186D01*
X138206628Y-114956304D01*
X138192041Y-114944637D01*
X138182202Y-114949928D01*
X137856346Y-115275785D01*
X137851026Y-115284999D01*
X137856346Y-115294214D01*
X138182202Y-115620070D01*
X138192040Y-115625361D01*
X138206625Y-115613696D01*
X138255869Y-115592812D01*
X138308789Y-115600594D01*
X138349936Y-115634768D01*
X138410748Y-115722869D01*
X138529899Y-115828428D01*
X138535203Y-115831212D01*
X138535205Y-115831213D01*
X138537356Y-115832342D01*
X138538771Y-115833674D01*
X138540131Y-115834613D01*
X138539988Y-115834819D01*
X138576068Y-115868785D01*
X138590345Y-115920000D01*
X138576068Y-115971215D01*
X138539988Y-116005180D01*
X138540131Y-116005387D01*
X138538771Y-116006325D01*
X138537356Y-116007658D01*
X138535205Y-116008786D01*
X138535197Y-116008791D01*
X138529899Y-116011572D01*
X138525419Y-116015540D01*
X138525413Y-116015545D01*
X138415235Y-116113155D01*
X138415231Y-116113158D01*
X138410748Y-116117131D01*
X138407345Y-116122060D01*
X138407345Y-116122061D01*
X138351475Y-116203003D01*
X138316007Y-116234424D01*
X138270000Y-116245764D01*
X138223993Y-116234424D01*
X138188525Y-116203003D01*
X138129252Y-116117131D01*
X138010101Y-116011572D01*
X138004798Y-116008788D01*
X138004794Y-116008786D01*
X137995339Y-116003824D01*
X137952927Y-115960693D01*
X137943526Y-115900939D01*
X137970645Y-115846868D01*
X137975174Y-115842246D01*
X137969989Y-115832121D01*
X137644214Y-115506346D01*
X137634999Y-115501026D01*
X137625785Y-115506346D01*
X137300012Y-115832118D01*
X137294824Y-115842248D01*
X137299356Y-115846872D01*
X137326472Y-115900942D01*
X137317070Y-115960695D01*
X137274659Y-116003825D01*
X137265205Y-116008786D01*
X137265197Y-116008791D01*
X137259899Y-116011572D01*
X137255419Y-116015540D01*
X137255413Y-116015545D01*
X137145235Y-116113155D01*
X137145231Y-116113158D01*
X137140748Y-116117131D01*
X137137345Y-116122060D01*
X137137345Y-116122061D01*
X137081475Y-116203003D01*
X137046007Y-116234424D01*
X137000000Y-116245764D01*
X136953993Y-116234424D01*
X136918525Y-116203003D01*
X136859252Y-116117131D01*
X136740101Y-116011572D01*
X136734798Y-116008788D01*
X136734794Y-116008786D01*
X136725339Y-116003824D01*
X136682927Y-115960693D01*
X136673526Y-115900939D01*
X136700645Y-115846868D01*
X136705174Y-115842246D01*
X136699989Y-115832121D01*
X136374214Y-115506346D01*
X136364999Y-115501026D01*
X136355785Y-115506346D01*
X136030012Y-115832118D01*
X136024824Y-115842248D01*
X136029356Y-115846872D01*
X136056472Y-115900942D01*
X136047070Y-115960695D01*
X136004659Y-116003825D01*
X135995205Y-116008786D01*
X135995197Y-116008791D01*
X135989899Y-116011572D01*
X135985419Y-116015540D01*
X135985413Y-116015545D01*
X135875235Y-116113155D01*
X135875231Y-116113158D01*
X135870748Y-116117131D01*
X135867345Y-116122060D01*
X135867345Y-116122061D01*
X135811475Y-116203003D01*
X135776007Y-116234424D01*
X135730000Y-116245764D01*
X135683993Y-116234424D01*
X135648525Y-116203003D01*
X135589252Y-116117131D01*
X135572171Y-116101998D01*
X135542976Y-116056275D01*
X135542262Y-116002029D01*
X135570243Y-115955551D01*
X135609944Y-115935193D01*
X135609658Y-115934501D01*
X135618183Y-115930969D01*
X135618514Y-115930799D01*
X135628231Y-115928867D01*
X135694552Y-115884552D01*
X135738867Y-115818231D01*
X135750500Y-115759748D01*
X135750500Y-115715428D01*
X135764521Y-115664638D01*
X135802613Y-115628235D01*
X135817797Y-115620069D01*
X136143651Y-115294216D01*
X136148973Y-115284999D01*
X136581026Y-115284999D01*
X136586346Y-115294214D01*
X136912202Y-115620070D01*
X136922040Y-115625361D01*
X136938162Y-115612467D01*
X136977923Y-115593272D01*
X137022075Y-115593272D01*
X137061836Y-115612467D01*
X137077956Y-115625360D01*
X137087798Y-115620068D01*
X137413651Y-115294216D01*
X137418973Y-115284999D01*
X137413653Y-115275785D01*
X137087795Y-114949927D01*
X137077957Y-114944637D01*
X137061835Y-114957532D01*
X137022074Y-114976726D01*
X136977924Y-114976726D01*
X136938163Y-114957532D01*
X136922041Y-114944637D01*
X136912202Y-114949928D01*
X136586346Y-115275785D01*
X136581026Y-115284999D01*
X136148973Y-115284999D01*
X136143653Y-115275785D01*
X135817797Y-114949929D01*
X135802614Y-114941765D01*
X135764521Y-114905361D01*
X135750500Y-114854571D01*
X135750500Y-114815110D01*
X135750500Y-114810252D01*
X135738867Y-114751769D01*
X135722818Y-114727751D01*
X136024824Y-114727751D01*
X136030009Y-114737877D01*
X136355785Y-115063653D01*
X136364999Y-115068973D01*
X136374216Y-115063651D01*
X136699987Y-114737879D01*
X136705173Y-114727751D01*
X137294824Y-114727751D01*
X137300009Y-114737877D01*
X137625785Y-115063653D01*
X137634999Y-115068973D01*
X137644216Y-115063651D01*
X137969987Y-114737879D01*
X137975173Y-114727751D01*
X137967208Y-114719624D01*
X137874280Y-114670851D01*
X137863151Y-114666631D01*
X137720346Y-114631433D01*
X137708543Y-114630000D01*
X137561457Y-114630000D01*
X137549653Y-114631433D01*
X137406848Y-114666631D01*
X137395719Y-114670851D01*
X137302790Y-114719624D01*
X137294824Y-114727751D01*
X136705173Y-114727751D01*
X136697208Y-114719624D01*
X136604280Y-114670851D01*
X136593151Y-114666631D01*
X136450346Y-114631433D01*
X136438543Y-114630000D01*
X136291457Y-114630000D01*
X136279653Y-114631433D01*
X136136848Y-114666631D01*
X136125719Y-114670851D01*
X136032790Y-114719624D01*
X136024824Y-114727751D01*
X135722818Y-114727751D01*
X135694552Y-114685448D01*
X135686441Y-114680028D01*
X135636340Y-114646551D01*
X135636338Y-114646550D01*
X135628231Y-114641133D01*
X135618667Y-114639230D01*
X135618666Y-114639230D01*
X135574511Y-114630447D01*
X135574506Y-114630446D01*
X135569748Y-114629500D01*
X134620252Y-114629500D01*
X134615494Y-114630446D01*
X134615488Y-114630447D01*
X134571333Y-114639230D01*
X134571330Y-114639231D01*
X134561769Y-114641133D01*
X134553663Y-114646549D01*
X134553659Y-114646551D01*
X134503558Y-114680028D01*
X134503555Y-114680030D01*
X134495448Y-114685448D01*
X134490030Y-114693555D01*
X134490028Y-114693558D01*
X134456551Y-114743659D01*
X134456549Y-114743663D01*
X134451133Y-114751769D01*
X134449231Y-114761330D01*
X134449230Y-114761333D01*
X134440447Y-114805488D01*
X134440446Y-114805494D01*
X134439500Y-114810252D01*
X134439500Y-115759748D01*
X134451133Y-115818231D01*
X134456550Y-115826338D01*
X134456551Y-115826340D01*
X134490028Y-115876441D01*
X134495448Y-115884552D01*
X134561769Y-115928867D01*
X134571483Y-115930799D01*
X134571811Y-115930967D01*
X134580342Y-115934501D01*
X134580054Y-115935194D01*
X134619756Y-115955552D01*
X134647737Y-116002028D01*
X134647023Y-116056273D01*
X134617829Y-116101998D01*
X134605233Y-116113157D01*
X134605230Y-116113159D01*
X134600748Y-116117131D01*
X134597346Y-116122058D01*
X134597342Y-116122064D01*
X134513722Y-116243208D01*
X134513718Y-116243215D01*
X134510321Y-116248137D01*
X134508202Y-116253724D01*
X134508198Y-116253732D01*
X134460000Y-116380823D01*
X134453874Y-116396977D01*
X134453152Y-116402914D01*
X134453151Y-116402923D01*
X134435492Y-116548359D01*
X134434686Y-116555000D01*
X134435408Y-116560946D01*
X134453151Y-116707076D01*
X134453152Y-116707083D01*
X134453874Y-116713023D01*
X134455996Y-116718620D01*
X134455997Y-116718621D01*
X134508198Y-116856267D01*
X134508200Y-116856272D01*
X134510321Y-116861863D01*
X134513720Y-116866787D01*
X134513722Y-116866791D01*
X134597342Y-116987935D01*
X134600748Y-116992869D01*
X134719899Y-117098428D01*
X134725203Y-117101212D01*
X134725205Y-117101213D01*
X134727356Y-117102342D01*
X134728771Y-117103674D01*
X134730131Y-117104613D01*
X134729988Y-117104819D01*
X134766068Y-117138785D01*
X134780345Y-117190000D01*
X134766068Y-117241215D01*
X134729988Y-117275180D01*
X134730131Y-117275387D01*
X134728771Y-117276325D01*
X134727356Y-117277658D01*
X134725205Y-117278786D01*
X134725197Y-117278791D01*
X134719899Y-117281572D01*
X134715419Y-117285540D01*
X134715413Y-117285545D01*
X134605235Y-117383155D01*
X134605231Y-117383158D01*
X134600748Y-117387131D01*
X134597346Y-117392058D01*
X134597342Y-117392064D01*
X134513722Y-117513208D01*
X134513718Y-117513215D01*
X134510321Y-117518137D01*
X134508202Y-117523724D01*
X134508198Y-117523732D01*
X134460000Y-117650823D01*
X134453874Y-117666977D01*
X134453152Y-117672914D01*
X134453151Y-117672923D01*
X134435492Y-117818359D01*
X134434686Y-117825000D01*
X134435408Y-117830946D01*
X134453151Y-117977076D01*
X134453152Y-117977083D01*
X134453874Y-117983023D01*
X134455996Y-117988620D01*
X134455997Y-117988621D01*
X134508198Y-118126267D01*
X134508200Y-118126272D01*
X134510321Y-118131863D01*
X134513720Y-118136787D01*
X134513722Y-118136791D01*
X134597342Y-118257935D01*
X134600748Y-118262869D01*
X134719899Y-118368428D01*
X134725203Y-118371212D01*
X134725205Y-118371213D01*
X134727356Y-118372342D01*
X134728771Y-118373674D01*
X134730131Y-118374613D01*
X134729988Y-118374819D01*
X134766068Y-118408785D01*
X134780345Y-118460000D01*
X134766068Y-118511215D01*
X134729988Y-118545180D01*
X134730131Y-118545387D01*
X134728771Y-118546325D01*
X134727356Y-118547658D01*
X134725205Y-118548786D01*
X134725197Y-118548791D01*
X134719899Y-118551572D01*
X134715419Y-118555540D01*
X134715413Y-118555545D01*
X134605235Y-118653155D01*
X134605231Y-118653158D01*
X134600748Y-118657131D01*
X134597346Y-118662058D01*
X134597342Y-118662064D01*
X134513722Y-118783208D01*
X134513718Y-118783215D01*
X134510321Y-118788137D01*
X134508202Y-118793724D01*
X134508198Y-118793732D01*
X134460000Y-118920823D01*
X134453874Y-118936977D01*
X134453152Y-118942914D01*
X134453151Y-118942923D01*
X134435492Y-119088359D01*
X134434686Y-119095000D01*
X134435408Y-119100946D01*
X134453151Y-119247076D01*
X134453152Y-119247083D01*
X134453874Y-119253023D01*
X134455996Y-119258620D01*
X134455997Y-119258621D01*
X134508198Y-119396267D01*
X134508200Y-119396272D01*
X134510321Y-119401863D01*
X134513720Y-119406787D01*
X134513722Y-119406791D01*
X134597342Y-119527935D01*
X134600748Y-119532869D01*
X134719899Y-119638428D01*
X134725203Y-119641212D01*
X134725205Y-119641213D01*
X134727356Y-119642342D01*
X134728771Y-119643674D01*
X134730131Y-119644613D01*
X134729988Y-119644819D01*
X134766068Y-119678785D01*
X134780345Y-119730000D01*
X134766068Y-119781215D01*
X134729988Y-119815180D01*
X134730131Y-119815387D01*
X134728771Y-119816325D01*
X134727356Y-119817658D01*
X134725205Y-119818786D01*
X134725197Y-119818791D01*
X134719899Y-119821572D01*
X134715419Y-119825540D01*
X134715413Y-119825545D01*
X134605235Y-119923155D01*
X134605231Y-119923158D01*
X134600748Y-119927131D01*
X134597346Y-119932058D01*
X134597342Y-119932064D01*
X134513722Y-120053208D01*
X134513718Y-120053215D01*
X134510321Y-120058137D01*
X134508202Y-120063724D01*
X134508198Y-120063732D01*
X134460000Y-120190823D01*
X134453874Y-120206977D01*
X134453152Y-120212914D01*
X134453151Y-120212923D01*
X134435492Y-120358359D01*
X134434686Y-120365000D01*
X134435408Y-120370946D01*
X134453151Y-120517076D01*
X134453152Y-120517083D01*
X134453874Y-120523023D01*
X134455996Y-120528620D01*
X134455997Y-120528621D01*
X134508198Y-120666267D01*
X134508200Y-120666272D01*
X134510321Y-120671863D01*
X134513720Y-120676787D01*
X134513722Y-120676791D01*
X134597342Y-120797935D01*
X134600748Y-120802869D01*
X134719899Y-120908428D01*
X134725203Y-120911212D01*
X134725205Y-120911213D01*
X134727356Y-120912342D01*
X134728771Y-120913674D01*
X134730131Y-120914613D01*
X134729988Y-120914819D01*
X134766068Y-120948785D01*
X134780345Y-121000000D01*
X134766068Y-121051215D01*
X134729988Y-121085180D01*
X134730131Y-121085387D01*
X134728771Y-121086325D01*
X134727356Y-121087658D01*
X134725205Y-121088786D01*
X134725197Y-121088791D01*
X134719899Y-121091572D01*
X134715419Y-121095540D01*
X134715413Y-121095545D01*
X134605235Y-121193155D01*
X134605231Y-121193158D01*
X134600748Y-121197131D01*
X134597346Y-121202058D01*
X134597342Y-121202064D01*
X134513722Y-121323208D01*
X134513718Y-121323215D01*
X134510321Y-121328137D01*
X134508202Y-121333724D01*
X134508198Y-121333732D01*
X134460000Y-121460823D01*
X134453874Y-121476977D01*
X134453152Y-121482914D01*
X134453151Y-121482923D01*
X134435492Y-121628359D01*
X134434686Y-121635000D01*
X134435408Y-121640946D01*
X134453151Y-121787076D01*
X134453152Y-121787083D01*
X134453874Y-121793023D01*
X134455996Y-121798620D01*
X134455997Y-121798621D01*
X134508198Y-121936267D01*
X134508200Y-121936272D01*
X134510321Y-121941863D01*
X134513720Y-121946787D01*
X134513722Y-121946791D01*
X134597342Y-122067935D01*
X134600748Y-122072869D01*
X134719899Y-122178428D01*
X134725203Y-122181212D01*
X134725205Y-122181213D01*
X134727356Y-122182342D01*
X134728771Y-122183674D01*
X134730131Y-122184613D01*
X134729988Y-122184819D01*
X134766068Y-122218785D01*
X134780345Y-122270000D01*
X134766068Y-122321215D01*
X134729988Y-122355180D01*
X134730131Y-122355387D01*
X134728771Y-122356325D01*
X134727356Y-122357658D01*
X134725205Y-122358786D01*
X134725197Y-122358791D01*
X134719899Y-122361572D01*
X134715419Y-122365540D01*
X134715413Y-122365545D01*
X134605235Y-122463155D01*
X134605231Y-122463158D01*
X134600748Y-122467131D01*
X134597346Y-122472058D01*
X134597342Y-122472064D01*
X134513722Y-122593208D01*
X134513718Y-122593215D01*
X134510321Y-122598137D01*
X134508202Y-122603724D01*
X134508198Y-122603732D01*
X134460000Y-122730823D01*
X134453874Y-122746977D01*
X134453152Y-122752914D01*
X134453151Y-122752923D01*
X134435492Y-122898359D01*
X134434686Y-122905000D01*
X134435408Y-122910946D01*
X134453151Y-123057076D01*
X134453152Y-123057083D01*
X134453874Y-123063023D01*
X134455996Y-123068620D01*
X134455997Y-123068621D01*
X134508198Y-123206267D01*
X134508200Y-123206272D01*
X134510321Y-123211863D01*
X134513720Y-123216787D01*
X134513722Y-123216791D01*
X134597342Y-123337935D01*
X134600748Y-123342869D01*
X134719899Y-123448428D01*
X134725203Y-123451212D01*
X134725205Y-123451213D01*
X134727356Y-123452342D01*
X134728771Y-123453674D01*
X134730131Y-123454613D01*
X134729988Y-123454819D01*
X134766068Y-123488785D01*
X134780345Y-123540000D01*
X134766068Y-123591215D01*
X134729988Y-123625180D01*
X134730131Y-123625387D01*
X134728771Y-123626325D01*
X134727356Y-123627658D01*
X134725205Y-123628786D01*
X134725197Y-123628791D01*
X134719899Y-123631572D01*
X134715419Y-123635540D01*
X134715413Y-123635545D01*
X134605235Y-123733155D01*
X134605231Y-123733158D01*
X134600748Y-123737131D01*
X134597346Y-123742058D01*
X134597342Y-123742064D01*
X134513722Y-123863208D01*
X134513718Y-123863215D01*
X134510321Y-123868137D01*
X134508202Y-123873724D01*
X134508198Y-123873732D01*
X134460000Y-124000823D01*
X134453874Y-124016977D01*
X134453152Y-124022914D01*
X134453151Y-124022923D01*
X134435492Y-124168359D01*
X134434686Y-124175000D01*
X134435408Y-124180946D01*
X134453151Y-124327076D01*
X134453152Y-124327083D01*
X134453874Y-124333023D01*
X134455996Y-124338620D01*
X134455997Y-124338621D01*
X134508198Y-124476267D01*
X134508200Y-124476272D01*
X134510321Y-124481863D01*
X134513720Y-124486787D01*
X134513722Y-124486791D01*
X134597342Y-124607935D01*
X134600748Y-124612869D01*
X134719899Y-124718428D01*
X134727349Y-124722338D01*
X134728763Y-124723668D01*
X134730131Y-124724613D01*
X134729987Y-124724821D01*
X134766063Y-124758775D01*
X134780345Y-124809989D01*
X134766074Y-124861205D01*
X134729989Y-124895181D01*
X134730131Y-124895387D01*
X134728784Y-124896316D01*
X134727365Y-124897653D01*
X134725205Y-124898786D01*
X134725197Y-124898791D01*
X134719899Y-124901572D01*
X134715419Y-124905540D01*
X134715413Y-124905545D01*
X134605235Y-125003155D01*
X134605231Y-125003158D01*
X134600748Y-125007131D01*
X134597346Y-125012058D01*
X134597342Y-125012064D01*
X134513722Y-125133208D01*
X134513718Y-125133215D01*
X134510321Y-125138137D01*
X134508202Y-125143724D01*
X134508198Y-125143732D01*
X134460000Y-125270823D01*
X134453874Y-125286977D01*
X134453152Y-125292914D01*
X134453151Y-125292923D01*
X134435492Y-125438359D01*
X134434686Y-125445000D01*
X134435408Y-125450946D01*
X134453151Y-125597076D01*
X134453152Y-125597083D01*
X134453874Y-125603023D01*
X134455996Y-125608620D01*
X134455997Y-125608621D01*
X134508198Y-125746267D01*
X134508200Y-125746272D01*
X134510321Y-125751863D01*
X134513720Y-125756787D01*
X134513722Y-125756791D01*
X134597342Y-125877935D01*
X134600748Y-125882869D01*
X134719899Y-125988428D01*
X134725203Y-125991212D01*
X134725205Y-125991213D01*
X134727356Y-125992342D01*
X134728771Y-125993674D01*
X134730131Y-125994613D01*
X134729988Y-125994819D01*
X134766068Y-126028785D01*
X134780345Y-126080000D01*
X134766068Y-126131215D01*
X134729988Y-126165180D01*
X134730131Y-126165387D01*
X134728771Y-126166325D01*
X134727356Y-126167658D01*
X134725205Y-126168786D01*
X134725197Y-126168791D01*
X134719899Y-126171572D01*
X134715419Y-126175540D01*
X134715413Y-126175545D01*
X134605235Y-126273155D01*
X134605231Y-126273158D01*
X134600748Y-126277131D01*
X134597346Y-126282058D01*
X134597342Y-126282064D01*
X134513722Y-126403208D01*
X134513718Y-126403215D01*
X134510321Y-126408137D01*
X134508202Y-126413724D01*
X134508198Y-126413732D01*
X134460000Y-126540823D01*
X134453874Y-126556977D01*
X134453152Y-126562914D01*
X134453151Y-126562923D01*
X134435492Y-126708359D01*
X134434686Y-126715000D01*
X130998550Y-126715000D01*
X122229496Y-117945947D01*
X122208036Y-117913829D01*
X122200500Y-117875943D01*
X122200500Y-104800000D01*
X127234397Y-104800000D01*
X127236299Y-104809562D01*
X127239500Y-104825654D01*
X127252712Y-104892079D01*
X127252713Y-104892082D01*
X127254615Y-104901642D01*
X127260030Y-104909747D01*
X127260031Y-104909748D01*
X127283074Y-104944235D01*
X127312190Y-104987810D01*
X127320299Y-104993228D01*
X127320301Y-104993230D01*
X127325831Y-104996925D01*
X127340835Y-105009237D01*
X132815285Y-110483688D01*
X132827595Y-110498689D01*
X132831290Y-110504219D01*
X132831292Y-110504221D01*
X132836711Y-110512331D01*
X132922879Y-110569906D01*
X132938611Y-110573035D01*
X133024521Y-110590125D01*
X133040617Y-110586923D01*
X133059933Y-110585021D01*
X135720073Y-110585021D01*
X135739385Y-110586922D01*
X135755479Y-110590124D01*
X135857121Y-110569906D01*
X135857120Y-110569906D01*
X135943289Y-110512331D01*
X135952404Y-110498687D01*
X135964713Y-110483688D01*
X136079453Y-110368947D01*
X136122871Y-110343589D01*
X136173148Y-110342830D01*
X136181597Y-110344912D01*
X136285408Y-110370500D01*
X136438604Y-110370500D01*
X136444592Y-110370500D01*
X136599151Y-110332404D01*
X136740101Y-110258428D01*
X136859252Y-110152869D01*
X136918525Y-110066996D01*
X136953992Y-110035575D01*
X137000000Y-110024235D01*
X137046008Y-110035575D01*
X137081474Y-110066996D01*
X137140748Y-110152869D01*
X137259899Y-110258428D01*
X137400849Y-110332404D01*
X137555408Y-110370500D01*
X137708604Y-110370500D01*
X137714592Y-110370500D01*
X137826851Y-110342830D01*
X137877126Y-110343589D01*
X137920546Y-110368949D01*
X138035285Y-110483688D01*
X138047595Y-110498689D01*
X138051290Y-110504219D01*
X138051292Y-110504221D01*
X138056711Y-110512331D01*
X138078460Y-110526863D01*
X138142879Y-110569906D01*
X138244521Y-110590125D01*
X138254082Y-110588223D01*
X138254083Y-110588223D01*
X138260618Y-110586923D01*
X138279933Y-110585021D01*
X140840073Y-110585021D01*
X140859385Y-110586922D01*
X140875479Y-110590124D01*
X140977121Y-110569906D01*
X140977120Y-110569906D01*
X141063289Y-110512331D01*
X141072404Y-110498687D01*
X141084713Y-110483688D01*
X145359168Y-106209232D01*
X145374166Y-106196925D01*
X145387810Y-106187810D01*
X145445385Y-106101642D01*
X145460500Y-106025654D01*
X145465603Y-106000000D01*
X145462401Y-105983906D01*
X145460500Y-105964594D01*
X145460500Y-85535406D01*
X145462402Y-85516091D01*
X145463701Y-85509561D01*
X145465603Y-85500000D01*
X145445385Y-85398358D01*
X145423805Y-85366061D01*
X145387810Y-85312190D01*
X145379700Y-85306771D01*
X145379698Y-85306769D01*
X145374165Y-85303072D01*
X145359164Y-85290762D01*
X143689496Y-83621094D01*
X143668036Y-83588976D01*
X143660500Y-83551090D01*
X143660500Y-83189500D01*
X143673763Y-83140000D01*
X143710000Y-83103764D01*
X143759499Y-83090500D01*
X143896395Y-83090499D01*
X143910732Y-83090499D01*
X143972133Y-83078287D01*
X144041762Y-83031762D01*
X144088287Y-82962133D01*
X144100500Y-82900733D01*
X144100499Y-82179268D01*
X144088287Y-82117867D01*
X144041762Y-82048238D01*
X143972133Y-82001713D01*
X143962570Y-81999810D01*
X143962568Y-81999810D01*
X143915496Y-81990447D01*
X143915491Y-81990446D01*
X143910733Y-81989500D01*
X143905874Y-81989500D01*
X143694127Y-81989500D01*
X143694117Y-81989500D01*
X143689268Y-81989501D01*
X143684503Y-81990448D01*
X143684500Y-81990449D01*
X143627867Y-82001713D01*
X143627848Y-82001619D01*
X143599996Y-82007158D01*
X143572151Y-82001618D01*
X143572133Y-82001713D01*
X143515496Y-81990447D01*
X143515491Y-81990446D01*
X143510733Y-81989500D01*
X143505874Y-81989500D01*
X143294127Y-81989500D01*
X143294117Y-81989500D01*
X143289268Y-81989501D01*
X143284503Y-81990448D01*
X143284500Y-81990449D01*
X143227867Y-82001713D01*
X143227848Y-82001619D01*
X143199996Y-82007158D01*
X143172151Y-82001618D01*
X143172133Y-82001713D01*
X143115496Y-81990447D01*
X143115491Y-81990446D01*
X143110733Y-81989500D01*
X143105874Y-81989500D01*
X142894127Y-81989500D01*
X142894117Y-81989500D01*
X142889268Y-81989501D01*
X142884503Y-81990448D01*
X142884500Y-81990449D01*
X142827867Y-82001713D01*
X142827848Y-82001619D01*
X142799996Y-82007158D01*
X142772151Y-82001618D01*
X142772133Y-82001713D01*
X142715496Y-81990447D01*
X142715491Y-81990446D01*
X142710733Y-81989500D01*
X142705874Y-81989500D01*
X142494127Y-81989500D01*
X142494117Y-81989500D01*
X142489268Y-81989501D01*
X142484503Y-81990448D01*
X142484500Y-81990449D01*
X142427867Y-82001713D01*
X142427848Y-82001619D01*
X142399996Y-82007158D01*
X142372151Y-82001618D01*
X142372133Y-82001713D01*
X142315496Y-81990447D01*
X142315491Y-81990446D01*
X142310733Y-81989500D01*
X142305874Y-81989500D01*
X142094127Y-81989500D01*
X142094117Y-81989500D01*
X142089268Y-81989501D01*
X142084503Y-81990448D01*
X142084500Y-81990449D01*
X142027867Y-82001713D01*
X142027848Y-82001619D01*
X141999996Y-82007158D01*
X141972151Y-82001618D01*
X141972133Y-82001713D01*
X141915496Y-81990447D01*
X141915491Y-81990446D01*
X141910733Y-81989500D01*
X141905874Y-81989500D01*
X141694127Y-81989500D01*
X141694117Y-81989500D01*
X141689268Y-81989501D01*
X141684503Y-81990448D01*
X141684500Y-81990449D01*
X141627867Y-82001713D01*
X141627848Y-82001619D01*
X141599996Y-82007158D01*
X141572151Y-82001618D01*
X141572133Y-82001713D01*
X141515496Y-81990447D01*
X141515491Y-81990446D01*
X141510733Y-81989500D01*
X141505874Y-81989500D01*
X141294127Y-81989500D01*
X141294117Y-81989500D01*
X141289268Y-81989501D01*
X141284503Y-81990448D01*
X141284500Y-81990449D01*
X141227867Y-82001713D01*
X141227848Y-82001619D01*
X141199996Y-82007158D01*
X141172151Y-82001618D01*
X141172133Y-82001713D01*
X141115496Y-81990447D01*
X141115491Y-81990446D01*
X141110733Y-81989500D01*
X141105874Y-81989500D01*
X140894127Y-81989500D01*
X140894117Y-81989500D01*
X140889268Y-81989501D01*
X140884503Y-81990448D01*
X140884500Y-81990449D01*
X140827867Y-82001713D01*
X140827848Y-82001619D01*
X140799996Y-82007158D01*
X140772151Y-82001618D01*
X140772133Y-82001713D01*
X140715496Y-81990447D01*
X140715491Y-81990446D01*
X140710733Y-81989500D01*
X140705874Y-81989500D01*
X140494127Y-81989500D01*
X140494117Y-81989500D01*
X140489268Y-81989501D01*
X140484503Y-81990448D01*
X140484500Y-81990449D01*
X140427867Y-82001713D01*
X140427848Y-82001619D01*
X140399996Y-82007158D01*
X140372151Y-82001618D01*
X140372133Y-82001713D01*
X140315496Y-81990447D01*
X140315491Y-81990446D01*
X140310733Y-81989500D01*
X140305874Y-81989500D01*
X140094127Y-81989500D01*
X140094117Y-81989500D01*
X140089268Y-81989501D01*
X140084503Y-81990448D01*
X140084500Y-81990449D01*
X140027867Y-82001713D01*
X140027848Y-82001619D01*
X139999996Y-82007158D01*
X139972151Y-82001618D01*
X139972133Y-82001713D01*
X139915496Y-81990447D01*
X139915491Y-81990446D01*
X139910733Y-81989500D01*
X139905874Y-81989500D01*
X139694127Y-81989500D01*
X139694117Y-81989500D01*
X139689268Y-81989501D01*
X139684503Y-81990448D01*
X139684500Y-81990449D01*
X139627867Y-82001713D01*
X139627848Y-82001619D01*
X139599996Y-82007158D01*
X139572151Y-82001618D01*
X139572133Y-82001713D01*
X139515496Y-81990447D01*
X139515491Y-81990446D01*
X139510733Y-81989500D01*
X139505874Y-81989500D01*
X139294127Y-81989500D01*
X139294117Y-81989500D01*
X139289268Y-81989501D01*
X139284503Y-81990448D01*
X139284500Y-81990449D01*
X139227867Y-82001713D01*
X139227848Y-82001619D01*
X139199996Y-82007158D01*
X139172151Y-82001618D01*
X139172133Y-82001713D01*
X139115496Y-81990447D01*
X139115491Y-81990446D01*
X139110733Y-81989500D01*
X139105874Y-81989500D01*
X138894127Y-81989500D01*
X138894117Y-81989500D01*
X138889268Y-81989501D01*
X138884503Y-81990448D01*
X138884500Y-81990449D01*
X138827867Y-82001713D01*
X138827848Y-82001619D01*
X138799996Y-82007158D01*
X138772151Y-82001618D01*
X138772133Y-82001713D01*
X138715496Y-81990447D01*
X138715491Y-81990446D01*
X138710733Y-81989500D01*
X138705874Y-81989500D01*
X138494127Y-81989500D01*
X138494117Y-81989500D01*
X138489268Y-81989501D01*
X138484503Y-81990448D01*
X138484500Y-81990449D01*
X138427867Y-82001713D01*
X138427848Y-82001619D01*
X138399996Y-82007158D01*
X138372151Y-82001618D01*
X138372133Y-82001713D01*
X138315496Y-81990447D01*
X138315491Y-81990446D01*
X138310733Y-81989500D01*
X138305874Y-81989500D01*
X138094127Y-81989500D01*
X138094117Y-81989500D01*
X138089268Y-81989501D01*
X138084503Y-81990448D01*
X138084500Y-81990449D01*
X138027867Y-82001713D01*
X138027848Y-82001619D01*
X137999996Y-82007158D01*
X137972151Y-82001618D01*
X137972133Y-82001713D01*
X137915496Y-81990447D01*
X137915491Y-81990446D01*
X137910733Y-81989500D01*
X137905874Y-81989500D01*
X137694127Y-81989500D01*
X137694117Y-81989500D01*
X137689268Y-81989501D01*
X137684503Y-81990448D01*
X137684500Y-81990449D01*
X137627867Y-82001713D01*
X137627848Y-82001619D01*
X137599996Y-82007158D01*
X137572151Y-82001618D01*
X137572133Y-82001713D01*
X137515496Y-81990447D01*
X137515491Y-81990446D01*
X137510733Y-81989500D01*
X137505874Y-81989500D01*
X137294127Y-81989500D01*
X137294117Y-81989500D01*
X137289268Y-81989501D01*
X137284503Y-81990448D01*
X137284500Y-81990449D01*
X137227867Y-82001713D01*
X137227848Y-82001619D01*
X137199996Y-82007158D01*
X137172151Y-82001618D01*
X137172133Y-82001713D01*
X137115496Y-81990447D01*
X137115491Y-81990446D01*
X137110733Y-81989500D01*
X137105874Y-81989500D01*
X136894127Y-81989500D01*
X136894117Y-81989500D01*
X136889268Y-81989501D01*
X136884503Y-81990448D01*
X136884500Y-81990449D01*
X136827867Y-82001713D01*
X136827848Y-82001619D01*
X136799996Y-82007158D01*
X136772151Y-82001618D01*
X136772133Y-82001713D01*
X136715496Y-81990447D01*
X136715491Y-81990446D01*
X136710733Y-81989500D01*
X136705874Y-81989500D01*
X136494127Y-81989500D01*
X136494117Y-81989500D01*
X136489268Y-81989501D01*
X136484503Y-81990448D01*
X136484500Y-81990449D01*
X136427867Y-82001713D01*
X136427848Y-82001619D01*
X136399996Y-82007158D01*
X136372151Y-82001618D01*
X136372133Y-82001713D01*
X136315496Y-81990447D01*
X136315491Y-81990446D01*
X136310733Y-81989500D01*
X136305874Y-81989500D01*
X136094127Y-81989500D01*
X136094117Y-81989500D01*
X136089268Y-81989501D01*
X136084503Y-81990448D01*
X136084500Y-81990449D01*
X136027867Y-82001713D01*
X136027848Y-82001619D01*
X135999996Y-82007158D01*
X135972151Y-82001618D01*
X135972133Y-82001713D01*
X135915496Y-81990447D01*
X135915491Y-81990446D01*
X135910733Y-81989500D01*
X135905874Y-81989500D01*
X135694127Y-81989500D01*
X135694117Y-81989500D01*
X135689268Y-81989501D01*
X135684503Y-81990448D01*
X135684500Y-81990449D01*
X135627867Y-82001713D01*
X135627848Y-82001619D01*
X135599996Y-82007158D01*
X135572151Y-82001618D01*
X135572133Y-82001713D01*
X135515496Y-81990447D01*
X135515491Y-81990446D01*
X135510733Y-81989500D01*
X135505874Y-81989500D01*
X135294127Y-81989500D01*
X135294117Y-81989500D01*
X135289268Y-81989501D01*
X135284503Y-81990448D01*
X135284500Y-81990449D01*
X135227867Y-82001713D01*
X135227848Y-82001619D01*
X135199996Y-82007158D01*
X135172151Y-82001618D01*
X135172133Y-82001713D01*
X135115496Y-81990447D01*
X135115491Y-81990446D01*
X135110733Y-81989500D01*
X135105874Y-81989500D01*
X134894127Y-81989500D01*
X134894117Y-81989500D01*
X134889268Y-81989501D01*
X134884503Y-81990448D01*
X134884500Y-81990449D01*
X134827867Y-82001713D01*
X134827848Y-82001619D01*
X134799996Y-82007158D01*
X134772151Y-82001618D01*
X134772133Y-82001713D01*
X134715496Y-81990447D01*
X134715491Y-81990446D01*
X134710733Y-81989500D01*
X134705874Y-81989500D01*
X134494127Y-81989500D01*
X134494117Y-81989500D01*
X134489268Y-81989501D01*
X134484503Y-81990448D01*
X134484500Y-81990449D01*
X134427867Y-82001713D01*
X134427848Y-82001619D01*
X134399996Y-82007158D01*
X134372151Y-82001618D01*
X134372133Y-82001713D01*
X134315496Y-81990447D01*
X134315491Y-81990446D01*
X134310733Y-81989500D01*
X134305874Y-81989500D01*
X134094127Y-81989500D01*
X134094117Y-81989500D01*
X134089268Y-81989501D01*
X134084503Y-81990448D01*
X134084500Y-81990449D01*
X134027867Y-82001713D01*
X134027848Y-82001619D01*
X133999996Y-82007158D01*
X133972151Y-82001618D01*
X133972133Y-82001713D01*
X133915496Y-81990447D01*
X133915491Y-81990446D01*
X133910733Y-81989500D01*
X133905874Y-81989500D01*
X133694127Y-81989500D01*
X133694117Y-81989500D01*
X133689268Y-81989501D01*
X133684503Y-81990448D01*
X133684500Y-81990449D01*
X133627867Y-82001713D01*
X133627848Y-82001619D01*
X133599996Y-82007158D01*
X133572151Y-82001618D01*
X133572133Y-82001713D01*
X133515496Y-81990447D01*
X133515491Y-81990446D01*
X133510733Y-81989500D01*
X133505874Y-81989500D01*
X133294127Y-81989500D01*
X133294117Y-81989500D01*
X133289268Y-81989501D01*
X133284503Y-81990448D01*
X133284500Y-81990449D01*
X133227867Y-82001713D01*
X133227848Y-82001619D01*
X133199996Y-82007158D01*
X133172151Y-82001618D01*
X133172133Y-82001713D01*
X133115496Y-81990447D01*
X133115491Y-81990446D01*
X133110733Y-81989500D01*
X133105874Y-81989500D01*
X132894127Y-81989500D01*
X132894117Y-81989500D01*
X132889268Y-81989501D01*
X132884503Y-81990448D01*
X132884500Y-81990449D01*
X132827867Y-82001713D01*
X132827848Y-82001619D01*
X132799996Y-82007158D01*
X132772151Y-82001618D01*
X132772133Y-82001713D01*
X132715496Y-81990447D01*
X132715491Y-81990446D01*
X132710733Y-81989500D01*
X132705874Y-81989500D01*
X132494127Y-81989500D01*
X132494117Y-81989500D01*
X132489268Y-81989501D01*
X132484503Y-81990448D01*
X132484500Y-81990449D01*
X132427867Y-82001713D01*
X132427848Y-82001619D01*
X132399996Y-82007158D01*
X132372151Y-82001618D01*
X132372133Y-82001713D01*
X132315496Y-81990447D01*
X132315491Y-81990446D01*
X132310733Y-81989500D01*
X132305874Y-81989500D01*
X132094127Y-81989500D01*
X132094117Y-81989500D01*
X132089268Y-81989501D01*
X132084503Y-81990448D01*
X132084500Y-81990449D01*
X132027867Y-82001713D01*
X132027848Y-82001619D01*
X131999996Y-82007158D01*
X131972151Y-82001618D01*
X131972133Y-82001713D01*
X131915496Y-81990447D01*
X131915491Y-81990446D01*
X131910733Y-81989500D01*
X131905874Y-81989500D01*
X131694127Y-81989500D01*
X131694117Y-81989500D01*
X131689268Y-81989501D01*
X131684503Y-81990448D01*
X131684500Y-81990449D01*
X131627867Y-82001713D01*
X131627848Y-82001619D01*
X131599996Y-82007158D01*
X131572151Y-82001618D01*
X131572133Y-82001713D01*
X131515496Y-81990447D01*
X131515491Y-81990446D01*
X131510733Y-81989500D01*
X131505874Y-81989500D01*
X131294127Y-81989500D01*
X131294117Y-81989500D01*
X131289268Y-81989501D01*
X131284503Y-81990448D01*
X131284500Y-81990449D01*
X131227867Y-82001713D01*
X131227848Y-82001619D01*
X131199996Y-82007158D01*
X131172151Y-82001618D01*
X131172133Y-82001713D01*
X131115496Y-81990447D01*
X131115491Y-81990446D01*
X131110733Y-81989500D01*
X131105874Y-81989500D01*
X130894127Y-81989500D01*
X130894117Y-81989500D01*
X130889268Y-81989501D01*
X130884503Y-81990448D01*
X130884500Y-81990449D01*
X130827867Y-82001713D01*
X130827848Y-82001619D01*
X130799996Y-82007158D01*
X130772151Y-82001618D01*
X130772133Y-82001713D01*
X130715496Y-81990447D01*
X130715491Y-81990446D01*
X130710733Y-81989500D01*
X130705874Y-81989500D01*
X130494127Y-81989500D01*
X130494117Y-81989500D01*
X130489268Y-81989501D01*
X130484503Y-81990448D01*
X130484500Y-81990449D01*
X130427867Y-82001713D01*
X130427848Y-82001619D01*
X130399996Y-82007158D01*
X130372151Y-82001618D01*
X130372133Y-82001713D01*
X130315496Y-81990447D01*
X130315491Y-81990446D01*
X130310733Y-81989500D01*
X130305874Y-81989500D01*
X130094127Y-81989500D01*
X130094117Y-81989500D01*
X130089268Y-81989501D01*
X130084503Y-81990448D01*
X130084500Y-81990449D01*
X130037429Y-81999811D01*
X130037427Y-81999811D01*
X130027867Y-82001713D01*
X130019761Y-82007128D01*
X130019759Y-82007130D01*
X129966347Y-82042819D01*
X129966344Y-82042821D01*
X129958238Y-82048238D01*
X129952821Y-82056344D01*
X129952819Y-82056347D01*
X129917131Y-82109757D01*
X129917129Y-82109760D01*
X129911713Y-82117867D01*
X129909811Y-82127428D01*
X129909810Y-82127431D01*
X129900447Y-82174503D01*
X129900446Y-82174508D01*
X129899500Y-82179267D01*
X129899500Y-82184124D01*
X129899500Y-82184125D01*
X129899500Y-82895872D01*
X129899500Y-82895882D01*
X129899501Y-82900732D01*
X129911713Y-82962133D01*
X129958238Y-83031762D01*
X130027867Y-83078287D01*
X130089267Y-83090500D01*
X130310732Y-83090499D01*
X130372133Y-83078287D01*
X130372151Y-83078381D01*
X130399999Y-83072841D01*
X130427848Y-83078381D01*
X130427867Y-83078287D01*
X130489267Y-83090500D01*
X130640500Y-83090499D01*
X130690000Y-83103762D01*
X130726236Y-83139999D01*
X130739500Y-83189499D01*
X130739500Y-84151089D01*
X130731964Y-84188975D01*
X130710504Y-84221093D01*
X127340832Y-87590764D01*
X127325835Y-87603072D01*
X127320300Y-87606770D01*
X127320297Y-87606772D01*
X127312190Y-87612190D01*
X127306773Y-87620296D01*
X127306771Y-87620299D01*
X127269983Y-87675357D01*
X127269984Y-87675357D01*
X127254615Y-87698358D01*
X127252713Y-87707919D01*
X127252712Y-87707922D01*
X127236299Y-87790438D01*
X127234397Y-87800000D01*
X127236299Y-87809561D01*
X127237598Y-87816091D01*
X127239500Y-87835406D01*
X127239500Y-104764594D01*
X127237598Y-104783906D01*
X127234397Y-104800000D01*
X122200500Y-104800000D01*
X122200500Y-98869881D01*
X122200500Y-98866894D01*
X122168412Y-98602624D01*
X122104703Y-98344148D01*
X122010303Y-98095236D01*
X121886589Y-97859517D01*
X121881442Y-97852061D01*
X121802626Y-97737877D01*
X121735363Y-97640430D01*
X121558832Y-97441168D01*
X121441791Y-97337479D01*
X121361805Y-97266617D01*
X121361804Y-97266616D01*
X121359570Y-97264637D01*
X121266652Y-97200500D01*
X121142948Y-97115112D01*
X121142942Y-97115108D01*
X121140483Y-97113411D01*
X120904764Y-96989697D01*
X120655852Y-96895297D01*
X120652951Y-96894582D01*
X120652948Y-96894581D01*
X120526613Y-96863442D01*
X120397376Y-96831588D01*
X120394412Y-96831228D01*
X120394406Y-96831227D01*
X120136073Y-96799860D01*
X120136068Y-96799859D01*
X120133106Y-96799500D01*
X120130119Y-96799500D01*
X104779000Y-96799500D01*
X104729500Y-96786237D01*
X104693263Y-96750000D01*
X104680000Y-96700500D01*
X104680000Y-84299500D01*
X104693263Y-84250000D01*
X104729500Y-84213763D01*
X104779000Y-84200500D01*
X120130119Y-84200500D01*
X120133106Y-84200500D01*
X120397376Y-84168412D01*
X120655852Y-84104703D01*
X120904764Y-84010303D01*
X121140483Y-83886589D01*
X121359570Y-83735363D01*
X121558832Y-83558832D01*
X121735363Y-83359570D01*
X121886589Y-83140483D01*
X122010303Y-82904764D01*
X122104703Y-82655852D01*
X122168412Y-82397376D01*
X122200500Y-82133106D01*
X122200500Y-82000000D01*
X124794357Y-82000000D01*
X124794779Y-82004554D01*
X124811418Y-82184127D01*
X124814885Y-82221536D01*
X124816134Y-82225926D01*
X124816135Y-82225931D01*
X124874517Y-82431123D01*
X124874519Y-82431129D01*
X124875771Y-82435528D01*
X124974942Y-82634689D01*
X124977694Y-82638333D01*
X124977697Y-82638338D01*
X124993030Y-82658642D01*
X125109019Y-82812236D01*
X125273438Y-82962124D01*
X125462599Y-83079247D01*
X125466866Y-83080900D01*
X125665790Y-83157964D01*
X125665792Y-83157964D01*
X125670060Y-83159618D01*
X125888757Y-83200500D01*
X126106660Y-83200500D01*
X126111243Y-83200500D01*
X126329940Y-83159618D01*
X126537401Y-83079247D01*
X126726562Y-82962124D01*
X126890981Y-82812236D01*
X127025058Y-82634689D01*
X127124229Y-82435528D01*
X127185115Y-82221536D01*
X127205643Y-82000000D01*
X127185115Y-81778464D01*
X127124229Y-81564472D01*
X127025058Y-81365311D01*
X126890981Y-81187764D01*
X126726562Y-81037876D01*
X126537401Y-80920753D01*
X126533138Y-80919101D01*
X126533133Y-80919099D01*
X126334209Y-80842035D01*
X126334201Y-80842032D01*
X126329940Y-80840382D01*
X126325436Y-80839540D01*
X126115749Y-80800342D01*
X126115745Y-80800341D01*
X126111243Y-80799500D01*
X125888757Y-80799500D01*
X125884255Y-80800341D01*
X125884250Y-80800342D01*
X125674563Y-80839540D01*
X125674560Y-80839540D01*
X125670060Y-80840382D01*
X125665801Y-80842031D01*
X125665790Y-80842035D01*
X125466866Y-80919099D01*
X125466857Y-80919103D01*
X125462599Y-80920753D01*
X125458713Y-80923158D01*
X125458709Y-80923161D01*
X125277326Y-81035468D01*
X125277321Y-81035471D01*
X125273438Y-81037876D01*
X125270063Y-81040952D01*
X125270056Y-81040958D01*
X125112395Y-81184686D01*
X125109019Y-81187764D01*
X125106268Y-81191406D01*
X125106266Y-81191409D01*
X124977697Y-81361661D01*
X124977690Y-81361670D01*
X124974942Y-81365311D01*
X124972904Y-81369403D01*
X124972902Y-81369407D01*
X124877813Y-81560370D01*
X124877811Y-81560375D01*
X124875771Y-81564472D01*
X124874520Y-81568866D01*
X124874517Y-81568876D01*
X124816135Y-81774068D01*
X124816133Y-81774075D01*
X124814885Y-81778464D01*
X124794357Y-82000000D01*
X122200500Y-82000000D01*
X122200500Y-81960118D01*
X122200500Y-77250000D01*
X129644508Y-77250000D01*
X129645727Y-77257697D01*
X129654738Y-77314594D01*
X129664354Y-77375304D01*
X129667889Y-77382243D01*
X129667890Y-77382244D01*
X129680463Y-77406920D01*
X129721950Y-77488342D01*
X129727456Y-77493848D01*
X129760504Y-77526896D01*
X129781964Y-77559014D01*
X129789500Y-77596900D01*
X129789500Y-77764594D01*
X129787598Y-77783906D01*
X129784397Y-77800000D01*
X129786299Y-77809562D01*
X129793228Y-77844397D01*
X129802712Y-77892079D01*
X129802713Y-77892082D01*
X129804615Y-77901642D01*
X129862190Y-77987810D01*
X129870299Y-77993228D01*
X129870301Y-77993230D01*
X129875834Y-77996927D01*
X129890838Y-78009240D01*
X130310504Y-78428907D01*
X130331964Y-78461024D01*
X130339500Y-78498910D01*
X130339500Y-78810500D01*
X130326237Y-78860000D01*
X130290000Y-78896236D01*
X130240501Y-78909500D01*
X130094128Y-78909500D01*
X130094118Y-78909500D01*
X130089268Y-78909501D01*
X130084503Y-78910448D01*
X130084500Y-78910449D01*
X130037429Y-78919811D01*
X130037427Y-78919811D01*
X130027867Y-78921713D01*
X130019761Y-78927128D01*
X130019759Y-78927130D01*
X129966347Y-78962819D01*
X129966344Y-78962821D01*
X129958238Y-78968238D01*
X129952821Y-78976344D01*
X129952819Y-78976347D01*
X129917131Y-79029757D01*
X129917129Y-79029760D01*
X129911713Y-79037867D01*
X129909811Y-79047428D01*
X129909810Y-79047431D01*
X129900447Y-79094503D01*
X129900446Y-79094508D01*
X129899500Y-79099267D01*
X129899500Y-79104124D01*
X129899500Y-79104125D01*
X129899500Y-79815872D01*
X129899500Y-79815882D01*
X129899501Y-79820732D01*
X129900448Y-79825497D01*
X129900449Y-79825499D01*
X129909772Y-79872376D01*
X129911713Y-79882133D01*
X129958238Y-79951762D01*
X130027867Y-79998287D01*
X130089267Y-80010500D01*
X130310732Y-80010499D01*
X130372133Y-79998287D01*
X130372151Y-79998381D01*
X130399999Y-79992841D01*
X130427848Y-79998381D01*
X130427867Y-79998287D01*
X130489267Y-80010500D01*
X130710732Y-80010499D01*
X130772133Y-79998287D01*
X130772151Y-79998381D01*
X130799999Y-79992841D01*
X130827848Y-79998381D01*
X130827867Y-79998287D01*
X130889267Y-80010500D01*
X131110732Y-80010499D01*
X131172133Y-79998287D01*
X131172151Y-79998381D01*
X131199999Y-79992841D01*
X131227848Y-79998381D01*
X131227867Y-79998287D01*
X131289267Y-80010500D01*
X131510732Y-80010499D01*
X131572133Y-79998287D01*
X131572151Y-79998381D01*
X131599999Y-79992841D01*
X131627848Y-79998381D01*
X131627867Y-79998287D01*
X131689267Y-80010500D01*
X131910732Y-80010499D01*
X131972133Y-79998287D01*
X131972151Y-79998381D01*
X131999999Y-79992841D01*
X132027848Y-79998381D01*
X132027867Y-79998287D01*
X132089267Y-80010500D01*
X132310732Y-80010499D01*
X132372133Y-79998287D01*
X132372151Y-79998381D01*
X132399999Y-79992841D01*
X132427848Y-79998381D01*
X132427867Y-79998287D01*
X132489267Y-80010500D01*
X132710732Y-80010499D01*
X132772133Y-79998287D01*
X132772151Y-79998381D01*
X132799999Y-79992841D01*
X132827848Y-79998381D01*
X132827867Y-79998287D01*
X132889267Y-80010500D01*
X133110732Y-80010499D01*
X133172133Y-79998287D01*
X133172151Y-79998381D01*
X133199999Y-79992841D01*
X133227848Y-79998381D01*
X133227867Y-79998287D01*
X133289267Y-80010500D01*
X133510732Y-80010499D01*
X133572133Y-79998287D01*
X133572151Y-79998381D01*
X133599999Y-79992841D01*
X133627848Y-79998381D01*
X133627867Y-79998287D01*
X133689267Y-80010500D01*
X133910732Y-80010499D01*
X133972133Y-79998287D01*
X133972151Y-79998381D01*
X133999999Y-79992841D01*
X134027848Y-79998381D01*
X134027867Y-79998287D01*
X134089267Y-80010500D01*
X134310732Y-80010499D01*
X134372133Y-79998287D01*
X134372151Y-79998381D01*
X134399999Y-79992841D01*
X134427848Y-79998381D01*
X134427867Y-79998287D01*
X134489267Y-80010500D01*
X134710732Y-80010499D01*
X134772133Y-79998287D01*
X134772151Y-79998381D01*
X134799999Y-79992841D01*
X134827848Y-79998381D01*
X134827867Y-79998287D01*
X134889267Y-80010500D01*
X135110732Y-80010499D01*
X135172133Y-79998287D01*
X135172151Y-79998381D01*
X135199999Y-79992841D01*
X135227848Y-79998381D01*
X135227867Y-79998287D01*
X135289267Y-80010500D01*
X135510732Y-80010499D01*
X135572133Y-79998287D01*
X135572151Y-79998381D01*
X135599999Y-79992841D01*
X135627848Y-79998381D01*
X135627867Y-79998287D01*
X135689267Y-80010500D01*
X135910732Y-80010499D01*
X135972133Y-79998287D01*
X135972151Y-79998381D01*
X135999999Y-79992841D01*
X136027848Y-79998381D01*
X136027867Y-79998287D01*
X136089267Y-80010500D01*
X136310732Y-80010499D01*
X136372133Y-79998287D01*
X136372151Y-79998381D01*
X136399999Y-79992841D01*
X136427848Y-79998381D01*
X136427867Y-79998287D01*
X136489267Y-80010500D01*
X136710732Y-80010499D01*
X136772133Y-79998287D01*
X136772151Y-79998381D01*
X136799999Y-79992841D01*
X136827848Y-79998381D01*
X136827867Y-79998287D01*
X136889267Y-80010500D01*
X137110732Y-80010499D01*
X137172133Y-79998287D01*
X137172151Y-79998381D01*
X137199999Y-79992841D01*
X137227848Y-79998381D01*
X137227867Y-79998287D01*
X137289267Y-80010500D01*
X137510732Y-80010499D01*
X137572133Y-79998287D01*
X137572151Y-79998381D01*
X137599999Y-79992841D01*
X137627848Y-79998381D01*
X137627867Y-79998287D01*
X137689267Y-80010500D01*
X137910732Y-80010499D01*
X137972133Y-79998287D01*
X137972151Y-79998381D01*
X137999999Y-79992841D01*
X138027848Y-79998381D01*
X138027867Y-79998287D01*
X138089267Y-80010500D01*
X138310732Y-80010499D01*
X138372133Y-79998287D01*
X138372151Y-79998381D01*
X138399999Y-79992841D01*
X138427848Y-79998381D01*
X138427867Y-79998287D01*
X138489267Y-80010500D01*
X138710732Y-80010499D01*
X138772133Y-79998287D01*
X138772151Y-79998381D01*
X138799999Y-79992841D01*
X138827848Y-79998381D01*
X138827867Y-79998287D01*
X138889267Y-80010500D01*
X139110732Y-80010499D01*
X139172133Y-79998287D01*
X139172151Y-79998381D01*
X139199999Y-79992841D01*
X139227848Y-79998381D01*
X139227867Y-79998287D01*
X139289267Y-80010500D01*
X139510732Y-80010499D01*
X139572133Y-79998287D01*
X139572151Y-79998381D01*
X139599999Y-79992841D01*
X139627848Y-79998381D01*
X139627867Y-79998287D01*
X139689267Y-80010500D01*
X139910732Y-80010499D01*
X139972133Y-79998287D01*
X139972151Y-79998381D01*
X139999999Y-79992841D01*
X140027848Y-79998381D01*
X140027867Y-79998287D01*
X140089267Y-80010500D01*
X140310732Y-80010499D01*
X140372133Y-79998287D01*
X140372151Y-79998381D01*
X140399999Y-79992841D01*
X140427848Y-79998381D01*
X140427867Y-79998287D01*
X140489267Y-80010500D01*
X140710732Y-80010499D01*
X140772133Y-79998287D01*
X140772151Y-79998381D01*
X140799999Y-79992841D01*
X140827848Y-79998381D01*
X140827867Y-79998287D01*
X140889267Y-80010500D01*
X141110732Y-80010499D01*
X141172133Y-79998287D01*
X141172151Y-79998381D01*
X141199999Y-79992841D01*
X141227848Y-79998381D01*
X141227867Y-79998287D01*
X141289267Y-80010500D01*
X141510732Y-80010499D01*
X141572133Y-79998287D01*
X141572151Y-79998381D01*
X141599999Y-79992841D01*
X141627848Y-79998381D01*
X141627867Y-79998287D01*
X141689267Y-80010500D01*
X141910732Y-80010499D01*
X141972133Y-79998287D01*
X141972151Y-79998381D01*
X141999999Y-79992841D01*
X142027848Y-79998381D01*
X142027867Y-79998287D01*
X142089267Y-80010500D01*
X142310732Y-80010499D01*
X142372133Y-79998287D01*
X142372151Y-79998381D01*
X142399999Y-79992841D01*
X142427848Y-79998381D01*
X142427867Y-79998287D01*
X142489267Y-80010500D01*
X142710732Y-80010499D01*
X142772133Y-79998287D01*
X142772151Y-79998381D01*
X142799999Y-79992841D01*
X142827848Y-79998381D01*
X142827867Y-79998287D01*
X142889267Y-80010500D01*
X143110732Y-80010499D01*
X143172133Y-79998287D01*
X143172151Y-79998381D01*
X143199999Y-79992841D01*
X143227848Y-79998381D01*
X143227867Y-79998287D01*
X143289267Y-80010500D01*
X143510732Y-80010499D01*
X143572133Y-79998287D01*
X143572230Y-79998221D01*
X143600663Y-79992565D01*
X143628023Y-79998007D01*
X143628062Y-79997816D01*
X143684551Y-80009052D01*
X143688904Y-80009480D01*
X143697245Y-80007245D01*
X143700000Y-79996967D01*
X143700000Y-79996966D01*
X143900000Y-79996966D01*
X143902754Y-80007244D01*
X143911095Y-80009479D01*
X143915449Y-80009050D01*
X143962373Y-79999718D01*
X143980045Y-79992398D01*
X144033293Y-79956818D01*
X144046818Y-79943293D01*
X144082400Y-79890043D01*
X144089717Y-79872376D01*
X144099052Y-79825448D01*
X144100000Y-79815823D01*
X144100000Y-79573033D01*
X144097245Y-79562754D01*
X144086967Y-79560000D01*
X143913033Y-79560000D01*
X143902754Y-79562754D01*
X143900000Y-79573033D01*
X143900000Y-79996966D01*
X143700000Y-79996966D01*
X143700000Y-79825810D01*
X143700167Y-79822405D01*
X143700500Y-79820733D01*
X143700499Y-79458998D01*
X143713762Y-79409500D01*
X143749999Y-79373264D01*
X143799499Y-79360000D01*
X144086966Y-79360000D01*
X144097244Y-79357245D01*
X144099999Y-79346967D01*
X144099999Y-79104178D01*
X144099050Y-79094550D01*
X144089718Y-79047626D01*
X144082398Y-79029954D01*
X144046818Y-78976706D01*
X144033291Y-78963179D01*
X144001318Y-78941815D01*
X143968110Y-78904444D01*
X143957396Y-78855613D01*
X143971909Y-78807772D01*
X144007947Y-78773123D01*
X144056320Y-78760500D01*
X144651091Y-78760500D01*
X144688977Y-78768036D01*
X144721095Y-78789497D01*
X145000504Y-79068907D01*
X145021964Y-79101024D01*
X145029500Y-79138910D01*
X145029500Y-79424594D01*
X145027598Y-79443906D01*
X145024397Y-79460000D01*
X145026299Y-79469562D01*
X145029500Y-79485654D01*
X145042712Y-79552079D01*
X145042713Y-79552082D01*
X145044615Y-79561642D01*
X145102190Y-79647810D01*
X145110299Y-79653228D01*
X145110301Y-79653230D01*
X145115831Y-79656925D01*
X145130835Y-79669237D01*
X145310504Y-79848906D01*
X145331964Y-79881024D01*
X145339500Y-79918910D01*
X145339500Y-84464594D01*
X145337598Y-84483906D01*
X145334397Y-84500000D01*
X145336299Y-84509562D01*
X145339500Y-84525654D01*
X145352712Y-84592079D01*
X145352713Y-84592082D01*
X145354615Y-84601642D01*
X145360030Y-84609747D01*
X145360031Y-84609748D01*
X145406773Y-84679704D01*
X145406775Y-84679706D01*
X145412190Y-84687810D01*
X145420294Y-84693225D01*
X145420296Y-84693227D01*
X145425832Y-84696926D01*
X145440834Y-84709237D01*
X145810504Y-85078907D01*
X145831964Y-85111025D01*
X145839500Y-85148911D01*
X145839500Y-106401090D01*
X145831964Y-106438976D01*
X145810504Y-106471094D01*
X139871094Y-112410504D01*
X139838976Y-112431964D01*
X139801090Y-112439500D01*
X138646900Y-112439500D01*
X138609014Y-112431964D01*
X138576896Y-112410504D01*
X138543848Y-112377456D01*
X138543847Y-112377455D01*
X138538342Y-112371950D01*
X138425304Y-112314354D01*
X138417610Y-112313135D01*
X138417609Y-112313135D01*
X138307697Y-112295727D01*
X138300000Y-112294508D01*
X138292303Y-112295727D01*
X138182390Y-112313135D01*
X138182387Y-112313135D01*
X138174696Y-112314354D01*
X138167758Y-112317888D01*
X138167755Y-112317890D01*
X138068597Y-112368414D01*
X138068595Y-112368415D01*
X138061658Y-112371950D01*
X138056154Y-112377453D01*
X138056151Y-112377456D01*
X137977456Y-112456151D01*
X137977453Y-112456154D01*
X137971950Y-112461658D01*
X137968415Y-112468595D01*
X137968414Y-112468597D01*
X137917890Y-112567755D01*
X137917888Y-112567758D01*
X137914354Y-112574696D01*
X137894508Y-112700000D01*
X137914354Y-112825304D01*
X137971950Y-112938342D01*
X138061658Y-113028050D01*
X138174696Y-113085646D01*
X138300000Y-113105492D01*
X138425304Y-113085646D01*
X138538342Y-113028050D01*
X138576896Y-112989496D01*
X138609014Y-112968036D01*
X138646900Y-112960500D01*
X139914594Y-112960500D01*
X139933906Y-112962401D01*
X139950000Y-112965603D01*
X140051642Y-112945385D01*
X140051642Y-112945384D01*
X140137810Y-112887810D01*
X140146925Y-112874166D01*
X140159232Y-112859168D01*
X146259168Y-106759232D01*
X146274166Y-106746925D01*
X146287810Y-106737810D01*
X146345385Y-106651642D01*
X146360500Y-106575654D01*
X146365603Y-106550000D01*
X146362401Y-106533906D01*
X146360500Y-106514594D01*
X146360500Y-85035412D01*
X146362402Y-85016097D01*
X146362515Y-85015526D01*
X146365604Y-85000000D01*
X146348514Y-84914090D01*
X146345385Y-84898358D01*
X146287810Y-84812190D01*
X146279700Y-84806771D01*
X146279698Y-84806769D01*
X146274165Y-84803072D01*
X146259165Y-84790762D01*
X146078151Y-84609748D01*
X145889496Y-84421094D01*
X145868036Y-84388977D01*
X145860500Y-84351091D01*
X145860500Y-82000000D01*
X146794357Y-82000000D01*
X146794779Y-82004554D01*
X146811418Y-82184127D01*
X146814885Y-82221536D01*
X146816134Y-82225926D01*
X146816135Y-82225931D01*
X146874517Y-82431123D01*
X146874519Y-82431129D01*
X146875771Y-82435528D01*
X146974942Y-82634689D01*
X146977694Y-82638333D01*
X146977697Y-82638338D01*
X146993030Y-82658642D01*
X147109019Y-82812236D01*
X147273438Y-82962124D01*
X147462599Y-83079247D01*
X147466866Y-83080900D01*
X147665790Y-83157964D01*
X147665792Y-83157964D01*
X147670060Y-83159618D01*
X147888757Y-83200500D01*
X148106660Y-83200500D01*
X148111243Y-83200500D01*
X148329940Y-83159618D01*
X148537401Y-83079247D01*
X148726562Y-82962124D01*
X148890981Y-82812236D01*
X149025058Y-82634689D01*
X149124229Y-82435528D01*
X149185115Y-82221536D01*
X149205643Y-82000000D01*
X149185115Y-81778464D01*
X149124229Y-81564472D01*
X149025058Y-81365311D01*
X148890981Y-81187764D01*
X148726562Y-81037876D01*
X148537401Y-80920753D01*
X148533138Y-80919101D01*
X148533133Y-80919099D01*
X148334209Y-80842035D01*
X148334201Y-80842032D01*
X148329940Y-80840382D01*
X148325436Y-80839540D01*
X148115749Y-80800342D01*
X148115745Y-80800341D01*
X148111243Y-80799500D01*
X147888757Y-80799500D01*
X147884255Y-80800341D01*
X147884250Y-80800342D01*
X147674563Y-80839540D01*
X147674560Y-80839540D01*
X147670060Y-80840382D01*
X147665801Y-80842031D01*
X147665790Y-80842035D01*
X147466866Y-80919099D01*
X147466857Y-80919103D01*
X147462599Y-80920753D01*
X147458713Y-80923158D01*
X147458709Y-80923161D01*
X147277326Y-81035468D01*
X147277321Y-81035471D01*
X147273438Y-81037876D01*
X147270063Y-81040952D01*
X147270056Y-81040958D01*
X147112395Y-81184686D01*
X147109019Y-81187764D01*
X147106268Y-81191406D01*
X147106266Y-81191409D01*
X146977697Y-81361661D01*
X146977690Y-81361670D01*
X146974942Y-81365311D01*
X146972904Y-81369403D01*
X146972902Y-81369407D01*
X146877813Y-81560370D01*
X146877811Y-81560375D01*
X146875771Y-81564472D01*
X146874520Y-81568866D01*
X146874517Y-81568876D01*
X146816135Y-81774068D01*
X146816133Y-81774075D01*
X146814885Y-81778464D01*
X146794357Y-82000000D01*
X145860500Y-82000000D01*
X145860500Y-79819500D01*
X145873763Y-79770000D01*
X145910000Y-79733763D01*
X145959500Y-79720500D01*
X147254594Y-79720500D01*
X147273906Y-79722401D01*
X147290000Y-79725603D01*
X147391642Y-79705385D01*
X147391642Y-79705384D01*
X147477810Y-79647810D01*
X147486925Y-79634166D01*
X147499232Y-79619168D01*
X149699171Y-77419230D01*
X149714169Y-77406923D01*
X149727810Y-77397810D01*
X149785385Y-77311642D01*
X149790805Y-77284396D01*
X149805604Y-77210000D01*
X149802402Y-77193903D01*
X149800500Y-77174588D01*
X149800500Y-76092171D01*
X149809325Y-76051313D01*
X149834225Y-76017739D01*
X149870760Y-75997434D01*
X149943954Y-75975232D01*
X150126450Y-75877685D01*
X150286410Y-75746410D01*
X150417685Y-75586450D01*
X150515232Y-75403954D01*
X150575300Y-75205934D01*
X150595583Y-75000000D01*
X150575300Y-74794066D01*
X150515232Y-74596046D01*
X150417685Y-74413550D01*
X150286410Y-74253590D01*
X150126450Y-74122315D01*
X150122166Y-74120025D01*
X150122163Y-74120023D01*
X149948248Y-74027063D01*
X149948246Y-74027062D01*
X149943954Y-74024768D01*
X149908183Y-74013917D01*
X149750590Y-73966112D01*
X149750586Y-73966111D01*
X149745934Y-73964700D01*
X149540000Y-73944417D01*
X149535157Y-73944894D01*
X149338908Y-73964223D01*
X149338907Y-73964223D01*
X149334066Y-73964700D01*
X149329415Y-73966110D01*
X149329409Y-73966112D01*
X149140706Y-74023354D01*
X149140702Y-74023355D01*
X149136046Y-74024768D01*
X149131757Y-74027060D01*
X149131751Y-74027063D01*
X148957836Y-74120023D01*
X148957828Y-74120028D01*
X148953550Y-74122315D01*
X148949796Y-74125394D01*
X148949791Y-74125399D01*
X148797354Y-74250500D01*
X148797348Y-74250505D01*
X148793590Y-74253590D01*
X148790505Y-74257348D01*
X148790500Y-74257354D01*
X148665399Y-74409791D01*
X148665394Y-74409796D01*
X148662315Y-74413550D01*
X148660028Y-74417828D01*
X148660023Y-74417836D01*
X148567063Y-74591751D01*
X148567060Y-74591757D01*
X148564768Y-74596046D01*
X148563355Y-74600702D01*
X148563354Y-74600706D01*
X148506112Y-74789409D01*
X148506110Y-74789415D01*
X148504700Y-74794066D01*
X148504223Y-74798907D01*
X148504223Y-74798908D01*
X148499462Y-74847245D01*
X148484417Y-75000000D01*
X148504700Y-75205934D01*
X148564768Y-75403954D01*
X148567062Y-75408246D01*
X148567063Y-75408248D01*
X148660023Y-75582163D01*
X148660025Y-75582166D01*
X148662315Y-75586450D01*
X148793590Y-75746410D01*
X148953550Y-75877685D01*
X149136046Y-75975232D01*
X149209239Y-75997434D01*
X149245775Y-76017739D01*
X149270675Y-76051313D01*
X149279500Y-76092171D01*
X149279500Y-77061089D01*
X149271964Y-77098975D01*
X149250504Y-77131093D01*
X147211094Y-79170504D01*
X147178976Y-79191964D01*
X147141090Y-79199500D01*
X145649500Y-79199500D01*
X145600000Y-79186237D01*
X145563763Y-79150000D01*
X145550500Y-79100500D01*
X145550500Y-79025412D01*
X145552402Y-79006097D01*
X145552515Y-79005526D01*
X145555604Y-78990000D01*
X145535385Y-78888359D01*
X145535385Y-78888358D01*
X145477810Y-78802190D01*
X145469700Y-78796771D01*
X145469698Y-78796769D01*
X145464168Y-78793074D01*
X145449167Y-78780764D01*
X145009237Y-78340834D01*
X144996926Y-78325832D01*
X144993227Y-78320296D01*
X144993225Y-78320294D01*
X144987810Y-78312190D01*
X144979706Y-78306775D01*
X144979704Y-78306773D01*
X144909748Y-78260031D01*
X144909747Y-78260030D01*
X144901642Y-78254615D01*
X144892082Y-78252713D01*
X144892079Y-78252712D01*
X144886691Y-78251641D01*
X144809562Y-78236299D01*
X144800000Y-78234397D01*
X144783906Y-78237598D01*
X144764594Y-78239500D01*
X144167910Y-78239500D01*
X144112909Y-78222816D01*
X144076446Y-78178386D01*
X144070812Y-78121186D01*
X144097906Y-78070497D01*
X144609163Y-77559238D01*
X144624166Y-77546925D01*
X144637810Y-77537810D01*
X144695385Y-77451642D01*
X144710500Y-77375654D01*
X144715603Y-77350000D01*
X144712401Y-77333906D01*
X144710500Y-77314594D01*
X144710500Y-76946900D01*
X144718036Y-76909014D01*
X144739496Y-76876896D01*
X144753257Y-76863135D01*
X144778050Y-76838342D01*
X144835646Y-76725304D01*
X144855492Y-76600000D01*
X144835646Y-76474696D01*
X144778050Y-76361658D01*
X144688342Y-76271950D01*
X144575304Y-76214354D01*
X144567610Y-76213135D01*
X144567609Y-76213135D01*
X144457697Y-76195727D01*
X144450000Y-76194508D01*
X144442303Y-76195727D01*
X144332390Y-76213135D01*
X144332387Y-76213135D01*
X144324696Y-76214354D01*
X144317758Y-76217888D01*
X144317755Y-76217890D01*
X144218597Y-76268414D01*
X144218595Y-76268415D01*
X144211658Y-76271950D01*
X144206154Y-76277453D01*
X144206151Y-76277456D01*
X144127456Y-76356151D01*
X144127453Y-76356154D01*
X144121950Y-76361658D01*
X144118415Y-76368595D01*
X144118414Y-76368597D01*
X144067890Y-76467755D01*
X144067888Y-76467758D01*
X144064354Y-76474696D01*
X144063135Y-76482387D01*
X144063135Y-76482390D01*
X144047781Y-76579334D01*
X144024261Y-76629317D01*
X143977620Y-76658916D01*
X143922380Y-76658916D01*
X143875739Y-76629317D01*
X143852219Y-76579334D01*
X143844069Y-76527876D01*
X143835646Y-76474696D01*
X143778050Y-76361658D01*
X143688342Y-76271950D01*
X143575304Y-76214354D01*
X143567610Y-76213135D01*
X143567609Y-76213135D01*
X143457697Y-76195727D01*
X143450000Y-76194508D01*
X143442303Y-76195727D01*
X143332390Y-76213135D01*
X143332387Y-76213135D01*
X143324696Y-76214354D01*
X143317758Y-76217888D01*
X143317755Y-76217890D01*
X143218597Y-76268414D01*
X143218595Y-76268415D01*
X143211658Y-76271950D01*
X143206154Y-76277453D01*
X143206151Y-76277456D01*
X143127456Y-76356151D01*
X143127453Y-76356154D01*
X143121950Y-76361658D01*
X143118415Y-76368595D01*
X143118414Y-76368597D01*
X143064354Y-76474696D01*
X143062787Y-76473897D01*
X143042771Y-76505439D01*
X142999621Y-76529162D01*
X142950379Y-76529162D01*
X142907229Y-76505439D01*
X142887212Y-76473897D01*
X142885646Y-76474696D01*
X142828050Y-76361658D01*
X142738342Y-76271950D01*
X142625304Y-76214354D01*
X142617610Y-76213135D01*
X142617609Y-76213135D01*
X142507697Y-76195727D01*
X142500000Y-76194508D01*
X142492303Y-76195727D01*
X142382390Y-76213135D01*
X142382387Y-76213135D01*
X142374696Y-76214354D01*
X142367758Y-76217888D01*
X142367755Y-76217890D01*
X142268597Y-76268414D01*
X142268595Y-76268415D01*
X142261658Y-76271950D01*
X142256154Y-76277453D01*
X142256151Y-76277456D01*
X142177456Y-76356151D01*
X142177453Y-76356154D01*
X142171950Y-76361658D01*
X142168415Y-76368595D01*
X142168414Y-76368597D01*
X142138210Y-76427876D01*
X142101727Y-76467342D01*
X142050000Y-76481931D01*
X141998273Y-76467342D01*
X141961790Y-76427876D01*
X141936790Y-76378812D01*
X141928050Y-76361658D01*
X141838342Y-76271950D01*
X141725304Y-76214354D01*
X141717610Y-76213135D01*
X141717609Y-76213135D01*
X141607697Y-76195727D01*
X141600000Y-76194508D01*
X141592303Y-76195727D01*
X141482390Y-76213135D01*
X141482387Y-76213135D01*
X141474696Y-76214354D01*
X141467758Y-76217888D01*
X141467755Y-76217890D01*
X141368597Y-76268414D01*
X141368595Y-76268415D01*
X141361658Y-76271950D01*
X141356154Y-76277453D01*
X141356151Y-76277456D01*
X141277456Y-76356151D01*
X141277453Y-76356154D01*
X141271950Y-76361658D01*
X141268415Y-76368595D01*
X141268414Y-76368597D01*
X141217890Y-76467755D01*
X141217888Y-76467758D01*
X141214354Y-76474696D01*
X141213135Y-76482387D01*
X141213135Y-76482390D01*
X141197781Y-76579334D01*
X141174261Y-76629317D01*
X141127620Y-76658916D01*
X141072380Y-76658916D01*
X141025739Y-76629317D01*
X141002219Y-76579334D01*
X140994069Y-76527876D01*
X140985646Y-76474696D01*
X140928050Y-76361658D01*
X140838342Y-76271950D01*
X140725304Y-76214354D01*
X140717610Y-76213135D01*
X140717609Y-76213135D01*
X140607697Y-76195727D01*
X140600000Y-76194508D01*
X140592303Y-76195727D01*
X140482390Y-76213135D01*
X140482387Y-76213135D01*
X140474696Y-76214354D01*
X140467758Y-76217888D01*
X140467755Y-76217890D01*
X140368597Y-76268414D01*
X140368595Y-76268415D01*
X140361658Y-76271950D01*
X140356154Y-76277453D01*
X140356151Y-76277456D01*
X140277456Y-76356151D01*
X140277453Y-76356154D01*
X140271950Y-76361658D01*
X140268416Y-76368592D01*
X140268412Y-76368599D01*
X140263209Y-76378812D01*
X140226727Y-76418278D01*
X140175000Y-76432866D01*
X140123273Y-76418278D01*
X140086791Y-76378812D01*
X140081587Y-76368599D01*
X140081585Y-76368597D01*
X140078050Y-76361658D01*
X139988342Y-76271950D01*
X139875304Y-76214354D01*
X139867610Y-76213135D01*
X139867609Y-76213135D01*
X139757697Y-76195727D01*
X139750000Y-76194508D01*
X139742303Y-76195727D01*
X139632390Y-76213135D01*
X139632387Y-76213135D01*
X139624696Y-76214354D01*
X139617758Y-76217888D01*
X139617755Y-76217890D01*
X139518597Y-76268414D01*
X139518595Y-76268415D01*
X139511658Y-76271950D01*
X139506154Y-76277453D01*
X139506151Y-76277456D01*
X139427456Y-76356151D01*
X139427453Y-76356154D01*
X139421950Y-76361658D01*
X139418415Y-76368595D01*
X139418414Y-76368597D01*
X139367890Y-76467755D01*
X139367888Y-76467758D01*
X139364354Y-76474696D01*
X139363135Y-76482387D01*
X139363135Y-76482390D01*
X139347781Y-76579334D01*
X139324261Y-76629317D01*
X139277620Y-76658916D01*
X139222380Y-76658916D01*
X139175739Y-76629317D01*
X139152219Y-76579334D01*
X139144069Y-76527876D01*
X139135646Y-76474696D01*
X139078050Y-76361658D01*
X138988342Y-76271950D01*
X138875304Y-76214354D01*
X138867610Y-76213135D01*
X138867609Y-76213135D01*
X138757697Y-76195727D01*
X138750000Y-76194508D01*
X138742303Y-76195727D01*
X138632390Y-76213135D01*
X138632387Y-76213135D01*
X138624696Y-76214354D01*
X138617758Y-76217888D01*
X138617755Y-76217890D01*
X138518597Y-76268414D01*
X138518595Y-76268415D01*
X138511658Y-76271950D01*
X138506154Y-76277453D01*
X138506151Y-76277456D01*
X138427456Y-76356151D01*
X138427453Y-76356154D01*
X138421950Y-76361658D01*
X138418416Y-76368592D01*
X138418412Y-76368599D01*
X138413209Y-76378812D01*
X138376727Y-76418278D01*
X138325000Y-76432866D01*
X138273273Y-76418278D01*
X138236791Y-76378812D01*
X138231587Y-76368599D01*
X138231585Y-76368597D01*
X138228050Y-76361658D01*
X138138342Y-76271950D01*
X138025304Y-76214354D01*
X138017610Y-76213135D01*
X138017609Y-76213135D01*
X137907697Y-76195727D01*
X137900000Y-76194508D01*
X137892303Y-76195727D01*
X137782390Y-76213135D01*
X137782387Y-76213135D01*
X137774696Y-76214354D01*
X137767758Y-76217888D01*
X137767755Y-76217890D01*
X137668597Y-76268414D01*
X137668595Y-76268415D01*
X137661658Y-76271950D01*
X137656154Y-76277453D01*
X137656151Y-76277456D01*
X137577456Y-76356151D01*
X137577453Y-76356154D01*
X137571950Y-76361658D01*
X137568416Y-76368592D01*
X137568412Y-76368599D01*
X137540709Y-76422970D01*
X137504227Y-76462436D01*
X137452500Y-76477024D01*
X137400773Y-76462436D01*
X137364291Y-76422970D01*
X137336587Y-76368599D01*
X137336585Y-76368597D01*
X137333050Y-76361658D01*
X137243342Y-76271950D01*
X137130304Y-76214354D01*
X137122610Y-76213135D01*
X137122609Y-76213135D01*
X137012697Y-76195727D01*
X137005000Y-76194508D01*
X136997303Y-76195727D01*
X136887390Y-76213135D01*
X136887387Y-76213135D01*
X136879696Y-76214354D01*
X136872758Y-76217888D01*
X136872755Y-76217890D01*
X136773597Y-76268414D01*
X136773595Y-76268415D01*
X136766658Y-76271950D01*
X136761154Y-76277453D01*
X136761151Y-76277456D01*
X136682456Y-76356151D01*
X136682453Y-76356154D01*
X136676950Y-76361658D01*
X136673415Y-76368595D01*
X136673414Y-76368597D01*
X136622890Y-76467755D01*
X136622888Y-76467758D01*
X136619354Y-76474696D01*
X136618136Y-76482385D01*
X136618135Y-76482389D01*
X136612557Y-76517608D01*
X136584779Y-76572124D01*
X136530262Y-76599900D01*
X136469830Y-76590328D01*
X136426567Y-76547065D01*
X136383050Y-76461658D01*
X136293342Y-76371950D01*
X136180304Y-76314354D01*
X136172610Y-76313135D01*
X136172609Y-76313135D01*
X136062697Y-76295727D01*
X136055000Y-76294508D01*
X136047303Y-76295727D01*
X135937390Y-76313135D01*
X135937387Y-76313135D01*
X135929696Y-76314354D01*
X135922758Y-76317888D01*
X135922755Y-76317890D01*
X135823597Y-76368414D01*
X135823595Y-76368415D01*
X135816658Y-76371950D01*
X135811154Y-76377453D01*
X135811151Y-76377456D01*
X135732456Y-76456151D01*
X135732453Y-76456154D01*
X135726950Y-76461658D01*
X135723415Y-76468595D01*
X135723414Y-76468597D01*
X135669354Y-76574696D01*
X135667787Y-76573897D01*
X135647771Y-76605439D01*
X135604621Y-76629162D01*
X135555379Y-76629162D01*
X135512229Y-76605439D01*
X135492212Y-76573897D01*
X135490646Y-76574696D01*
X135433050Y-76461658D01*
X135343342Y-76371950D01*
X135230304Y-76314354D01*
X135222610Y-76313135D01*
X135222609Y-76313135D01*
X135112697Y-76295727D01*
X135105000Y-76294508D01*
X135097303Y-76295727D01*
X134987390Y-76313135D01*
X134987387Y-76313135D01*
X134979696Y-76314354D01*
X134972758Y-76317888D01*
X134972755Y-76317890D01*
X134873597Y-76368414D01*
X134873595Y-76368415D01*
X134866658Y-76371950D01*
X134861154Y-76377453D01*
X134861151Y-76377456D01*
X134782456Y-76456151D01*
X134782453Y-76456154D01*
X134776950Y-76461658D01*
X134773415Y-76468595D01*
X134773414Y-76468597D01*
X134743210Y-76527876D01*
X134706727Y-76567342D01*
X134655000Y-76581931D01*
X134603273Y-76567342D01*
X134566790Y-76527876D01*
X134561558Y-76517608D01*
X134533050Y-76461658D01*
X134443342Y-76371950D01*
X134330304Y-76314354D01*
X134322610Y-76313135D01*
X134322609Y-76313135D01*
X134212697Y-76295727D01*
X134205000Y-76294508D01*
X134197303Y-76295727D01*
X134087390Y-76313135D01*
X134087387Y-76313135D01*
X134079696Y-76314354D01*
X134072758Y-76317888D01*
X134072755Y-76317890D01*
X133973597Y-76368414D01*
X133973595Y-76368415D01*
X133966658Y-76371950D01*
X133961154Y-76377453D01*
X133961151Y-76377456D01*
X133882456Y-76456151D01*
X133882453Y-76456154D01*
X133876950Y-76461658D01*
X133873415Y-76468595D01*
X133873414Y-76468597D01*
X133843210Y-76527876D01*
X133806727Y-76567342D01*
X133755000Y-76581931D01*
X133703273Y-76567342D01*
X133666790Y-76527876D01*
X133661558Y-76517608D01*
X133633050Y-76461658D01*
X133543342Y-76371950D01*
X133430304Y-76314354D01*
X133422610Y-76313135D01*
X133422609Y-76313135D01*
X133312697Y-76295727D01*
X133305000Y-76294508D01*
X133297303Y-76295727D01*
X133187390Y-76313135D01*
X133187387Y-76313135D01*
X133179696Y-76314354D01*
X133172758Y-76317888D01*
X133172755Y-76317890D01*
X133073597Y-76368414D01*
X133073595Y-76368415D01*
X133066658Y-76371950D01*
X133061154Y-76377453D01*
X133061151Y-76377456D01*
X132982456Y-76456151D01*
X132982453Y-76456154D01*
X132976950Y-76461658D01*
X132973416Y-76468592D01*
X132973412Y-76468599D01*
X132940709Y-76532783D01*
X132904227Y-76572249D01*
X132852500Y-76586837D01*
X132800773Y-76572249D01*
X132764291Y-76532783D01*
X132731587Y-76468599D01*
X132731585Y-76468597D01*
X132728050Y-76461658D01*
X132638342Y-76371950D01*
X132525304Y-76314354D01*
X132517610Y-76313135D01*
X132517609Y-76313135D01*
X132407697Y-76295727D01*
X132400000Y-76294508D01*
X132392303Y-76295727D01*
X132282390Y-76313135D01*
X132282387Y-76313135D01*
X132274696Y-76314354D01*
X132267758Y-76317888D01*
X132267755Y-76317890D01*
X132168597Y-76368414D01*
X132168595Y-76368415D01*
X132161658Y-76371950D01*
X132156154Y-76377453D01*
X132156151Y-76377456D01*
X132077456Y-76456151D01*
X132077453Y-76456154D01*
X132071950Y-76461658D01*
X132068415Y-76468595D01*
X132068414Y-76468597D01*
X132014354Y-76574696D01*
X132012787Y-76573897D01*
X131992771Y-76605439D01*
X131949621Y-76629162D01*
X131900379Y-76629162D01*
X131857229Y-76605439D01*
X131837212Y-76573897D01*
X131835646Y-76574696D01*
X131778050Y-76461658D01*
X131688342Y-76371950D01*
X131575304Y-76314354D01*
X131567610Y-76313135D01*
X131567609Y-76313135D01*
X131457697Y-76295727D01*
X131450000Y-76294508D01*
X131442303Y-76295727D01*
X131332390Y-76313135D01*
X131332387Y-76313135D01*
X131324696Y-76314354D01*
X131317758Y-76317888D01*
X131317755Y-76317890D01*
X131218597Y-76368414D01*
X131218595Y-76368415D01*
X131211658Y-76371950D01*
X131206154Y-76377453D01*
X131206151Y-76377456D01*
X131127456Y-76456151D01*
X131127453Y-76456154D01*
X131121950Y-76461658D01*
X131118415Y-76468595D01*
X131118414Y-76468597D01*
X131064354Y-76574696D01*
X131062787Y-76573897D01*
X131042771Y-76605439D01*
X130999621Y-76629162D01*
X130950379Y-76629162D01*
X130907229Y-76605439D01*
X130887212Y-76573897D01*
X130885646Y-76574696D01*
X130828050Y-76461658D01*
X130738342Y-76371950D01*
X130625304Y-76314354D01*
X130617610Y-76313135D01*
X130617609Y-76313135D01*
X130507697Y-76295727D01*
X130500000Y-76294508D01*
X130492303Y-76295727D01*
X130382390Y-76313135D01*
X130382387Y-76313135D01*
X130374696Y-76314354D01*
X130367758Y-76317888D01*
X130367755Y-76317890D01*
X130268597Y-76368414D01*
X130268595Y-76368415D01*
X130261658Y-76371950D01*
X130256154Y-76377453D01*
X130256151Y-76377456D01*
X130177456Y-76456151D01*
X130177453Y-76456154D01*
X130171950Y-76461658D01*
X130168415Y-76468595D01*
X130168414Y-76468597D01*
X130117890Y-76567755D01*
X130117888Y-76567758D01*
X130114354Y-76574696D01*
X130113135Y-76582387D01*
X130113135Y-76582390D01*
X130105703Y-76629317D01*
X130094508Y-76700000D01*
X130095727Y-76707697D01*
X130095727Y-76707698D01*
X130100259Y-76736314D01*
X130094902Y-76787279D01*
X130064781Y-76828737D01*
X130017966Y-76849581D01*
X129932390Y-76863135D01*
X129932387Y-76863135D01*
X129924696Y-76864354D01*
X129917758Y-76867888D01*
X129917755Y-76867890D01*
X129818597Y-76918414D01*
X129818595Y-76918415D01*
X129811658Y-76921950D01*
X129806154Y-76927453D01*
X129806151Y-76927456D01*
X129727456Y-77006151D01*
X129727453Y-77006154D01*
X129721950Y-77011658D01*
X129718415Y-77018595D01*
X129718414Y-77018597D01*
X129667890Y-77117755D01*
X129667888Y-77117758D01*
X129664354Y-77124696D01*
X129644508Y-77250000D01*
X122200500Y-77250000D01*
X122200500Y-75864840D01*
X145950000Y-75864840D01*
X145950947Y-75874461D01*
X145959701Y-75918473D01*
X145967020Y-75936142D01*
X146000389Y-75986082D01*
X146013917Y-75999610D01*
X146063857Y-76032979D01*
X146081526Y-76040298D01*
X146125538Y-76049052D01*
X146135160Y-76050000D01*
X146836967Y-76050000D01*
X146847245Y-76047245D01*
X146850000Y-76036967D01*
X147150000Y-76036967D01*
X147152754Y-76047245D01*
X147163033Y-76050000D01*
X147864840Y-76050000D01*
X147874461Y-76049052D01*
X147918473Y-76040298D01*
X147936142Y-76032979D01*
X147986082Y-75999610D01*
X147999610Y-75986082D01*
X148032979Y-75936142D01*
X148040298Y-75918473D01*
X148049052Y-75874461D01*
X148050000Y-75864840D01*
X148050000Y-75163033D01*
X148047245Y-75152754D01*
X148036967Y-75150000D01*
X147163033Y-75150000D01*
X147152754Y-75152754D01*
X147150000Y-75163033D01*
X147150000Y-76036967D01*
X146850000Y-76036967D01*
X146850000Y-75163033D01*
X146847245Y-75152754D01*
X146836967Y-75150000D01*
X145963033Y-75150000D01*
X145952754Y-75152754D01*
X145950000Y-75163033D01*
X145950000Y-75864840D01*
X122200500Y-75864840D01*
X122200500Y-74836967D01*
X145950000Y-74836967D01*
X145952754Y-74847245D01*
X145963033Y-74850000D01*
X146836967Y-74850000D01*
X146847245Y-74847245D01*
X146850000Y-74836967D01*
X147150000Y-74836967D01*
X147152754Y-74847245D01*
X147163033Y-74850000D01*
X148036967Y-74850000D01*
X148047245Y-74847245D01*
X148050000Y-74836967D01*
X148050000Y-74135160D01*
X148049052Y-74125538D01*
X148040298Y-74081526D01*
X148032979Y-74063857D01*
X147999610Y-74013917D01*
X147986082Y-74000389D01*
X147936142Y-73967020D01*
X147918473Y-73959701D01*
X147874461Y-73950947D01*
X147864840Y-73950000D01*
X147163033Y-73950000D01*
X147152754Y-73952754D01*
X147150000Y-73963033D01*
X147150000Y-74836967D01*
X146850000Y-74836967D01*
X146850000Y-73963033D01*
X146847245Y-73952754D01*
X146836967Y-73950000D01*
X146135160Y-73950000D01*
X146125538Y-73950947D01*
X146081526Y-73959701D01*
X146063857Y-73967020D01*
X146013917Y-74000389D01*
X146000389Y-74013917D01*
X145967020Y-74063857D01*
X145959701Y-74081526D01*
X145950947Y-74125538D01*
X145950000Y-74135160D01*
X145950000Y-74836967D01*
X122200500Y-74836967D01*
X122200500Y-73003241D01*
X122200712Y-72996766D01*
X122209224Y-72866894D01*
X122215471Y-72771585D01*
X122217158Y-72758764D01*
X122260552Y-72540609D01*
X122263899Y-72528117D01*
X122335397Y-72317493D01*
X122340348Y-72305543D01*
X122438717Y-72106067D01*
X122445186Y-72094862D01*
X122568760Y-71909922D01*
X122576635Y-71899659D01*
X122723291Y-71732429D01*
X122732429Y-71723291D01*
X122899659Y-71576635D01*
X122909922Y-71568760D01*
X123094862Y-71445186D01*
X123106067Y-71438717D01*
X123305543Y-71340348D01*
X123317493Y-71335397D01*
X123528117Y-71263899D01*
X123540609Y-71260552D01*
X123758764Y-71217158D01*
X123771585Y-71215471D01*
X123996765Y-71200712D01*
X124003241Y-71200500D01*
X124039882Y-71200500D01*
X149960118Y-71200500D01*
X149996759Y-71200500D01*
X150003234Y-71200712D01*
G37*
%TD.AperFunction*%
%TD*%
M02*
