%TF.GenerationSoftware,KiCad,Pcbnew,(6.0.0)*%
%TF.CreationDate,2022-09-09T09:06:15-04:00*%
%TF.ProjectId,eib-neuronexus-a64,6569622d-6e65-4757-926f-6e657875732d,A*%
%TF.SameCoordinates,Original*%
%TF.FileFunction,Profile,NP*%
%FSLAX46Y46*%
G04 Gerber Fmt 4.6, Leading zero omitted, Abs format (unit mm)*
G04 Created by KiCad (PCBNEW (6.0.0)) date 2022-09-09 09:06:15*
%MOMM*%
%LPD*%
G01*
G04 APERTURE LIST*
%TA.AperFunction,Profile*%
%ADD10C,0.100000*%
%TD*%
G04 APERTURE END LIST*
D10*
X101750000Y-87000000D02*
G75*
G03*
X101750000Y-87000000I-750000J0D01*
G01*
X122000000Y-118000000D02*
X134000000Y-130000000D01*
X152000000Y-73000000D02*
X152000000Y-118000000D01*
X120000000Y-84000000D02*
X99000000Y-84000000D01*
X152000000Y-73000000D02*
G75*
G03*
X150000000Y-71000000I-1999999J1D01*
G01*
X120000000Y-84000000D02*
G75*
G03*
X122000000Y-82000000I1J1999999D01*
G01*
X140000000Y-130000000D02*
X152000000Y-118000000D01*
X124000000Y-71000000D02*
G75*
G03*
X122000000Y-73000000I-1J-1999999D01*
G01*
X122000000Y-99000000D02*
X122000000Y-118000000D01*
X122000000Y-82000000D02*
X122000000Y-73000000D01*
X101750000Y-90000000D02*
G75*
G03*
X101750000Y-90000000I-750000J0D01*
G01*
X99000000Y-84000000D02*
X99000000Y-97000000D01*
X122000000Y-99000000D02*
G75*
G03*
X120000000Y-97000000I-1999999J1D01*
G01*
X140000000Y-130000000D02*
X134000000Y-130000000D01*
X149000000Y-82000000D02*
G75*
G03*
X149000000Y-82000000I-1000000J0D01*
G01*
X99000000Y-97000000D02*
X120000000Y-97000000D01*
X101750000Y-93000000D02*
G75*
G03*
X101750000Y-93000000I-750000J0D01*
G01*
X124000000Y-71000000D02*
X150000000Y-71000000D01*
X127000000Y-82000000D02*
G75*
G03*
X127000000Y-82000000I-1000000J0D01*
G01*
X138666666Y-81000000D02*
G75*
G03*
X138666666Y-81000000I-1666666J0D01*
G01*
X134500000Y-81000000D02*
X139500000Y-81000000D01*
X137000000Y-78500000D02*
X137000000Y-83500000D01*
M02*
