%TF.GenerationSoftware,KiCad,Pcbnew,(7.0.0)*%
%TF.CreationDate,2024-01-30T15:23:45-05:00*%
%TF.ProjectId,eib-neuronexus-a64,6569622d-6e65-4757-926f-6e657875732d,B*%
%TF.SameCoordinates,Original*%
%TF.FileFunction,AssemblyDrawing,Top*%
%FSLAX46Y46*%
G04 Gerber Fmt 4.6, Leading zero omitted, Abs format (unit mm)*
G04 Created by KiCad (PCBNEW (7.0.0)) date 2024-01-30 15:23:45*
%MOMM*%
%LPD*%
G01*
G04 APERTURE LIST*
%ADD10C,0.150000*%
%ADD11C,0.100000*%
G04 APERTURE END LIST*
D10*
X136833300Y-69964511D02*
X136833300Y-70678797D01*
X136833300Y-70678797D02*
X136785681Y-70821654D01*
X136785681Y-70821654D02*
X136690443Y-70916892D01*
X136690443Y-70916892D02*
X136547586Y-70964511D01*
X136547586Y-70964511D02*
X136452348Y-70964511D01*
X137833300Y-70964511D02*
X137261872Y-70964511D01*
X137547586Y-70964511D02*
X137547586Y-69964511D01*
X137547586Y-69964511D02*
X137452348Y-70107369D01*
X137452348Y-70107369D02*
X137357110Y-70202607D01*
X137357110Y-70202607D02*
X137261872Y-70250226D01*
%TO.C,J4*%
X152082142Y-76448334D02*
X152129761Y-76495953D01*
X152129761Y-76495953D02*
X152177380Y-76638810D01*
X152177380Y-76638810D02*
X152177380Y-76734048D01*
X152177380Y-76734048D02*
X152129761Y-76876905D01*
X152129761Y-76876905D02*
X152034523Y-76972143D01*
X152034523Y-76972143D02*
X151939285Y-77019762D01*
X151939285Y-77019762D02*
X151748809Y-77067381D01*
X151748809Y-77067381D02*
X151605952Y-77067381D01*
X151605952Y-77067381D02*
X151415476Y-77019762D01*
X151415476Y-77019762D02*
X151320238Y-76972143D01*
X151320238Y-76972143D02*
X151225000Y-76876905D01*
X151225000Y-76876905D02*
X151177380Y-76734048D01*
X151177380Y-76734048D02*
X151177380Y-76638810D01*
X151177380Y-76638810D02*
X151225000Y-76495953D01*
X151225000Y-76495953D02*
X151272619Y-76448334D01*
X152177380Y-75876905D02*
X152129761Y-75972143D01*
X152129761Y-75972143D02*
X152082142Y-76019762D01*
X152082142Y-76019762D02*
X151986904Y-76067381D01*
X151986904Y-76067381D02*
X151701190Y-76067381D01*
X151701190Y-76067381D02*
X151605952Y-76019762D01*
X151605952Y-76019762D02*
X151558333Y-75972143D01*
X151558333Y-75972143D02*
X151510714Y-75876905D01*
X151510714Y-75876905D02*
X151510714Y-75734048D01*
X151510714Y-75734048D02*
X151558333Y-75638810D01*
X151558333Y-75638810D02*
X151605952Y-75591191D01*
X151605952Y-75591191D02*
X151701190Y-75543572D01*
X151701190Y-75543572D02*
X151986904Y-75543572D01*
X151986904Y-75543572D02*
X152082142Y-75591191D01*
X152082142Y-75591191D02*
X152129761Y-75638810D01*
X152129761Y-75638810D02*
X152177380Y-75734048D01*
X152177380Y-75734048D02*
X152177380Y-75876905D01*
X151510714Y-75115000D02*
X152177380Y-75115000D01*
X151605952Y-75115000D02*
X151558333Y-75067381D01*
X151558333Y-75067381D02*
X151510714Y-74972143D01*
X151510714Y-74972143D02*
X151510714Y-74829286D01*
X151510714Y-74829286D02*
X151558333Y-74734048D01*
X151558333Y-74734048D02*
X151653571Y-74686429D01*
X151653571Y-74686429D02*
X152177380Y-74686429D01*
X151510714Y-74210238D02*
X152177380Y-74210238D01*
X151605952Y-74210238D02*
X151558333Y-74162619D01*
X151558333Y-74162619D02*
X151510714Y-74067381D01*
X151510714Y-74067381D02*
X151510714Y-73924524D01*
X151510714Y-73924524D02*
X151558333Y-73829286D01*
X151558333Y-73829286D02*
X151653571Y-73781667D01*
X151653571Y-73781667D02*
X152177380Y-73781667D01*
X152272619Y-73543572D02*
X152272619Y-72781667D01*
X151177380Y-72353095D02*
X151177380Y-72257857D01*
X151177380Y-72257857D02*
X151225000Y-72162619D01*
X151225000Y-72162619D02*
X151272619Y-72115000D01*
X151272619Y-72115000D02*
X151367857Y-72067381D01*
X151367857Y-72067381D02*
X151558333Y-72019762D01*
X151558333Y-72019762D02*
X151796428Y-72019762D01*
X151796428Y-72019762D02*
X151986904Y-72067381D01*
X151986904Y-72067381D02*
X152082142Y-72115000D01*
X152082142Y-72115000D02*
X152129761Y-72162619D01*
X152129761Y-72162619D02*
X152177380Y-72257857D01*
X152177380Y-72257857D02*
X152177380Y-72353095D01*
X152177380Y-72353095D02*
X152129761Y-72448333D01*
X152129761Y-72448333D02*
X152082142Y-72495952D01*
X152082142Y-72495952D02*
X151986904Y-72543571D01*
X151986904Y-72543571D02*
X151796428Y-72591190D01*
X151796428Y-72591190D02*
X151558333Y-72591190D01*
X151558333Y-72591190D02*
X151367857Y-72543571D01*
X151367857Y-72543571D02*
X151272619Y-72495952D01*
X151272619Y-72495952D02*
X151225000Y-72448333D01*
X151225000Y-72448333D02*
X151177380Y-72353095D01*
X152177380Y-71067381D02*
X152177380Y-71638809D01*
X152177380Y-71353095D02*
X151177380Y-71353095D01*
X151177380Y-71353095D02*
X151320238Y-71448333D01*
X151320238Y-71448333D02*
X151415476Y-71543571D01*
X151415476Y-71543571D02*
X151463095Y-71638809D01*
X152177380Y-70734047D02*
X151510714Y-70210238D01*
X151510714Y-70734047D02*
X152177380Y-70210238D01*
X151177380Y-69638809D02*
X151177380Y-69543571D01*
X151177380Y-69543571D02*
X151225000Y-69448333D01*
X151225000Y-69448333D02*
X151272619Y-69400714D01*
X151272619Y-69400714D02*
X151367857Y-69353095D01*
X151367857Y-69353095D02*
X151558333Y-69305476D01*
X151558333Y-69305476D02*
X151796428Y-69305476D01*
X151796428Y-69305476D02*
X151986904Y-69353095D01*
X151986904Y-69353095D02*
X152082142Y-69400714D01*
X152082142Y-69400714D02*
X152129761Y-69448333D01*
X152129761Y-69448333D02*
X152177380Y-69543571D01*
X152177380Y-69543571D02*
X152177380Y-69638809D01*
X152177380Y-69638809D02*
X152129761Y-69734047D01*
X152129761Y-69734047D02*
X152082142Y-69781666D01*
X152082142Y-69781666D02*
X151986904Y-69829285D01*
X151986904Y-69829285D02*
X151796428Y-69876904D01*
X151796428Y-69876904D02*
X151558333Y-69876904D01*
X151558333Y-69876904D02*
X151367857Y-69829285D01*
X151367857Y-69829285D02*
X151272619Y-69781666D01*
X151272619Y-69781666D02*
X151225000Y-69734047D01*
X151225000Y-69734047D02*
X151177380Y-69638809D01*
X151272619Y-68924523D02*
X151225000Y-68876904D01*
X151225000Y-68876904D02*
X151177380Y-68781666D01*
X151177380Y-68781666D02*
X151177380Y-68543571D01*
X151177380Y-68543571D02*
X151225000Y-68448333D01*
X151225000Y-68448333D02*
X151272619Y-68400714D01*
X151272619Y-68400714D02*
X151367857Y-68353095D01*
X151367857Y-68353095D02*
X151463095Y-68353095D01*
X151463095Y-68353095D02*
X151605952Y-68400714D01*
X151605952Y-68400714D02*
X152177380Y-68972142D01*
X152177380Y-68972142D02*
X152177380Y-68353095D01*
X152272619Y-68162619D02*
X152272619Y-67400714D01*
X152177380Y-67162618D02*
X151177380Y-67162618D01*
X151177380Y-67162618D02*
X151891666Y-66829285D01*
X151891666Y-66829285D02*
X151177380Y-66495952D01*
X151177380Y-66495952D02*
X152177380Y-66495952D01*
X152177380Y-65591190D02*
X151653571Y-65591190D01*
X151653571Y-65591190D02*
X151558333Y-65638809D01*
X151558333Y-65638809D02*
X151510714Y-65734047D01*
X151510714Y-65734047D02*
X151510714Y-65924523D01*
X151510714Y-65924523D02*
X151558333Y-66019761D01*
X152129761Y-65591190D02*
X152177380Y-65686428D01*
X152177380Y-65686428D02*
X152177380Y-65924523D01*
X152177380Y-65924523D02*
X152129761Y-66019761D01*
X152129761Y-66019761D02*
X152034523Y-66067380D01*
X152034523Y-66067380D02*
X151939285Y-66067380D01*
X151939285Y-66067380D02*
X151844047Y-66019761D01*
X151844047Y-66019761D02*
X151796428Y-65924523D01*
X151796428Y-65924523D02*
X151796428Y-65686428D01*
X151796428Y-65686428D02*
X151748809Y-65591190D01*
X152177380Y-64972142D02*
X152129761Y-65067380D01*
X152129761Y-65067380D02*
X152034523Y-65114999D01*
X152034523Y-65114999D02*
X151177380Y-65114999D01*
X152129761Y-64210237D02*
X152177380Y-64305475D01*
X152177380Y-64305475D02*
X152177380Y-64495951D01*
X152177380Y-64495951D02*
X152129761Y-64591189D01*
X152129761Y-64591189D02*
X152034523Y-64638808D01*
X152034523Y-64638808D02*
X151653571Y-64638808D01*
X151653571Y-64638808D02*
X151558333Y-64591189D01*
X151558333Y-64591189D02*
X151510714Y-64495951D01*
X151510714Y-64495951D02*
X151510714Y-64305475D01*
X151510714Y-64305475D02*
X151558333Y-64210237D01*
X151558333Y-64210237D02*
X151653571Y-64162618D01*
X151653571Y-64162618D02*
X151748809Y-64162618D01*
X151748809Y-64162618D02*
X151844047Y-64638808D01*
X147936666Y-71597380D02*
X147936666Y-72311666D01*
X147936666Y-72311666D02*
X147889047Y-72454523D01*
X147889047Y-72454523D02*
X147793809Y-72549761D01*
X147793809Y-72549761D02*
X147650952Y-72597380D01*
X147650952Y-72597380D02*
X147555714Y-72597380D01*
X148841428Y-71930714D02*
X148841428Y-72597380D01*
X148603333Y-71549761D02*
X148365238Y-72264047D01*
X148365238Y-72264047D02*
X148984285Y-72264047D01*
%TO.C,J2*%
X141792380Y-106039761D02*
X141125714Y-105515952D01*
X141125714Y-106039761D02*
X141792380Y-105515952D01*
X140792380Y-104944523D02*
X140792380Y-104754047D01*
X140792380Y-104754047D02*
X140840000Y-104658809D01*
X140840000Y-104658809D02*
X140935238Y-104563571D01*
X140935238Y-104563571D02*
X141125714Y-104515952D01*
X141125714Y-104515952D02*
X141459047Y-104515952D01*
X141459047Y-104515952D02*
X141649523Y-104563571D01*
X141649523Y-104563571D02*
X141744761Y-104658809D01*
X141744761Y-104658809D02*
X141792380Y-104754047D01*
X141792380Y-104754047D02*
X141792380Y-104944523D01*
X141792380Y-104944523D02*
X141744761Y-105039761D01*
X141744761Y-105039761D02*
X141649523Y-105134999D01*
X141649523Y-105134999D02*
X141459047Y-105182618D01*
X141459047Y-105182618D02*
X141125714Y-105182618D01*
X141125714Y-105182618D02*
X140935238Y-105134999D01*
X140935238Y-105134999D02*
X140840000Y-105039761D01*
X140840000Y-105039761D02*
X140792380Y-104944523D01*
X141792380Y-103611190D02*
X141792380Y-104087380D01*
X141792380Y-104087380D02*
X140792380Y-104087380D01*
X141697142Y-102706428D02*
X141744761Y-102754047D01*
X141744761Y-102754047D02*
X141792380Y-102896904D01*
X141792380Y-102896904D02*
X141792380Y-102992142D01*
X141792380Y-102992142D02*
X141744761Y-103134999D01*
X141744761Y-103134999D02*
X141649523Y-103230237D01*
X141649523Y-103230237D02*
X141554285Y-103277856D01*
X141554285Y-103277856D02*
X141363809Y-103325475D01*
X141363809Y-103325475D02*
X141220952Y-103325475D01*
X141220952Y-103325475D02*
X141030476Y-103277856D01*
X141030476Y-103277856D02*
X140935238Y-103230237D01*
X140935238Y-103230237D02*
X140840000Y-103134999D01*
X140840000Y-103134999D02*
X140792380Y-102992142D01*
X140792380Y-102992142D02*
X140792380Y-102896904D01*
X140792380Y-102896904D02*
X140840000Y-102754047D01*
X140840000Y-102754047D02*
X140887619Y-102706428D01*
X141411428Y-102277856D02*
X141411428Y-101515952D01*
X141792380Y-100515952D02*
X141792380Y-101087380D01*
X141792380Y-100801666D02*
X140792380Y-100801666D01*
X140792380Y-100801666D02*
X140935238Y-100896904D01*
X140935238Y-100896904D02*
X141030476Y-100992142D01*
X141030476Y-100992142D02*
X141078095Y-101087380D01*
X141792380Y-99563571D02*
X141792380Y-100134999D01*
X141792380Y-99849285D02*
X140792380Y-99849285D01*
X140792380Y-99849285D02*
X140935238Y-99944523D01*
X140935238Y-99944523D02*
X141030476Y-100039761D01*
X141030476Y-100039761D02*
X141078095Y-100134999D01*
X140792380Y-98944523D02*
X140792380Y-98849285D01*
X140792380Y-98849285D02*
X140840000Y-98754047D01*
X140840000Y-98754047D02*
X140887619Y-98706428D01*
X140887619Y-98706428D02*
X140982857Y-98658809D01*
X140982857Y-98658809D02*
X141173333Y-98611190D01*
X141173333Y-98611190D02*
X141411428Y-98611190D01*
X141411428Y-98611190D02*
X141601904Y-98658809D01*
X141601904Y-98658809D02*
X141697142Y-98706428D01*
X141697142Y-98706428D02*
X141744761Y-98754047D01*
X141744761Y-98754047D02*
X141792380Y-98849285D01*
X141792380Y-98849285D02*
X141792380Y-98944523D01*
X141792380Y-98944523D02*
X141744761Y-99039761D01*
X141744761Y-99039761D02*
X141697142Y-99087380D01*
X141697142Y-99087380D02*
X141601904Y-99134999D01*
X141601904Y-99134999D02*
X141411428Y-99182618D01*
X141411428Y-99182618D02*
X141173333Y-99182618D01*
X141173333Y-99182618D02*
X140982857Y-99134999D01*
X140982857Y-99134999D02*
X140887619Y-99087380D01*
X140887619Y-99087380D02*
X140840000Y-99039761D01*
X140840000Y-99039761D02*
X140792380Y-98944523D01*
X141411428Y-98182618D02*
X141411428Y-97420714D01*
X140792380Y-96754047D02*
X140792380Y-96658809D01*
X140792380Y-96658809D02*
X140840000Y-96563571D01*
X140840000Y-96563571D02*
X140887619Y-96515952D01*
X140887619Y-96515952D02*
X140982857Y-96468333D01*
X140982857Y-96468333D02*
X141173333Y-96420714D01*
X141173333Y-96420714D02*
X141411428Y-96420714D01*
X141411428Y-96420714D02*
X141601904Y-96468333D01*
X141601904Y-96468333D02*
X141697142Y-96515952D01*
X141697142Y-96515952D02*
X141744761Y-96563571D01*
X141744761Y-96563571D02*
X141792380Y-96658809D01*
X141792380Y-96658809D02*
X141792380Y-96754047D01*
X141792380Y-96754047D02*
X141744761Y-96849285D01*
X141744761Y-96849285D02*
X141697142Y-96896904D01*
X141697142Y-96896904D02*
X141601904Y-96944523D01*
X141601904Y-96944523D02*
X141411428Y-96992142D01*
X141411428Y-96992142D02*
X141173333Y-96992142D01*
X141173333Y-96992142D02*
X140982857Y-96944523D01*
X140982857Y-96944523D02*
X140887619Y-96896904D01*
X140887619Y-96896904D02*
X140840000Y-96849285D01*
X140840000Y-96849285D02*
X140792380Y-96754047D01*
X141792380Y-95468333D02*
X141792380Y-96039761D01*
X141792380Y-95754047D02*
X140792380Y-95754047D01*
X140792380Y-95754047D02*
X140935238Y-95849285D01*
X140935238Y-95849285D02*
X141030476Y-95944523D01*
X141030476Y-95944523D02*
X141078095Y-96039761D01*
X141411428Y-95039761D02*
X141411428Y-94277857D01*
X141744761Y-93849285D02*
X141792380Y-93706428D01*
X141792380Y-93706428D02*
X141792380Y-93468333D01*
X141792380Y-93468333D02*
X141744761Y-93373095D01*
X141744761Y-93373095D02*
X141697142Y-93325476D01*
X141697142Y-93325476D02*
X141601904Y-93277857D01*
X141601904Y-93277857D02*
X141506666Y-93277857D01*
X141506666Y-93277857D02*
X141411428Y-93325476D01*
X141411428Y-93325476D02*
X141363809Y-93373095D01*
X141363809Y-93373095D02*
X141316190Y-93468333D01*
X141316190Y-93468333D02*
X141268571Y-93658809D01*
X141268571Y-93658809D02*
X141220952Y-93754047D01*
X141220952Y-93754047D02*
X141173333Y-93801666D01*
X141173333Y-93801666D02*
X141078095Y-93849285D01*
X141078095Y-93849285D02*
X140982857Y-93849285D01*
X140982857Y-93849285D02*
X140887619Y-93801666D01*
X140887619Y-93801666D02*
X140840000Y-93754047D01*
X140840000Y-93754047D02*
X140792380Y-93658809D01*
X140792380Y-93658809D02*
X140792380Y-93420714D01*
X140792380Y-93420714D02*
X140840000Y-93277857D01*
X141411428Y-92849285D02*
X141411428Y-92087381D01*
X141887619Y-90944524D02*
X141840000Y-91039762D01*
X141840000Y-91039762D02*
X141744761Y-91135000D01*
X141744761Y-91135000D02*
X141601904Y-91277857D01*
X141601904Y-91277857D02*
X141554285Y-91373095D01*
X141554285Y-91373095D02*
X141554285Y-91468333D01*
X141792380Y-91420714D02*
X141744761Y-91515952D01*
X141744761Y-91515952D02*
X141649523Y-91611190D01*
X141649523Y-91611190D02*
X141459047Y-91658809D01*
X141459047Y-91658809D02*
X141125714Y-91658809D01*
X141125714Y-91658809D02*
X140935238Y-91611190D01*
X140935238Y-91611190D02*
X140840000Y-91515952D01*
X140840000Y-91515952D02*
X140792380Y-91420714D01*
X140792380Y-91420714D02*
X140792380Y-91230238D01*
X140792380Y-91230238D02*
X140840000Y-91135000D01*
X140840000Y-91135000D02*
X140935238Y-91039762D01*
X140935238Y-91039762D02*
X141125714Y-90992143D01*
X141125714Y-90992143D02*
X141459047Y-90992143D01*
X141459047Y-90992143D02*
X141649523Y-91039762D01*
X141649523Y-91039762D02*
X141744761Y-91135000D01*
X141744761Y-91135000D02*
X141792380Y-91230238D01*
X141792380Y-91230238D02*
X141792380Y-91420714D01*
X141887619Y-90801667D02*
X141887619Y-90039762D01*
X141792380Y-89277857D02*
X141792380Y-89849285D01*
X141792380Y-89563571D02*
X140792380Y-89563571D01*
X140792380Y-89563571D02*
X140935238Y-89658809D01*
X140935238Y-89658809D02*
X141030476Y-89754047D01*
X141030476Y-89754047D02*
X141078095Y-89849285D01*
%TO.C,J1*%
X141792380Y-123039761D02*
X141125714Y-122515952D01*
X141125714Y-123039761D02*
X141792380Y-122515952D01*
X140792380Y-121944523D02*
X140792380Y-121754047D01*
X140792380Y-121754047D02*
X140840000Y-121658809D01*
X140840000Y-121658809D02*
X140935238Y-121563571D01*
X140935238Y-121563571D02*
X141125714Y-121515952D01*
X141125714Y-121515952D02*
X141459047Y-121515952D01*
X141459047Y-121515952D02*
X141649523Y-121563571D01*
X141649523Y-121563571D02*
X141744761Y-121658809D01*
X141744761Y-121658809D02*
X141792380Y-121754047D01*
X141792380Y-121754047D02*
X141792380Y-121944523D01*
X141792380Y-121944523D02*
X141744761Y-122039761D01*
X141744761Y-122039761D02*
X141649523Y-122134999D01*
X141649523Y-122134999D02*
X141459047Y-122182618D01*
X141459047Y-122182618D02*
X141125714Y-122182618D01*
X141125714Y-122182618D02*
X140935238Y-122134999D01*
X140935238Y-122134999D02*
X140840000Y-122039761D01*
X140840000Y-122039761D02*
X140792380Y-121944523D01*
X141792380Y-120611190D02*
X141792380Y-121087380D01*
X141792380Y-121087380D02*
X140792380Y-121087380D01*
X141697142Y-119706428D02*
X141744761Y-119754047D01*
X141744761Y-119754047D02*
X141792380Y-119896904D01*
X141792380Y-119896904D02*
X141792380Y-119992142D01*
X141792380Y-119992142D02*
X141744761Y-120134999D01*
X141744761Y-120134999D02*
X141649523Y-120230237D01*
X141649523Y-120230237D02*
X141554285Y-120277856D01*
X141554285Y-120277856D02*
X141363809Y-120325475D01*
X141363809Y-120325475D02*
X141220952Y-120325475D01*
X141220952Y-120325475D02*
X141030476Y-120277856D01*
X141030476Y-120277856D02*
X140935238Y-120230237D01*
X140935238Y-120230237D02*
X140840000Y-120134999D01*
X140840000Y-120134999D02*
X140792380Y-119992142D01*
X140792380Y-119992142D02*
X140792380Y-119896904D01*
X140792380Y-119896904D02*
X140840000Y-119754047D01*
X140840000Y-119754047D02*
X140887619Y-119706428D01*
X141411428Y-119277856D02*
X141411428Y-118515952D01*
X141792380Y-117515952D02*
X141792380Y-118087380D01*
X141792380Y-117801666D02*
X140792380Y-117801666D01*
X140792380Y-117801666D02*
X140935238Y-117896904D01*
X140935238Y-117896904D02*
X141030476Y-117992142D01*
X141030476Y-117992142D02*
X141078095Y-118087380D01*
X141792380Y-116563571D02*
X141792380Y-117134999D01*
X141792380Y-116849285D02*
X140792380Y-116849285D01*
X140792380Y-116849285D02*
X140935238Y-116944523D01*
X140935238Y-116944523D02*
X141030476Y-117039761D01*
X141030476Y-117039761D02*
X141078095Y-117134999D01*
X140792380Y-115944523D02*
X140792380Y-115849285D01*
X140792380Y-115849285D02*
X140840000Y-115754047D01*
X140840000Y-115754047D02*
X140887619Y-115706428D01*
X140887619Y-115706428D02*
X140982857Y-115658809D01*
X140982857Y-115658809D02*
X141173333Y-115611190D01*
X141173333Y-115611190D02*
X141411428Y-115611190D01*
X141411428Y-115611190D02*
X141601904Y-115658809D01*
X141601904Y-115658809D02*
X141697142Y-115706428D01*
X141697142Y-115706428D02*
X141744761Y-115754047D01*
X141744761Y-115754047D02*
X141792380Y-115849285D01*
X141792380Y-115849285D02*
X141792380Y-115944523D01*
X141792380Y-115944523D02*
X141744761Y-116039761D01*
X141744761Y-116039761D02*
X141697142Y-116087380D01*
X141697142Y-116087380D02*
X141601904Y-116134999D01*
X141601904Y-116134999D02*
X141411428Y-116182618D01*
X141411428Y-116182618D02*
X141173333Y-116182618D01*
X141173333Y-116182618D02*
X140982857Y-116134999D01*
X140982857Y-116134999D02*
X140887619Y-116087380D01*
X140887619Y-116087380D02*
X140840000Y-116039761D01*
X140840000Y-116039761D02*
X140792380Y-115944523D01*
X141411428Y-115182618D02*
X141411428Y-114420714D01*
X140792380Y-113754047D02*
X140792380Y-113658809D01*
X140792380Y-113658809D02*
X140840000Y-113563571D01*
X140840000Y-113563571D02*
X140887619Y-113515952D01*
X140887619Y-113515952D02*
X140982857Y-113468333D01*
X140982857Y-113468333D02*
X141173333Y-113420714D01*
X141173333Y-113420714D02*
X141411428Y-113420714D01*
X141411428Y-113420714D02*
X141601904Y-113468333D01*
X141601904Y-113468333D02*
X141697142Y-113515952D01*
X141697142Y-113515952D02*
X141744761Y-113563571D01*
X141744761Y-113563571D02*
X141792380Y-113658809D01*
X141792380Y-113658809D02*
X141792380Y-113754047D01*
X141792380Y-113754047D02*
X141744761Y-113849285D01*
X141744761Y-113849285D02*
X141697142Y-113896904D01*
X141697142Y-113896904D02*
X141601904Y-113944523D01*
X141601904Y-113944523D02*
X141411428Y-113992142D01*
X141411428Y-113992142D02*
X141173333Y-113992142D01*
X141173333Y-113992142D02*
X140982857Y-113944523D01*
X140982857Y-113944523D02*
X140887619Y-113896904D01*
X140887619Y-113896904D02*
X140840000Y-113849285D01*
X140840000Y-113849285D02*
X140792380Y-113754047D01*
X141792380Y-112468333D02*
X141792380Y-113039761D01*
X141792380Y-112754047D02*
X140792380Y-112754047D01*
X140792380Y-112754047D02*
X140935238Y-112849285D01*
X140935238Y-112849285D02*
X141030476Y-112944523D01*
X141030476Y-112944523D02*
X141078095Y-113039761D01*
X141411428Y-112039761D02*
X141411428Y-111277857D01*
X141744761Y-110849285D02*
X141792380Y-110706428D01*
X141792380Y-110706428D02*
X141792380Y-110468333D01*
X141792380Y-110468333D02*
X141744761Y-110373095D01*
X141744761Y-110373095D02*
X141697142Y-110325476D01*
X141697142Y-110325476D02*
X141601904Y-110277857D01*
X141601904Y-110277857D02*
X141506666Y-110277857D01*
X141506666Y-110277857D02*
X141411428Y-110325476D01*
X141411428Y-110325476D02*
X141363809Y-110373095D01*
X141363809Y-110373095D02*
X141316190Y-110468333D01*
X141316190Y-110468333D02*
X141268571Y-110658809D01*
X141268571Y-110658809D02*
X141220952Y-110754047D01*
X141220952Y-110754047D02*
X141173333Y-110801666D01*
X141173333Y-110801666D02*
X141078095Y-110849285D01*
X141078095Y-110849285D02*
X140982857Y-110849285D01*
X140982857Y-110849285D02*
X140887619Y-110801666D01*
X140887619Y-110801666D02*
X140840000Y-110754047D01*
X140840000Y-110754047D02*
X140792380Y-110658809D01*
X140792380Y-110658809D02*
X140792380Y-110420714D01*
X140792380Y-110420714D02*
X140840000Y-110277857D01*
X141411428Y-109849285D02*
X141411428Y-109087381D01*
X141887619Y-107944524D02*
X141840000Y-108039762D01*
X141840000Y-108039762D02*
X141744761Y-108135000D01*
X141744761Y-108135000D02*
X141601904Y-108277857D01*
X141601904Y-108277857D02*
X141554285Y-108373095D01*
X141554285Y-108373095D02*
X141554285Y-108468333D01*
X141792380Y-108420714D02*
X141744761Y-108515952D01*
X141744761Y-108515952D02*
X141649523Y-108611190D01*
X141649523Y-108611190D02*
X141459047Y-108658809D01*
X141459047Y-108658809D02*
X141125714Y-108658809D01*
X141125714Y-108658809D02*
X140935238Y-108611190D01*
X140935238Y-108611190D02*
X140840000Y-108515952D01*
X140840000Y-108515952D02*
X140792380Y-108420714D01*
X140792380Y-108420714D02*
X140792380Y-108230238D01*
X140792380Y-108230238D02*
X140840000Y-108135000D01*
X140840000Y-108135000D02*
X140935238Y-108039762D01*
X140935238Y-108039762D02*
X141125714Y-107992143D01*
X141125714Y-107992143D02*
X141459047Y-107992143D01*
X141459047Y-107992143D02*
X141649523Y-108039762D01*
X141649523Y-108039762D02*
X141744761Y-108135000D01*
X141744761Y-108135000D02*
X141792380Y-108230238D01*
X141792380Y-108230238D02*
X141792380Y-108420714D01*
X141887619Y-107801667D02*
X141887619Y-107039762D01*
X141792380Y-106277857D02*
X141792380Y-106849285D01*
X141792380Y-106563571D02*
X140792380Y-106563571D01*
X140792380Y-106563571D02*
X140935238Y-106658809D01*
X140935238Y-106658809D02*
X141030476Y-106754047D01*
X141030476Y-106754047D02*
X141078095Y-106849285D01*
%TO.C,J3*%
X129357141Y-84672142D02*
X129309522Y-84719761D01*
X129309522Y-84719761D02*
X129166665Y-84767380D01*
X129166665Y-84767380D02*
X129071427Y-84767380D01*
X129071427Y-84767380D02*
X128928570Y-84719761D01*
X128928570Y-84719761D02*
X128833332Y-84624523D01*
X128833332Y-84624523D02*
X128785713Y-84529285D01*
X128785713Y-84529285D02*
X128738094Y-84338809D01*
X128738094Y-84338809D02*
X128738094Y-84195952D01*
X128738094Y-84195952D02*
X128785713Y-84005476D01*
X128785713Y-84005476D02*
X128833332Y-83910238D01*
X128833332Y-83910238D02*
X128928570Y-83815000D01*
X128928570Y-83815000D02*
X129071427Y-83767380D01*
X129071427Y-83767380D02*
X129166665Y-83767380D01*
X129166665Y-83767380D02*
X129309522Y-83815000D01*
X129309522Y-83815000D02*
X129357141Y-83862619D01*
X129928570Y-84767380D02*
X129833332Y-84719761D01*
X129833332Y-84719761D02*
X129785713Y-84672142D01*
X129785713Y-84672142D02*
X129738094Y-84576904D01*
X129738094Y-84576904D02*
X129738094Y-84291190D01*
X129738094Y-84291190D02*
X129785713Y-84195952D01*
X129785713Y-84195952D02*
X129833332Y-84148333D01*
X129833332Y-84148333D02*
X129928570Y-84100714D01*
X129928570Y-84100714D02*
X130071427Y-84100714D01*
X130071427Y-84100714D02*
X130166665Y-84148333D01*
X130166665Y-84148333D02*
X130214284Y-84195952D01*
X130214284Y-84195952D02*
X130261903Y-84291190D01*
X130261903Y-84291190D02*
X130261903Y-84576904D01*
X130261903Y-84576904D02*
X130214284Y-84672142D01*
X130214284Y-84672142D02*
X130166665Y-84719761D01*
X130166665Y-84719761D02*
X130071427Y-84767380D01*
X130071427Y-84767380D02*
X129928570Y-84767380D01*
X130690475Y-84100714D02*
X130690475Y-84767380D01*
X130690475Y-84195952D02*
X130738094Y-84148333D01*
X130738094Y-84148333D02*
X130833332Y-84100714D01*
X130833332Y-84100714D02*
X130976189Y-84100714D01*
X130976189Y-84100714D02*
X131071427Y-84148333D01*
X131071427Y-84148333D02*
X131119046Y-84243571D01*
X131119046Y-84243571D02*
X131119046Y-84767380D01*
X131595237Y-84100714D02*
X131595237Y-84767380D01*
X131595237Y-84195952D02*
X131642856Y-84148333D01*
X131642856Y-84148333D02*
X131738094Y-84100714D01*
X131738094Y-84100714D02*
X131880951Y-84100714D01*
X131880951Y-84100714D02*
X131976189Y-84148333D01*
X131976189Y-84148333D02*
X132023808Y-84243571D01*
X132023808Y-84243571D02*
X132023808Y-84767380D01*
X132261904Y-84862619D02*
X133023808Y-84862619D01*
X133452380Y-83767380D02*
X133547618Y-83767380D01*
X133547618Y-83767380D02*
X133642856Y-83815000D01*
X133642856Y-83815000D02*
X133690475Y-83862619D01*
X133690475Y-83862619D02*
X133738094Y-83957857D01*
X133738094Y-83957857D02*
X133785713Y-84148333D01*
X133785713Y-84148333D02*
X133785713Y-84386428D01*
X133785713Y-84386428D02*
X133738094Y-84576904D01*
X133738094Y-84576904D02*
X133690475Y-84672142D01*
X133690475Y-84672142D02*
X133642856Y-84719761D01*
X133642856Y-84719761D02*
X133547618Y-84767380D01*
X133547618Y-84767380D02*
X133452380Y-84767380D01*
X133452380Y-84767380D02*
X133357142Y-84719761D01*
X133357142Y-84719761D02*
X133309523Y-84672142D01*
X133309523Y-84672142D02*
X133261904Y-84576904D01*
X133261904Y-84576904D02*
X133214285Y-84386428D01*
X133214285Y-84386428D02*
X133214285Y-84148333D01*
X133214285Y-84148333D02*
X133261904Y-83957857D01*
X133261904Y-83957857D02*
X133309523Y-83862619D01*
X133309523Y-83862619D02*
X133357142Y-83815000D01*
X133357142Y-83815000D02*
X133452380Y-83767380D01*
X134166666Y-83862619D02*
X134214285Y-83815000D01*
X134214285Y-83815000D02*
X134309523Y-83767380D01*
X134309523Y-83767380D02*
X134547618Y-83767380D01*
X134547618Y-83767380D02*
X134642856Y-83815000D01*
X134642856Y-83815000D02*
X134690475Y-83862619D01*
X134690475Y-83862619D02*
X134738094Y-83957857D01*
X134738094Y-83957857D02*
X134738094Y-84053095D01*
X134738094Y-84053095D02*
X134690475Y-84195952D01*
X134690475Y-84195952D02*
X134119047Y-84767380D01*
X134119047Y-84767380D02*
X134738094Y-84767380D01*
X135071428Y-84767380D02*
X135595237Y-84100714D01*
X135071428Y-84100714D02*
X135595237Y-84767380D01*
X135880952Y-83767380D02*
X136499999Y-83767380D01*
X136499999Y-83767380D02*
X136166666Y-84148333D01*
X136166666Y-84148333D02*
X136309523Y-84148333D01*
X136309523Y-84148333D02*
X136404761Y-84195952D01*
X136404761Y-84195952D02*
X136452380Y-84243571D01*
X136452380Y-84243571D02*
X136499999Y-84338809D01*
X136499999Y-84338809D02*
X136499999Y-84576904D01*
X136499999Y-84576904D02*
X136452380Y-84672142D01*
X136452380Y-84672142D02*
X136404761Y-84719761D01*
X136404761Y-84719761D02*
X136309523Y-84767380D01*
X136309523Y-84767380D02*
X136023809Y-84767380D01*
X136023809Y-84767380D02*
X135928571Y-84719761D01*
X135928571Y-84719761D02*
X135880952Y-84672142D01*
X137404761Y-83767380D02*
X136928571Y-83767380D01*
X136928571Y-83767380D02*
X136880952Y-84243571D01*
X136880952Y-84243571D02*
X136928571Y-84195952D01*
X136928571Y-84195952D02*
X137023809Y-84148333D01*
X137023809Y-84148333D02*
X137261904Y-84148333D01*
X137261904Y-84148333D02*
X137357142Y-84195952D01*
X137357142Y-84195952D02*
X137404761Y-84243571D01*
X137404761Y-84243571D02*
X137452380Y-84338809D01*
X137452380Y-84338809D02*
X137452380Y-84576904D01*
X137452380Y-84576904D02*
X137404761Y-84672142D01*
X137404761Y-84672142D02*
X137357142Y-84719761D01*
X137357142Y-84719761D02*
X137261904Y-84767380D01*
X137261904Y-84767380D02*
X137023809Y-84767380D01*
X137023809Y-84767380D02*
X136928571Y-84719761D01*
X136928571Y-84719761D02*
X136880952Y-84672142D01*
X137642857Y-84862619D02*
X138404761Y-84862619D01*
X138833333Y-83767380D02*
X139023809Y-83767380D01*
X139023809Y-83767380D02*
X139119047Y-83815000D01*
X139119047Y-83815000D02*
X139214285Y-83910238D01*
X139214285Y-83910238D02*
X139261904Y-84100714D01*
X139261904Y-84100714D02*
X139261904Y-84434047D01*
X139261904Y-84434047D02*
X139214285Y-84624523D01*
X139214285Y-84624523D02*
X139119047Y-84719761D01*
X139119047Y-84719761D02*
X139023809Y-84767380D01*
X139023809Y-84767380D02*
X138833333Y-84767380D01*
X138833333Y-84767380D02*
X138738095Y-84719761D01*
X138738095Y-84719761D02*
X138642857Y-84624523D01*
X138642857Y-84624523D02*
X138595238Y-84434047D01*
X138595238Y-84434047D02*
X138595238Y-84100714D01*
X138595238Y-84100714D02*
X138642857Y-83910238D01*
X138642857Y-83910238D02*
X138738095Y-83815000D01*
X138738095Y-83815000D02*
X138833333Y-83767380D01*
X140119047Y-84767380D02*
X140119047Y-83767380D01*
X140119047Y-84719761D02*
X140023809Y-84767380D01*
X140023809Y-84767380D02*
X139833333Y-84767380D01*
X139833333Y-84767380D02*
X139738095Y-84719761D01*
X139738095Y-84719761D02*
X139690476Y-84672142D01*
X139690476Y-84672142D02*
X139642857Y-84576904D01*
X139642857Y-84576904D02*
X139642857Y-84291190D01*
X139642857Y-84291190D02*
X139690476Y-84195952D01*
X139690476Y-84195952D02*
X139738095Y-84148333D01*
X139738095Y-84148333D02*
X139833333Y-84100714D01*
X139833333Y-84100714D02*
X140023809Y-84100714D01*
X140023809Y-84100714D02*
X140119047Y-84148333D01*
X141023809Y-84767380D02*
X141023809Y-83767380D01*
X141023809Y-84719761D02*
X140928571Y-84767380D01*
X140928571Y-84767380D02*
X140738095Y-84767380D01*
X140738095Y-84767380D02*
X140642857Y-84719761D01*
X140642857Y-84719761D02*
X140595238Y-84672142D01*
X140595238Y-84672142D02*
X140547619Y-84576904D01*
X140547619Y-84576904D02*
X140547619Y-84291190D01*
X140547619Y-84291190D02*
X140595238Y-84195952D01*
X140595238Y-84195952D02*
X140642857Y-84148333D01*
X140642857Y-84148333D02*
X140738095Y-84100714D01*
X140738095Y-84100714D02*
X140928571Y-84100714D01*
X140928571Y-84100714D02*
X141023809Y-84148333D01*
X141261905Y-84862619D02*
X142023809Y-84862619D01*
X142261905Y-84243571D02*
X142595238Y-84243571D01*
X142738095Y-84767380D02*
X142261905Y-84767380D01*
X142261905Y-84767380D02*
X142261905Y-83767380D01*
X142261905Y-83767380D02*
X142738095Y-83767380D01*
X143071429Y-84100714D02*
X143309524Y-84767380D01*
X143309524Y-84767380D02*
X143547619Y-84100714D01*
X144309524Y-84719761D02*
X144214286Y-84767380D01*
X144214286Y-84767380D02*
X144023810Y-84767380D01*
X144023810Y-84767380D02*
X143928572Y-84719761D01*
X143928572Y-84719761D02*
X143880953Y-84624523D01*
X143880953Y-84624523D02*
X143880953Y-84243571D01*
X143880953Y-84243571D02*
X143928572Y-84148333D01*
X143928572Y-84148333D02*
X144023810Y-84100714D01*
X144023810Y-84100714D02*
X144214286Y-84100714D01*
X144214286Y-84100714D02*
X144309524Y-84148333D01*
X144309524Y-84148333D02*
X144357143Y-84243571D01*
X144357143Y-84243571D02*
X144357143Y-84338809D01*
X144357143Y-84338809D02*
X143880953Y-84434047D01*
X144785715Y-84100714D02*
X144785715Y-84767380D01*
X144785715Y-84195952D02*
X144833334Y-84148333D01*
X144833334Y-84148333D02*
X144928572Y-84100714D01*
X144928572Y-84100714D02*
X145071429Y-84100714D01*
X145071429Y-84100714D02*
X145166667Y-84148333D01*
X145166667Y-84148333D02*
X145214286Y-84243571D01*
X145214286Y-84243571D02*
X145214286Y-84767380D01*
X136666666Y-77467380D02*
X136666666Y-78181666D01*
X136666666Y-78181666D02*
X136619047Y-78324523D01*
X136619047Y-78324523D02*
X136523809Y-78419761D01*
X136523809Y-78419761D02*
X136380952Y-78467380D01*
X136380952Y-78467380D02*
X136285714Y-78467380D01*
X137047619Y-77467380D02*
X137666666Y-77467380D01*
X137666666Y-77467380D02*
X137333333Y-77848333D01*
X137333333Y-77848333D02*
X137476190Y-77848333D01*
X137476190Y-77848333D02*
X137571428Y-77895952D01*
X137571428Y-77895952D02*
X137619047Y-77943571D01*
X137619047Y-77943571D02*
X137666666Y-78038809D01*
X137666666Y-78038809D02*
X137666666Y-78276904D01*
X137666666Y-78276904D02*
X137619047Y-78372142D01*
X137619047Y-78372142D02*
X137571428Y-78419761D01*
X137571428Y-78419761D02*
X137476190Y-78467380D01*
X137476190Y-78467380D02*
X137190476Y-78467380D01*
X137190476Y-78467380D02*
X137095238Y-78419761D01*
X137095238Y-78419761D02*
X137047619Y-78372142D01*
D11*
%TO.C,J4*%
X145730000Y-72865000D02*
X145730000Y-70960000D01*
X145730000Y-70960000D02*
X150810000Y-70960000D01*
X150810000Y-73500000D02*
X146365000Y-73500000D01*
X149220000Y-75320000D02*
X149220000Y-73500000D01*
X146680000Y-70960000D02*
X146680000Y-64960000D01*
X146365000Y-73500000D02*
X145730000Y-72865000D01*
X149220000Y-70960000D02*
X149220000Y-64960000D01*
X146680000Y-75320000D02*
X147320000Y-75320000D01*
X146680000Y-64960000D02*
X147320000Y-64960000D01*
X150810000Y-70960000D02*
X150810000Y-73500000D01*
X146680000Y-75320000D02*
X146680000Y-73500000D01*
X149860000Y-75320000D02*
X149860000Y-73500000D01*
X147320000Y-70960000D02*
X147320000Y-64960000D01*
X149220000Y-64960000D02*
X149860000Y-64960000D01*
X149220000Y-75320000D02*
X149860000Y-75320000D01*
X149860000Y-70960000D02*
X149860000Y-64960000D01*
X147320000Y-75320000D02*
X147320000Y-73500000D01*
%TO.C,J2*%
X134205000Y-110605000D02*
X134205000Y-98300000D01*
X138270000Y-97395000D02*
X138270000Y-96380000D01*
X135730000Y-110605000D02*
X135730000Y-111620000D01*
X135730000Y-110605000D02*
X134205000Y-110605000D01*
X139795000Y-110605000D02*
X138270000Y-110605000D01*
X138270000Y-96380000D02*
X135730000Y-96380000D01*
X139795000Y-97395000D02*
X138270000Y-97395000D01*
X138270000Y-111620000D02*
X135730000Y-111620000D01*
X138270000Y-110605000D02*
X138270000Y-111620000D01*
X139795000Y-97395000D02*
X139795000Y-110605000D01*
X135730000Y-97395000D02*
X135730000Y-96380000D01*
%TO.C,J1*%
X135730000Y-127605000D02*
X135730000Y-128620000D01*
X139795000Y-127605000D02*
X138270000Y-127605000D01*
X138270000Y-127605000D02*
X138270000Y-128620000D01*
X134205000Y-127605000D02*
X134205000Y-115300000D01*
X138270000Y-114395000D02*
X138270000Y-113380000D01*
X139795000Y-114395000D02*
X139795000Y-127605000D01*
X135730000Y-114395000D02*
X135730000Y-113380000D01*
X139795000Y-114395000D02*
X138270000Y-114395000D01*
X138270000Y-128620000D02*
X135730000Y-128620000D01*
X138270000Y-113380000D02*
X135730000Y-113380000D01*
X135730000Y-127605000D02*
X134205000Y-127605000D01*
%TD*%
M02*
