%TF.GenerationSoftware,KiCad,Pcbnew,(6.0.0)*%
%TF.CreationDate,2022-09-09T09:06:15-04:00*%
%TF.ProjectId,eib-neuronexus-a64,6569622d-6e65-4757-926f-6e657875732d,A*%
%TF.SameCoordinates,Original*%
%TF.FileFunction,Copper,L1,Top*%
%TF.FilePolarity,Positive*%
%FSLAX46Y46*%
G04 Gerber Fmt 4.6, Leading zero omitted, Abs format (unit mm)*
G04 Created by KiCad (PCBNEW (6.0.0)) date 2022-09-09 09:06:15*
%MOMM*%
%LPD*%
G01*
G04 APERTURE LIST*
G04 Aperture macros list*
%AMRoundRect*
0 Rectangle with rounded corners*
0 $1 Rounding radius*
0 $2 $3 $4 $5 $6 $7 $8 $9 X,Y pos of 4 corners*
0 Add a 4 corners polygon primitive as box body*
4,1,4,$2,$3,$4,$5,$6,$7,$8,$9,$2,$3,0*
0 Add four circle primitives for the rounded corners*
1,1,$1+$1,$2,$3*
1,1,$1+$1,$4,$5*
1,1,$1+$1,$6,$7*
1,1,$1+$1,$8,$9*
0 Add four rect primitives between the rounded corners*
20,1,$1+$1,$2,$3,$4,$5,0*
20,1,$1+$1,$4,$5,$6,$7,0*
20,1,$1+$1,$6,$7,$8,$9,0*
20,1,$1+$1,$8,$9,$2,$3,0*%
G04 Aperture macros list end*
%TA.AperFunction,EtchedComponent*%
%ADD10C,0.180000*%
%TD*%
%TA.AperFunction,EtchedComponent*%
%ADD11C,0.275000*%
%TD*%
%TA.AperFunction,ComponentPad*%
%ADD12R,1.700000X1.700000*%
%TD*%
%TA.AperFunction,ComponentPad*%
%ADD13O,1.700000X1.700000*%
%TD*%
%TA.AperFunction,ComponentPad*%
%ADD14R,0.910000X0.910000*%
%TD*%
%TA.AperFunction,ComponentPad*%
%ADD15C,0.910000*%
%TD*%
%TA.AperFunction,SMDPad,CuDef*%
%ADD16RoundRect,0.010000X0.090000X0.340000X-0.090000X0.340000X-0.090000X-0.340000X0.090000X-0.340000X0*%
%TD*%
%TA.AperFunction,ViaPad*%
%ADD17C,0.400000*%
%TD*%
%TA.AperFunction,Conductor*%
%ADD18C,0.120000*%
%TD*%
G04 APERTURE END LIST*
D10*
%TO.C,*%
X113455000Y-91828750D02*
X113785000Y-92788750D01*
X114745000Y-92638750D02*
X114745000Y-92588750D01*
X114305000Y-92118750D02*
X114315000Y-92168750D01*
X114305000Y-92068750D02*
X114305000Y-92118750D01*
X109905000Y-91918750D02*
X109905000Y-92798750D01*
D11*
X111665000Y-91258750D02*
X111965000Y-90258750D01*
D10*
X113505000Y-93318750D02*
X113455000Y-93318750D01*
X114735000Y-92538750D02*
X114645000Y-92448750D01*
D11*
X108565000Y-89958750D02*
X109865000Y-88758750D01*
D10*
X111165000Y-92358750D02*
X111585000Y-92358750D01*
X108575000Y-91918750D02*
X108275000Y-91918750D01*
X108275000Y-91918750D02*
X108275000Y-92798750D01*
X110205000Y-91918750D02*
X109905000Y-91918750D01*
X110385000Y-92798750D02*
X110385000Y-92098750D01*
X113595000Y-93298750D02*
X113505000Y-93318750D01*
X114345000Y-92778750D02*
X114325000Y-92748750D01*
D11*
X111665000Y-91258750D02*
X108565000Y-89958750D01*
D10*
X108755000Y-92618750D02*
X108755000Y-92098750D01*
X111105000Y-92098750D02*
X111105000Y-92618750D01*
X111585000Y-92118750D02*
X111585000Y-92358750D01*
X114705000Y-91928750D02*
X114725000Y-91958750D01*
X107945000Y-92618750D02*
X107945000Y-92098750D01*
X114445000Y-92828750D02*
X114565000Y-92828750D01*
X111905000Y-92808750D02*
X111905000Y-93328750D01*
X113235000Y-92798750D02*
X113225000Y-92098750D01*
X111905000Y-91918750D02*
X111905000Y-92798750D01*
X112385000Y-92618750D02*
X112385000Y-92098750D01*
D11*
X111065000Y-88058750D02*
X111965000Y-90258750D01*
D10*
X114315000Y-92168750D02*
X114355000Y-92228750D01*
X114325000Y-92748750D02*
X114325000Y-92728750D01*
X112745000Y-92788750D02*
X112745000Y-91368750D01*
X114645000Y-92448750D02*
X114485000Y-92328750D01*
X114655000Y-91898750D02*
X114705000Y-91928750D01*
X107645000Y-92798750D02*
X107765000Y-92798750D01*
X107465000Y-92098750D02*
X107465000Y-92618750D01*
X114355000Y-92228750D02*
X114515000Y-92348750D01*
X114745000Y-92588750D02*
X114735000Y-92538750D01*
X114725000Y-91958750D02*
X114725000Y-91978750D01*
X109145000Y-92358750D02*
X109565000Y-92358750D01*
X114395000Y-92808750D02*
X114345000Y-92778750D01*
X108275000Y-92808750D02*
X108275000Y-93328750D01*
X114435000Y-92828750D02*
X114395000Y-92808750D01*
X109385000Y-91918750D02*
X109265000Y-91918750D01*
X109565000Y-92118750D02*
X109565000Y-92358750D01*
X111405000Y-91918750D02*
X111285000Y-91918750D01*
X114095000Y-91828750D02*
X113675000Y-93178750D01*
X112205000Y-91918750D02*
X111905000Y-91918750D01*
X113045000Y-91918750D02*
X112815000Y-91918750D01*
X111285000Y-92798750D02*
X111465000Y-92798750D01*
X114605000Y-91878750D02*
X114485000Y-91878750D01*
X113665000Y-93198750D02*
X113595000Y-93298750D01*
X109265000Y-92798750D02*
X109445000Y-92798750D01*
X111905000Y-92798750D02*
X112205000Y-92798750D01*
X108275000Y-92798750D02*
X108575000Y-92798750D01*
X114615000Y-91878750D02*
X114655000Y-91898750D01*
D11*
X109865000Y-88758750D02*
X111665000Y-91258750D01*
D10*
X109085000Y-92098750D02*
X109085000Y-92618750D01*
D11*
X108565000Y-89958750D02*
X111965000Y-90258750D01*
D10*
X107765000Y-91918750D02*
X107645000Y-91918750D01*
D11*
X111665000Y-91258750D02*
X111065000Y-88058750D01*
X111965000Y-90258750D02*
X109865000Y-88758750D01*
D10*
X112385000Y-92098750D02*
G75*
G03*
X112205000Y-91918750I-180001J-1D01*
G01*
X108575000Y-92798750D02*
G75*
G03*
X108755000Y-92618750I-1J180001D01*
G01*
X112205000Y-92798750D02*
G75*
G03*
X112385000Y-92618750I-1J180001D01*
G01*
X109565000Y-92098750D02*
G75*
G03*
X109385000Y-91918750I-180001J-1D01*
G01*
X107645000Y-91918750D02*
G75*
G03*
X107465000Y-92098750I1J-180001D01*
G01*
X110385000Y-92098750D02*
G75*
G03*
X110205000Y-91918750I-180001J-1D01*
G01*
X107465000Y-92618750D02*
G75*
G03*
X107645000Y-92798750I180001J1D01*
G01*
X107945000Y-92098750D02*
G75*
G03*
X107765000Y-91918750I-180001J-1D01*
G01*
X114565000Y-92828750D02*
G75*
G03*
X114745000Y-92648750I-1J180001D01*
G01*
X107765000Y-92798750D02*
G75*
G03*
X107945000Y-92618750I-1J180001D01*
G01*
X114485000Y-91878750D02*
G75*
G03*
X114305000Y-92058750I1J-180001D01*
G01*
X111285000Y-91918750D02*
G75*
G03*
X111105000Y-92098750I1J-180001D01*
G01*
X109085000Y-92618750D02*
G75*
G03*
X109265000Y-92798750I180001J1D01*
G01*
X109265000Y-91918750D02*
G75*
G03*
X109085000Y-92098750I1J-180001D01*
G01*
X111105000Y-92618750D02*
G75*
G03*
X111285000Y-92798750I180001J1D01*
G01*
X113225000Y-92098750D02*
G75*
G03*
X113045000Y-91918750I-180001J-1D01*
G01*
X109445000Y-92798750D02*
G75*
G03*
X109515000Y-92728750I-2J70002D01*
G01*
X111585000Y-92098750D02*
G75*
G03*
X111405000Y-91918750I-180001J-1D01*
G01*
X108755000Y-92098750D02*
G75*
G03*
X108575000Y-91918750I-180001J-1D01*
G01*
X111465000Y-92798750D02*
G75*
G03*
X111535000Y-92728750I-2J70002D01*
G01*
%TD*%
D12*
%TO.P,J4,1,Pin_1*%
%TO.N,GND*%
X147000000Y-75000000D03*
D13*
%TO.P,J4,2,Pin_2*%
%TO.N,/Ref*%
X149540000Y-75000000D03*
%TD*%
D14*
%TO.P,J2,A1,A1*%
%TO.N,/Elec32*%
X135095000Y-98285000D03*
D15*
%TO.P,J2,A2,A2*%
%TO.N,/Elec33*%
X135095000Y-99555000D03*
%TO.P,J2,A3,A3*%
%TO.N,/Elec34*%
X135095000Y-100825000D03*
%TO.P,J2,A4,A4*%
%TO.N,/Elec35*%
X135095000Y-102095000D03*
%TO.P,J2,A5,A5*%
%TO.N,/Elec36*%
X135095000Y-103365000D03*
%TO.P,J2,A6,A6*%
%TO.N,/Elec38*%
X135095000Y-104635000D03*
%TO.P,J2,A7,A7*%
%TO.N,/Elec40*%
X135095000Y-105905000D03*
%TO.P,J2,A8,A8*%
%TO.N,/Elec42*%
X135095000Y-107175000D03*
%TO.P,J2,A9,A9*%
%TO.N,/Elec44*%
X135095000Y-108445000D03*
%TO.P,J2,A10,A10*%
%TO.N,/Elec46*%
X135095000Y-109715000D03*
%TO.P,J2,B1,B1*%
%TO.N,GND*%
X136365000Y-98285000D03*
%TO.P,J2,B2,B2*%
%TO.N,/Ref*%
X136365000Y-99555000D03*
%TO.P,J2,B3,B3*%
%TO.N,unconnected-(J2-PadB3)*%
X136365000Y-100825000D03*
%TO.P,J2,B4,B4*%
%TO.N,unconnected-(J2-PadB4)*%
X136365000Y-102095000D03*
%TO.P,J2,B5,B5*%
%TO.N,/Elec37*%
X136365000Y-103365000D03*
%TO.P,J2,B6,B6*%
%TO.N,/Elec39*%
X136365000Y-104635000D03*
%TO.P,J2,B7,B7*%
%TO.N,/Elec41*%
X136365000Y-105905000D03*
%TO.P,J2,B8,B8*%
%TO.N,/Elec43*%
X136365000Y-107175000D03*
%TO.P,J2,B9,B9*%
%TO.N,/Elec45*%
X136365000Y-108445000D03*
%TO.P,J2,B10,B10*%
%TO.N,/Elec47*%
X136365000Y-109715000D03*
%TO.P,J2,C1,C1*%
%TO.N,GND*%
X137635000Y-98285000D03*
%TO.P,J2,C2,C2*%
%TO.N,/Ref*%
X137635000Y-99555000D03*
%TO.P,J2,C3,C3*%
%TO.N,unconnected-(J2-PadC3)*%
X137635000Y-100825000D03*
%TO.P,J2,C4,C4*%
%TO.N,unconnected-(J2-PadC4)*%
X137635000Y-102095000D03*
%TO.P,J2,C5,C5*%
%TO.N,/Elec26*%
X137635000Y-103365000D03*
%TO.P,J2,C6,C6*%
%TO.N,/Elec24*%
X137635000Y-104635000D03*
%TO.P,J2,C7,C7*%
%TO.N,/Elec22*%
X137635000Y-105905000D03*
%TO.P,J2,C8,C8*%
%TO.N,/Elec20*%
X137635000Y-107175000D03*
%TO.P,J2,C9,C9*%
%TO.N,/Elec18*%
X137635000Y-108445000D03*
%TO.P,J2,C10,C10*%
%TO.N,/Elec16*%
X137635000Y-109715000D03*
%TO.P,J2,D1,D1*%
%TO.N,/Elec31*%
X138905000Y-98285000D03*
%TO.P,J2,D2,D2*%
%TO.N,/Elec30*%
X138905000Y-99555000D03*
%TO.P,J2,D3,D3*%
%TO.N,/Elec29*%
X138905000Y-100825000D03*
%TO.P,J2,D4,D4*%
%TO.N,/Elec28*%
X138905000Y-102095000D03*
%TO.P,J2,D5,D5*%
%TO.N,/Elec27*%
X138905000Y-103365000D03*
%TO.P,J2,D6,D6*%
%TO.N,/Elec25*%
X138905000Y-104635000D03*
%TO.P,J2,D7,D7*%
%TO.N,/Elec23*%
X138905000Y-105905000D03*
%TO.P,J2,D8,D8*%
%TO.N,/Elec21*%
X138905000Y-107175000D03*
%TO.P,J2,D9,D9*%
%TO.N,/Elec19*%
X138905000Y-108445000D03*
%TO.P,J2,D10,D10*%
%TO.N,/Elec17*%
X138905000Y-109715000D03*
%TD*%
D14*
%TO.P,J1,A1,A1*%
%TO.N,/Elec48*%
X135095000Y-115285000D03*
D15*
%TO.P,J1,A2,A2*%
%TO.N,/Elec49*%
X135095000Y-116555000D03*
%TO.P,J1,A3,A3*%
%TO.N,/Elec50*%
X135095000Y-117825000D03*
%TO.P,J1,A4,A4*%
%TO.N,/Elec51*%
X135095000Y-119095000D03*
%TO.P,J1,A5,A5*%
%TO.N,/Elec52*%
X135095000Y-120365000D03*
%TO.P,J1,A6,A6*%
%TO.N,/Elec54*%
X135095000Y-121635000D03*
%TO.P,J1,A7,A7*%
%TO.N,/Elec56*%
X135095000Y-122905000D03*
%TO.P,J1,A8,A8*%
%TO.N,/Elec58*%
X135095000Y-124175000D03*
%TO.P,J1,A9,A9*%
%TO.N,/Elec60*%
X135095000Y-125445000D03*
%TO.P,J1,A10,A10*%
%TO.N,/Elec62*%
X135095000Y-126715000D03*
%TO.P,J1,B1,B1*%
%TO.N,GND*%
X136365000Y-115285000D03*
%TO.P,J1,B2,B2*%
%TO.N,/Ref*%
X136365000Y-116555000D03*
%TO.P,J1,B3,B3*%
%TO.N,unconnected-(J1-PadB3)*%
X136365000Y-117825000D03*
%TO.P,J1,B4,B4*%
%TO.N,unconnected-(J1-PadB4)*%
X136365000Y-119095000D03*
%TO.P,J1,B5,B5*%
%TO.N,/Elec53*%
X136365000Y-120365000D03*
%TO.P,J1,B6,B6*%
%TO.N,/Elec55*%
X136365000Y-121635000D03*
%TO.P,J1,B7,B7*%
%TO.N,/Elec57*%
X136365000Y-122905000D03*
%TO.P,J1,B8,B8*%
%TO.N,/Elec59*%
X136365000Y-124175000D03*
%TO.P,J1,B9,B9*%
%TO.N,/Elec61*%
X136365000Y-125445000D03*
%TO.P,J1,B10,B10*%
%TO.N,/Elec63*%
X136365000Y-126715000D03*
%TO.P,J1,C1,C1*%
%TO.N,GND*%
X137635000Y-115285000D03*
%TO.P,J1,C2,C2*%
%TO.N,/Ref*%
X137635000Y-116555000D03*
%TO.P,J1,C3,C3*%
%TO.N,unconnected-(J1-PadC3)*%
X137635000Y-117825000D03*
%TO.P,J1,C4,C4*%
%TO.N,unconnected-(J1-PadC4)*%
X137635000Y-119095000D03*
%TO.P,J1,C5,C5*%
%TO.N,/Elec10*%
X137635000Y-120365000D03*
%TO.P,J1,C6,C6*%
%TO.N,/Elec8*%
X137635000Y-121635000D03*
%TO.P,J1,C7,C7*%
%TO.N,/Elec6*%
X137635000Y-122905000D03*
%TO.P,J1,C8,C8*%
%TO.N,/Elec4*%
X137635000Y-124175000D03*
%TO.P,J1,C9,C9*%
%TO.N,/Elec2*%
X137635000Y-125445000D03*
%TO.P,J1,C10,C10*%
%TO.N,/Elec0*%
X137635000Y-126715000D03*
%TO.P,J1,D1,D1*%
%TO.N,/Elec15*%
X138905000Y-115285000D03*
%TO.P,J1,D2,D2*%
%TO.N,/Elec14*%
X138905000Y-116555000D03*
%TO.P,J1,D3,D3*%
%TO.N,/Elec13*%
X138905000Y-117825000D03*
%TO.P,J1,D4,D4*%
%TO.N,/Elec12*%
X138905000Y-119095000D03*
%TO.P,J1,D5,D5*%
%TO.N,/Elec11*%
X138905000Y-120365000D03*
%TO.P,J1,D6,D6*%
%TO.N,/Elec9*%
X138905000Y-121635000D03*
%TO.P,J1,D7,D7*%
%TO.N,/Elec7*%
X138905000Y-122905000D03*
%TO.P,J1,D8,D8*%
%TO.N,/Elec5*%
X138905000Y-124175000D03*
%TO.P,J1,D9,D9*%
%TO.N,/Elec3*%
X138905000Y-125445000D03*
%TO.P,J1,D10,D10*%
%TO.N,/Elec1*%
X138905000Y-126715000D03*
%TD*%
D16*
%TO.P,J3,1,Pin_1*%
%TO.N,unconnected-(J3-Pad1)*%
X143800000Y-82540000D03*
%TO.P,J3,2,Pin_2*%
%TO.N,/Ref*%
X143800000Y-79460000D03*
%TO.P,J3,3,Pin_3*%
%TO.N,/Elec16*%
X143400000Y-82540000D03*
%TO.P,J3,4,Pin_4*%
%TO.N,/Elec0*%
X143400000Y-79460000D03*
%TO.P,J3,5,Pin_5*%
%TO.N,/Elec17*%
X143000000Y-82540000D03*
%TO.P,J3,6,Pin_6*%
%TO.N,/Elec1*%
X143000000Y-79460000D03*
%TO.P,J3,7,Pin_7*%
%TO.N,/Elec18*%
X142600000Y-82540000D03*
%TO.P,J3,8,Pin_8*%
%TO.N,/Elec2*%
X142600000Y-79460000D03*
%TO.P,J3,9,Pin_9*%
%TO.N,/Elec19*%
X142200000Y-82540000D03*
%TO.P,J3,10,Pin_10*%
%TO.N,/Elec3*%
X142200000Y-79460000D03*
%TO.P,J3,11,Pin_11*%
%TO.N,/Elec20*%
X141800000Y-82540000D03*
%TO.P,J3,12,Pin_12*%
%TO.N,/Elec4*%
X141800000Y-79460000D03*
%TO.P,J3,13,Pin_13*%
%TO.N,/Elec21*%
X141400000Y-82540000D03*
%TO.P,J3,14,Pin_14*%
%TO.N,/Elec5*%
X141400000Y-79460000D03*
%TO.P,J3,15,Pin_15*%
%TO.N,/Elec22*%
X141000000Y-82540000D03*
%TO.P,J3,16,Pin_16*%
%TO.N,/Elec6*%
X141000000Y-79460000D03*
%TO.P,J3,17,Pin_17*%
%TO.N,/Elec23*%
X140600000Y-82540000D03*
%TO.P,J3,18,Pin_18*%
%TO.N,/Elec7*%
X140600000Y-79460000D03*
%TO.P,J3,19,Pin_19*%
%TO.N,/Elec24*%
X140200000Y-82540000D03*
%TO.P,J3,20,Pin_20*%
%TO.N,/Elec8*%
X140200000Y-79460000D03*
%TO.P,J3,21,Pin_21*%
%TO.N,/Elec25*%
X139800000Y-82540000D03*
%TO.P,J3,22,Pin_22*%
%TO.N,/Elec9*%
X139800000Y-79460000D03*
%TO.P,J3,23,Pin_23*%
%TO.N,/Elec26*%
X139400000Y-82540000D03*
%TO.P,J3,24,Pin_24*%
%TO.N,/Elec10*%
X139400000Y-79460000D03*
%TO.P,J3,25,Pin_25*%
%TO.N,/Elec27*%
X139000000Y-82540000D03*
%TO.P,J3,26,Pin_26*%
%TO.N,/Elec11*%
X139000000Y-79460000D03*
%TO.P,J3,27,Pin_27*%
%TO.N,/Elec28*%
X138600000Y-82540000D03*
%TO.P,J3,28,Pin_28*%
%TO.N,/Elec12*%
X138600000Y-79460000D03*
%TO.P,J3,29,Pin_29*%
%TO.N,/Elec29*%
X138200000Y-82540000D03*
%TO.P,J3,30,Pin_30*%
%TO.N,/Elec13*%
X138200000Y-79460000D03*
%TO.P,J3,31,Pin_31*%
%TO.N,/Elec30*%
X137800000Y-82540000D03*
%TO.P,J3,32,Pin_32*%
%TO.N,/Elec14*%
X137800000Y-79460000D03*
%TO.P,J3,33,Pin_33*%
%TO.N,/Elec31*%
X137400000Y-82540000D03*
%TO.P,J3,34,Pin_34*%
%TO.N,/Elec15*%
X137400000Y-79460000D03*
%TO.P,J3,35,Pin_35*%
%TO.N,/Elec32*%
X137000000Y-82540000D03*
%TO.P,J3,36,Pin_36*%
%TO.N,/Elec48*%
X137000000Y-79460000D03*
%TO.P,J3,37,Pin_37*%
%TO.N,/Elec33*%
X136600000Y-82540000D03*
%TO.P,J3,38,Pin_38*%
%TO.N,/Elec49*%
X136600000Y-79460000D03*
%TO.P,J3,39,Pin_39*%
%TO.N,/Elec34*%
X136200000Y-82540000D03*
%TO.P,J3,40,Pin_40*%
%TO.N,/Elec50*%
X136200000Y-79460000D03*
%TO.P,J3,41,Pin_41*%
%TO.N,/Elec35*%
X135800000Y-82540000D03*
%TO.P,J3,42,Pin_42*%
%TO.N,/Elec51*%
X135800000Y-79460000D03*
%TO.P,J3,43,Pin_43*%
%TO.N,/Elec36*%
X135400000Y-82540000D03*
%TO.P,J3,44,Pin_44*%
%TO.N,/Elec52*%
X135400000Y-79460000D03*
%TO.P,J3,45,Pin_45*%
%TO.N,/Elec37*%
X135000000Y-82540000D03*
%TO.P,J3,46,Pin_46*%
%TO.N,/Elec53*%
X135000000Y-79460000D03*
%TO.P,J3,47,Pin_47*%
%TO.N,/Elec38*%
X134600000Y-82540000D03*
%TO.P,J3,48,Pin_48*%
%TO.N,/Elec54*%
X134600000Y-79460000D03*
%TO.P,J3,49,Pin_49*%
%TO.N,/Elec39*%
X134200000Y-82540000D03*
%TO.P,J3,50,Pin_50*%
%TO.N,/Elec55*%
X134200000Y-79460000D03*
%TO.P,J3,51,Pin_51*%
%TO.N,/Elec40*%
X133800000Y-82540000D03*
%TO.P,J3,52,Pin_52*%
%TO.N,/Elec56*%
X133800000Y-79460000D03*
%TO.P,J3,53,Pin_53*%
%TO.N,/Elec41*%
X133400000Y-82540000D03*
%TO.P,J3,54,Pin_54*%
%TO.N,/Elec57*%
X133400000Y-79460000D03*
%TO.P,J3,55,Pin_55*%
%TO.N,/Elec42*%
X133000000Y-82540000D03*
%TO.P,J3,56,Pin_56*%
%TO.N,/Elec58*%
X133000000Y-79460000D03*
%TO.P,J3,57,Pin_57*%
%TO.N,/Elec43*%
X132600000Y-82540000D03*
%TO.P,J3,58,Pin_58*%
%TO.N,/Elec59*%
X132600000Y-79460000D03*
%TO.P,J3,59,Pin_59*%
%TO.N,/Elec44*%
X132200000Y-82540000D03*
%TO.P,J3,60,Pin_60*%
%TO.N,/Elec60*%
X132200000Y-79460000D03*
%TO.P,J3,61,Pin_61*%
%TO.N,/Elec45*%
X131800000Y-82540000D03*
%TO.P,J3,62,Pin_62*%
%TO.N,/Elec61*%
X131800000Y-79460000D03*
%TO.P,J3,63,Pin_63*%
%TO.N,/Elec46*%
X131400000Y-82540000D03*
%TO.P,J3,64,Pin_64*%
%TO.N,/Elec62*%
X131400000Y-79460000D03*
%TO.P,J3,65,Pin_65*%
%TO.N,/Elec47*%
X131000000Y-82540000D03*
%TO.P,J3,66,Pin_66*%
%TO.N,/Elec63*%
X131000000Y-79460000D03*
%TO.P,J3,67,Pin_67*%
%TO.N,unconnected-(J3-Pad67)*%
X130600000Y-82540000D03*
%TO.P,J3,68,Pin_68*%
%TO.N,GND*%
X130600000Y-79460000D03*
%TO.P,J3,69,Pin_69*%
%TO.N,unconnected-(J3-Pad69)*%
X130200000Y-82540000D03*
%TO.P,J3,70,Pin_70*%
%TO.N,unconnected-(J3-Pad70)*%
X130200000Y-79460000D03*
%TD*%
D17*
%TO.N,/Ref*%
X138300000Y-112700000D03*
%TO.N,/Elec0*%
X144450000Y-76600000D03*
%TO.N,/Elec1*%
X143950000Y-77200000D03*
%TO.N,/Elec2*%
X143450000Y-76600000D03*
%TO.N,/Elec3*%
X142950000Y-77200000D03*
%TO.N,/Elec4*%
X142500000Y-76600000D03*
%TO.N,/Elec5*%
X142050000Y-77200000D03*
%TO.N,/Elec6*%
X141600000Y-76600000D03*
%TO.N,/Elec7*%
X141100000Y-77200000D03*
%TO.N,/Elec8*%
X140600000Y-76600000D03*
%TO.N,/Elec9*%
X140250000Y-77250000D03*
%TO.N,/Elec10*%
X139750000Y-76600000D03*
%TO.N,/Elec11*%
X139250000Y-77200000D03*
%TO.N,/Elec12*%
X138750000Y-76600000D03*
%TO.N,/Elec13*%
X138400000Y-77250000D03*
%TO.N,/Elec14*%
X137900000Y-76600000D03*
%TO.N,/Elec15*%
X137450000Y-77200000D03*
%TO.N,/Elec48*%
X137005000Y-76600000D03*
%TO.N,/Elec49*%
X136505000Y-77200000D03*
%TO.N,/Elec50*%
X136055000Y-76700000D03*
%TO.N,/Elec51*%
X135605000Y-77200000D03*
%TO.N,/Elec52*%
X135105000Y-76700000D03*
%TO.N,/Elec53*%
X134655000Y-77200000D03*
%TO.N,/Elec54*%
X134205000Y-76700000D03*
%TO.N,/Elec55*%
X133755000Y-77200000D03*
%TO.N,/Elec56*%
X133305000Y-76700000D03*
%TO.N,/Elec57*%
X132850000Y-77250000D03*
%TO.N,/Elec58*%
X132400000Y-76700000D03*
%TO.N,/Elec59*%
X131950000Y-77250000D03*
%TO.N,/Elec60*%
X131450000Y-76700000D03*
%TO.N,/Elec61*%
X131000000Y-77250000D03*
%TO.N,/Elec62*%
X130500000Y-76700000D03*
%TO.N,/Elec63*%
X130050000Y-77250000D03*
%TO.N,GND*%
X137000000Y-128000000D03*
X137000000Y-81000000D03*
X126000000Y-73000000D03*
X137000000Y-90000000D03*
X137000000Y-93000000D03*
X149000000Y-115000000D03*
X137000000Y-95000000D03*
X122000000Y-96000000D03*
X136000000Y-113000000D03*
X137000000Y-111000000D03*
X150000000Y-86000000D03*
X126000000Y-115000000D03*
X107000000Y-95500000D03*
X119500000Y-85500000D03*
X125000000Y-101000000D03*
X107000000Y-86000000D03*
X149000000Y-99000000D03*
X137000000Y-73000000D03*
X125000000Y-83000000D03*
%TD*%
D18*
%TO.N,/Ref*%
X146100000Y-106550000D02*
X146100000Y-85000000D01*
X136365000Y-116555000D02*
X137635000Y-116555000D01*
X147290000Y-79460000D02*
X149540000Y-77210000D01*
X143800000Y-79460000D02*
X145290000Y-79460000D01*
X137635000Y-99555000D02*
X136365000Y-99555000D01*
X145290000Y-79460000D02*
X147290000Y-79460000D01*
X138300000Y-112700000D02*
X139950000Y-112700000D01*
X145350000Y-79520000D02*
X145350000Y-84250000D01*
X139950000Y-112700000D02*
X146100000Y-106550000D01*
X149540000Y-77210000D02*
X149540000Y-75000000D01*
X145350000Y-79520000D02*
X145290000Y-79460000D01*
X146100000Y-85000000D02*
X145350000Y-84250000D01*
%TO.N,/Elec16*%
X145200000Y-85500000D02*
X145200000Y-106000000D01*
X145200000Y-106000000D02*
X140875479Y-110324521D01*
X143400000Y-83700000D02*
X145200000Y-85500000D01*
X140875479Y-110324521D02*
X138244521Y-110324521D01*
X143400000Y-82540000D02*
X143400000Y-83700000D01*
X138244521Y-110324521D02*
X137635000Y-109715000D01*
%TO.N,/Elec0*%
X144450000Y-77350000D02*
X143400000Y-78400000D01*
X143400000Y-78400000D02*
X143400000Y-79460000D01*
X144450000Y-76600000D02*
X144450000Y-77350000D01*
%TO.N,/Elec17*%
X143000000Y-84000000D02*
X144800000Y-85800000D01*
X144800000Y-105600000D02*
X140685000Y-109715000D01*
X144800000Y-85800000D02*
X144800000Y-105600000D01*
X140685000Y-109715000D02*
X138905000Y-109715000D01*
X143000000Y-82540000D02*
X143000000Y-84000000D01*
%TO.N,/Elec1*%
X143000000Y-78150000D02*
X143000000Y-79460000D01*
X143950000Y-77200000D02*
X143000000Y-78150000D01*
%TO.N,/Elec18*%
X140545479Y-109054521D02*
X144400000Y-105200000D01*
X142600000Y-84300000D02*
X144400000Y-86100000D01*
X138244521Y-109054521D02*
X140545479Y-109054521D01*
X137635000Y-108445000D02*
X138244521Y-109054521D01*
X142600000Y-82540000D02*
X142600000Y-84300000D01*
X144400000Y-86100000D02*
X144400000Y-105200000D01*
%TO.N,/Elec2*%
X143450000Y-76600000D02*
X143450000Y-77350000D01*
X143450000Y-77350000D02*
X142600000Y-78200000D01*
X142600000Y-78200000D02*
X142600000Y-79460000D01*
%TO.N,/Elec19*%
X144000000Y-86300000D02*
X142200000Y-84500000D01*
X140455000Y-108445000D02*
X144000000Y-104900000D01*
X142200000Y-84500000D02*
X142200000Y-82540000D01*
X138905000Y-108445000D02*
X140455000Y-108445000D01*
X144000000Y-104900000D02*
X144000000Y-86300000D01*
%TO.N,/Elec3*%
X142950000Y-77400000D02*
X142200000Y-78150000D01*
X142950000Y-77200000D02*
X142950000Y-77400000D01*
X142200000Y-78150000D02*
X142200000Y-79460000D01*
%TO.N,/Elec20*%
X143600000Y-86500000D02*
X141800000Y-84700000D01*
X137635000Y-107175000D02*
X138295479Y-107835479D01*
X143600000Y-104500000D02*
X143600000Y-86500000D01*
X141800000Y-84700000D02*
X141800000Y-82540000D01*
X138295479Y-107835479D02*
X140264521Y-107835479D01*
X140264521Y-107835479D02*
X143600000Y-104500000D01*
%TO.N,/Elec4*%
X142500000Y-77450000D02*
X141800000Y-78150000D01*
X142500000Y-76600000D02*
X142500000Y-77450000D01*
X141800000Y-78150000D02*
X141800000Y-79460000D01*
%TO.N,/Elec21*%
X143200000Y-86800000D02*
X141400000Y-85000000D01*
X141400000Y-85000000D02*
X141400000Y-82540000D01*
X143200000Y-104250000D02*
X143200000Y-86800000D01*
X140275000Y-107175000D02*
X143200000Y-104250000D01*
X138905000Y-107175000D02*
X140275000Y-107175000D01*
%TO.N,/Elec5*%
X142050000Y-77200000D02*
X142050000Y-77500000D01*
X141400000Y-78150000D02*
X141400000Y-79460000D01*
X142050000Y-77500000D02*
X141400000Y-78150000D01*
%TO.N,/Elec22*%
X142800000Y-103900000D02*
X142800000Y-87000000D01*
X141000000Y-85200000D02*
X141000000Y-82540000D01*
X137635000Y-105905000D02*
X138295479Y-106565479D01*
X142800000Y-87000000D02*
X141000000Y-85200000D01*
X138295479Y-106565479D02*
X140134521Y-106565479D01*
X140134521Y-106565479D02*
X142800000Y-103900000D01*
%TO.N,/Elec6*%
X141600000Y-76600000D02*
X141600000Y-77500000D01*
X141600000Y-77500000D02*
X141000000Y-78100000D01*
X141000000Y-78100000D02*
X141000000Y-79460000D01*
%TO.N,/Elec23*%
X142400000Y-103600000D02*
X142400000Y-87200000D01*
X138905000Y-105905000D02*
X140095000Y-105905000D01*
X142400000Y-87200000D02*
X140600000Y-85400000D01*
X140095000Y-105905000D02*
X142400000Y-103600000D01*
X140600000Y-85400000D02*
X140600000Y-82540000D01*
%TO.N,/Elec7*%
X141100000Y-77550000D02*
X140600000Y-78050000D01*
X141100000Y-77200000D02*
X141100000Y-77550000D01*
X140600000Y-78050000D02*
X140600000Y-79460000D01*
%TO.N,/Elec24*%
X137635000Y-104635000D02*
X138295479Y-105295479D01*
X140200000Y-85600000D02*
X140200000Y-82540000D01*
X142000000Y-87400000D02*
X140200000Y-85600000D01*
X139995479Y-105295479D02*
X142000000Y-103290958D01*
X138295479Y-105295479D02*
X139995479Y-105295479D01*
X142000000Y-103290958D02*
X142000000Y-87400000D01*
%TO.N,/Elec8*%
X140659501Y-76659501D02*
X140600000Y-76600000D01*
X140200000Y-79460000D02*
X140200000Y-77879123D01*
X140200000Y-77879123D02*
X140659501Y-77419622D01*
X140659501Y-77419622D02*
X140659501Y-76659501D01*
%TO.N,/Elec25*%
X141600000Y-102700000D02*
X141600000Y-87700000D01*
X141600000Y-87700000D02*
X139800000Y-85900000D01*
X138905000Y-104635000D02*
X139665000Y-104635000D01*
X139800000Y-85900000D02*
X139800000Y-82540000D01*
X139665000Y-104635000D02*
X141600000Y-102700000D01*
%TO.N,/Elec9*%
X139800000Y-77900000D02*
X140250000Y-77450000D01*
X140250000Y-77450000D02*
X140250000Y-77250000D01*
X139800000Y-79460000D02*
X139800000Y-77900000D01*
%TO.N,/Elec26*%
X141200000Y-87900000D02*
X139400000Y-86100000D01*
X137635000Y-103365000D02*
X138244521Y-103974521D01*
X139400000Y-86100000D02*
X139400000Y-82540000D01*
X141200000Y-102249042D02*
X141200000Y-87900000D01*
X139474521Y-103974521D02*
X141200000Y-102249042D01*
X138244521Y-103974521D02*
X139474521Y-103974521D01*
%TO.N,/Elec10*%
X139750000Y-77550000D02*
X139400000Y-77900000D01*
X139750000Y-76600000D02*
X139750000Y-77550000D01*
X139400000Y-77900000D02*
X139400000Y-79460000D01*
%TO.N,/Elec27*%
X140800000Y-101470000D02*
X140800000Y-88200000D01*
X140800000Y-88200000D02*
X139000000Y-86400000D01*
X138905000Y-103365000D02*
X140800000Y-101470000D01*
X139000000Y-86400000D02*
X139000000Y-82540000D01*
%TO.N,/Elec11*%
X139000000Y-77900000D02*
X139250000Y-77650000D01*
X139000000Y-79460000D02*
X139000000Y-77900000D01*
X139250000Y-77650000D02*
X139250000Y-77200000D01*
%TO.N,/Elec28*%
X138600000Y-86800000D02*
X138600000Y-82540000D01*
X140400000Y-88600000D02*
X138600000Y-86800000D01*
X138905000Y-102095000D02*
X140400000Y-100600000D01*
X140400000Y-100600000D02*
X140400000Y-88600000D01*
%TO.N,/Elec12*%
X138809501Y-76659501D02*
X138809501Y-77419622D01*
X138809501Y-77419622D02*
X138750000Y-77479123D01*
X138750000Y-79310000D02*
X138600000Y-79460000D01*
X138750000Y-77479123D02*
X138750000Y-79310000D01*
X138750000Y-76600000D02*
X138809501Y-76659501D01*
%TO.N,/Elec29*%
X138905000Y-100825000D02*
X140000000Y-99730000D01*
X140000000Y-88900000D02*
X138200000Y-87100000D01*
X138200000Y-87100000D02*
X138200000Y-82540000D01*
X140000000Y-99730000D02*
X140000000Y-88900000D01*
%TO.N,/Elec13*%
X138200000Y-79460000D02*
X138200000Y-78600000D01*
X138400000Y-78400000D02*
X138400000Y-77250000D01*
X138200000Y-78600000D02*
X138400000Y-78400000D01*
%TO.N,/Elec30*%
X138905000Y-99555000D02*
X139514521Y-98945479D01*
X137800000Y-87400000D02*
X137800000Y-82540000D01*
X139514521Y-98945479D02*
X139514521Y-89114521D01*
X139514521Y-89114521D02*
X137800000Y-87400000D01*
%TO.N,/Elec14*%
X137900000Y-76600000D02*
X137900000Y-77700000D01*
X137800000Y-77800000D02*
X137800000Y-79460000D01*
X137900000Y-77700000D02*
X137800000Y-77800000D01*
%TO.N,/Elec31*%
X138905000Y-89305000D02*
X137400000Y-87800000D01*
X137400000Y-87800000D02*
X137400000Y-82540000D01*
X138905000Y-98285000D02*
X138905000Y-89305000D01*
%TO.N,/Elec15*%
X137400000Y-77250000D02*
X137400000Y-79460000D01*
X137450000Y-77200000D02*
X137400000Y-77250000D01*
%TO.N,/Elec32*%
X137000000Y-87790000D02*
X137000000Y-82540000D01*
X135095000Y-98285000D02*
X135095000Y-89695000D01*
X135095000Y-89695000D02*
X137000000Y-87790000D01*
%TO.N,/Elec48*%
X137005000Y-76600000D02*
X137005000Y-79455000D01*
X137005000Y-79455000D02*
X137000000Y-79460000D01*
%TO.N,/Elec33*%
X136600000Y-87400000D02*
X136600000Y-82540000D01*
X134300000Y-98760000D02*
X134300000Y-89700000D01*
X135095000Y-99555000D02*
X134300000Y-98760000D01*
X134300000Y-89700000D02*
X136600000Y-87400000D01*
%TO.N,/Elec49*%
X136505000Y-78205000D02*
X136600000Y-78300000D01*
X136600000Y-78300000D02*
X136600000Y-79460000D01*
X136505000Y-77200000D02*
X136505000Y-78205000D01*
%TO.N,/Elec34*%
X136200000Y-87100000D02*
X136200000Y-82540000D01*
X133900000Y-99630000D02*
X133900000Y-89400000D01*
X133900000Y-89400000D02*
X136200000Y-87100000D01*
X135095000Y-100825000D02*
X133900000Y-99630000D01*
%TO.N,/Elec50*%
X136055000Y-76700000D02*
X136055000Y-78155000D01*
X136055000Y-78155000D02*
X136200000Y-78300000D01*
X136200000Y-78300000D02*
X136200000Y-79460000D01*
%TO.N,/Elec35*%
X133400000Y-100400000D02*
X133400000Y-89300000D01*
X135095000Y-102095000D02*
X133400000Y-100400000D01*
X133400000Y-89300000D02*
X135800000Y-86900000D01*
X135800000Y-86900000D02*
X135800000Y-82540000D01*
%TO.N,/Elec51*%
X135605000Y-78105000D02*
X135800000Y-78300000D01*
X135800000Y-78300000D02*
X135800000Y-79460000D01*
X135605000Y-77200000D02*
X135605000Y-78105000D01*
%TO.N,/Elec36*%
X132900000Y-101170000D02*
X132900000Y-89200000D01*
X135400000Y-86700000D02*
X135400000Y-82540000D01*
X135095000Y-103365000D02*
X132900000Y-101170000D01*
X132900000Y-89200000D02*
X135400000Y-86700000D01*
%TO.N,/Elec52*%
X135400000Y-78300000D02*
X135400000Y-79460000D01*
X135105000Y-76700000D02*
X135105000Y-78005000D01*
X135105000Y-78005000D02*
X135400000Y-78300000D01*
%TO.N,/Elec37*%
X132400000Y-89000000D02*
X135000000Y-86400000D01*
X136365000Y-103365000D02*
X135755479Y-103974521D01*
X135755479Y-103974521D02*
X134674521Y-103974521D01*
X135000000Y-86400000D02*
X135000000Y-82540000D01*
X132400000Y-101700000D02*
X132400000Y-89000000D01*
X134674521Y-103974521D02*
X132400000Y-101700000D01*
%TO.N,/Elec53*%
X134655000Y-78005000D02*
X135000000Y-78350000D01*
X134655000Y-77200000D02*
X134655000Y-78005000D01*
X135000000Y-78350000D02*
X135000000Y-79460000D01*
%TO.N,/Elec38*%
X135095000Y-104635000D02*
X134435000Y-104635000D01*
X134600000Y-86200000D02*
X134600000Y-82540000D01*
X134435000Y-104635000D02*
X132000000Y-102200000D01*
X132000000Y-102200000D02*
X132000000Y-88800000D01*
X132000000Y-88800000D02*
X134600000Y-86200000D01*
%TO.N,/Elec54*%
X134205000Y-77955000D02*
X134600000Y-78350000D01*
X134600000Y-78350000D02*
X134600000Y-79460000D01*
X134205000Y-76700000D02*
X134205000Y-77955000D01*
%TO.N,/Elec39*%
X134244521Y-105244521D02*
X135755479Y-105244521D01*
X131500000Y-88700000D02*
X134200000Y-86000000D01*
X134200000Y-86000000D02*
X134200000Y-82540000D01*
X134244521Y-105244521D02*
X131500000Y-102500000D01*
X136365000Y-104635000D02*
X135755479Y-105244521D01*
X131500000Y-102500000D02*
X131500000Y-88700000D01*
%TO.N,/Elec55*%
X133755000Y-77905000D02*
X134200000Y-78350000D01*
X134200000Y-78350000D02*
X134200000Y-79460000D01*
X133755000Y-77200000D02*
X133755000Y-77905000D01*
%TO.N,/Elec40*%
X134155000Y-105905000D02*
X131000000Y-102750000D01*
X133800000Y-85800000D02*
X133800000Y-82540000D01*
X135095000Y-105905000D02*
X134155000Y-105905000D01*
X131000000Y-88600000D02*
X133800000Y-85800000D01*
X131000000Y-102750000D02*
X131000000Y-88600000D01*
%TO.N,/Elec56*%
X133305000Y-77955000D02*
X133800000Y-78450000D01*
X133800000Y-78450000D02*
X133800000Y-79460000D01*
X133305000Y-76700000D02*
X133305000Y-77955000D01*
%TO.N,/Elec41*%
X133400000Y-85600000D02*
X133400000Y-82540000D01*
X136365000Y-105905000D02*
X135755479Y-106514521D01*
X130500000Y-103029042D02*
X130500000Y-88500000D01*
X130500000Y-88500000D02*
X133400000Y-85600000D01*
X133985479Y-106514521D02*
X130500000Y-103029042D01*
X135755479Y-106514521D02*
X133985479Y-106514521D01*
%TO.N,/Elec57*%
X132850000Y-77900000D02*
X133400000Y-78450000D01*
X132850000Y-77250000D02*
X132850000Y-77900000D01*
X133400000Y-78450000D02*
X133400000Y-79460000D01*
%TO.N,/Elec42*%
X130000000Y-88400000D02*
X133000000Y-85400000D01*
X135095000Y-107175000D02*
X133875000Y-107175000D01*
X133000000Y-85400000D02*
X133000000Y-82540000D01*
X133875000Y-107175000D02*
X130000000Y-103300000D01*
X130000000Y-103300000D02*
X130000000Y-88400000D01*
%TO.N,/Elec58*%
X132400000Y-76700000D02*
X132400000Y-77900000D01*
X132400000Y-77900000D02*
X133000000Y-78500000D01*
X133000000Y-78500000D02*
X133000000Y-79460000D01*
%TO.N,/Elec43*%
X135704521Y-107835479D02*
X133735479Y-107835479D01*
X133735479Y-107835479D02*
X129500000Y-103600000D01*
X136365000Y-107175000D02*
X135704521Y-107835479D01*
X132600000Y-85200000D02*
X132600000Y-82540000D01*
X129500000Y-103600000D02*
X129500000Y-88300000D01*
X129500000Y-88300000D02*
X132600000Y-85200000D01*
%TO.N,/Elec59*%
X131950000Y-77900000D02*
X132600000Y-78550000D01*
X131950000Y-77250000D02*
X131950000Y-77900000D01*
X132600000Y-78550000D02*
X132600000Y-79460000D01*
%TO.N,/Elec44*%
X129000000Y-88100000D02*
X129000000Y-103900000D01*
X132200000Y-84900000D02*
X129000000Y-88100000D01*
X129000000Y-103900000D02*
X133545000Y-108445000D01*
X133545000Y-108445000D02*
X135095000Y-108445000D01*
X132200000Y-82540000D02*
X132200000Y-84900000D01*
%TO.N,/Elec60*%
X131450000Y-76700000D02*
X131450000Y-77850000D01*
X131450000Y-77850000D02*
X132200000Y-78600000D01*
X132200000Y-78600000D02*
X132200000Y-79460000D01*
%TO.N,/Elec45*%
X128500000Y-104200000D02*
X133354521Y-109054521D01*
X131800000Y-84700000D02*
X131800000Y-82540000D01*
X128500000Y-88000000D02*
X131800000Y-84700000D01*
X136365000Y-108445000D02*
X135755479Y-109054521D01*
X133354521Y-109054521D02*
X135755479Y-109054521D01*
X128500000Y-104200000D02*
X128500000Y-88000000D01*
%TO.N,/Elec61*%
X131000000Y-77250000D02*
X131000000Y-77850000D01*
X131800000Y-78650000D02*
X131800000Y-79460000D01*
X131000000Y-77850000D02*
X131800000Y-78650000D01*
%TO.N,/Elec46*%
X128000000Y-104500000D02*
X128000000Y-87900000D01*
X131400000Y-84500000D02*
X131400000Y-82540000D01*
X133215000Y-109715000D02*
X128000000Y-104500000D01*
X133215000Y-109715000D02*
X135095000Y-109715000D01*
X128000000Y-87900000D02*
X131400000Y-84500000D01*
%TO.N,/Elec62*%
X130500000Y-77800000D02*
X131400000Y-78700000D01*
X130500000Y-76700000D02*
X130500000Y-77800000D01*
X131400000Y-78700000D02*
X131400000Y-79460000D01*
%TO.N,/Elec47*%
X131000000Y-84300000D02*
X131000000Y-82540000D01*
X127500000Y-104800000D02*
X127500000Y-87800000D01*
X135755479Y-110324521D02*
X133024521Y-110324521D01*
X133024521Y-110324521D02*
X127500000Y-104800000D01*
X127500000Y-87800000D02*
X131000000Y-84300000D01*
X136365000Y-109715000D02*
X135755479Y-110324521D01*
%TO.N,/Elec63*%
X130050000Y-77800000D02*
X131000000Y-78750000D01*
X130050000Y-77250000D02*
X130050000Y-77800000D01*
X131000000Y-78750000D02*
X131000000Y-79460000D01*
%TD*%
%TA.AperFunction,Conductor*%
%TO.N,GND*%
G36*
X149988227Y-71202518D02*
G01*
X149999642Y-71205143D01*
X150010517Y-71202682D01*
X150021664Y-71202702D01*
X150021664Y-71202863D01*
X150031669Y-71202076D01*
X150103759Y-71206801D01*
X150228475Y-71214975D01*
X150241302Y-71216663D01*
X150459516Y-71260068D01*
X150472016Y-71263418D01*
X150682691Y-71334933D01*
X150694653Y-71339889D01*
X150776954Y-71380475D01*
X150894180Y-71438284D01*
X150905386Y-71444753D01*
X151090385Y-71568365D01*
X151100639Y-71576233D01*
X151267914Y-71722930D01*
X151277069Y-71732085D01*
X151423767Y-71899361D01*
X151431635Y-71909615D01*
X151555247Y-72094614D01*
X151561716Y-72105820D01*
X151660111Y-72305346D01*
X151665067Y-72317309D01*
X151736581Y-72527980D01*
X151739933Y-72540489D01*
X151783336Y-72758691D01*
X151785026Y-72771530D01*
X151797891Y-72967816D01*
X151797101Y-72977628D01*
X151797375Y-72977628D01*
X151797355Y-72988778D01*
X151794857Y-72999642D01*
X151797317Y-73010514D01*
X151797317Y-73010516D01*
X151797559Y-73011583D01*
X151800000Y-73033432D01*
X151800000Y-117876149D01*
X151781093Y-117934340D01*
X151771004Y-117946153D01*
X139946153Y-129771004D01*
X139891636Y-129798781D01*
X139876149Y-129800000D01*
X134123851Y-129800000D01*
X134065660Y-129781093D01*
X134053847Y-129771004D01*
X130990928Y-126708085D01*
X134434722Y-126708085D01*
X134452132Y-126865783D01*
X134506656Y-127014776D01*
X134595146Y-127146463D01*
X134599557Y-127150477D01*
X134599559Y-127150479D01*
X134708078Y-127249223D01*
X134712493Y-127253240D01*
X134726986Y-127261109D01*
X134846676Y-127326096D01*
X134846678Y-127326097D01*
X134851922Y-127328944D01*
X134857696Y-127330459D01*
X134857699Y-127330460D01*
X134999606Y-127367689D01*
X135005385Y-127369205D01*
X135011354Y-127369299D01*
X135011356Y-127369299D01*
X135069053Y-127370205D01*
X135164022Y-127371697D01*
X135181522Y-127367689D01*
X135312850Y-127337611D01*
X135312853Y-127337610D01*
X135318673Y-127336277D01*
X135460412Y-127264990D01*
X135581055Y-127161951D01*
X135589299Y-127150479D01*
X135650119Y-127065840D01*
X135699431Y-127029618D01*
X135760615Y-127029298D01*
X135812686Y-127068394D01*
X135865146Y-127146463D01*
X135869557Y-127150477D01*
X135869559Y-127150479D01*
X135978078Y-127249223D01*
X135982493Y-127253240D01*
X135996986Y-127261109D01*
X136116676Y-127326096D01*
X136116678Y-127326097D01*
X136121922Y-127328944D01*
X136127696Y-127330459D01*
X136127699Y-127330460D01*
X136269606Y-127367689D01*
X136275385Y-127369205D01*
X136281354Y-127369299D01*
X136281356Y-127369299D01*
X136339053Y-127370205D01*
X136434022Y-127371697D01*
X136451522Y-127367689D01*
X136582850Y-127337611D01*
X136582853Y-127337610D01*
X136588673Y-127336277D01*
X136730412Y-127264990D01*
X136851055Y-127161951D01*
X136859299Y-127150479D01*
X136920119Y-127065840D01*
X136969431Y-127029618D01*
X137030615Y-127029298D01*
X137082686Y-127068394D01*
X137135146Y-127146463D01*
X137139557Y-127150477D01*
X137139559Y-127150479D01*
X137248078Y-127249223D01*
X137252493Y-127253240D01*
X137266986Y-127261109D01*
X137386676Y-127326096D01*
X137386678Y-127326097D01*
X137391922Y-127328944D01*
X137397696Y-127330459D01*
X137397699Y-127330460D01*
X137539606Y-127367689D01*
X137545385Y-127369205D01*
X137551354Y-127369299D01*
X137551356Y-127369299D01*
X137609053Y-127370205D01*
X137704022Y-127371697D01*
X137721522Y-127367689D01*
X137852850Y-127337611D01*
X137852853Y-127337610D01*
X137858673Y-127336277D01*
X138000412Y-127264990D01*
X138121055Y-127161951D01*
X138129299Y-127150479D01*
X138190119Y-127065840D01*
X138239431Y-127029618D01*
X138300615Y-127029298D01*
X138352686Y-127068394D01*
X138405146Y-127146463D01*
X138409557Y-127150477D01*
X138409559Y-127150479D01*
X138518078Y-127249223D01*
X138522493Y-127253240D01*
X138536986Y-127261109D01*
X138656676Y-127326096D01*
X138656678Y-127326097D01*
X138661922Y-127328944D01*
X138667696Y-127330459D01*
X138667699Y-127330460D01*
X138809606Y-127367689D01*
X138815385Y-127369205D01*
X138821354Y-127369299D01*
X138821356Y-127369299D01*
X138879053Y-127370205D01*
X138974022Y-127371697D01*
X138991522Y-127367689D01*
X139122850Y-127337611D01*
X139122853Y-127337610D01*
X139128673Y-127336277D01*
X139270412Y-127264990D01*
X139391055Y-127161951D01*
X139402185Y-127146463D01*
X139480154Y-127037958D01*
X139480155Y-127037956D01*
X139483638Y-127033109D01*
X139542814Y-126885902D01*
X139565169Y-126728829D01*
X139565314Y-126715000D01*
X139546254Y-126557493D01*
X139490173Y-126409079D01*
X139400309Y-126278327D01*
X139281850Y-126172784D01*
X139276579Y-126169993D01*
X139276576Y-126169991D01*
X139272901Y-126168045D01*
X139230323Y-126124105D01*
X139221704Y-126063530D01*
X139250336Y-126009457D01*
X139264442Y-125998096D01*
X139265082Y-125997671D01*
X139270412Y-125994990D01*
X139391055Y-125891951D01*
X139402185Y-125876463D01*
X139480154Y-125767958D01*
X139480155Y-125767956D01*
X139483638Y-125763109D01*
X139542814Y-125615902D01*
X139565169Y-125458829D01*
X139565314Y-125445000D01*
X139546254Y-125287493D01*
X139490173Y-125139079D01*
X139400309Y-125008327D01*
X139281850Y-124902784D01*
X139276579Y-124899993D01*
X139276576Y-124899991D01*
X139272901Y-124898045D01*
X139230323Y-124854105D01*
X139221704Y-124793530D01*
X139250336Y-124739457D01*
X139264442Y-124728096D01*
X139265082Y-124727671D01*
X139270412Y-124724990D01*
X139391055Y-124621951D01*
X139402185Y-124606463D01*
X139480154Y-124497958D01*
X139480155Y-124497956D01*
X139483638Y-124493109D01*
X139542814Y-124345902D01*
X139565169Y-124188829D01*
X139565314Y-124175000D01*
X139546254Y-124017493D01*
X139490173Y-123869079D01*
X139400309Y-123738327D01*
X139281850Y-123632784D01*
X139276579Y-123629993D01*
X139276576Y-123629991D01*
X139272901Y-123628045D01*
X139230323Y-123584105D01*
X139221704Y-123523530D01*
X139250336Y-123469457D01*
X139264442Y-123458096D01*
X139265082Y-123457671D01*
X139270412Y-123454990D01*
X139391055Y-123351951D01*
X139402185Y-123336463D01*
X139480154Y-123227958D01*
X139480155Y-123227956D01*
X139483638Y-123223109D01*
X139542814Y-123075902D01*
X139565169Y-122918829D01*
X139565314Y-122905000D01*
X139546254Y-122747493D01*
X139490173Y-122599079D01*
X139400309Y-122468327D01*
X139281850Y-122362784D01*
X139276579Y-122359993D01*
X139276576Y-122359991D01*
X139272901Y-122358045D01*
X139230323Y-122314105D01*
X139221704Y-122253530D01*
X139250336Y-122199457D01*
X139264442Y-122188096D01*
X139265082Y-122187671D01*
X139270412Y-122184990D01*
X139391055Y-122081951D01*
X139402185Y-122066463D01*
X139480154Y-121957958D01*
X139480155Y-121957956D01*
X139483638Y-121953109D01*
X139542814Y-121805902D01*
X139565169Y-121648829D01*
X139565314Y-121635000D01*
X139546254Y-121477493D01*
X139490173Y-121329079D01*
X139400309Y-121198327D01*
X139281850Y-121092784D01*
X139276579Y-121089993D01*
X139276576Y-121089991D01*
X139272901Y-121088045D01*
X139230323Y-121044105D01*
X139221704Y-120983530D01*
X139250336Y-120929457D01*
X139264442Y-120918096D01*
X139265082Y-120917671D01*
X139270412Y-120914990D01*
X139391055Y-120811951D01*
X139402185Y-120796463D01*
X139480154Y-120687958D01*
X139480155Y-120687956D01*
X139483638Y-120683109D01*
X139542814Y-120535902D01*
X139565169Y-120378829D01*
X139565314Y-120365000D01*
X139546254Y-120207493D01*
X139490173Y-120059079D01*
X139400309Y-119928327D01*
X139281850Y-119822784D01*
X139276579Y-119819993D01*
X139276576Y-119819991D01*
X139272901Y-119818045D01*
X139230323Y-119774105D01*
X139221704Y-119713530D01*
X139250336Y-119659457D01*
X139264442Y-119648096D01*
X139265082Y-119647671D01*
X139270412Y-119644990D01*
X139391055Y-119541951D01*
X139402185Y-119526463D01*
X139480154Y-119417958D01*
X139480155Y-119417956D01*
X139483638Y-119413109D01*
X139542814Y-119265902D01*
X139565169Y-119108829D01*
X139565314Y-119095000D01*
X139546254Y-118937493D01*
X139490173Y-118789079D01*
X139400309Y-118658327D01*
X139281850Y-118552784D01*
X139276579Y-118549993D01*
X139276576Y-118549991D01*
X139272901Y-118548045D01*
X139230323Y-118504105D01*
X139221704Y-118443530D01*
X139250336Y-118389457D01*
X139264442Y-118378096D01*
X139265082Y-118377671D01*
X139270412Y-118374990D01*
X139391055Y-118271951D01*
X139402185Y-118256463D01*
X139480154Y-118147958D01*
X139480155Y-118147956D01*
X139483638Y-118143109D01*
X139542814Y-117995902D01*
X139565169Y-117838829D01*
X139565314Y-117825000D01*
X139546254Y-117667493D01*
X139490173Y-117519079D01*
X139400309Y-117388327D01*
X139281850Y-117282784D01*
X139276579Y-117279993D01*
X139276576Y-117279991D01*
X139272901Y-117278045D01*
X139230323Y-117234105D01*
X139221704Y-117173530D01*
X139250336Y-117119457D01*
X139264442Y-117108096D01*
X139265082Y-117107671D01*
X139270412Y-117104990D01*
X139391055Y-117001951D01*
X139402185Y-116986463D01*
X139480154Y-116877958D01*
X139480155Y-116877956D01*
X139483638Y-116873109D01*
X139542814Y-116725902D01*
X139565169Y-116568829D01*
X139565314Y-116555000D01*
X139546254Y-116397493D01*
X139490173Y-116249079D01*
X139400309Y-116118327D01*
X139281850Y-116012784D01*
X139276579Y-116009993D01*
X139276576Y-116009991D01*
X139272901Y-116008045D01*
X139230323Y-115964105D01*
X139221704Y-115903530D01*
X139250336Y-115849457D01*
X139264442Y-115838096D01*
X139265082Y-115837671D01*
X139270412Y-115834990D01*
X139391055Y-115731951D01*
X139401988Y-115716737D01*
X139480154Y-115607958D01*
X139480155Y-115607956D01*
X139483638Y-115603109D01*
X139542814Y-115455902D01*
X139565169Y-115298829D01*
X139565314Y-115285000D01*
X139546254Y-115127493D01*
X139490173Y-114979079D01*
X139475982Y-114958430D01*
X139403689Y-114853245D01*
X139400309Y-114848327D01*
X139281850Y-114742784D01*
X139141635Y-114668544D01*
X139054081Y-114646552D01*
X138993549Y-114631347D01*
X138993546Y-114631347D01*
X138987759Y-114629893D01*
X138907667Y-114629473D01*
X138835071Y-114629093D01*
X138835069Y-114629093D01*
X138829105Y-114629062D01*
X138674833Y-114666100D01*
X138533848Y-114738867D01*
X138414291Y-114843164D01*
X138410862Y-114848043D01*
X138349093Y-114935931D01*
X138300164Y-114972668D01*
X138238986Y-114973628D01*
X138207829Y-114957547D01*
X138190775Y-114944461D01*
X138190375Y-114944450D01*
X138183726Y-114948406D01*
X137858218Y-115273914D01*
X137852164Y-115285797D01*
X137852960Y-115290828D01*
X138181958Y-115619826D01*
X138193841Y-115625880D01*
X138194786Y-115625731D01*
X138204991Y-115616968D01*
X138261457Y-115593404D01*
X138320990Y-115607531D01*
X138351655Y-115636860D01*
X138405146Y-115716463D01*
X138409557Y-115720477D01*
X138409559Y-115720479D01*
X138457951Y-115764512D01*
X138522493Y-115823240D01*
X138527736Y-115826087D01*
X138527742Y-115826091D01*
X138538976Y-115832190D01*
X138581094Y-115876572D01*
X138589080Y-115937234D01*
X138559885Y-115991005D01*
X138543837Y-116002409D01*
X138544087Y-116002776D01*
X138539154Y-116006128D01*
X138533848Y-116008867D01*
X138414291Y-116113164D01*
X138410862Y-116118043D01*
X138350824Y-116203468D01*
X138301895Y-116240205D01*
X138240717Y-116241165D01*
X138188241Y-116202618D01*
X138130309Y-116118327D01*
X138011850Y-116012784D01*
X137995617Y-116004189D01*
X137953037Y-115960252D01*
X137944415Y-115899677D01*
X137972305Y-115846327D01*
X137975730Y-115842938D01*
X137970525Y-115832657D01*
X137646086Y-115508218D01*
X137634203Y-115502164D01*
X137629172Y-115502960D01*
X137300500Y-115831632D01*
X137295119Y-115842193D01*
X137299426Y-115846614D01*
X137326488Y-115901489D01*
X137316127Y-115961791D01*
X137273919Y-116003669D01*
X137269154Y-116006128D01*
X137269152Y-116006130D01*
X137263848Y-116008867D01*
X137144291Y-116113164D01*
X137140862Y-116118043D01*
X137080824Y-116203468D01*
X137031895Y-116240205D01*
X136970717Y-116241165D01*
X136918241Y-116202618D01*
X136860309Y-116118327D01*
X136741850Y-116012784D01*
X136725617Y-116004189D01*
X136683037Y-115960252D01*
X136674415Y-115899677D01*
X136702305Y-115846327D01*
X136705730Y-115842938D01*
X136700525Y-115832657D01*
X136376086Y-115508218D01*
X136364203Y-115502164D01*
X136359172Y-115502960D01*
X136030500Y-115831632D01*
X136025119Y-115842193D01*
X136029426Y-115846614D01*
X136056488Y-115901489D01*
X136046127Y-115961791D01*
X136003919Y-116003669D01*
X135999154Y-116006128D01*
X135999152Y-116006130D01*
X135993848Y-116008867D01*
X135874291Y-116113164D01*
X135870862Y-116118043D01*
X135810824Y-116203468D01*
X135761895Y-116240205D01*
X135700717Y-116241165D01*
X135648241Y-116202618D01*
X135590309Y-116118327D01*
X135571810Y-116101845D01*
X135540942Y-116049017D01*
X135547020Y-115988134D01*
X135587724Y-115942452D01*
X135618359Y-115930831D01*
X135618665Y-115930770D01*
X135618666Y-115930770D01*
X135628231Y-115928867D01*
X135694552Y-115884552D01*
X135738867Y-115818231D01*
X135750500Y-115759748D01*
X135750500Y-115716737D01*
X135769407Y-115658546D01*
X135799330Y-115631391D01*
X135816670Y-115621198D01*
X136141782Y-115296086D01*
X136147024Y-115285797D01*
X136582164Y-115285797D01*
X136582960Y-115290828D01*
X136911958Y-115619826D01*
X136923841Y-115625880D01*
X136924785Y-115625731D01*
X136937215Y-115615058D01*
X136993681Y-115591494D01*
X137053213Y-115605620D01*
X137062797Y-115612263D01*
X137079486Y-115625349D01*
X137079600Y-115625353D01*
X137086671Y-115621197D01*
X137411782Y-115296086D01*
X137417836Y-115284203D01*
X137417040Y-115279172D01*
X137088352Y-114950484D01*
X137076469Y-114944430D01*
X137075801Y-114944535D01*
X137064133Y-114954661D01*
X137007791Y-114978520D01*
X136948185Y-114964705D01*
X136938979Y-114958430D01*
X136920774Y-114944461D01*
X136920375Y-114944450D01*
X136913726Y-114948406D01*
X136588218Y-115273914D01*
X136582164Y-115285797D01*
X136147024Y-115285797D01*
X136147836Y-115284203D01*
X136147040Y-115279172D01*
X135818352Y-114950484D01*
X135804556Y-114943455D01*
X135761291Y-114900191D01*
X135750500Y-114855245D01*
X135750500Y-114810252D01*
X135738867Y-114751769D01*
X135722693Y-114727563D01*
X136024576Y-114727563D01*
X136029714Y-114737582D01*
X136353914Y-115061782D01*
X136365797Y-115067836D01*
X136370828Y-115067040D01*
X136699818Y-114738050D01*
X136705116Y-114727652D01*
X136705028Y-114727563D01*
X137294576Y-114727563D01*
X137299714Y-114737582D01*
X137623914Y-115061782D01*
X137635797Y-115067836D01*
X137640828Y-115067040D01*
X137969818Y-114738050D01*
X137975116Y-114727652D01*
X137967400Y-114719814D01*
X137876729Y-114671805D01*
X137865664Y-114667559D01*
X137723486Y-114631846D01*
X137711729Y-114630361D01*
X137565129Y-114629593D01*
X137553361Y-114630955D01*
X137410810Y-114665178D01*
X137399704Y-114669309D01*
X137302655Y-114719399D01*
X137294576Y-114727563D01*
X136705028Y-114727563D01*
X136697400Y-114719814D01*
X136606729Y-114671805D01*
X136595664Y-114667559D01*
X136453486Y-114631846D01*
X136441729Y-114630361D01*
X136295129Y-114629593D01*
X136283361Y-114630955D01*
X136140810Y-114665178D01*
X136129704Y-114669309D01*
X136032655Y-114719399D01*
X136024576Y-114727563D01*
X135722693Y-114727563D01*
X135694552Y-114685448D01*
X135628231Y-114641133D01*
X135618668Y-114639231D01*
X135618666Y-114639230D01*
X135595995Y-114634721D01*
X135569748Y-114629500D01*
X134620252Y-114629500D01*
X134594005Y-114634721D01*
X134571334Y-114639230D01*
X134571332Y-114639231D01*
X134561769Y-114641133D01*
X134495448Y-114685448D01*
X134451133Y-114751769D01*
X134439500Y-114810252D01*
X134439500Y-115759748D01*
X134451133Y-115818231D01*
X134495448Y-115884552D01*
X134561769Y-115928867D01*
X134571335Y-115930770D01*
X134580342Y-115934501D01*
X134579846Y-115935699D01*
X134624267Y-115960575D01*
X134649884Y-116016139D01*
X134637950Y-116076149D01*
X134616653Y-116102379D01*
X134608788Y-116109240D01*
X134608784Y-116109245D01*
X134604291Y-116113164D01*
X134513063Y-116242968D01*
X134455431Y-116390787D01*
X134434722Y-116548085D01*
X134452132Y-116705783D01*
X134506656Y-116854776D01*
X134595146Y-116986463D01*
X134599557Y-116990477D01*
X134599559Y-116990479D01*
X134708078Y-117089223D01*
X134712493Y-117093240D01*
X134717736Y-117096087D01*
X134717742Y-117096091D01*
X134728976Y-117102190D01*
X134771094Y-117146572D01*
X134779080Y-117207234D01*
X134749885Y-117261005D01*
X134733837Y-117272409D01*
X134734087Y-117272776D01*
X134729154Y-117276128D01*
X134723848Y-117278867D01*
X134604291Y-117383164D01*
X134513063Y-117512968D01*
X134455431Y-117660787D01*
X134434722Y-117818085D01*
X134435377Y-117824018D01*
X134435377Y-117824022D01*
X134447557Y-117934340D01*
X134452132Y-117975783D01*
X134454184Y-117981390D01*
X134503462Y-118116047D01*
X134506656Y-118124776D01*
X134595146Y-118256463D01*
X134599557Y-118260477D01*
X134599559Y-118260479D01*
X134708078Y-118359223D01*
X134712493Y-118363240D01*
X134717736Y-118366087D01*
X134717742Y-118366091D01*
X134728976Y-118372190D01*
X134771094Y-118416572D01*
X134779080Y-118477234D01*
X134749885Y-118531005D01*
X134733837Y-118542409D01*
X134734087Y-118542776D01*
X134729154Y-118546128D01*
X134723848Y-118548867D01*
X134604291Y-118653164D01*
X134513063Y-118782968D01*
X134455431Y-118930787D01*
X134434722Y-119088085D01*
X134452132Y-119245783D01*
X134506656Y-119394776D01*
X134595146Y-119526463D01*
X134599557Y-119530477D01*
X134599559Y-119530479D01*
X134708078Y-119629223D01*
X134712493Y-119633240D01*
X134717736Y-119636087D01*
X134717742Y-119636091D01*
X134728976Y-119642190D01*
X134771094Y-119686572D01*
X134779080Y-119747234D01*
X134749885Y-119801005D01*
X134733837Y-119812409D01*
X134734087Y-119812776D01*
X134729154Y-119816128D01*
X134723848Y-119818867D01*
X134604291Y-119923164D01*
X134513063Y-120052968D01*
X134455431Y-120200787D01*
X134434722Y-120358085D01*
X134452132Y-120515783D01*
X134506656Y-120664776D01*
X134595146Y-120796463D01*
X134599557Y-120800477D01*
X134599559Y-120800479D01*
X134708078Y-120899223D01*
X134712493Y-120903240D01*
X134717736Y-120906087D01*
X134717742Y-120906091D01*
X134728976Y-120912190D01*
X134771094Y-120956572D01*
X134779080Y-121017234D01*
X134749885Y-121071005D01*
X134733837Y-121082409D01*
X134734087Y-121082776D01*
X134729154Y-121086128D01*
X134723848Y-121088867D01*
X134604291Y-121193164D01*
X134513063Y-121322968D01*
X134455431Y-121470787D01*
X134434722Y-121628085D01*
X134452132Y-121785783D01*
X134506656Y-121934776D01*
X134595146Y-122066463D01*
X134599557Y-122070477D01*
X134599559Y-122070479D01*
X134708078Y-122169223D01*
X134712493Y-122173240D01*
X134717736Y-122176087D01*
X134717742Y-122176091D01*
X134728976Y-122182190D01*
X134771094Y-122226572D01*
X134779080Y-122287234D01*
X134749885Y-122341005D01*
X134733837Y-122352409D01*
X134734087Y-122352776D01*
X134729154Y-122356128D01*
X134723848Y-122358867D01*
X134604291Y-122463164D01*
X134513063Y-122592968D01*
X134455431Y-122740787D01*
X134434722Y-122898085D01*
X134452132Y-123055783D01*
X134506656Y-123204776D01*
X134595146Y-123336463D01*
X134599557Y-123340477D01*
X134599559Y-123340479D01*
X134708078Y-123439223D01*
X134712493Y-123443240D01*
X134717736Y-123446087D01*
X134717742Y-123446091D01*
X134728976Y-123452190D01*
X134771094Y-123496572D01*
X134779080Y-123557234D01*
X134749885Y-123611005D01*
X134733837Y-123622409D01*
X134734087Y-123622776D01*
X134729154Y-123626128D01*
X134723848Y-123628867D01*
X134604291Y-123733164D01*
X134513063Y-123862968D01*
X134455431Y-124010787D01*
X134434722Y-124168085D01*
X134452132Y-124325783D01*
X134506656Y-124474776D01*
X134595146Y-124606463D01*
X134599557Y-124610477D01*
X134599559Y-124610479D01*
X134708078Y-124709223D01*
X134712493Y-124713240D01*
X134717736Y-124716087D01*
X134717742Y-124716091D01*
X134728976Y-124722190D01*
X134771094Y-124766572D01*
X134779080Y-124827234D01*
X134749885Y-124881005D01*
X134733837Y-124892409D01*
X134734087Y-124892776D01*
X134729154Y-124896128D01*
X134723848Y-124898867D01*
X134604291Y-125003164D01*
X134513063Y-125132968D01*
X134455431Y-125280787D01*
X134434722Y-125438085D01*
X134452132Y-125595783D01*
X134506656Y-125744776D01*
X134595146Y-125876463D01*
X134599557Y-125880477D01*
X134599559Y-125880479D01*
X134708078Y-125979223D01*
X134712493Y-125983240D01*
X134717736Y-125986087D01*
X134717742Y-125986091D01*
X134728976Y-125992190D01*
X134771094Y-126036572D01*
X134779080Y-126097234D01*
X134749885Y-126151005D01*
X134733837Y-126162409D01*
X134734087Y-126162776D01*
X134729154Y-126166128D01*
X134723848Y-126168867D01*
X134604291Y-126273164D01*
X134513063Y-126402968D01*
X134455431Y-126550787D01*
X134434722Y-126708085D01*
X130990928Y-126708085D01*
X122228996Y-117946153D01*
X122201219Y-117891636D01*
X122200000Y-117876149D01*
X122200000Y-104800000D01*
X127234397Y-104800000D01*
X127239500Y-104825654D01*
X127254615Y-104901642D01*
X127312190Y-104987810D01*
X127320300Y-104993229D01*
X127320301Y-104993230D01*
X127325831Y-104996925D01*
X127340835Y-105009237D01*
X132815286Y-110483689D01*
X132827598Y-110498693D01*
X132831291Y-110504220D01*
X132836711Y-110512331D01*
X132922879Y-110569906D01*
X132938612Y-110573035D01*
X133024521Y-110590125D01*
X133034082Y-110588223D01*
X133034084Y-110588223D01*
X133040618Y-110586923D01*
X133059933Y-110585021D01*
X135720073Y-110585021D01*
X135739386Y-110586923D01*
X135755479Y-110590124D01*
X135781133Y-110585021D01*
X135857121Y-110569906D01*
X135943289Y-110512331D01*
X135948709Y-110504220D01*
X135952404Y-110498690D01*
X135964716Y-110483686D01*
X136079798Y-110368604D01*
X136134315Y-110340827D01*
X136174923Y-110342849D01*
X136275385Y-110369205D01*
X136281354Y-110369299D01*
X136281356Y-110369299D01*
X136339053Y-110370205D01*
X136434022Y-110371697D01*
X136451522Y-110367689D01*
X136582850Y-110337611D01*
X136582853Y-110337610D01*
X136588673Y-110336277D01*
X136730412Y-110264990D01*
X136851055Y-110161951D01*
X136859299Y-110150479D01*
X136920119Y-110065840D01*
X136969431Y-110029618D01*
X137030615Y-110029298D01*
X137082686Y-110068394D01*
X137135146Y-110146463D01*
X137139557Y-110150477D01*
X137139559Y-110150479D01*
X137248078Y-110249223D01*
X137252493Y-110253240D01*
X137266986Y-110261109D01*
X137386676Y-110326096D01*
X137386678Y-110326097D01*
X137391922Y-110328944D01*
X137397696Y-110330459D01*
X137397699Y-110330460D01*
X137539606Y-110367689D01*
X137545385Y-110369205D01*
X137551354Y-110369299D01*
X137551356Y-110369299D01*
X137609053Y-110370205D01*
X137704022Y-110371697D01*
X137721522Y-110367689D01*
X137829050Y-110343062D01*
X137889994Y-110348501D01*
X137921156Y-110369559D01*
X138035286Y-110483689D01*
X138047598Y-110498693D01*
X138051291Y-110504220D01*
X138056711Y-110512331D01*
X138078460Y-110526863D01*
X138142879Y-110569906D01*
X138152440Y-110571808D01*
X138193700Y-110580015D01*
X138244521Y-110590125D01*
X138254082Y-110588223D01*
X138254083Y-110588223D01*
X138260618Y-110586923D01*
X138279933Y-110585021D01*
X140840073Y-110585021D01*
X140859386Y-110586923D01*
X140875479Y-110590124D01*
X140901133Y-110585021D01*
X140977121Y-110569906D01*
X141063289Y-110512331D01*
X141068709Y-110504220D01*
X141072404Y-110498690D01*
X141084716Y-110483686D01*
X145359165Y-106209237D01*
X145374169Y-106196925D01*
X145379699Y-106193230D01*
X145379700Y-106193229D01*
X145387810Y-106187810D01*
X145445385Y-106101642D01*
X145460500Y-106025654D01*
X145465603Y-106000000D01*
X145462402Y-105983907D01*
X145460500Y-105964594D01*
X145460500Y-85535406D01*
X145462402Y-85516091D01*
X145463701Y-85509561D01*
X145465603Y-85500000D01*
X145445385Y-85398358D01*
X145423805Y-85366061D01*
X145387810Y-85312190D01*
X145379700Y-85306771D01*
X145379699Y-85306770D01*
X145374169Y-85303075D01*
X145359165Y-85290763D01*
X143689496Y-83621094D01*
X143661719Y-83566577D01*
X143660500Y-83551090D01*
X143660500Y-83189500D01*
X143679407Y-83131309D01*
X143728907Y-83095345D01*
X143759499Y-83090500D01*
X143896399Y-83090499D01*
X143910732Y-83090499D01*
X143915498Y-83089551D01*
X143915499Y-83089551D01*
X143962570Y-83080189D01*
X143972133Y-83078287D01*
X144041762Y-83031762D01*
X144088287Y-82962133D01*
X144094002Y-82933404D01*
X144099552Y-82905497D01*
X144100500Y-82900733D01*
X144100499Y-82179268D01*
X144088287Y-82117867D01*
X144041762Y-82048238D01*
X143972133Y-82001713D01*
X143962570Y-81999811D01*
X143962568Y-81999810D01*
X143937938Y-81994911D01*
X143910733Y-81989500D01*
X143800023Y-81989500D01*
X143689268Y-81989501D01*
X143684502Y-81990449D01*
X143684501Y-81990449D01*
X143627867Y-82001713D01*
X143627612Y-82000431D01*
X143576888Y-82004422D01*
X143575524Y-82003979D01*
X143572133Y-82001713D01*
X143561722Y-81999642D01*
X143548946Y-81997101D01*
X143510733Y-81989500D01*
X143400023Y-81989500D01*
X143289268Y-81989501D01*
X143284502Y-81990449D01*
X143284501Y-81990449D01*
X143227867Y-82001713D01*
X143227612Y-82000431D01*
X143176888Y-82004422D01*
X143175524Y-82003979D01*
X143172133Y-82001713D01*
X143161722Y-81999642D01*
X143148946Y-81997101D01*
X143110733Y-81989500D01*
X143000023Y-81989500D01*
X142889268Y-81989501D01*
X142884502Y-81990449D01*
X142884501Y-81990449D01*
X142827867Y-82001713D01*
X142827612Y-82000431D01*
X142776888Y-82004422D01*
X142775524Y-82003979D01*
X142772133Y-82001713D01*
X142761722Y-81999642D01*
X142748946Y-81997101D01*
X142710733Y-81989500D01*
X142600023Y-81989500D01*
X142489268Y-81989501D01*
X142484502Y-81990449D01*
X142484501Y-81990449D01*
X142427867Y-82001713D01*
X142427612Y-82000431D01*
X142376888Y-82004422D01*
X142375524Y-82003979D01*
X142372133Y-82001713D01*
X142361722Y-81999642D01*
X142348946Y-81997101D01*
X142310733Y-81989500D01*
X142200023Y-81989500D01*
X142089268Y-81989501D01*
X142084502Y-81990449D01*
X142084501Y-81990449D01*
X142027867Y-82001713D01*
X142027612Y-82000431D01*
X141976888Y-82004422D01*
X141975524Y-82003979D01*
X141972133Y-82001713D01*
X141961722Y-81999642D01*
X141948946Y-81997101D01*
X141910733Y-81989500D01*
X141800023Y-81989500D01*
X141689268Y-81989501D01*
X141684502Y-81990449D01*
X141684501Y-81990449D01*
X141627867Y-82001713D01*
X141627612Y-82000431D01*
X141576888Y-82004422D01*
X141575524Y-82003979D01*
X141572133Y-82001713D01*
X141561722Y-81999642D01*
X141548946Y-81997101D01*
X141510733Y-81989500D01*
X141400023Y-81989500D01*
X141289268Y-81989501D01*
X141284502Y-81990449D01*
X141284501Y-81990449D01*
X141227867Y-82001713D01*
X141227612Y-82000431D01*
X141176888Y-82004422D01*
X141175524Y-82003979D01*
X141172133Y-82001713D01*
X141161722Y-81999642D01*
X141148946Y-81997101D01*
X141110733Y-81989500D01*
X141000023Y-81989500D01*
X140889268Y-81989501D01*
X140884502Y-81990449D01*
X140884501Y-81990449D01*
X140827867Y-82001713D01*
X140827612Y-82000431D01*
X140776888Y-82004422D01*
X140775524Y-82003979D01*
X140772133Y-82001713D01*
X140761722Y-81999642D01*
X140748946Y-81997101D01*
X140710733Y-81989500D01*
X140600023Y-81989500D01*
X140489268Y-81989501D01*
X140484502Y-81990449D01*
X140484501Y-81990449D01*
X140427867Y-82001713D01*
X140427612Y-82000431D01*
X140376888Y-82004422D01*
X140375524Y-82003979D01*
X140372133Y-82001713D01*
X140361722Y-81999642D01*
X140348946Y-81997101D01*
X140310733Y-81989500D01*
X140200023Y-81989500D01*
X140089268Y-81989501D01*
X140084502Y-81990449D01*
X140084501Y-81990449D01*
X140027867Y-82001713D01*
X140027612Y-82000431D01*
X139976888Y-82004422D01*
X139975524Y-82003979D01*
X139972133Y-82001713D01*
X139961722Y-81999642D01*
X139948946Y-81997101D01*
X139910733Y-81989500D01*
X139800023Y-81989500D01*
X139689268Y-81989501D01*
X139684502Y-81990449D01*
X139684501Y-81990449D01*
X139627867Y-82001713D01*
X139627612Y-82000431D01*
X139576888Y-82004422D01*
X139575524Y-82003979D01*
X139572133Y-82001713D01*
X139561722Y-81999642D01*
X139548946Y-81997101D01*
X139510733Y-81989500D01*
X139400023Y-81989500D01*
X139289268Y-81989501D01*
X139284502Y-81990449D01*
X139284501Y-81990449D01*
X139227867Y-82001713D01*
X139227612Y-82000431D01*
X139176888Y-82004422D01*
X139175524Y-82003979D01*
X139172133Y-82001713D01*
X139161722Y-81999642D01*
X139148946Y-81997101D01*
X139110733Y-81989500D01*
X139000023Y-81989500D01*
X138889268Y-81989501D01*
X138884502Y-81990449D01*
X138884501Y-81990449D01*
X138827867Y-82001713D01*
X138827612Y-82000431D01*
X138776888Y-82004422D01*
X138775524Y-82003979D01*
X138772133Y-82001713D01*
X138761722Y-81999642D01*
X138748946Y-81997101D01*
X138710733Y-81989500D01*
X138600023Y-81989500D01*
X138489268Y-81989501D01*
X138484502Y-81990449D01*
X138484501Y-81990449D01*
X138427867Y-82001713D01*
X138427612Y-82000431D01*
X138376888Y-82004422D01*
X138375524Y-82003979D01*
X138372133Y-82001713D01*
X138361722Y-81999642D01*
X138348946Y-81997101D01*
X138310733Y-81989500D01*
X138200023Y-81989500D01*
X138089268Y-81989501D01*
X138084502Y-81990449D01*
X138084501Y-81990449D01*
X138027867Y-82001713D01*
X138027612Y-82000431D01*
X137976888Y-82004422D01*
X137975524Y-82003979D01*
X137972133Y-82001713D01*
X137961722Y-81999642D01*
X137948946Y-81997101D01*
X137910733Y-81989500D01*
X137800023Y-81989500D01*
X137689268Y-81989501D01*
X137684502Y-81990449D01*
X137684501Y-81990449D01*
X137627867Y-82001713D01*
X137627612Y-82000431D01*
X137576888Y-82004422D01*
X137575524Y-82003979D01*
X137572133Y-82001713D01*
X137561722Y-81999642D01*
X137548946Y-81997101D01*
X137510733Y-81989500D01*
X137400023Y-81989500D01*
X137289268Y-81989501D01*
X137284502Y-81990449D01*
X137284501Y-81990449D01*
X137227867Y-82001713D01*
X137227612Y-82000431D01*
X137176888Y-82004422D01*
X137175524Y-82003979D01*
X137172133Y-82001713D01*
X137161722Y-81999642D01*
X137148946Y-81997101D01*
X137110733Y-81989500D01*
X137000023Y-81989500D01*
X136889268Y-81989501D01*
X136884502Y-81990449D01*
X136884501Y-81990449D01*
X136827867Y-82001713D01*
X136827612Y-82000431D01*
X136776888Y-82004422D01*
X136775524Y-82003979D01*
X136772133Y-82001713D01*
X136761722Y-81999642D01*
X136748946Y-81997101D01*
X136710733Y-81989500D01*
X136600023Y-81989500D01*
X136489268Y-81989501D01*
X136484502Y-81990449D01*
X136484501Y-81990449D01*
X136427867Y-82001713D01*
X136427612Y-82000431D01*
X136376888Y-82004422D01*
X136375524Y-82003979D01*
X136372133Y-82001713D01*
X136361722Y-81999642D01*
X136348946Y-81997101D01*
X136310733Y-81989500D01*
X136200023Y-81989500D01*
X136089268Y-81989501D01*
X136084502Y-81990449D01*
X136084501Y-81990449D01*
X136027867Y-82001713D01*
X136027612Y-82000431D01*
X135976888Y-82004422D01*
X135975524Y-82003979D01*
X135972133Y-82001713D01*
X135961722Y-81999642D01*
X135948946Y-81997101D01*
X135910733Y-81989500D01*
X135800023Y-81989500D01*
X135689268Y-81989501D01*
X135684502Y-81990449D01*
X135684501Y-81990449D01*
X135627867Y-82001713D01*
X135627612Y-82000431D01*
X135576888Y-82004422D01*
X135575524Y-82003979D01*
X135572133Y-82001713D01*
X135561722Y-81999642D01*
X135548946Y-81997101D01*
X135510733Y-81989500D01*
X135400023Y-81989500D01*
X135289268Y-81989501D01*
X135284502Y-81990449D01*
X135284501Y-81990449D01*
X135227867Y-82001713D01*
X135227612Y-82000431D01*
X135176888Y-82004422D01*
X135175524Y-82003979D01*
X135172133Y-82001713D01*
X135161722Y-81999642D01*
X135148946Y-81997101D01*
X135110733Y-81989500D01*
X135000023Y-81989500D01*
X134889268Y-81989501D01*
X134884502Y-81990449D01*
X134884501Y-81990449D01*
X134827867Y-82001713D01*
X134827612Y-82000431D01*
X134776888Y-82004422D01*
X134775524Y-82003979D01*
X134772133Y-82001713D01*
X134761722Y-81999642D01*
X134748946Y-81997101D01*
X134710733Y-81989500D01*
X134600023Y-81989500D01*
X134489268Y-81989501D01*
X134484502Y-81990449D01*
X134484501Y-81990449D01*
X134427867Y-82001713D01*
X134427612Y-82000431D01*
X134376888Y-82004422D01*
X134375524Y-82003979D01*
X134372133Y-82001713D01*
X134361722Y-81999642D01*
X134348946Y-81997101D01*
X134310733Y-81989500D01*
X134200023Y-81989500D01*
X134089268Y-81989501D01*
X134084502Y-81990449D01*
X134084501Y-81990449D01*
X134027867Y-82001713D01*
X134027612Y-82000431D01*
X133976888Y-82004422D01*
X133975524Y-82003979D01*
X133972133Y-82001713D01*
X133961722Y-81999642D01*
X133948946Y-81997101D01*
X133910733Y-81989500D01*
X133800023Y-81989500D01*
X133689268Y-81989501D01*
X133684502Y-81990449D01*
X133684501Y-81990449D01*
X133627867Y-82001713D01*
X133627612Y-82000431D01*
X133576888Y-82004422D01*
X133575524Y-82003979D01*
X133572133Y-82001713D01*
X133561722Y-81999642D01*
X133548946Y-81997101D01*
X133510733Y-81989500D01*
X133400023Y-81989500D01*
X133289268Y-81989501D01*
X133284502Y-81990449D01*
X133284501Y-81990449D01*
X133227867Y-82001713D01*
X133227612Y-82000431D01*
X133176888Y-82004422D01*
X133175524Y-82003979D01*
X133172133Y-82001713D01*
X133161722Y-81999642D01*
X133148946Y-81997101D01*
X133110733Y-81989500D01*
X133000023Y-81989500D01*
X132889268Y-81989501D01*
X132884502Y-81990449D01*
X132884501Y-81990449D01*
X132827867Y-82001713D01*
X132827612Y-82000431D01*
X132776888Y-82004422D01*
X132775524Y-82003979D01*
X132772133Y-82001713D01*
X132761722Y-81999642D01*
X132748946Y-81997101D01*
X132710733Y-81989500D01*
X132600023Y-81989500D01*
X132489268Y-81989501D01*
X132484502Y-81990449D01*
X132484501Y-81990449D01*
X132427867Y-82001713D01*
X132427612Y-82000431D01*
X132376888Y-82004422D01*
X132375524Y-82003979D01*
X132372133Y-82001713D01*
X132361722Y-81999642D01*
X132348946Y-81997101D01*
X132310733Y-81989500D01*
X132200023Y-81989500D01*
X132089268Y-81989501D01*
X132084502Y-81990449D01*
X132084501Y-81990449D01*
X132027867Y-82001713D01*
X132027612Y-82000431D01*
X131976888Y-82004422D01*
X131975524Y-82003979D01*
X131972133Y-82001713D01*
X131961722Y-81999642D01*
X131948946Y-81997101D01*
X131910733Y-81989500D01*
X131800023Y-81989500D01*
X131689268Y-81989501D01*
X131684502Y-81990449D01*
X131684501Y-81990449D01*
X131627867Y-82001713D01*
X131627612Y-82000431D01*
X131576888Y-82004422D01*
X131575524Y-82003979D01*
X131572133Y-82001713D01*
X131561722Y-81999642D01*
X131548946Y-81997101D01*
X131510733Y-81989500D01*
X131400023Y-81989500D01*
X131289268Y-81989501D01*
X131284502Y-81990449D01*
X131284501Y-81990449D01*
X131227867Y-82001713D01*
X131227612Y-82000431D01*
X131176888Y-82004422D01*
X131175524Y-82003979D01*
X131172133Y-82001713D01*
X131161722Y-81999642D01*
X131148946Y-81997101D01*
X131110733Y-81989500D01*
X131000023Y-81989500D01*
X130889268Y-81989501D01*
X130884502Y-81990449D01*
X130884501Y-81990449D01*
X130827867Y-82001713D01*
X130827612Y-82000431D01*
X130776888Y-82004422D01*
X130775524Y-82003979D01*
X130772133Y-82001713D01*
X130761722Y-81999642D01*
X130748946Y-81997101D01*
X130710733Y-81989500D01*
X130600023Y-81989500D01*
X130489268Y-81989501D01*
X130484502Y-81990449D01*
X130484501Y-81990449D01*
X130427867Y-82001713D01*
X130427612Y-82000431D01*
X130376888Y-82004422D01*
X130375524Y-82003979D01*
X130372133Y-82001713D01*
X130361722Y-81999642D01*
X130348946Y-81997101D01*
X130310733Y-81989500D01*
X130200023Y-81989500D01*
X130089268Y-81989501D01*
X130084502Y-81990449D01*
X130084501Y-81990449D01*
X130063877Y-81994551D01*
X130027867Y-82001713D01*
X129958238Y-82048238D01*
X129911713Y-82117867D01*
X129899500Y-82179267D01*
X129899501Y-82900732D01*
X129911713Y-82962133D01*
X129958238Y-83031762D01*
X130027867Y-83078287D01*
X130037430Y-83080189D01*
X130037432Y-83080190D01*
X130060495Y-83084777D01*
X130089267Y-83090500D01*
X130199977Y-83090500D01*
X130310732Y-83090499D01*
X130315498Y-83089551D01*
X130315499Y-83089551D01*
X130372133Y-83078287D01*
X130372388Y-83079569D01*
X130423112Y-83075578D01*
X130424476Y-83076021D01*
X130427867Y-83078287D01*
X130489267Y-83090500D01*
X130503595Y-83090500D01*
X130640500Y-83090499D01*
X130698690Y-83109406D01*
X130734654Y-83158906D01*
X130739500Y-83189499D01*
X130739500Y-84151089D01*
X130720593Y-84209280D01*
X130710504Y-84221093D01*
X127340835Y-87590763D01*
X127325831Y-87603075D01*
X127320301Y-87606770D01*
X127320300Y-87606771D01*
X127312190Y-87612190D01*
X127306771Y-87620300D01*
X127301024Y-87628902D01*
X127261297Y-87688358D01*
X127254615Y-87698358D01*
X127234397Y-87800000D01*
X127236299Y-87809561D01*
X127237598Y-87816091D01*
X127239500Y-87835406D01*
X127239500Y-104764594D01*
X127237598Y-104783907D01*
X127234397Y-104800000D01*
X122200000Y-104800000D01*
X122200000Y-99034222D01*
X122202557Y-99011867D01*
X122203253Y-99008867D01*
X122205142Y-99000716D01*
X122205143Y-99000000D01*
X122203902Y-98994558D01*
X122203726Y-98992989D01*
X122203293Y-98987961D01*
X122188132Y-98737325D01*
X122188132Y-98737323D01*
X122187951Y-98734335D01*
X122168049Y-98625731D01*
X122140515Y-98475483D01*
X122140514Y-98475479D01*
X122139976Y-98472543D01*
X122060796Y-98218443D01*
X122016845Y-98120787D01*
X121952791Y-97978465D01*
X121952787Y-97978457D01*
X121951564Y-97975740D01*
X121932637Y-97944430D01*
X121815425Y-97750539D01*
X121813874Y-97747973D01*
X121649734Y-97538463D01*
X121461537Y-97350266D01*
X121252027Y-97186126D01*
X121024260Y-97048436D01*
X121021543Y-97047213D01*
X121021535Y-97047209D01*
X120784282Y-96940430D01*
X120784276Y-96940428D01*
X120781557Y-96939204D01*
X120527457Y-96860024D01*
X120524521Y-96859486D01*
X120524517Y-96859485D01*
X120268612Y-96812589D01*
X120268611Y-96812589D01*
X120265665Y-96812049D01*
X120262675Y-96811868D01*
X120262674Y-96811868D01*
X120013054Y-96796768D01*
X120007719Y-96796300D01*
X120006171Y-96796122D01*
X120000716Y-96794858D01*
X120000000Y-96794857D01*
X119994551Y-96796100D01*
X119988321Y-96797521D01*
X119966304Y-96800000D01*
X104779000Y-96800000D01*
X104720809Y-96781093D01*
X104684845Y-96731593D01*
X104680000Y-96701000D01*
X104680000Y-92618752D01*
X107170526Y-92618752D01*
X107172031Y-92627286D01*
X107172031Y-92627477D01*
X107172456Y-92630238D01*
X107186251Y-92735016D01*
X107187098Y-92741446D01*
X107234456Y-92855778D01*
X107309792Y-92953958D01*
X107407972Y-93029294D01*
X107522304Y-93076652D01*
X107556976Y-93081217D01*
X107565542Y-93082345D01*
X107576019Y-93084303D01*
X107581205Y-93085565D01*
X107587696Y-93088154D01*
X107593774Y-93088750D01*
X107607703Y-93088750D01*
X107620623Y-93089597D01*
X107632170Y-93091117D01*
X107633515Y-93091294D01*
X107636274Y-93091719D01*
X107636464Y-93091719D01*
X107644998Y-93093224D01*
X107653528Y-93091720D01*
X107653530Y-93091720D01*
X107661843Y-93090254D01*
X107679033Y-93088750D01*
X107730967Y-93088750D01*
X107748157Y-93090254D01*
X107756470Y-93091720D01*
X107756472Y-93091720D01*
X107765002Y-93093224D01*
X107773536Y-93091719D01*
X107773727Y-93091719D01*
X107776488Y-93091294D01*
X107873077Y-93078577D01*
X107933238Y-93089727D01*
X107975356Y-93134109D01*
X107985000Y-93176730D01*
X107985000Y-93355721D01*
X107999757Y-93434957D01*
X108004553Y-93442738D01*
X108004554Y-93442740D01*
X108037023Y-93495414D01*
X108056446Y-93526923D01*
X108063722Y-93532456D01*
X108063723Y-93532457D01*
X108064006Y-93532672D01*
X108142441Y-93592315D01*
X108246211Y-93622365D01*
X108255312Y-93621577D01*
X108255315Y-93621577D01*
X108304162Y-93617346D01*
X108353841Y-93613043D01*
X108450900Y-93565600D01*
X108524372Y-93486396D01*
X108564404Y-93386054D01*
X108565000Y-93379976D01*
X108565000Y-93180943D01*
X108583907Y-93122752D01*
X108633407Y-93086788D01*
X108651077Y-93082790D01*
X108691266Y-93077499D01*
X108691269Y-93077498D01*
X108697696Y-93076652D01*
X108812028Y-93029294D01*
X108832998Y-93013203D01*
X108859733Y-92992689D01*
X108917409Y-92972265D01*
X108980267Y-92992689D01*
X109007002Y-93013203D01*
X109027972Y-93029294D01*
X109142304Y-93076652D01*
X109176976Y-93081217D01*
X109185542Y-93082345D01*
X109196019Y-93084303D01*
X109201205Y-93085565D01*
X109207696Y-93088154D01*
X109213774Y-93088750D01*
X109227703Y-93088750D01*
X109240623Y-93089597D01*
X109252170Y-93091117D01*
X109253515Y-93091294D01*
X109256274Y-93091719D01*
X109256464Y-93091719D01*
X109264998Y-93093224D01*
X109273528Y-93091720D01*
X109273530Y-93091720D01*
X109281843Y-93090254D01*
X109299033Y-93088750D01*
X109410968Y-93088750D01*
X109428157Y-93090254D01*
X109436475Y-93091720D01*
X109436477Y-93091720D01*
X109445008Y-93093224D01*
X109453536Y-93091720D01*
X109453537Y-93091720D01*
X109457216Y-93091071D01*
X109469615Y-93088884D01*
X109470617Y-93088750D01*
X109471971Y-93088750D01*
X109477526Y-93087716D01*
X109482710Y-93086892D01*
X109538984Y-93079482D01*
X109544981Y-93076998D01*
X109544984Y-93076997D01*
X109620557Y-93045692D01*
X109620560Y-93045691D01*
X109626555Y-93043207D01*
X109631705Y-93039255D01*
X109637322Y-93036012D01*
X109638940Y-93038814D01*
X109684134Y-93022704D01*
X109746854Y-93042858D01*
X109772441Y-93062315D01*
X109876211Y-93092365D01*
X109885312Y-93091577D01*
X109885315Y-93091577D01*
X109934162Y-93087346D01*
X109983841Y-93083043D01*
X110001994Y-93074170D01*
X110065338Y-93043207D01*
X110080900Y-93035600D01*
X110087119Y-93028896D01*
X110088794Y-93027652D01*
X110146784Y-93008136D01*
X110207743Y-93028326D01*
X110252441Y-93062315D01*
X110356211Y-93092365D01*
X110365312Y-93091577D01*
X110365315Y-93091577D01*
X110414162Y-93087346D01*
X110463841Y-93083043D01*
X110560900Y-93035600D01*
X110634372Y-92956396D01*
X110674404Y-92856054D01*
X110675000Y-92849976D01*
X110675000Y-92849451D01*
X110676176Y-92844617D01*
X110708304Y-92792545D01*
X110764902Y-92769302D01*
X110824354Y-92783766D01*
X110863834Y-92830135D01*
X110871971Y-92849781D01*
X110871974Y-92849787D01*
X110874456Y-92855778D01*
X110949792Y-92953958D01*
X111047972Y-93029294D01*
X111162304Y-93076652D01*
X111196976Y-93081217D01*
X111205542Y-93082345D01*
X111216019Y-93084303D01*
X111221205Y-93085565D01*
X111227696Y-93088154D01*
X111233774Y-93088750D01*
X111247703Y-93088750D01*
X111260623Y-93089597D01*
X111272170Y-93091117D01*
X111273515Y-93091294D01*
X111276274Y-93091719D01*
X111276464Y-93091719D01*
X111284998Y-93093224D01*
X111293528Y-93091720D01*
X111293530Y-93091720D01*
X111301843Y-93090254D01*
X111319033Y-93088750D01*
X111430968Y-93088750D01*
X111448157Y-93090254D01*
X111456475Y-93091720D01*
X111456477Y-93091720D01*
X111465008Y-93093224D01*
X111473536Y-93091720D01*
X111473537Y-93091720D01*
X111477216Y-93091071D01*
X111489615Y-93088884D01*
X111490617Y-93088750D01*
X111491971Y-93088750D01*
X111497525Y-93087716D01*
X111502876Y-93086870D01*
X111503084Y-93086843D01*
X111503243Y-93086822D01*
X111563385Y-93098074D01*
X111605427Y-93142527D01*
X111615000Y-93184997D01*
X111615000Y-93355721D01*
X111629757Y-93434957D01*
X111634553Y-93442738D01*
X111634554Y-93442740D01*
X111667023Y-93495414D01*
X111686446Y-93526923D01*
X111693722Y-93532456D01*
X111693723Y-93532457D01*
X111694006Y-93532672D01*
X111772441Y-93592315D01*
X111876211Y-93622365D01*
X111885312Y-93621577D01*
X111885315Y-93621577D01*
X111934162Y-93617346D01*
X111983841Y-93613043D01*
X112080900Y-93565600D01*
X112154372Y-93486396D01*
X112194404Y-93386054D01*
X112195000Y-93379976D01*
X112195000Y-93180943D01*
X112213907Y-93122752D01*
X112263407Y-93086788D01*
X112281077Y-93082790D01*
X112321266Y-93077499D01*
X112321269Y-93077498D01*
X112327696Y-93076652D01*
X112442028Y-93029294D01*
X112447171Y-93025348D01*
X112447179Y-93025343D01*
X112451785Y-93021808D01*
X112509460Y-93001383D01*
X112571975Y-93021544D01*
X112612441Y-93052315D01*
X112716211Y-93082365D01*
X112725312Y-93081577D01*
X112725315Y-93081577D01*
X112774162Y-93077346D01*
X112823841Y-93073043D01*
X112832051Y-93069030D01*
X112912689Y-93029614D01*
X112912691Y-93029613D01*
X112920900Y-93025600D01*
X112927035Y-93018987D01*
X112984957Y-92999493D01*
X113044784Y-93018835D01*
X113106219Y-93064181D01*
X113121050Y-93068247D01*
X113172170Y-93101867D01*
X113193767Y-93159114D01*
X113189967Y-93191260D01*
X113161385Y-93289961D01*
X113162173Y-93299062D01*
X113162173Y-93299065D01*
X113165747Y-93340323D01*
X113170707Y-93397591D01*
X113218150Y-93494650D01*
X113297354Y-93568122D01*
X113397696Y-93608154D01*
X113403774Y-93608750D01*
X113473407Y-93608750D01*
X113489270Y-93610029D01*
X113511841Y-93613693D01*
X113517904Y-93612957D01*
X113560390Y-93603516D01*
X113563704Y-93602840D01*
X113611207Y-93593993D01*
X113615032Y-93591635D01*
X113618302Y-93590647D01*
X113651398Y-93583292D01*
X113651952Y-93583171D01*
X113683928Y-93576282D01*
X113699950Y-93572830D01*
X113699951Y-93572830D01*
X113708889Y-93570904D01*
X113725082Y-93560284D01*
X113740567Y-93551992D01*
X113758386Y-93544399D01*
X113764938Y-93538033D01*
X113764943Y-93538029D01*
X113770455Y-93532672D01*
X113785156Y-93520886D01*
X113793381Y-93515492D01*
X113799227Y-93511658D01*
X113803201Y-93507020D01*
X113804583Y-93505045D01*
X113804592Y-93505034D01*
X113811326Y-93495414D01*
X113823435Y-93481189D01*
X113829307Y-93475483D01*
X113829308Y-93475481D01*
X113835865Y-93469110D01*
X113839689Y-93460804D01*
X113843917Y-93451621D01*
X113852740Y-93436250D01*
X113915432Y-93346690D01*
X113915434Y-93346687D01*
X113918044Y-93342958D01*
X113919589Y-93339558D01*
X113928141Y-93327057D01*
X113929914Y-93324870D01*
X113929916Y-93324866D01*
X113934316Y-93319439D01*
X113936691Y-93313813D01*
X113946571Y-93282056D01*
X113946652Y-93281845D01*
X113946661Y-93281769D01*
X113948407Y-93276156D01*
X113951394Y-93269583D01*
X113951508Y-93267634D01*
X113952453Y-93266115D01*
X113951612Y-93265853D01*
X113996909Y-93120254D01*
X114014675Y-93063150D01*
X114050015Y-93013203D01*
X114107964Y-92993568D01*
X114166287Y-93011672D01*
X114168517Y-93013245D01*
X114174897Y-93019797D01*
X114193477Y-93028327D01*
X114194799Y-93028934D01*
X114213030Y-93040525D01*
X114214320Y-93041974D01*
X114219490Y-93045225D01*
X114251944Y-93061452D01*
X114258606Y-93065109D01*
X114263836Y-93068247D01*
X114268924Y-93071300D01*
X114274561Y-93073398D01*
X114284303Y-93077632D01*
X114329431Y-93100196D01*
X114333825Y-93101457D01*
X114333827Y-93101458D01*
X114371903Y-93112388D01*
X114381174Y-93115558D01*
X114381211Y-93115567D01*
X114387696Y-93118154D01*
X114393774Y-93118750D01*
X114394013Y-93118750D01*
X114394768Y-93118950D01*
X114398114Y-93119910D01*
X114398116Y-93119910D01*
X114406902Y-93122432D01*
X114416006Y-93121622D01*
X114416007Y-93121622D01*
X114443895Y-93119140D01*
X114452670Y-93118750D01*
X114530967Y-93118750D01*
X114548157Y-93120254D01*
X114556470Y-93121720D01*
X114556472Y-93121720D01*
X114565002Y-93123224D01*
X114573536Y-93121719D01*
X114573727Y-93121719D01*
X114576488Y-93121294D01*
X114681266Y-93107499D01*
X114681269Y-93107498D01*
X114687696Y-93106652D01*
X114802028Y-93059294D01*
X114900208Y-92983958D01*
X114975544Y-92885778D01*
X115022902Y-92771446D01*
X115023748Y-92765021D01*
X115023749Y-92765017D01*
X115031464Y-92706415D01*
X115032515Y-92700788D01*
X115034404Y-92696054D01*
X115035000Y-92689976D01*
X115035000Y-92686047D01*
X115035847Y-92673121D01*
X115037544Y-92660235D01*
X115037969Y-92657476D01*
X115037969Y-92657286D01*
X115039474Y-92648752D01*
X115037384Y-92636898D01*
X115037519Y-92601769D01*
X115038757Y-92595051D01*
X115038757Y-92595049D01*
X115040022Y-92588184D01*
X115039415Y-92582107D01*
X115030406Y-92537062D01*
X115030156Y-92535772D01*
X115030027Y-92535077D01*
X115025188Y-92509095D01*
X115023586Y-92494690D01*
X115023148Y-92483025D01*
X115022805Y-92473890D01*
X115019196Y-92465489D01*
X115003351Y-92428609D01*
X115002430Y-92426391D01*
X114987010Y-92387955D01*
X114987007Y-92387949D01*
X114984069Y-92380626D01*
X114981593Y-92377967D01*
X114980159Y-92374630D01*
X114976283Y-92369911D01*
X114945650Y-92339278D01*
X114943203Y-92336741D01*
X114928421Y-92320867D01*
X114902602Y-92265396D01*
X114914318Y-92205343D01*
X114928291Y-92186072D01*
X114968155Y-92143098D01*
X114974372Y-92136396D01*
X115014404Y-92036054D01*
X115015000Y-92029976D01*
X115015000Y-91990144D01*
X115016262Y-91974384D01*
X115018482Y-91960616D01*
X115019937Y-91951593D01*
X115018046Y-91942652D01*
X115018046Y-91942649D01*
X115009737Y-91903359D01*
X115009269Y-91901002D01*
X115001691Y-91860311D01*
X115001687Y-91860299D01*
X115000243Y-91852543D01*
X114998336Y-91849449D01*
X114997585Y-91845898D01*
X114994710Y-91840510D01*
X114974745Y-91810564D01*
X114970671Y-91803567D01*
X114968482Y-91796024D01*
X114955269Y-91778671D01*
X114949769Y-91770660D01*
X114943554Y-91760577D01*
X114939870Y-91757775D01*
X114937691Y-91754981D01*
X114933864Y-91749241D01*
X114931334Y-91745446D01*
X114928151Y-91742177D01*
X114926186Y-91739748D01*
X114921440Y-91734243D01*
X114907271Y-91715634D01*
X114907270Y-91715633D01*
X114903035Y-91710071D01*
X114898130Y-91706433D01*
X114896044Y-91705181D01*
X114894048Y-91703847D01*
X114894293Y-91703480D01*
X114889068Y-91699347D01*
X114888946Y-91699520D01*
X114881481Y-91694252D01*
X114875103Y-91687703D01*
X114855199Y-91678565D01*
X114836966Y-91666971D01*
X114835679Y-91665526D01*
X114830510Y-91662275D01*
X114798052Y-91646046D01*
X114791391Y-91642390D01*
X114787409Y-91640001D01*
X114781076Y-91636201D01*
X114776810Y-91634614D01*
X114776805Y-91634611D01*
X114775452Y-91634108D01*
X114765713Y-91629877D01*
X114720568Y-91607304D01*
X114716189Y-91606047D01*
X114716186Y-91606046D01*
X114678102Y-91595115D01*
X114668836Y-91591946D01*
X114668797Y-91591937D01*
X114662304Y-91589346D01*
X114656226Y-91588750D01*
X114655986Y-91588750D01*
X114655239Y-91588552D01*
X114651886Y-91587590D01*
X114651884Y-91587590D01*
X114643098Y-91585068D01*
X114633994Y-91585878D01*
X114633993Y-91585878D01*
X114606105Y-91588360D01*
X114597330Y-91588750D01*
X114519033Y-91588750D01*
X114501843Y-91587246D01*
X114493530Y-91585780D01*
X114493528Y-91585780D01*
X114484998Y-91584276D01*
X114476464Y-91585781D01*
X114476273Y-91585781D01*
X114473512Y-91586206D01*
X114368734Y-91600001D01*
X114368731Y-91600002D01*
X114362304Y-91600848D01*
X114356313Y-91603329D01*
X114350042Y-91605010D01*
X114349584Y-91603302D01*
X114296978Y-91607445D01*
X114265544Y-91593801D01*
X114209713Y-91556942D01*
X114200788Y-91554991D01*
X114200786Y-91554990D01*
X114141050Y-91541931D01*
X114104172Y-91533869D01*
X114095141Y-91535262D01*
X114095140Y-91535262D01*
X114083834Y-91537006D01*
X113997401Y-91550338D01*
X113989476Y-91554889D01*
X113989474Y-91554890D01*
X113967665Y-91567415D01*
X113903717Y-91604140D01*
X113852362Y-91667488D01*
X113801030Y-91700784D01*
X113739931Y-91697548D01*
X113689311Y-91653924D01*
X113680768Y-91638836D01*
X113673701Y-91633036D01*
X113673700Y-91633034D01*
X113604327Y-91576092D01*
X113597262Y-91570293D01*
X113494680Y-91536408D01*
X113425793Y-91539802D01*
X113395908Y-91541274D01*
X113395907Y-91541274D01*
X113386777Y-91541724D01*
X113341122Y-91561975D01*
X113296377Y-91581822D01*
X113296375Y-91581823D01*
X113288023Y-91585528D01*
X113281566Y-91591989D01*
X113281561Y-91591993D01*
X113258732Y-91614839D01*
X113204225Y-91642637D01*
X113167711Y-91640730D01*
X113167695Y-91640848D01*
X113161267Y-91640002D01*
X113161265Y-91640001D01*
X113124458Y-91635155D01*
X113114001Y-91633201D01*
X113110619Y-91632379D01*
X113058540Y-91600264D01*
X113035284Y-91543670D01*
X113035000Y-91536180D01*
X113035000Y-91341779D01*
X113020243Y-91262543D01*
X113015447Y-91254762D01*
X113015446Y-91254760D01*
X112968352Y-91178361D01*
X112963554Y-91170577D01*
X112956278Y-91165044D01*
X112956277Y-91165043D01*
X112912691Y-91131900D01*
X112877559Y-91105185D01*
X112773789Y-91075135D01*
X112764688Y-91075923D01*
X112764685Y-91075923D01*
X112715838Y-91080154D01*
X112666159Y-91084457D01*
X112569100Y-91131900D01*
X112495628Y-91211104D01*
X112455596Y-91311446D01*
X112455000Y-91317524D01*
X112455000Y-91546816D01*
X112436093Y-91605007D01*
X112386593Y-91640971D01*
X112331477Y-91642414D01*
X112327696Y-91640848D01*
X112293024Y-91636283D01*
X112284458Y-91635155D01*
X112273981Y-91633197D01*
X112268795Y-91631935D01*
X112262304Y-91629346D01*
X112256226Y-91628750D01*
X112242297Y-91628750D01*
X112229377Y-91627903D01*
X112216487Y-91626206D01*
X112213726Y-91625781D01*
X112213536Y-91625781D01*
X112205002Y-91624276D01*
X112196472Y-91625780D01*
X112196470Y-91625780D01*
X112188157Y-91627246D01*
X112170967Y-91628750D01*
X112012037Y-91628750D01*
X111953846Y-91609843D01*
X111917882Y-91560343D01*
X111917882Y-91499157D01*
X111932661Y-91470586D01*
X111933476Y-91469493D01*
X111939776Y-91463556D01*
X111943666Y-91455821D01*
X111945597Y-91453231D01*
X111947347Y-91450509D01*
X111953226Y-91444150D01*
X111956386Y-91436615D01*
X111956778Y-91436076D01*
X111958152Y-91433795D01*
X111958444Y-91433197D01*
X111963628Y-91426883D01*
X111966502Y-91418712D01*
X111969825Y-91412811D01*
X111972604Y-91406641D01*
X111977476Y-91399484D01*
X111984134Y-91373260D01*
X111988790Y-91359342D01*
X111999254Y-91334390D01*
X111999646Y-91326229D01*
X111999834Y-91325577D01*
X112000340Y-91322991D01*
X112000412Y-91322313D01*
X112003123Y-91314606D01*
X112003051Y-91308009D01*
X112004637Y-91301162D01*
X112271647Y-90411126D01*
X112272508Y-90408896D01*
X112274225Y-90406493D01*
X112277657Y-90394148D01*
X112285428Y-90374565D01*
X112287358Y-90370897D01*
X112291390Y-90363234D01*
X112292494Y-90355120D01*
X112295964Y-90347694D01*
X112297671Y-90328347D01*
X112300906Y-90310529D01*
X112303787Y-90300167D01*
X112303787Y-90300164D01*
X112306107Y-90291821D01*
X112305110Y-90279043D01*
X112305715Y-90257989D01*
X112306424Y-90252778D01*
X112307442Y-90245301D01*
X112306765Y-90242184D01*
X112307137Y-90239018D01*
X112305984Y-90234139D01*
X112306425Y-90229135D01*
X112301411Y-90210367D01*
X112298358Y-90192524D01*
X112297521Y-90181795D01*
X112297521Y-90181793D01*
X112296847Y-90173162D01*
X112289865Y-90157814D01*
X112283635Y-90139600D01*
X112279755Y-90123190D01*
X112277001Y-90118998D01*
X112275705Y-90114146D01*
X112270743Y-90107049D01*
X112270742Y-90107046D01*
X112269460Y-90105213D01*
X112258968Y-90085973D01*
X112251595Y-90067951D01*
X111379703Y-87936662D01*
X111378685Y-87934067D01*
X111362972Y-87892305D01*
X111362970Y-87892302D01*
X111359921Y-87884198D01*
X111354281Y-87877622D01*
X111341972Y-87863270D01*
X111333390Y-87851644D01*
X111323305Y-87835659D01*
X111323303Y-87835657D01*
X111318681Y-87828331D01*
X111306774Y-87819111D01*
X111292240Y-87805287D01*
X111288073Y-87800428D01*
X111288071Y-87800427D01*
X111282435Y-87793855D01*
X111274891Y-87789608D01*
X111274888Y-87789605D01*
X111258409Y-87780327D01*
X111246369Y-87772338D01*
X111231424Y-87760766D01*
X111224574Y-87755462D01*
X111216326Y-87752822D01*
X111216323Y-87752820D01*
X111210233Y-87750871D01*
X111191845Y-87742851D01*
X111191058Y-87742408D01*
X111178723Y-87735463D01*
X111162897Y-87732849D01*
X111151526Y-87730970D01*
X111137479Y-87727581D01*
X111119470Y-87721816D01*
X111111220Y-87719175D01*
X111102564Y-87719515D01*
X111096171Y-87719766D01*
X111076150Y-87718518D01*
X111069841Y-87717476D01*
X111069840Y-87717476D01*
X111061293Y-87716064D01*
X111052781Y-87717660D01*
X111052779Y-87717660D01*
X111034205Y-87721143D01*
X111019845Y-87722763D01*
X111000948Y-87723505D01*
X110992291Y-87723845D01*
X110984274Y-87727125D01*
X110984272Y-87727125D01*
X110978347Y-87729549D01*
X110959111Y-87735223D01*
X110952822Y-87736402D01*
X110952821Y-87736402D01*
X110944312Y-87737998D01*
X110936863Y-87742407D01*
X110936860Y-87742408D01*
X110920595Y-87752035D01*
X110907660Y-87758467D01*
X110882132Y-87768910D01*
X110875721Y-87774733D01*
X110875720Y-87774734D01*
X110870982Y-87779038D01*
X110854841Y-87790953D01*
X110841887Y-87798620D01*
X110824395Y-87819931D01*
X110814444Y-87830393D01*
X110794030Y-87848935D01*
X110789996Y-87856602D01*
X110787016Y-87862265D01*
X110775928Y-87878975D01*
X110766372Y-87890617D01*
X110763499Y-87898784D01*
X110763498Y-87898786D01*
X110757222Y-87916629D01*
X110751448Y-87929866D01*
X110738610Y-87954266D01*
X110737442Y-87962847D01*
X110737441Y-87962850D01*
X110736579Y-87969186D01*
X110731875Y-87988683D01*
X110729750Y-87994724D01*
X110729750Y-87994727D01*
X110726877Y-88002893D01*
X110726971Y-88011550D01*
X110727175Y-88030454D01*
X110726277Y-88044871D01*
X110722558Y-88072199D01*
X110733874Y-88124321D01*
X110734421Y-88127025D01*
X110809312Y-88526445D01*
X110870504Y-88852802D01*
X110862645Y-88913481D01*
X110820620Y-88957951D01*
X110760483Y-88969227D01*
X110715657Y-88951607D01*
X110097724Y-88510226D01*
X110082522Y-88496816D01*
X110078509Y-88492468D01*
X110078507Y-88492467D01*
X110072632Y-88486102D01*
X110065437Y-88482390D01*
X110063650Y-88481103D01*
X110057857Y-88475460D01*
X110049960Y-88471903D01*
X110049958Y-88471902D01*
X110014189Y-88455792D01*
X110009452Y-88453506D01*
X110002822Y-88450085D01*
X109966859Y-88431531D01*
X109961590Y-88430857D01*
X109956801Y-88428569D01*
X109952907Y-88428191D01*
X109949336Y-88426583D01*
X109901559Y-88423036D01*
X109896352Y-88422510D01*
X109848800Y-88416427D01*
X109843620Y-88417595D01*
X109838336Y-88417083D01*
X109834545Y-88418061D01*
X109830642Y-88417771D01*
X109822706Y-88420010D01*
X109822704Y-88420010D01*
X109784515Y-88430782D01*
X109779421Y-88432074D01*
X109741142Y-88440708D01*
X109732696Y-88442613D01*
X109728231Y-88445480D01*
X109723087Y-88446807D01*
X109719859Y-88449022D01*
X109716092Y-88450085D01*
X109685791Y-88471902D01*
X109677210Y-88478080D01*
X109672861Y-88481039D01*
X109661416Y-88488389D01*
X109661411Y-88488393D01*
X109657775Y-88490728D01*
X109654709Y-88493559D01*
X109650547Y-88496592D01*
X109631755Y-88509489D01*
X109631752Y-88509492D01*
X109624954Y-88514157D01*
X109622679Y-88517343D01*
X109619503Y-88519629D01*
X109614866Y-88526440D01*
X109614862Y-88526445D01*
X109614097Y-88527569D01*
X109599412Y-88544601D01*
X108379614Y-89670568D01*
X108371688Y-89676127D01*
X108371874Y-89676371D01*
X108368640Y-89677876D01*
X108363732Y-89682777D01*
X108357567Y-89685952D01*
X108328915Y-89716946D01*
X108323386Y-89722471D01*
X108314386Y-89730779D01*
X108311770Y-89734213D01*
X108308939Y-89737326D01*
X108305658Y-89740764D01*
X108284417Y-89761974D01*
X108281481Y-89768258D01*
X108276774Y-89773350D01*
X108273425Y-89781336D01*
X108269235Y-89787850D01*
X108265686Y-89794730D01*
X108260440Y-89801618D01*
X108251540Y-89830210D01*
X108246715Y-89842672D01*
X108234037Y-89869806D01*
X108233428Y-89876713D01*
X108230745Y-89883110D01*
X108230329Y-89891761D01*
X108228624Y-89899296D01*
X108227640Y-89906987D01*
X108225065Y-89915260D01*
X108225475Y-89923915D01*
X108226480Y-89945158D01*
X108226208Y-89958535D01*
X108223576Y-89988366D01*
X108225366Y-89995066D01*
X108225033Y-90001993D01*
X108227601Y-90010266D01*
X108228578Y-90017943D01*
X108230282Y-90025496D01*
X108230691Y-90034147D01*
X108234034Y-90042134D01*
X108242248Y-90061762D01*
X108246568Y-90074428D01*
X108254296Y-90103354D01*
X108258270Y-90109038D01*
X108260326Y-90115661D01*
X108265571Y-90122559D01*
X108269117Y-90129445D01*
X108273294Y-90135949D01*
X108276639Y-90143941D01*
X108296945Y-90165939D01*
X108305338Y-90176366D01*
X108317523Y-90193795D01*
X108317526Y-90193798D01*
X108322491Y-90200900D01*
X108328169Y-90204882D01*
X108332367Y-90210403D01*
X108339648Y-90215087D01*
X108345335Y-90220344D01*
X108351492Y-90225032D01*
X108357368Y-90231398D01*
X108373184Y-90239558D01*
X108383976Y-90245126D01*
X108395427Y-90252051D01*
X108419936Y-90269239D01*
X108428301Y-90271487D01*
X108432180Y-90272530D01*
X108451874Y-90280155D01*
X108463142Y-90285969D01*
X108471731Y-90287068D01*
X108480006Y-90289644D01*
X108479773Y-90290394D01*
X108489121Y-90292905D01*
X111236387Y-91444984D01*
X111282738Y-91484924D01*
X111296761Y-91544481D01*
X111273099Y-91600905D01*
X111220790Y-91632646D01*
X111211029Y-91634433D01*
X111197600Y-91636201D01*
X111168734Y-91640001D01*
X111168731Y-91640002D01*
X111162304Y-91640848D01*
X111047972Y-91688206D01*
X110949792Y-91763542D01*
X110874456Y-91861722D01*
X110840935Y-91942649D01*
X110836464Y-91953443D01*
X110796727Y-91999968D01*
X110737233Y-92014252D01*
X110680705Y-91990837D01*
X110653536Y-91953443D01*
X110649065Y-91942649D01*
X110615544Y-91861722D01*
X110540208Y-91763542D01*
X110442028Y-91688206D01*
X110327696Y-91640848D01*
X110293024Y-91636283D01*
X110284458Y-91635155D01*
X110273981Y-91633197D01*
X110268795Y-91631935D01*
X110262304Y-91629346D01*
X110256226Y-91628750D01*
X110242297Y-91628750D01*
X110229377Y-91627903D01*
X110216487Y-91626206D01*
X110213726Y-91625781D01*
X110213536Y-91625781D01*
X110205002Y-91624276D01*
X110196472Y-91625780D01*
X110196470Y-91625780D01*
X110188157Y-91627246D01*
X110170967Y-91628750D01*
X109958349Y-91628750D01*
X109948688Y-91628277D01*
X109942565Y-91627676D01*
X109933789Y-91625135D01*
X109924688Y-91625923D01*
X109924686Y-91625923D01*
X109896310Y-91628381D01*
X109887768Y-91628750D01*
X109878029Y-91628750D01*
X109870597Y-91630134D01*
X109861024Y-91631437D01*
X109844065Y-91632906D01*
X109835266Y-91633668D01*
X109835265Y-91633668D01*
X109826159Y-91634457D01*
X109817944Y-91638473D01*
X109812773Y-91639907D01*
X109807780Y-91641833D01*
X109798793Y-91643507D01*
X109791012Y-91648303D01*
X109791010Y-91648304D01*
X109769009Y-91661866D01*
X109760539Y-91666532D01*
X109729100Y-91681900D01*
X109727076Y-91684082D01*
X109672551Y-91702433D01*
X109623955Y-91689684D01*
X109622028Y-91688206D01*
X109616039Y-91685725D01*
X109616035Y-91685723D01*
X109513688Y-91643330D01*
X109507696Y-91640848D01*
X109473024Y-91636283D01*
X109464458Y-91635155D01*
X109453981Y-91633197D01*
X109448795Y-91631935D01*
X109442304Y-91629346D01*
X109436226Y-91628750D01*
X109422297Y-91628750D01*
X109409377Y-91627903D01*
X109396487Y-91626206D01*
X109393726Y-91625781D01*
X109393536Y-91625781D01*
X109385002Y-91624276D01*
X109376472Y-91625780D01*
X109376470Y-91625780D01*
X109368157Y-91627246D01*
X109350967Y-91628750D01*
X109299033Y-91628750D01*
X109281843Y-91627246D01*
X109273530Y-91625780D01*
X109273528Y-91625780D01*
X109264998Y-91624276D01*
X109256464Y-91625781D01*
X109256273Y-91625781D01*
X109253512Y-91626206D01*
X109148734Y-91640001D01*
X109148731Y-91640002D01*
X109142304Y-91640848D01*
X109027972Y-91688206D01*
X109022823Y-91692157D01*
X108980267Y-91724811D01*
X108922591Y-91745235D01*
X108859733Y-91724811D01*
X108817177Y-91692157D01*
X108812028Y-91688206D01*
X108697696Y-91640848D01*
X108663024Y-91636283D01*
X108654458Y-91635155D01*
X108643981Y-91633197D01*
X108638795Y-91631935D01*
X108632304Y-91629346D01*
X108626226Y-91628750D01*
X108612297Y-91628750D01*
X108599377Y-91627903D01*
X108586487Y-91626206D01*
X108583726Y-91625781D01*
X108583536Y-91625781D01*
X108575002Y-91624276D01*
X108566472Y-91625780D01*
X108566470Y-91625780D01*
X108558157Y-91627246D01*
X108540967Y-91628750D01*
X108328349Y-91628750D01*
X108318688Y-91628277D01*
X108312565Y-91627676D01*
X108303789Y-91625135D01*
X108294688Y-91625923D01*
X108294686Y-91625923D01*
X108266310Y-91628381D01*
X108257768Y-91628750D01*
X108248029Y-91628750D01*
X108240597Y-91630134D01*
X108231024Y-91631437D01*
X108214065Y-91632906D01*
X108205266Y-91633668D01*
X108205265Y-91633668D01*
X108196159Y-91634457D01*
X108187944Y-91638473D01*
X108182773Y-91639907D01*
X108177780Y-91641833D01*
X108168793Y-91643507D01*
X108161012Y-91648303D01*
X108161010Y-91648304D01*
X108139009Y-91661866D01*
X108130539Y-91666532D01*
X108100914Y-91681013D01*
X108100912Y-91681014D01*
X108099100Y-91681900D01*
X108098984Y-91681663D01*
X108046923Y-91699185D01*
X108002327Y-91687484D01*
X108002028Y-91688206D01*
X107996755Y-91686022D01*
X107996756Y-91686022D01*
X107996029Y-91685721D01*
X107996027Y-91685720D01*
X107893688Y-91643330D01*
X107887696Y-91640848D01*
X107853024Y-91636283D01*
X107844458Y-91635155D01*
X107833981Y-91633197D01*
X107828795Y-91631935D01*
X107822304Y-91629346D01*
X107816226Y-91628750D01*
X107802297Y-91628750D01*
X107789377Y-91627903D01*
X107776487Y-91626206D01*
X107773726Y-91625781D01*
X107773536Y-91625781D01*
X107765002Y-91624276D01*
X107756472Y-91625780D01*
X107756470Y-91625780D01*
X107748157Y-91627246D01*
X107730967Y-91628750D01*
X107679033Y-91628750D01*
X107661843Y-91627246D01*
X107653530Y-91625780D01*
X107653528Y-91625780D01*
X107644998Y-91624276D01*
X107636464Y-91625781D01*
X107636273Y-91625781D01*
X107633512Y-91626206D01*
X107528734Y-91640001D01*
X107528731Y-91640002D01*
X107522304Y-91640848D01*
X107407972Y-91688206D01*
X107309792Y-91763542D01*
X107234456Y-91861722D01*
X107187098Y-91976054D01*
X107182533Y-92010726D01*
X107181405Y-92019292D01*
X107179447Y-92029769D01*
X107178185Y-92034955D01*
X107175596Y-92041446D01*
X107175000Y-92047524D01*
X107175000Y-92061453D01*
X107174153Y-92074379D01*
X107172456Y-92087265D01*
X107172031Y-92090024D01*
X107172031Y-92090214D01*
X107170526Y-92098748D01*
X107172030Y-92107278D01*
X107172030Y-92107280D01*
X107173496Y-92115593D01*
X107175000Y-92132783D01*
X107175000Y-92584717D01*
X107173496Y-92601907D01*
X107170526Y-92618752D01*
X104680000Y-92618752D01*
X104680000Y-84299000D01*
X104698907Y-84240809D01*
X104748407Y-84204845D01*
X104779000Y-84200000D01*
X119965778Y-84200000D01*
X119988130Y-84202557D01*
X119999284Y-84205142D01*
X120000000Y-84205143D01*
X120005442Y-84203902D01*
X120007011Y-84203726D01*
X120012039Y-84203293D01*
X120262675Y-84188132D01*
X120262677Y-84188132D01*
X120265665Y-84187951D01*
X120268612Y-84187411D01*
X120524517Y-84140515D01*
X120524521Y-84140514D01*
X120527457Y-84139976D01*
X120781557Y-84060796D01*
X120784276Y-84059572D01*
X120784282Y-84059570D01*
X121021535Y-83952791D01*
X121021543Y-83952787D01*
X121024260Y-83951564D01*
X121252027Y-83813874D01*
X121461537Y-83649734D01*
X121649734Y-83461537D01*
X121813874Y-83252027D01*
X121917754Y-83080189D01*
X121950016Y-83026821D01*
X121950017Y-83026819D01*
X121951564Y-83024260D01*
X121952787Y-83021543D01*
X121952791Y-83021535D01*
X122059570Y-82784282D01*
X122059572Y-82784276D01*
X122060796Y-82781557D01*
X122139976Y-82527457D01*
X122147186Y-82488116D01*
X122187411Y-82268612D01*
X122187411Y-82268611D01*
X122187951Y-82265665D01*
X122192883Y-82184128D01*
X122203232Y-82013054D01*
X122203700Y-82007719D01*
X122203878Y-82006171D01*
X122205142Y-82000716D01*
X122205143Y-82000000D01*
X122202479Y-81988321D01*
X122200242Y-81968453D01*
X124795272Y-81968453D01*
X124795569Y-81972979D01*
X124796608Y-81988827D01*
X124796608Y-81988830D01*
X124808777Y-82174501D01*
X124809696Y-82188526D01*
X124810812Y-82192919D01*
X124810812Y-82192921D01*
X124828527Y-82262674D01*
X124863984Y-82402284D01*
X124956317Y-82602570D01*
X125083604Y-82782676D01*
X125241580Y-82936570D01*
X125245353Y-82939091D01*
X125421178Y-83056575D01*
X125421181Y-83056577D01*
X125424956Y-83059099D01*
X125517210Y-83098734D01*
X125623412Y-83144362D01*
X125623416Y-83144363D01*
X125627591Y-83146157D01*
X125842698Y-83194831D01*
X126063072Y-83203489D01*
X126067555Y-83202839D01*
X126067556Y-83202839D01*
X126276848Y-83172494D01*
X126276853Y-83172493D01*
X126281335Y-83171843D01*
X126319446Y-83158906D01*
X126485878Y-83102410D01*
X126485881Y-83102408D01*
X126490175Y-83100951D01*
X126508839Y-83090499D01*
X126678638Y-82995406D01*
X126682599Y-82993188D01*
X126754482Y-82933404D01*
X126848663Y-82855074D01*
X126852163Y-82852163D01*
X126909955Y-82782676D01*
X126990283Y-82686092D01*
X126990283Y-82686091D01*
X126993188Y-82682599D01*
X127080072Y-82527457D01*
X127098734Y-82494134D01*
X127098735Y-82494133D01*
X127100951Y-82490175D01*
X127132281Y-82397882D01*
X127170385Y-82285630D01*
X127171843Y-82281335D01*
X127185300Y-82188526D01*
X127203072Y-82065949D01*
X127203072Y-82065947D01*
X127203489Y-82063072D01*
X127204556Y-82022337D01*
X127205065Y-82002913D01*
X127205065Y-82002908D01*
X127205141Y-82000000D01*
X127204641Y-81994551D01*
X127185376Y-81784898D01*
X127184961Y-81780380D01*
X127125096Y-81568116D01*
X127027552Y-81370316D01*
X126916155Y-81221137D01*
X126898310Y-81197240D01*
X126898309Y-81197239D01*
X126895594Y-81193603D01*
X126733643Y-81043897D01*
X126700042Y-81022696D01*
X126550960Y-80928633D01*
X126547123Y-80926212D01*
X126342279Y-80844487D01*
X126125972Y-80801461D01*
X126015709Y-80800018D01*
X125909985Y-80798633D01*
X125909980Y-80798633D01*
X125905446Y-80798574D01*
X125900971Y-80799343D01*
X125900970Y-80799343D01*
X125692556Y-80835155D01*
X125692555Y-80835155D01*
X125688087Y-80835923D01*
X125593122Y-80870957D01*
X125485436Y-80910684D01*
X125485433Y-80910685D01*
X125481173Y-80912257D01*
X125477270Y-80914579D01*
X125477268Y-80914580D01*
X125412334Y-80953212D01*
X125291636Y-81025020D01*
X125288221Y-81028014D01*
X125288218Y-81028017D01*
X125270111Y-81043897D01*
X125125822Y-81170436D01*
X124989284Y-81343633D01*
X124886595Y-81538813D01*
X124821194Y-81749437D01*
X124820660Y-81753947D01*
X124820660Y-81753948D01*
X124812516Y-81822761D01*
X124795272Y-81968453D01*
X122200242Y-81968453D01*
X122200000Y-81966304D01*
X122200000Y-79099267D01*
X129899500Y-79099267D01*
X129899501Y-79820732D01*
X129900449Y-79825497D01*
X129900449Y-79825499D01*
X129900511Y-79825810D01*
X129911713Y-79882133D01*
X129958238Y-79951762D01*
X130027867Y-79998287D01*
X130037430Y-80000189D01*
X130037432Y-80000190D01*
X130062062Y-80005089D01*
X130089267Y-80010500D01*
X130199977Y-80010500D01*
X130310732Y-80010499D01*
X130315498Y-80009551D01*
X130315499Y-80009551D01*
X130325788Y-80007505D01*
X130363167Y-80000070D01*
X130363170Y-80000070D01*
X130372133Y-79998287D01*
X130372344Y-79999348D01*
X130423781Y-79995302D01*
X130436967Y-79999587D01*
X130484551Y-80009052D01*
X130486612Y-80009255D01*
X130497005Y-80005878D01*
X130500000Y-80001757D01*
X130500000Y-79825810D01*
X130500167Y-79822405D01*
X130500500Y-79820733D01*
X130500499Y-79099268D01*
X130500167Y-79097598D01*
X130500000Y-79094202D01*
X130500000Y-78925681D01*
X130495878Y-78912996D01*
X130492046Y-78910211D01*
X130484551Y-78910949D01*
X130428062Y-78922184D01*
X130427776Y-78920746D01*
X130377555Y-78924698D01*
X130375697Y-78924094D01*
X130372133Y-78921713D01*
X130362575Y-78919812D01*
X130362573Y-78919811D01*
X130338088Y-78914941D01*
X130310733Y-78909500D01*
X130200023Y-78909500D01*
X130089268Y-78909501D01*
X130084502Y-78910449D01*
X130084501Y-78910449D01*
X130037435Y-78919810D01*
X130027867Y-78921713D01*
X129958238Y-78968238D01*
X129911713Y-79037867D01*
X129899500Y-79099267D01*
X122200000Y-79099267D01*
X122200000Y-77250000D01*
X129644508Y-77250000D01*
X129645727Y-77257697D01*
X129654739Y-77314594D01*
X129664354Y-77375304D01*
X129721950Y-77488342D01*
X129760504Y-77526896D01*
X129788281Y-77581413D01*
X129789500Y-77596900D01*
X129789500Y-77764594D01*
X129787598Y-77783907D01*
X129784397Y-77800000D01*
X129789500Y-77825654D01*
X129804615Y-77901642D01*
X129862190Y-77987810D01*
X129870300Y-77993229D01*
X129870301Y-77993230D01*
X129875831Y-77996925D01*
X129890835Y-78009237D01*
X130682225Y-78800628D01*
X130710002Y-78855145D01*
X130700431Y-78915577D01*
X130700322Y-78915755D01*
X130700000Y-78917789D01*
X130700000Y-79094190D01*
X130699833Y-79097595D01*
X130699500Y-79099267D01*
X130699501Y-79820732D01*
X130699833Y-79822402D01*
X130700000Y-79825798D01*
X130700000Y-79994319D01*
X130704122Y-80007004D01*
X130707954Y-80009789D01*
X130715449Y-80009051D01*
X130771938Y-79997816D01*
X130772224Y-79999254D01*
X130822445Y-79995302D01*
X130824303Y-79995906D01*
X130827867Y-79998287D01*
X130837425Y-80000188D01*
X130837427Y-80000189D01*
X130861912Y-80005059D01*
X130889267Y-80010500D01*
X130999977Y-80010500D01*
X131110732Y-80010499D01*
X131115498Y-80009551D01*
X131115499Y-80009551D01*
X131172133Y-79998287D01*
X131172388Y-79999569D01*
X131223112Y-79995578D01*
X131224476Y-79996021D01*
X131227867Y-79998287D01*
X131289267Y-80010500D01*
X131399977Y-80010500D01*
X131510732Y-80010499D01*
X131515498Y-80009551D01*
X131515499Y-80009551D01*
X131572133Y-79998287D01*
X131572388Y-79999569D01*
X131623112Y-79995578D01*
X131624476Y-79996021D01*
X131627867Y-79998287D01*
X131689267Y-80010500D01*
X131799977Y-80010500D01*
X131910732Y-80010499D01*
X131915498Y-80009551D01*
X131915499Y-80009551D01*
X131972133Y-79998287D01*
X131972388Y-79999569D01*
X132023112Y-79995578D01*
X132024476Y-79996021D01*
X132027867Y-79998287D01*
X132089267Y-80010500D01*
X132199977Y-80010500D01*
X132310732Y-80010499D01*
X132315498Y-80009551D01*
X132315499Y-80009551D01*
X132372133Y-79998287D01*
X132372388Y-79999569D01*
X132423112Y-79995578D01*
X132424476Y-79996021D01*
X132427867Y-79998287D01*
X132489267Y-80010500D01*
X132599977Y-80010500D01*
X132710732Y-80010499D01*
X132715498Y-80009551D01*
X132715499Y-80009551D01*
X132772133Y-79998287D01*
X132772388Y-79999569D01*
X132823112Y-79995578D01*
X132824476Y-79996021D01*
X132827867Y-79998287D01*
X132889267Y-80010500D01*
X132999977Y-80010500D01*
X133110732Y-80010499D01*
X133115498Y-80009551D01*
X133115499Y-80009551D01*
X133172133Y-79998287D01*
X133172388Y-79999569D01*
X133223112Y-79995578D01*
X133224476Y-79996021D01*
X133227867Y-79998287D01*
X133289267Y-80010500D01*
X133399977Y-80010500D01*
X133510732Y-80010499D01*
X133515498Y-80009551D01*
X133515499Y-80009551D01*
X133572133Y-79998287D01*
X133572388Y-79999569D01*
X133623112Y-79995578D01*
X133624476Y-79996021D01*
X133627867Y-79998287D01*
X133689267Y-80010500D01*
X133799977Y-80010500D01*
X133910732Y-80010499D01*
X133915498Y-80009551D01*
X133915499Y-80009551D01*
X133972133Y-79998287D01*
X133972388Y-79999569D01*
X134023112Y-79995578D01*
X134024476Y-79996021D01*
X134027867Y-79998287D01*
X134089267Y-80010500D01*
X134199977Y-80010500D01*
X134310732Y-80010499D01*
X134315498Y-80009551D01*
X134315499Y-80009551D01*
X134372133Y-79998287D01*
X134372388Y-79999569D01*
X134423112Y-79995578D01*
X134424476Y-79996021D01*
X134427867Y-79998287D01*
X134489267Y-80010500D01*
X134599977Y-80010500D01*
X134710732Y-80010499D01*
X134715498Y-80009551D01*
X134715499Y-80009551D01*
X134772133Y-79998287D01*
X134772388Y-79999569D01*
X134823112Y-79995578D01*
X134824476Y-79996021D01*
X134827867Y-79998287D01*
X134889267Y-80010500D01*
X134999977Y-80010500D01*
X135110732Y-80010499D01*
X135115498Y-80009551D01*
X135115499Y-80009551D01*
X135172133Y-79998287D01*
X135172388Y-79999569D01*
X135223112Y-79995578D01*
X135224476Y-79996021D01*
X135227867Y-79998287D01*
X135289267Y-80010500D01*
X135399977Y-80010500D01*
X135510732Y-80010499D01*
X135515498Y-80009551D01*
X135515499Y-80009551D01*
X135572133Y-79998287D01*
X135572388Y-79999569D01*
X135623112Y-79995578D01*
X135624476Y-79996021D01*
X135627867Y-79998287D01*
X135689267Y-80010500D01*
X135799977Y-80010500D01*
X135910732Y-80010499D01*
X135915498Y-80009551D01*
X135915499Y-80009551D01*
X135972133Y-79998287D01*
X135972388Y-79999569D01*
X136023112Y-79995578D01*
X136024476Y-79996021D01*
X136027867Y-79998287D01*
X136089267Y-80010500D01*
X136199977Y-80010500D01*
X136310732Y-80010499D01*
X136315498Y-80009551D01*
X136315499Y-80009551D01*
X136372133Y-79998287D01*
X136372388Y-79999569D01*
X136423112Y-79995578D01*
X136424476Y-79996021D01*
X136427867Y-79998287D01*
X136489267Y-80010500D01*
X136599977Y-80010500D01*
X136710732Y-80010499D01*
X136715498Y-80009551D01*
X136715499Y-80009551D01*
X136772133Y-79998287D01*
X136772388Y-79999569D01*
X136823112Y-79995578D01*
X136824476Y-79996021D01*
X136827867Y-79998287D01*
X136889267Y-80010500D01*
X136999977Y-80010500D01*
X137110732Y-80010499D01*
X137115498Y-80009551D01*
X137115499Y-80009551D01*
X137172133Y-79998287D01*
X137172388Y-79999569D01*
X137223112Y-79995578D01*
X137224476Y-79996021D01*
X137227867Y-79998287D01*
X137289267Y-80010500D01*
X137399977Y-80010500D01*
X137510732Y-80010499D01*
X137515498Y-80009551D01*
X137515499Y-80009551D01*
X137572133Y-79998287D01*
X137572388Y-79999569D01*
X137623112Y-79995578D01*
X137624476Y-79996021D01*
X137627867Y-79998287D01*
X137689267Y-80010500D01*
X137799977Y-80010500D01*
X137910732Y-80010499D01*
X137915498Y-80009551D01*
X137915499Y-80009551D01*
X137972133Y-79998287D01*
X137972388Y-79999569D01*
X138023112Y-79995578D01*
X138024476Y-79996021D01*
X138027867Y-79998287D01*
X138089267Y-80010500D01*
X138199977Y-80010500D01*
X138310732Y-80010499D01*
X138315498Y-80009551D01*
X138315499Y-80009551D01*
X138372133Y-79998287D01*
X138372388Y-79999569D01*
X138423112Y-79995578D01*
X138424476Y-79996021D01*
X138427867Y-79998287D01*
X138489267Y-80010500D01*
X138599977Y-80010500D01*
X138710732Y-80010499D01*
X138715498Y-80009551D01*
X138715499Y-80009551D01*
X138772133Y-79998287D01*
X138772388Y-79999569D01*
X138823112Y-79995578D01*
X138824476Y-79996021D01*
X138827867Y-79998287D01*
X138889267Y-80010500D01*
X138999977Y-80010500D01*
X139110732Y-80010499D01*
X139115498Y-80009551D01*
X139115499Y-80009551D01*
X139172133Y-79998287D01*
X139172388Y-79999569D01*
X139223112Y-79995578D01*
X139224476Y-79996021D01*
X139227867Y-79998287D01*
X139289267Y-80010500D01*
X139399977Y-80010500D01*
X139510732Y-80010499D01*
X139515498Y-80009551D01*
X139515499Y-80009551D01*
X139572133Y-79998287D01*
X139572388Y-79999569D01*
X139623112Y-79995578D01*
X139624476Y-79996021D01*
X139627867Y-79998287D01*
X139689267Y-80010500D01*
X139799977Y-80010500D01*
X139910732Y-80010499D01*
X139915498Y-80009551D01*
X139915499Y-80009551D01*
X139972133Y-79998287D01*
X139972388Y-79999569D01*
X140023112Y-79995578D01*
X140024476Y-79996021D01*
X140027867Y-79998287D01*
X140089267Y-80010500D01*
X140199977Y-80010500D01*
X140310732Y-80010499D01*
X140315498Y-80009551D01*
X140315499Y-80009551D01*
X140372133Y-79998287D01*
X140372388Y-79999569D01*
X140423112Y-79995578D01*
X140424476Y-79996021D01*
X140427867Y-79998287D01*
X140489267Y-80010500D01*
X140599977Y-80010500D01*
X140710732Y-80010499D01*
X140715498Y-80009551D01*
X140715499Y-80009551D01*
X140772133Y-79998287D01*
X140772388Y-79999569D01*
X140823112Y-79995578D01*
X140824476Y-79996021D01*
X140827867Y-79998287D01*
X140889267Y-80010500D01*
X140999977Y-80010500D01*
X141110732Y-80010499D01*
X141115498Y-80009551D01*
X141115499Y-80009551D01*
X141172133Y-79998287D01*
X141172388Y-79999569D01*
X141223112Y-79995578D01*
X141224476Y-79996021D01*
X141227867Y-79998287D01*
X141289267Y-80010500D01*
X141399977Y-80010500D01*
X141510732Y-80010499D01*
X141515498Y-80009551D01*
X141515499Y-80009551D01*
X141572133Y-79998287D01*
X141572388Y-79999569D01*
X141623112Y-79995578D01*
X141624476Y-79996021D01*
X141627867Y-79998287D01*
X141689267Y-80010500D01*
X141799977Y-80010500D01*
X141910732Y-80010499D01*
X141915498Y-80009551D01*
X141915499Y-80009551D01*
X141972133Y-79998287D01*
X141972388Y-79999569D01*
X142023112Y-79995578D01*
X142024476Y-79996021D01*
X142027867Y-79998287D01*
X142089267Y-80010500D01*
X142199977Y-80010500D01*
X142310732Y-80010499D01*
X142315498Y-80009551D01*
X142315499Y-80009551D01*
X142372133Y-79998287D01*
X142372388Y-79999569D01*
X142423112Y-79995578D01*
X142424476Y-79996021D01*
X142427867Y-79998287D01*
X142489267Y-80010500D01*
X142599977Y-80010500D01*
X142710732Y-80010499D01*
X142715498Y-80009551D01*
X142715499Y-80009551D01*
X142772133Y-79998287D01*
X142772388Y-79999569D01*
X142823112Y-79995578D01*
X142824476Y-79996021D01*
X142827867Y-79998287D01*
X142889267Y-80010500D01*
X142999977Y-80010500D01*
X143110732Y-80010499D01*
X143115498Y-80009551D01*
X143115499Y-80009551D01*
X143172133Y-79998287D01*
X143172388Y-79999569D01*
X143223112Y-79995578D01*
X143224476Y-79996021D01*
X143227867Y-79998287D01*
X143289267Y-80010500D01*
X143399977Y-80010500D01*
X143510732Y-80010499D01*
X143515498Y-80009551D01*
X143515499Y-80009551D01*
X143572133Y-79998287D01*
X143572388Y-79999569D01*
X143623112Y-79995578D01*
X143624476Y-79996021D01*
X143627867Y-79998287D01*
X143689267Y-80010500D01*
X143799977Y-80010500D01*
X143910732Y-80010499D01*
X143915498Y-80009551D01*
X143915499Y-80009551D01*
X143962570Y-80000189D01*
X143972133Y-79998287D01*
X144041762Y-79951762D01*
X144088287Y-79882133D01*
X144100500Y-79820733D01*
X144100500Y-79815870D01*
X144100977Y-79811031D01*
X144103181Y-79811248D01*
X144119407Y-79761309D01*
X144168907Y-79725345D01*
X144199500Y-79720500D01*
X144990500Y-79720500D01*
X145048691Y-79739407D01*
X145084655Y-79788907D01*
X145089500Y-79819500D01*
X145089500Y-84214594D01*
X145087598Y-84233907D01*
X145084397Y-84250000D01*
X145089500Y-84275654D01*
X145104615Y-84351642D01*
X145162190Y-84437810D01*
X145170300Y-84443229D01*
X145170301Y-84443230D01*
X145175831Y-84446925D01*
X145190835Y-84459237D01*
X145810504Y-85078906D01*
X145838281Y-85133423D01*
X145839500Y-85148910D01*
X145839500Y-106401090D01*
X145820593Y-106459281D01*
X145810504Y-106471094D01*
X139871094Y-112410504D01*
X139816577Y-112438281D01*
X139801090Y-112439500D01*
X138646900Y-112439500D01*
X138588709Y-112420593D01*
X138576896Y-112410504D01*
X138538342Y-112371950D01*
X138531405Y-112368415D01*
X138531403Y-112368414D01*
X138432244Y-112317890D01*
X138432243Y-112317890D01*
X138425304Y-112314354D01*
X138417610Y-112313135D01*
X138417609Y-112313135D01*
X138307697Y-112295727D01*
X138300000Y-112294508D01*
X138292303Y-112295727D01*
X138182391Y-112313135D01*
X138182390Y-112313135D01*
X138174696Y-112314354D01*
X138167757Y-112317890D01*
X138167756Y-112317890D01*
X138068597Y-112368414D01*
X138068595Y-112368415D01*
X138061658Y-112371950D01*
X137971950Y-112461658D01*
X137914354Y-112574696D01*
X137894508Y-112700000D01*
X137914354Y-112825304D01*
X137917890Y-112832243D01*
X137917890Y-112832244D01*
X137948964Y-112893229D01*
X137971950Y-112938342D01*
X138061658Y-113028050D01*
X138068595Y-113031585D01*
X138068597Y-113031586D01*
X138167756Y-113082110D01*
X138174696Y-113085646D01*
X138182390Y-113086865D01*
X138182391Y-113086865D01*
X138292303Y-113104273D01*
X138300000Y-113105492D01*
X138307697Y-113104273D01*
X138417609Y-113086865D01*
X138417610Y-113086865D01*
X138425304Y-113085646D01*
X138432244Y-113082110D01*
X138531403Y-113031586D01*
X138531405Y-113031585D01*
X138538342Y-113028050D01*
X138576896Y-112989496D01*
X138631413Y-112961719D01*
X138646900Y-112960500D01*
X139914594Y-112960500D01*
X139933907Y-112962402D01*
X139950000Y-112965603D01*
X139975654Y-112960500D01*
X140051642Y-112945385D01*
X140137810Y-112887810D01*
X140143230Y-112879699D01*
X140146925Y-112874169D01*
X140159237Y-112859165D01*
X146259165Y-106759237D01*
X146274169Y-106746925D01*
X146279699Y-106743230D01*
X146279700Y-106743229D01*
X146287810Y-106737810D01*
X146345385Y-106651642D01*
X146360500Y-106575654D01*
X146365603Y-106550000D01*
X146362402Y-106533907D01*
X146360500Y-106514594D01*
X146360500Y-85035406D01*
X146362402Y-85016091D01*
X146363701Y-85009561D01*
X146365603Y-85000000D01*
X146345385Y-84898358D01*
X146323805Y-84866061D01*
X146287810Y-84812190D01*
X146279700Y-84806771D01*
X146279699Y-84806770D01*
X146274169Y-84803075D01*
X146259165Y-84790763D01*
X145639496Y-84171094D01*
X145611719Y-84116577D01*
X145610500Y-84101090D01*
X145610500Y-81968453D01*
X146795272Y-81968453D01*
X146795569Y-81972979D01*
X146796608Y-81988827D01*
X146796608Y-81988830D01*
X146808777Y-82174501D01*
X146809696Y-82188526D01*
X146810812Y-82192919D01*
X146810812Y-82192921D01*
X146828527Y-82262674D01*
X146863984Y-82402284D01*
X146956317Y-82602570D01*
X147083604Y-82782676D01*
X147241580Y-82936570D01*
X147245353Y-82939091D01*
X147421178Y-83056575D01*
X147421181Y-83056577D01*
X147424956Y-83059099D01*
X147517210Y-83098734D01*
X147623412Y-83144362D01*
X147623416Y-83144363D01*
X147627591Y-83146157D01*
X147842698Y-83194831D01*
X148063072Y-83203489D01*
X148067555Y-83202839D01*
X148067556Y-83202839D01*
X148276848Y-83172494D01*
X148276853Y-83172493D01*
X148281335Y-83171843D01*
X148319446Y-83158906D01*
X148485878Y-83102410D01*
X148485881Y-83102408D01*
X148490175Y-83100951D01*
X148508839Y-83090499D01*
X148678638Y-82995406D01*
X148682599Y-82993188D01*
X148754482Y-82933404D01*
X148848663Y-82855074D01*
X148852163Y-82852163D01*
X148909955Y-82782676D01*
X148990283Y-82686092D01*
X148990283Y-82686091D01*
X148993188Y-82682599D01*
X149080072Y-82527457D01*
X149098734Y-82494134D01*
X149098735Y-82494133D01*
X149100951Y-82490175D01*
X149132281Y-82397882D01*
X149170385Y-82285630D01*
X149171843Y-82281335D01*
X149185300Y-82188526D01*
X149203072Y-82065949D01*
X149203072Y-82065947D01*
X149203489Y-82063072D01*
X149204556Y-82022337D01*
X149205065Y-82002913D01*
X149205065Y-82002908D01*
X149205141Y-82000000D01*
X149204641Y-81994551D01*
X149185376Y-81784898D01*
X149184961Y-81780380D01*
X149125096Y-81568116D01*
X149027552Y-81370316D01*
X148916155Y-81221137D01*
X148898310Y-81197240D01*
X148898309Y-81197239D01*
X148895594Y-81193603D01*
X148733643Y-81043897D01*
X148700042Y-81022696D01*
X148550960Y-80928633D01*
X148547123Y-80926212D01*
X148342279Y-80844487D01*
X148125972Y-80801461D01*
X148015709Y-80800018D01*
X147909985Y-80798633D01*
X147909980Y-80798633D01*
X147905446Y-80798574D01*
X147900971Y-80799343D01*
X147900970Y-80799343D01*
X147692556Y-80835155D01*
X147692555Y-80835155D01*
X147688087Y-80835923D01*
X147593122Y-80870957D01*
X147485436Y-80910684D01*
X147485433Y-80910685D01*
X147481173Y-80912257D01*
X147477270Y-80914579D01*
X147477268Y-80914580D01*
X147412334Y-80953212D01*
X147291636Y-81025020D01*
X147288221Y-81028014D01*
X147288218Y-81028017D01*
X147270111Y-81043897D01*
X147125822Y-81170436D01*
X146989284Y-81343633D01*
X146886595Y-81538813D01*
X146821194Y-81749437D01*
X146820660Y-81753947D01*
X146820660Y-81753948D01*
X146812516Y-81822761D01*
X146795272Y-81968453D01*
X145610500Y-81968453D01*
X145610500Y-79819500D01*
X145629407Y-79761309D01*
X145678907Y-79725345D01*
X145709500Y-79720500D01*
X147254594Y-79720500D01*
X147273907Y-79722402D01*
X147290000Y-79725603D01*
X147315654Y-79720500D01*
X147391642Y-79705385D01*
X147477810Y-79647810D01*
X147483230Y-79639699D01*
X147486925Y-79634169D01*
X147499237Y-79619165D01*
X149699168Y-77419235D01*
X149714172Y-77406923D01*
X149719699Y-77403230D01*
X149719700Y-77403229D01*
X149727810Y-77397810D01*
X149742848Y-77375304D01*
X149779968Y-77319750D01*
X149779969Y-77319748D01*
X149785385Y-77311642D01*
X149790805Y-77284396D01*
X149805604Y-77210000D01*
X149802402Y-77193903D01*
X149800500Y-77174588D01*
X149800500Y-76093136D01*
X149819407Y-76034945D01*
X149872878Y-75997783D01*
X149917062Y-75985447D01*
X149917063Y-75985447D01*
X149921725Y-75984145D01*
X149926038Y-75981966D01*
X149926044Y-75981964D01*
X150101289Y-75893441D01*
X150101291Y-75893440D01*
X150105610Y-75891258D01*
X150140943Y-75863653D01*
X150264135Y-75767406D01*
X150264139Y-75767402D01*
X150267951Y-75764424D01*
X150402564Y-75608472D01*
X150421231Y-75575613D01*
X150501934Y-75433550D01*
X150501935Y-75433547D01*
X150504323Y-75429344D01*
X150517882Y-75388586D01*
X150567824Y-75238454D01*
X150567824Y-75238452D01*
X150569351Y-75233863D01*
X150577965Y-75165680D01*
X150594823Y-75032228D01*
X150595171Y-75029474D01*
X150595583Y-75000000D01*
X150580582Y-74847005D01*
X150575952Y-74799780D01*
X150575951Y-74799776D01*
X150575480Y-74794970D01*
X150515935Y-74597749D01*
X150419218Y-74415849D01*
X150289011Y-74256200D01*
X150130275Y-74124882D01*
X149949055Y-74026897D01*
X149885855Y-74007333D01*
X149756875Y-73967407D01*
X149756871Y-73967406D01*
X149752254Y-73965977D01*
X149747446Y-73965472D01*
X149747443Y-73965471D01*
X149552185Y-73944949D01*
X149552183Y-73944949D01*
X149547369Y-73944443D01*
X149487354Y-73949905D01*
X149347022Y-73962675D01*
X149347017Y-73962676D01*
X149342203Y-73963114D01*
X149144572Y-74021280D01*
X149140288Y-74023519D01*
X149140287Y-74023520D01*
X149129428Y-74029197D01*
X148962002Y-74116726D01*
X148958231Y-74119758D01*
X148805220Y-74242781D01*
X148805217Y-74242783D01*
X148801447Y-74245815D01*
X148798333Y-74249526D01*
X148798332Y-74249527D01*
X148789585Y-74259952D01*
X148669024Y-74403630D01*
X148666689Y-74407878D01*
X148666688Y-74407879D01*
X148659955Y-74420126D01*
X148569776Y-74584162D01*
X148507484Y-74780532D01*
X148506944Y-74785344D01*
X148506944Y-74785345D01*
X148500617Y-74841757D01*
X148484520Y-74985262D01*
X148484925Y-74990082D01*
X148498354Y-75150000D01*
X148501759Y-75190553D01*
X148558544Y-75388586D01*
X148652712Y-75571818D01*
X148780677Y-75733270D01*
X148784357Y-75736402D01*
X148784359Y-75736404D01*
X148897017Y-75832283D01*
X148937564Y-75866791D01*
X148941787Y-75869151D01*
X148941791Y-75869154D01*
X149058702Y-75934493D01*
X149117398Y-75967297D01*
X149121999Y-75968792D01*
X149211092Y-75997740D01*
X149260592Y-76033704D01*
X149279500Y-76091895D01*
X149279500Y-77061089D01*
X149260593Y-77119280D01*
X149250504Y-77131093D01*
X147211094Y-79170504D01*
X147156577Y-79198281D01*
X147141090Y-79199500D01*
X145325406Y-79199500D01*
X145306093Y-79197598D01*
X145290000Y-79194397D01*
X145273907Y-79197598D01*
X145254594Y-79199500D01*
X144199499Y-79199500D01*
X144141308Y-79180593D01*
X144105344Y-79131093D01*
X144101827Y-79108887D01*
X144100976Y-79108971D01*
X144100499Y-79104125D01*
X144100499Y-79099268D01*
X144099492Y-79094202D01*
X144090189Y-79047430D01*
X144088287Y-79037867D01*
X144041762Y-78968238D01*
X143972133Y-78921713D01*
X143962570Y-78919811D01*
X143962568Y-78919810D01*
X143937938Y-78914911D01*
X143910733Y-78909500D01*
X143896405Y-78909500D01*
X143759500Y-78909501D01*
X143701310Y-78890594D01*
X143665346Y-78841094D01*
X143660500Y-78810501D01*
X143660500Y-78548910D01*
X143679407Y-78490719D01*
X143689496Y-78478906D01*
X144609165Y-77559237D01*
X144624169Y-77546925D01*
X144629699Y-77543230D01*
X144629700Y-77543229D01*
X144637810Y-77537810D01*
X144645103Y-77526896D01*
X144670863Y-77488342D01*
X144695385Y-77451642D01*
X144710500Y-77375654D01*
X144715603Y-77350000D01*
X144712402Y-77333907D01*
X144710500Y-77314594D01*
X144710500Y-76946900D01*
X144729407Y-76888709D01*
X144739496Y-76876896D01*
X144778050Y-76838342D01*
X144784694Y-76825304D01*
X144832110Y-76732244D01*
X144832110Y-76732243D01*
X144835646Y-76725304D01*
X144838435Y-76707698D01*
X144854273Y-76607697D01*
X144855492Y-76600000D01*
X144852219Y-76579335D01*
X144836865Y-76482391D01*
X144836865Y-76482390D01*
X144835646Y-76474696D01*
X144824558Y-76452934D01*
X144781586Y-76368597D01*
X144781585Y-76368595D01*
X144778050Y-76361658D01*
X144688342Y-76271950D01*
X144681405Y-76268415D01*
X144681403Y-76268414D01*
X144582244Y-76217890D01*
X144582243Y-76217890D01*
X144575304Y-76214354D01*
X144567610Y-76213135D01*
X144567609Y-76213135D01*
X144457697Y-76195727D01*
X144450000Y-76194508D01*
X144442303Y-76195727D01*
X144332391Y-76213135D01*
X144332390Y-76213135D01*
X144324696Y-76214354D01*
X144317757Y-76217890D01*
X144317756Y-76217890D01*
X144218597Y-76268414D01*
X144218595Y-76268415D01*
X144211658Y-76271950D01*
X144121950Y-76361658D01*
X144118415Y-76368595D01*
X144118414Y-76368597D01*
X144075442Y-76452934D01*
X144064354Y-76474696D01*
X144063135Y-76482390D01*
X144063135Y-76482391D01*
X144047781Y-76579335D01*
X144039581Y-76595428D01*
X144047781Y-76620665D01*
X144057375Y-76681240D01*
X144047804Y-76741672D01*
X144004539Y-76784937D01*
X143959594Y-76795727D01*
X143957697Y-76795727D01*
X143950000Y-76794508D01*
X143942303Y-76795727D01*
X143940406Y-76795727D01*
X143882215Y-76776820D01*
X143846251Y-76727320D01*
X143842625Y-76681240D01*
X143852219Y-76620665D01*
X143860419Y-76604572D01*
X143852219Y-76579335D01*
X143836865Y-76482391D01*
X143836865Y-76482390D01*
X143835646Y-76474696D01*
X143824558Y-76452934D01*
X143781586Y-76368597D01*
X143781585Y-76368595D01*
X143778050Y-76361658D01*
X143688342Y-76271950D01*
X143681405Y-76268415D01*
X143681403Y-76268414D01*
X143582244Y-76217890D01*
X143582243Y-76217890D01*
X143575304Y-76214354D01*
X143567610Y-76213135D01*
X143567609Y-76213135D01*
X143457697Y-76195727D01*
X143450000Y-76194508D01*
X143442303Y-76195727D01*
X143332391Y-76213135D01*
X143332390Y-76213135D01*
X143324696Y-76214354D01*
X143317757Y-76217890D01*
X143317756Y-76217890D01*
X143218597Y-76268414D01*
X143218595Y-76268415D01*
X143211658Y-76271950D01*
X143121950Y-76361658D01*
X143118415Y-76368595D01*
X143118414Y-76368597D01*
X143075442Y-76452934D01*
X143064354Y-76474696D01*
X143062114Y-76473555D01*
X143033192Y-76513364D01*
X142975001Y-76532272D01*
X142916810Y-76513365D01*
X142887886Y-76473555D01*
X142885646Y-76474696D01*
X142831586Y-76368597D01*
X142831585Y-76368595D01*
X142828050Y-76361658D01*
X142738342Y-76271950D01*
X142731405Y-76268415D01*
X142731403Y-76268414D01*
X142632244Y-76217890D01*
X142632243Y-76217890D01*
X142625304Y-76214354D01*
X142617610Y-76213135D01*
X142617609Y-76213135D01*
X142507697Y-76195727D01*
X142500000Y-76194508D01*
X142492303Y-76195727D01*
X142382391Y-76213135D01*
X142382390Y-76213135D01*
X142374696Y-76214354D01*
X142367757Y-76217890D01*
X142367756Y-76217890D01*
X142268597Y-76268414D01*
X142268595Y-76268415D01*
X142261658Y-76271950D01*
X142171950Y-76361658D01*
X142168415Y-76368595D01*
X142168414Y-76368597D01*
X142138210Y-76427876D01*
X142094945Y-76471141D01*
X142034513Y-76480712D01*
X141979996Y-76452934D01*
X141961790Y-76427876D01*
X141931586Y-76368597D01*
X141931585Y-76368595D01*
X141928050Y-76361658D01*
X141838342Y-76271950D01*
X141831405Y-76268415D01*
X141831403Y-76268414D01*
X141732244Y-76217890D01*
X141732243Y-76217890D01*
X141725304Y-76214354D01*
X141717610Y-76213135D01*
X141717609Y-76213135D01*
X141607697Y-76195727D01*
X141600000Y-76194508D01*
X141592303Y-76195727D01*
X141482391Y-76213135D01*
X141482390Y-76213135D01*
X141474696Y-76214354D01*
X141467757Y-76217890D01*
X141467756Y-76217890D01*
X141368597Y-76268414D01*
X141368595Y-76268415D01*
X141361658Y-76271950D01*
X141271950Y-76361658D01*
X141268415Y-76368595D01*
X141268414Y-76368597D01*
X141225442Y-76452934D01*
X141214354Y-76474696D01*
X141213135Y-76482390D01*
X141213135Y-76482391D01*
X141197781Y-76579335D01*
X141189581Y-76595428D01*
X141197781Y-76620665D01*
X141207375Y-76681240D01*
X141197804Y-76741672D01*
X141154539Y-76784937D01*
X141109594Y-76795727D01*
X141107697Y-76795727D01*
X141100000Y-76794508D01*
X141092303Y-76795727D01*
X141090406Y-76795727D01*
X141032215Y-76776820D01*
X140996251Y-76727320D01*
X140992625Y-76681240D01*
X141002219Y-76620665D01*
X141010419Y-76604572D01*
X141002219Y-76579335D01*
X140986865Y-76482391D01*
X140986865Y-76482390D01*
X140985646Y-76474696D01*
X140974558Y-76452934D01*
X140931586Y-76368597D01*
X140931585Y-76368595D01*
X140928050Y-76361658D01*
X140838342Y-76271950D01*
X140831405Y-76268415D01*
X140831403Y-76268414D01*
X140732244Y-76217890D01*
X140732243Y-76217890D01*
X140725304Y-76214354D01*
X140717610Y-76213135D01*
X140717609Y-76213135D01*
X140607697Y-76195727D01*
X140600000Y-76194508D01*
X140592303Y-76195727D01*
X140482391Y-76213135D01*
X140482390Y-76213135D01*
X140474696Y-76214354D01*
X140467757Y-76217890D01*
X140467756Y-76217890D01*
X140368597Y-76268414D01*
X140368595Y-76268415D01*
X140361658Y-76271950D01*
X140271950Y-76361658D01*
X140268415Y-76368596D01*
X140268412Y-76368600D01*
X140263209Y-76378812D01*
X140219945Y-76422076D01*
X140159512Y-76431647D01*
X140104996Y-76403869D01*
X140086791Y-76378812D01*
X140081588Y-76368600D01*
X140081585Y-76368596D01*
X140078050Y-76361658D01*
X139988342Y-76271950D01*
X139981405Y-76268415D01*
X139981403Y-76268414D01*
X139882244Y-76217890D01*
X139882243Y-76217890D01*
X139875304Y-76214354D01*
X139867610Y-76213135D01*
X139867609Y-76213135D01*
X139757697Y-76195727D01*
X139750000Y-76194508D01*
X139742303Y-76195727D01*
X139632391Y-76213135D01*
X139632390Y-76213135D01*
X139624696Y-76214354D01*
X139617757Y-76217890D01*
X139617756Y-76217890D01*
X139518597Y-76268414D01*
X139518595Y-76268415D01*
X139511658Y-76271950D01*
X139421950Y-76361658D01*
X139418415Y-76368595D01*
X139418414Y-76368597D01*
X139375442Y-76452934D01*
X139364354Y-76474696D01*
X139363135Y-76482390D01*
X139363135Y-76482391D01*
X139347781Y-76579335D01*
X139339581Y-76595428D01*
X139347781Y-76620665D01*
X139357375Y-76681240D01*
X139347804Y-76741672D01*
X139304539Y-76784937D01*
X139259594Y-76795727D01*
X139257697Y-76795727D01*
X139250000Y-76794508D01*
X139242303Y-76795727D01*
X139240406Y-76795727D01*
X139182215Y-76776820D01*
X139146251Y-76727320D01*
X139142625Y-76681240D01*
X139152219Y-76620665D01*
X139160419Y-76604572D01*
X139152219Y-76579335D01*
X139136865Y-76482391D01*
X139136865Y-76482390D01*
X139135646Y-76474696D01*
X139124558Y-76452934D01*
X139081586Y-76368597D01*
X139081585Y-76368595D01*
X139078050Y-76361658D01*
X138988342Y-76271950D01*
X138981405Y-76268415D01*
X138981403Y-76268414D01*
X138882244Y-76217890D01*
X138882243Y-76217890D01*
X138875304Y-76214354D01*
X138867610Y-76213135D01*
X138867609Y-76213135D01*
X138757697Y-76195727D01*
X138750000Y-76194508D01*
X138742303Y-76195727D01*
X138632391Y-76213135D01*
X138632390Y-76213135D01*
X138624696Y-76214354D01*
X138617757Y-76217890D01*
X138617756Y-76217890D01*
X138518597Y-76268414D01*
X138518595Y-76268415D01*
X138511658Y-76271950D01*
X138421950Y-76361658D01*
X138418415Y-76368596D01*
X138418412Y-76368600D01*
X138413209Y-76378812D01*
X138369945Y-76422076D01*
X138309512Y-76431647D01*
X138254996Y-76403869D01*
X138236791Y-76378812D01*
X138231588Y-76368600D01*
X138231585Y-76368596D01*
X138228050Y-76361658D01*
X138138342Y-76271950D01*
X138131405Y-76268415D01*
X138131403Y-76268414D01*
X138032244Y-76217890D01*
X138032243Y-76217890D01*
X138025304Y-76214354D01*
X138017610Y-76213135D01*
X138017609Y-76213135D01*
X137907697Y-76195727D01*
X137900000Y-76194508D01*
X137892303Y-76195727D01*
X137782391Y-76213135D01*
X137782390Y-76213135D01*
X137774696Y-76214354D01*
X137767757Y-76217890D01*
X137767756Y-76217890D01*
X137668597Y-76268414D01*
X137668595Y-76268415D01*
X137661658Y-76271950D01*
X137571950Y-76361658D01*
X137568415Y-76368595D01*
X137568414Y-76368597D01*
X137550442Y-76403869D01*
X137541166Y-76422076D01*
X137540710Y-76422970D01*
X137497445Y-76466235D01*
X137437013Y-76475806D01*
X137382496Y-76448029D01*
X137364290Y-76422970D01*
X137363835Y-76422076D01*
X137354558Y-76403869D01*
X137336586Y-76368597D01*
X137336585Y-76368595D01*
X137333050Y-76361658D01*
X137243342Y-76271950D01*
X137236405Y-76268415D01*
X137236403Y-76268414D01*
X137137244Y-76217890D01*
X137137243Y-76217890D01*
X137130304Y-76214354D01*
X137122610Y-76213135D01*
X137122609Y-76213135D01*
X137012697Y-76195727D01*
X137005000Y-76194508D01*
X136997303Y-76195727D01*
X136887391Y-76213135D01*
X136887390Y-76213135D01*
X136879696Y-76214354D01*
X136872757Y-76217890D01*
X136872756Y-76217890D01*
X136773597Y-76268414D01*
X136773595Y-76268415D01*
X136766658Y-76271950D01*
X136676950Y-76361658D01*
X136673415Y-76368595D01*
X136673414Y-76368597D01*
X136630442Y-76452934D01*
X136619354Y-76474696D01*
X136613230Y-76513365D01*
X136612558Y-76517605D01*
X136584781Y-76572122D01*
X136530265Y-76599900D01*
X136469832Y-76590329D01*
X136426568Y-76547064D01*
X136386589Y-76468602D01*
X136386586Y-76468598D01*
X136383050Y-76461658D01*
X136293342Y-76371950D01*
X136286405Y-76368415D01*
X136286403Y-76368414D01*
X136187244Y-76317890D01*
X136187243Y-76317890D01*
X136180304Y-76314354D01*
X136172610Y-76313135D01*
X136172609Y-76313135D01*
X136062697Y-76295727D01*
X136055000Y-76294508D01*
X136047303Y-76295727D01*
X135937391Y-76313135D01*
X135937390Y-76313135D01*
X135929696Y-76314354D01*
X135922757Y-76317890D01*
X135922756Y-76317890D01*
X135823597Y-76368414D01*
X135823595Y-76368415D01*
X135816658Y-76371950D01*
X135726950Y-76461658D01*
X135723415Y-76468595D01*
X135723414Y-76468597D01*
X135719741Y-76475806D01*
X135669354Y-76574696D01*
X135667114Y-76573555D01*
X135638192Y-76613364D01*
X135580001Y-76632272D01*
X135521810Y-76613365D01*
X135492886Y-76573555D01*
X135490646Y-76574696D01*
X135436586Y-76468597D01*
X135436585Y-76468595D01*
X135433050Y-76461658D01*
X135343342Y-76371950D01*
X135336405Y-76368415D01*
X135336403Y-76368414D01*
X135237244Y-76317890D01*
X135237243Y-76317890D01*
X135230304Y-76314354D01*
X135222610Y-76313135D01*
X135222609Y-76313135D01*
X135112697Y-76295727D01*
X135105000Y-76294508D01*
X135097303Y-76295727D01*
X134987391Y-76313135D01*
X134987390Y-76313135D01*
X134979696Y-76314354D01*
X134972757Y-76317890D01*
X134972756Y-76317890D01*
X134873597Y-76368414D01*
X134873595Y-76368415D01*
X134866658Y-76371950D01*
X134776950Y-76461658D01*
X134773415Y-76468595D01*
X134773414Y-76468597D01*
X134743210Y-76527876D01*
X134699945Y-76571141D01*
X134639513Y-76580712D01*
X134584996Y-76552934D01*
X134566790Y-76527876D01*
X134536586Y-76468597D01*
X134536585Y-76468595D01*
X134533050Y-76461658D01*
X134443342Y-76371950D01*
X134436405Y-76368415D01*
X134436403Y-76368414D01*
X134337244Y-76317890D01*
X134337243Y-76317890D01*
X134330304Y-76314354D01*
X134322610Y-76313135D01*
X134322609Y-76313135D01*
X134212697Y-76295727D01*
X134205000Y-76294508D01*
X134197303Y-76295727D01*
X134087391Y-76313135D01*
X134087390Y-76313135D01*
X134079696Y-76314354D01*
X134072757Y-76317890D01*
X134072756Y-76317890D01*
X133973597Y-76368414D01*
X133973595Y-76368415D01*
X133966658Y-76371950D01*
X133876950Y-76461658D01*
X133873415Y-76468595D01*
X133873414Y-76468597D01*
X133843210Y-76527876D01*
X133799945Y-76571141D01*
X133739513Y-76580712D01*
X133684996Y-76552934D01*
X133666790Y-76527876D01*
X133636586Y-76468597D01*
X133636585Y-76468595D01*
X133633050Y-76461658D01*
X133543342Y-76371950D01*
X133536405Y-76368415D01*
X133536403Y-76368414D01*
X133437244Y-76317890D01*
X133437243Y-76317890D01*
X133430304Y-76314354D01*
X133422610Y-76313135D01*
X133422609Y-76313135D01*
X133312697Y-76295727D01*
X133305000Y-76294508D01*
X133297303Y-76295727D01*
X133187391Y-76313135D01*
X133187390Y-76313135D01*
X133179696Y-76314354D01*
X133172757Y-76317890D01*
X133172756Y-76317890D01*
X133073597Y-76368414D01*
X133073595Y-76368415D01*
X133066658Y-76371950D01*
X132976950Y-76461658D01*
X132973415Y-76468595D01*
X132973414Y-76468597D01*
X132940710Y-76532783D01*
X132897445Y-76576048D01*
X132837013Y-76585619D01*
X132782496Y-76557842D01*
X132764290Y-76532783D01*
X132731586Y-76468597D01*
X132731585Y-76468595D01*
X132728050Y-76461658D01*
X132638342Y-76371950D01*
X132631405Y-76368415D01*
X132631403Y-76368414D01*
X132532244Y-76317890D01*
X132532243Y-76317890D01*
X132525304Y-76314354D01*
X132517610Y-76313135D01*
X132517609Y-76313135D01*
X132407697Y-76295727D01*
X132400000Y-76294508D01*
X132392303Y-76295727D01*
X132282391Y-76313135D01*
X132282390Y-76313135D01*
X132274696Y-76314354D01*
X132267757Y-76317890D01*
X132267756Y-76317890D01*
X132168597Y-76368414D01*
X132168595Y-76368415D01*
X132161658Y-76371950D01*
X132071950Y-76461658D01*
X132068415Y-76468595D01*
X132068414Y-76468597D01*
X132064741Y-76475806D01*
X132014354Y-76574696D01*
X132012114Y-76573555D01*
X131983192Y-76613364D01*
X131925001Y-76632272D01*
X131866810Y-76613365D01*
X131837886Y-76573555D01*
X131835646Y-76574696D01*
X131781586Y-76468597D01*
X131781585Y-76468595D01*
X131778050Y-76461658D01*
X131688342Y-76371950D01*
X131681405Y-76368415D01*
X131681403Y-76368414D01*
X131582244Y-76317890D01*
X131582243Y-76317890D01*
X131575304Y-76314354D01*
X131567610Y-76313135D01*
X131567609Y-76313135D01*
X131457697Y-76295727D01*
X131450000Y-76294508D01*
X131442303Y-76295727D01*
X131332391Y-76313135D01*
X131332390Y-76313135D01*
X131324696Y-76314354D01*
X131317757Y-76317890D01*
X131317756Y-76317890D01*
X131218597Y-76368414D01*
X131218595Y-76368415D01*
X131211658Y-76371950D01*
X131121950Y-76461658D01*
X131118415Y-76468595D01*
X131118414Y-76468597D01*
X131114741Y-76475806D01*
X131064354Y-76574696D01*
X131062114Y-76573555D01*
X131033192Y-76613364D01*
X130975001Y-76632272D01*
X130916810Y-76613365D01*
X130887886Y-76573555D01*
X130885646Y-76574696D01*
X130831586Y-76468597D01*
X130831585Y-76468595D01*
X130828050Y-76461658D01*
X130738342Y-76371950D01*
X130731405Y-76368415D01*
X130731403Y-76368414D01*
X130632244Y-76317890D01*
X130632243Y-76317890D01*
X130625304Y-76314354D01*
X130617610Y-76313135D01*
X130617609Y-76313135D01*
X130507697Y-76295727D01*
X130500000Y-76294508D01*
X130492303Y-76295727D01*
X130382391Y-76313135D01*
X130382390Y-76313135D01*
X130374696Y-76314354D01*
X130367757Y-76317890D01*
X130367756Y-76317890D01*
X130268597Y-76368414D01*
X130268595Y-76368415D01*
X130261658Y-76371950D01*
X130171950Y-76461658D01*
X130168415Y-76468595D01*
X130168414Y-76468597D01*
X130117890Y-76567756D01*
X130114354Y-76574696D01*
X130113135Y-76582390D01*
X130113135Y-76582391D01*
X130108229Y-76613365D01*
X130094508Y-76700000D01*
X130095727Y-76707697D01*
X130095727Y-76707698D01*
X130100259Y-76736315D01*
X130090687Y-76796747D01*
X130047422Y-76840011D01*
X130017966Y-76849582D01*
X129978753Y-76855792D01*
X129932391Y-76863135D01*
X129932390Y-76863135D01*
X129924696Y-76864354D01*
X129917757Y-76867890D01*
X129917756Y-76867890D01*
X129818597Y-76918414D01*
X129818595Y-76918415D01*
X129811658Y-76921950D01*
X129721950Y-77011658D01*
X129718415Y-77018595D01*
X129718414Y-77018597D01*
X129675869Y-77102097D01*
X129664354Y-77124696D01*
X129644508Y-77250000D01*
X122200000Y-77250000D01*
X122200000Y-75864840D01*
X145950000Y-75864840D01*
X145950948Y-75874462D01*
X145959702Y-75918474D01*
X145967021Y-75936142D01*
X146000389Y-75986082D01*
X146013918Y-75999611D01*
X146063858Y-76032979D01*
X146081526Y-76040298D01*
X146125538Y-76049052D01*
X146135160Y-76050000D01*
X146834320Y-76050000D01*
X146847005Y-76045878D01*
X146850000Y-76041757D01*
X146850000Y-76034320D01*
X147150000Y-76034320D01*
X147154122Y-76047005D01*
X147158243Y-76050000D01*
X147864840Y-76050000D01*
X147874462Y-76049052D01*
X147918474Y-76040298D01*
X147936142Y-76032979D01*
X147986082Y-75999611D01*
X147999611Y-75986082D01*
X148032979Y-75936142D01*
X148040298Y-75918474D01*
X148049052Y-75874462D01*
X148050000Y-75864840D01*
X148050000Y-75165680D01*
X148045878Y-75152995D01*
X148041757Y-75150000D01*
X147165680Y-75150000D01*
X147152995Y-75154122D01*
X147150000Y-75158243D01*
X147150000Y-76034320D01*
X146850000Y-76034320D01*
X146850000Y-75165680D01*
X146845878Y-75152995D01*
X146841757Y-75150000D01*
X145965680Y-75150000D01*
X145952995Y-75154122D01*
X145950000Y-75158243D01*
X145950000Y-75864840D01*
X122200000Y-75864840D01*
X122200000Y-74834320D01*
X145950000Y-74834320D01*
X145954122Y-74847005D01*
X145958243Y-74850000D01*
X146834320Y-74850000D01*
X146847005Y-74845878D01*
X146850000Y-74841757D01*
X146850000Y-74834320D01*
X147150000Y-74834320D01*
X147154122Y-74847005D01*
X147158243Y-74850000D01*
X148034320Y-74850000D01*
X148047005Y-74845878D01*
X148050000Y-74841757D01*
X148050000Y-74135160D01*
X148049052Y-74125538D01*
X148040298Y-74081526D01*
X148032979Y-74063858D01*
X147999611Y-74013918D01*
X147986082Y-74000389D01*
X147936142Y-73967021D01*
X147918474Y-73959702D01*
X147874462Y-73950948D01*
X147864840Y-73950000D01*
X147165680Y-73950000D01*
X147152995Y-73954122D01*
X147150000Y-73958243D01*
X147150000Y-74834320D01*
X146850000Y-74834320D01*
X146850000Y-73965680D01*
X146845878Y-73952995D01*
X146841757Y-73950000D01*
X146135160Y-73950000D01*
X146125538Y-73950948D01*
X146081526Y-73959702D01*
X146063858Y-73967021D01*
X146013918Y-74000389D01*
X146000389Y-74013918D01*
X145967021Y-74063858D01*
X145959702Y-74081526D01*
X145950948Y-74125538D01*
X145950000Y-74135160D01*
X145950000Y-74834320D01*
X122200000Y-74834320D01*
X122200000Y-73033960D01*
X122202518Y-73011773D01*
X122202562Y-73011583D01*
X122205143Y-73000358D01*
X122202682Y-72989483D01*
X122202702Y-72978336D01*
X122202863Y-72978336D01*
X122202076Y-72968331D01*
X122214974Y-72771531D01*
X122216664Y-72758691D01*
X122260067Y-72540489D01*
X122263419Y-72527980D01*
X122334933Y-72317309D01*
X122339889Y-72305346D01*
X122438284Y-72105820D01*
X122444753Y-72094614D01*
X122568365Y-71909615D01*
X122576233Y-71899361D01*
X122722931Y-71732085D01*
X122732086Y-71722930D01*
X122899361Y-71576233D01*
X122909615Y-71568365D01*
X123094614Y-71444753D01*
X123105820Y-71438284D01*
X123223046Y-71380475D01*
X123305347Y-71339889D01*
X123317309Y-71334933D01*
X123527984Y-71263418D01*
X123540484Y-71260068D01*
X123758698Y-71216663D01*
X123771523Y-71214975D01*
X123967819Y-71202109D01*
X123977628Y-71202899D01*
X123977628Y-71202625D01*
X123988778Y-71202645D01*
X123999642Y-71205143D01*
X124010514Y-71202683D01*
X124010516Y-71202683D01*
X124011583Y-71202441D01*
X124033432Y-71200000D01*
X149966040Y-71200000D01*
X149988227Y-71202518D01*
G37*
%TD.AperFunction*%
%TA.AperFunction,Conductor*%
G36*
X137239945Y-88015200D02*
G01*
X137265004Y-88033406D01*
X138615504Y-89383906D01*
X138643281Y-89438423D01*
X138644500Y-89453910D01*
X138644500Y-97621445D01*
X138625593Y-97679636D01*
X138590908Y-97709417D01*
X138533848Y-97738867D01*
X138414291Y-97843164D01*
X138410862Y-97848043D01*
X138349093Y-97935931D01*
X138300164Y-97972668D01*
X138238986Y-97973628D01*
X138207829Y-97957547D01*
X138190775Y-97944461D01*
X138190375Y-97944450D01*
X138183726Y-97948406D01*
X137858218Y-98273914D01*
X137852164Y-98285797D01*
X137852960Y-98290828D01*
X138181958Y-98619826D01*
X138193841Y-98625880D01*
X138194786Y-98625731D01*
X138204991Y-98616968D01*
X138261457Y-98593404D01*
X138320990Y-98607531D01*
X138351655Y-98636860D01*
X138405146Y-98716463D01*
X138409557Y-98720477D01*
X138409559Y-98720479D01*
X138457951Y-98764512D01*
X138522493Y-98823240D01*
X138527736Y-98826087D01*
X138527742Y-98826091D01*
X138538976Y-98832190D01*
X138581094Y-98876572D01*
X138589080Y-98937234D01*
X138559885Y-98991005D01*
X138543837Y-99002409D01*
X138544087Y-99002776D01*
X138539154Y-99006128D01*
X138533848Y-99008867D01*
X138414291Y-99113164D01*
X138410862Y-99118043D01*
X138350824Y-99203468D01*
X138301895Y-99240205D01*
X138240717Y-99241165D01*
X138188241Y-99202618D01*
X138130309Y-99118327D01*
X138023204Y-99022900D01*
X138016304Y-99016752D01*
X138016302Y-99016751D01*
X138011850Y-99012784D01*
X137995617Y-99004189D01*
X137953037Y-98960252D01*
X137944415Y-98899677D01*
X137972305Y-98846327D01*
X137975730Y-98842938D01*
X137970525Y-98832657D01*
X137646086Y-98508218D01*
X137634203Y-98502164D01*
X137629172Y-98502960D01*
X137300500Y-98831632D01*
X137295119Y-98842193D01*
X137299426Y-98846614D01*
X137326488Y-98901489D01*
X137316127Y-98961791D01*
X137273919Y-99003669D01*
X137269154Y-99006128D01*
X137269152Y-99006130D01*
X137263848Y-99008867D01*
X137144291Y-99113164D01*
X137140862Y-99118043D01*
X137080824Y-99203468D01*
X137031895Y-99240205D01*
X136970717Y-99241165D01*
X136918241Y-99202618D01*
X136860309Y-99118327D01*
X136753204Y-99022900D01*
X136746304Y-99016752D01*
X136746302Y-99016751D01*
X136741850Y-99012784D01*
X136725617Y-99004189D01*
X136683037Y-98960252D01*
X136674415Y-98899677D01*
X136702305Y-98846327D01*
X136705730Y-98842938D01*
X136700525Y-98832657D01*
X136376086Y-98508218D01*
X136364203Y-98502164D01*
X136359172Y-98502960D01*
X136030500Y-98831632D01*
X136025119Y-98842193D01*
X136029426Y-98846614D01*
X136056488Y-98901489D01*
X136046127Y-98961791D01*
X136003919Y-99003669D01*
X135999154Y-99006128D01*
X135999152Y-99006130D01*
X135993848Y-99008867D01*
X135874291Y-99113164D01*
X135870862Y-99118043D01*
X135810824Y-99203468D01*
X135761895Y-99240205D01*
X135700717Y-99241165D01*
X135648241Y-99202618D01*
X135590309Y-99118327D01*
X135571810Y-99101845D01*
X135540942Y-99049017D01*
X135547020Y-98988134D01*
X135587724Y-98942452D01*
X135618359Y-98930831D01*
X135618665Y-98930770D01*
X135618666Y-98930770D01*
X135628231Y-98928867D01*
X135694552Y-98884552D01*
X135738867Y-98818231D01*
X135750500Y-98759748D01*
X135750500Y-98716737D01*
X135769407Y-98658546D01*
X135799330Y-98631391D01*
X135816670Y-98621198D01*
X136141782Y-98296086D01*
X136147024Y-98285797D01*
X136582164Y-98285797D01*
X136582960Y-98290828D01*
X136911958Y-98619826D01*
X136923841Y-98625880D01*
X136924785Y-98625731D01*
X136937215Y-98615058D01*
X136993681Y-98591494D01*
X137053213Y-98605620D01*
X137062797Y-98612263D01*
X137079486Y-98625349D01*
X137079600Y-98625353D01*
X137086671Y-98621197D01*
X137411782Y-98296086D01*
X137417836Y-98284203D01*
X137417040Y-98279172D01*
X137088352Y-97950484D01*
X137076469Y-97944430D01*
X137075801Y-97944535D01*
X137064133Y-97954661D01*
X137007791Y-97978520D01*
X136948185Y-97964705D01*
X136938979Y-97958430D01*
X136920774Y-97944461D01*
X136920375Y-97944450D01*
X136913726Y-97948406D01*
X136588218Y-98273914D01*
X136582164Y-98285797D01*
X136147024Y-98285797D01*
X136147836Y-98284203D01*
X136147040Y-98279172D01*
X135818352Y-97950484D01*
X135804556Y-97943455D01*
X135761291Y-97900191D01*
X135750500Y-97855245D01*
X135750500Y-97810252D01*
X135738867Y-97751769D01*
X135722693Y-97727563D01*
X136024576Y-97727563D01*
X136029714Y-97737582D01*
X136353914Y-98061782D01*
X136365797Y-98067836D01*
X136370828Y-98067040D01*
X136699818Y-97738050D01*
X136705116Y-97727652D01*
X136705028Y-97727563D01*
X137294576Y-97727563D01*
X137299714Y-97737582D01*
X137623914Y-98061782D01*
X137635797Y-98067836D01*
X137640828Y-98067040D01*
X137969818Y-97738050D01*
X137975116Y-97727652D01*
X137967400Y-97719814D01*
X137876729Y-97671805D01*
X137865664Y-97667559D01*
X137723486Y-97631846D01*
X137711729Y-97630361D01*
X137565129Y-97629593D01*
X137553361Y-97630955D01*
X137410810Y-97665178D01*
X137399704Y-97669309D01*
X137302655Y-97719399D01*
X137294576Y-97727563D01*
X136705028Y-97727563D01*
X136697400Y-97719814D01*
X136606729Y-97671805D01*
X136595664Y-97667559D01*
X136453486Y-97631846D01*
X136441729Y-97630361D01*
X136295129Y-97629593D01*
X136283361Y-97630955D01*
X136140810Y-97665178D01*
X136129704Y-97669309D01*
X136032655Y-97719399D01*
X136024576Y-97727563D01*
X135722693Y-97727563D01*
X135694552Y-97685448D01*
X135628231Y-97641133D01*
X135618668Y-97639231D01*
X135618666Y-97639230D01*
X135595995Y-97634721D01*
X135569748Y-97629500D01*
X135454500Y-97629500D01*
X135396309Y-97610593D01*
X135360345Y-97561093D01*
X135355500Y-97530500D01*
X135355500Y-89843910D01*
X135374407Y-89785719D01*
X135384496Y-89773906D01*
X136244921Y-88913481D01*
X137124998Y-88033405D01*
X137179513Y-88005629D01*
X137239945Y-88015200D01*
G37*
%TD.AperFunction*%
%TD*%
M02*
